G04 #@! TF.GenerationSoftware,KiCad,Pcbnew,5.1.5+dfsg1-2build2*
G04 #@! TF.CreationDate,2021-08-26T19:06:41+12:00*
G04 #@! TF.ProjectId,bbq-monitor,6262712d-6d6f-46e6-9974-6f722e6b6963,rev?*
G04 #@! TF.SameCoordinates,Original*
G04 #@! TF.FileFunction,Soldermask,Bot*
G04 #@! TF.FilePolarity,Negative*
%FSLAX46Y46*%
G04 Gerber Fmt 4.6, Leading zero omitted, Abs format (unit mm)*
G04 Created by KiCad (PCBNEW 5.1.5+dfsg1-2build2) date 2021-08-26 19:06:41*
%MOMM*%
%LPD*%
G04 APERTURE LIST*
%ADD10O,1.740000X2.200000*%
%ADD11C,0.100000*%
%ADD12C,0.800000*%
%ADD13C,6.400000*%
%ADD14C,1.500000*%
%ADD15R,1.500000X1.500000*%
%ADD16C,0.900000*%
G04 APERTURE END LIST*
D10*
X168740000Y-61800000D03*
D11*
G36*
X166844505Y-60701204D02*
G01*
X166868773Y-60704804D01*
X166892572Y-60710765D01*
X166915671Y-60719030D01*
X166937850Y-60729520D01*
X166958893Y-60742132D01*
X166978599Y-60756747D01*
X166996777Y-60773223D01*
X167013253Y-60791401D01*
X167027868Y-60811107D01*
X167040480Y-60832150D01*
X167050970Y-60854329D01*
X167059235Y-60877428D01*
X167065196Y-60901227D01*
X167068796Y-60925495D01*
X167070000Y-60949999D01*
X167070000Y-62650001D01*
X167068796Y-62674505D01*
X167065196Y-62698773D01*
X167059235Y-62722572D01*
X167050970Y-62745671D01*
X167040480Y-62767850D01*
X167027868Y-62788893D01*
X167013253Y-62808599D01*
X166996777Y-62826777D01*
X166978599Y-62843253D01*
X166958893Y-62857868D01*
X166937850Y-62870480D01*
X166915671Y-62880970D01*
X166892572Y-62889235D01*
X166868773Y-62895196D01*
X166844505Y-62898796D01*
X166820001Y-62900000D01*
X165579999Y-62900000D01*
X165555495Y-62898796D01*
X165531227Y-62895196D01*
X165507428Y-62889235D01*
X165484329Y-62880970D01*
X165462150Y-62870480D01*
X165441107Y-62857868D01*
X165421401Y-62843253D01*
X165403223Y-62826777D01*
X165386747Y-62808599D01*
X165372132Y-62788893D01*
X165359520Y-62767850D01*
X165349030Y-62745671D01*
X165340765Y-62722572D01*
X165334804Y-62698773D01*
X165331204Y-62674505D01*
X165330000Y-62650001D01*
X165330000Y-60949999D01*
X165331204Y-60925495D01*
X165334804Y-60901227D01*
X165340765Y-60877428D01*
X165349030Y-60854329D01*
X165359520Y-60832150D01*
X165372132Y-60811107D01*
X165386747Y-60791401D01*
X165403223Y-60773223D01*
X165421401Y-60756747D01*
X165441107Y-60742132D01*
X165462150Y-60729520D01*
X165484329Y-60719030D01*
X165507428Y-60710765D01*
X165531227Y-60704804D01*
X165555495Y-60701204D01*
X165579999Y-60700000D01*
X166820001Y-60700000D01*
X166844505Y-60701204D01*
G37*
D12*
X189102944Y-61252944D03*
X188400000Y-62950000D03*
X189102944Y-64647056D03*
X190800000Y-65350000D03*
X192497056Y-64647056D03*
X193200000Y-62950000D03*
X192497056Y-61252944D03*
X190800000Y-60550000D03*
D13*
X190800000Y-62950000D03*
X150800000Y-62800000D03*
D12*
X150800000Y-60400000D03*
X152497056Y-61102944D03*
X153200000Y-62800000D03*
X152497056Y-64497056D03*
X150800000Y-65200000D03*
X149102944Y-64497056D03*
X148400000Y-62800000D03*
X149102944Y-61102944D03*
D13*
X150900000Y-96800000D03*
D12*
X150900000Y-94400000D03*
X152597056Y-95102944D03*
X153300000Y-96800000D03*
X152597056Y-98497056D03*
X150900000Y-99200000D03*
X149202944Y-98497056D03*
X148500000Y-96800000D03*
X149202944Y-95102944D03*
D14*
X184200000Y-61880000D03*
X184200000Y-64420000D03*
X184200000Y-66960000D03*
D15*
X184200000Y-69500000D03*
D10*
X178290000Y-61750000D03*
D11*
G36*
X176394505Y-60651204D02*
G01*
X176418773Y-60654804D01*
X176442572Y-60660765D01*
X176465671Y-60669030D01*
X176487850Y-60679520D01*
X176508893Y-60692132D01*
X176528599Y-60706747D01*
X176546777Y-60723223D01*
X176563253Y-60741401D01*
X176577868Y-60761107D01*
X176590480Y-60782150D01*
X176600970Y-60804329D01*
X176609235Y-60827428D01*
X176615196Y-60851227D01*
X176618796Y-60875495D01*
X176620000Y-60899999D01*
X176620000Y-62600001D01*
X176618796Y-62624505D01*
X176615196Y-62648773D01*
X176609235Y-62672572D01*
X176600970Y-62695671D01*
X176590480Y-62717850D01*
X176577868Y-62738893D01*
X176563253Y-62758599D01*
X176546777Y-62776777D01*
X176528599Y-62793253D01*
X176508893Y-62807868D01*
X176487850Y-62820480D01*
X176465671Y-62830970D01*
X176442572Y-62839235D01*
X176418773Y-62845196D01*
X176394505Y-62848796D01*
X176370001Y-62850000D01*
X175129999Y-62850000D01*
X175105495Y-62848796D01*
X175081227Y-62845196D01*
X175057428Y-62839235D01*
X175034329Y-62830970D01*
X175012150Y-62820480D01*
X174991107Y-62807868D01*
X174971401Y-62793253D01*
X174953223Y-62776777D01*
X174936747Y-62758599D01*
X174922132Y-62738893D01*
X174909520Y-62717850D01*
X174899030Y-62695671D01*
X174890765Y-62672572D01*
X174884804Y-62648773D01*
X174881204Y-62624505D01*
X174880000Y-62600001D01*
X174880000Y-60899999D01*
X174881204Y-60875495D01*
X174884804Y-60851227D01*
X174890765Y-60827428D01*
X174899030Y-60804329D01*
X174909520Y-60782150D01*
X174922132Y-60761107D01*
X174936747Y-60741401D01*
X174953223Y-60723223D01*
X174971401Y-60706747D01*
X174991107Y-60692132D01*
X175012150Y-60679520D01*
X175034329Y-60669030D01*
X175057428Y-60660765D01*
X175081227Y-60654804D01*
X175105495Y-60651204D01*
X175129999Y-60650000D01*
X176370001Y-60650000D01*
X176394505Y-60651204D01*
G37*
D16*
X152100000Y-83600000D03*
X152100000Y-88000000D03*
M02*
