G04 #@! TF.GenerationSoftware,KiCad,Pcbnew,5.1.5+dfsg1-2build2*
G04 #@! TF.CreationDate,2022-06-24T13:23:12+12:00*
G04 #@! TF.ProjectId,bbq-monitor,6262712d-6d6f-46e6-9974-6f722e6b6963,rev?*
G04 #@! TF.SameCoordinates,Original*
G04 #@! TF.FileFunction,Legend,Top*
G04 #@! TF.FilePolarity,Positive*
%FSLAX46Y46*%
G04 Gerber Fmt 4.6, Leading zero omitted, Abs format (unit mm)*
G04 Created by KiCad (PCBNEW 5.1.5+dfsg1-2build2) date 2022-06-24 13:23:12*
%MOMM*%
%LPD*%
G04 APERTURE LIST*
%ADD10C,0.150000*%
%ADD11C,0.300000*%
%ADD12C,0.120000*%
%ADD13C,0.152400*%
%ADD14C,0.050800*%
G04 APERTURE END LIST*
D10*
X183874352Y-89457280D02*
X183874352Y-90171566D01*
X183826733Y-90314423D01*
X183731495Y-90409661D01*
X183588638Y-90457280D01*
X183493400Y-90457280D01*
X184826733Y-90457280D02*
X184350542Y-90457280D01*
X184350542Y-89457280D01*
X185731495Y-90362042D02*
X185683876Y-90409661D01*
X185541019Y-90457280D01*
X185445780Y-90457280D01*
X185302923Y-90409661D01*
X185207685Y-90314423D01*
X185160066Y-90219185D01*
X185112447Y-90028709D01*
X185112447Y-89885852D01*
X185160066Y-89695376D01*
X185207685Y-89600138D01*
X185302923Y-89504900D01*
X185445780Y-89457280D01*
X185541019Y-89457280D01*
X185683876Y-89504900D01*
X185731495Y-89552519D01*
X186445780Y-89457280D02*
X186445780Y-90171566D01*
X186398161Y-90314423D01*
X186302923Y-90409661D01*
X186160066Y-90457280D01*
X186064828Y-90457280D01*
X187398161Y-90457280D02*
X186921971Y-90457280D01*
X186921971Y-89457280D01*
X188302923Y-90362042D02*
X188255304Y-90409661D01*
X188112447Y-90457280D01*
X188017209Y-90457280D01*
X187874352Y-90409661D01*
X187779114Y-90314423D01*
X187731495Y-90219185D01*
X187683876Y-90028709D01*
X187683876Y-89885852D01*
X187731495Y-89695376D01*
X187779114Y-89600138D01*
X187874352Y-89504900D01*
X188017209Y-89457280D01*
X188112447Y-89457280D01*
X188255304Y-89504900D01*
X188302923Y-89552519D01*
X189017209Y-89457280D02*
X189017209Y-90171566D01*
X188969590Y-90314423D01*
X188874352Y-90409661D01*
X188731495Y-90457280D01*
X188636257Y-90457280D01*
X189969590Y-90457280D02*
X189493400Y-90457280D01*
X189493400Y-89457280D01*
X190874352Y-90362042D02*
X190826733Y-90409661D01*
X190683876Y-90457280D01*
X190588638Y-90457280D01*
X190445780Y-90409661D01*
X190350542Y-90314423D01*
X190302923Y-90219185D01*
X190255304Y-90028709D01*
X190255304Y-89885852D01*
X190302923Y-89695376D01*
X190350542Y-89600138D01*
X190445780Y-89504900D01*
X190588638Y-89457280D01*
X190683876Y-89457280D01*
X190826733Y-89504900D01*
X190874352Y-89552519D01*
X191588638Y-89457280D02*
X191588638Y-90171566D01*
X191541019Y-90314423D01*
X191445780Y-90409661D01*
X191302923Y-90457280D01*
X191207685Y-90457280D01*
X192541019Y-90457280D02*
X192064828Y-90457280D01*
X192064828Y-89457280D01*
X193445780Y-90362042D02*
X193398161Y-90409661D01*
X193255304Y-90457280D01*
X193160066Y-90457280D01*
X193017209Y-90409661D01*
X192921971Y-90314423D01*
X192874352Y-90219185D01*
X192826733Y-90028709D01*
X192826733Y-89885852D01*
X192874352Y-89695376D01*
X192921971Y-89600138D01*
X193017209Y-89504900D01*
X193160066Y-89457280D01*
X193255304Y-89457280D01*
X193398161Y-89504900D01*
X193445780Y-89552519D01*
X169532466Y-110980480D02*
X169532466Y-109980480D01*
X169913419Y-109980480D01*
X170008657Y-110028100D01*
X170056276Y-110075719D01*
X170103895Y-110170957D01*
X170103895Y-110313814D01*
X170056276Y-110409052D01*
X170008657Y-110456671D01*
X169913419Y-110504290D01*
X169532466Y-110504290D01*
X170437228Y-109980480D02*
X170675323Y-110980480D01*
X170865800Y-110266195D01*
X171056276Y-110980480D01*
X171294371Y-109980480D01*
X172246752Y-110980480D02*
X171913419Y-110504290D01*
X171675323Y-110980480D02*
X171675323Y-109980480D01*
X172056276Y-109980480D01*
X172151514Y-110028100D01*
X172199133Y-110075719D01*
X172246752Y-110170957D01*
X172246752Y-110313814D01*
X172199133Y-110409052D01*
X172151514Y-110456671D01*
X172056276Y-110504290D01*
X171675323Y-110504290D01*
X199796495Y-110450380D02*
X200367923Y-110450380D01*
X200082209Y-111450380D02*
X200082209Y-110450380D01*
X200606019Y-110450380D02*
X201272685Y-111450380D01*
X201272685Y-110450380D02*
X200606019Y-111450380D01*
X197127833Y-111539280D02*
X196794500Y-111063090D01*
X196556404Y-111539280D02*
X196556404Y-110539280D01*
X196937357Y-110539280D01*
X197032595Y-110586900D01*
X197080214Y-110634519D01*
X197127833Y-110729757D01*
X197127833Y-110872614D01*
X197080214Y-110967852D01*
X197032595Y-111015471D01*
X196937357Y-111063090D01*
X196556404Y-111063090D01*
X197461166Y-110539280D02*
X198127833Y-111539280D01*
X198127833Y-110539280D02*
X197461166Y-111539280D01*
X206857647Y-93276728D02*
X207619552Y-93276728D01*
X207238600Y-93657680D02*
X207238600Y-92895776D01*
X171958047Y-97086728D02*
X172719952Y-97086728D01*
X172339000Y-97467680D02*
X172339000Y-96705776D01*
D11*
X206349042Y-114343571D02*
X206349042Y-112843571D01*
X206349042Y-113557857D02*
X207206185Y-113557857D01*
X207206185Y-114343571D02*
X207206185Y-112843571D01*
X207920471Y-114200714D02*
X207991900Y-114272142D01*
X207920471Y-114343571D01*
X207849042Y-114272142D01*
X207920471Y-114200714D01*
X207920471Y-114343571D01*
X208634757Y-114343571D02*
X208634757Y-112843571D01*
X208991900Y-112843571D01*
X209206185Y-112915000D01*
X209349042Y-113057857D01*
X209420471Y-113200714D01*
X209491900Y-113486428D01*
X209491900Y-113700714D01*
X209420471Y-113986428D01*
X209349042Y-114129285D01*
X209206185Y-114272142D01*
X208991900Y-114343571D01*
X208634757Y-114343571D01*
X210134757Y-114200714D02*
X210206185Y-114272142D01*
X210134757Y-114343571D01*
X210063328Y-114272142D01*
X210134757Y-114200714D01*
X210134757Y-114343571D01*
X174859142Y-85295528D02*
X174787714Y-85509814D01*
X174716285Y-85581242D01*
X174573428Y-85652671D01*
X174359142Y-85652671D01*
X174216285Y-85581242D01*
X174144857Y-85509814D01*
X174073428Y-85366957D01*
X174073428Y-84795528D01*
X175573428Y-84795528D01*
X175573428Y-85295528D01*
X175502000Y-85438385D01*
X175430571Y-85509814D01*
X175287714Y-85581242D01*
X175144857Y-85581242D01*
X175002000Y-85509814D01*
X174930571Y-85438385D01*
X174859142Y-85295528D01*
X174859142Y-84795528D01*
X174859142Y-86795528D02*
X174787714Y-87009814D01*
X174716285Y-87081242D01*
X174573428Y-87152671D01*
X174359142Y-87152671D01*
X174216285Y-87081242D01*
X174144857Y-87009814D01*
X174073428Y-86866957D01*
X174073428Y-86295528D01*
X175573428Y-86295528D01*
X175573428Y-86795528D01*
X175502000Y-86938385D01*
X175430571Y-87009814D01*
X175287714Y-87081242D01*
X175144857Y-87081242D01*
X175002000Y-87009814D01*
X174930571Y-86938385D01*
X174859142Y-86795528D01*
X174859142Y-86295528D01*
X173930571Y-88795528D02*
X174002000Y-88652671D01*
X174144857Y-88509814D01*
X174359142Y-88295528D01*
X174430571Y-88152671D01*
X174430571Y-88009814D01*
X174073428Y-88081242D02*
X174144857Y-87938385D01*
X174287714Y-87795528D01*
X174573428Y-87724100D01*
X175073428Y-87724100D01*
X175359142Y-87795528D01*
X175502000Y-87938385D01*
X175573428Y-88081242D01*
X175573428Y-88366957D01*
X175502000Y-88509814D01*
X175359142Y-88652671D01*
X175073428Y-88724100D01*
X174573428Y-88724100D01*
X174287714Y-88652671D01*
X174144857Y-88509814D01*
X174073428Y-88366957D01*
X174073428Y-88081242D01*
X174644857Y-89366957D02*
X174644857Y-90509814D01*
X174859142Y-91224100D02*
X174859142Y-91724100D01*
X174073428Y-91938385D02*
X174073428Y-91224100D01*
X175573428Y-91224100D01*
X175573428Y-91938385D01*
X174144857Y-92509814D02*
X174073428Y-92724100D01*
X174073428Y-93081242D01*
X174144857Y-93224100D01*
X174216285Y-93295528D01*
X174359142Y-93366957D01*
X174502000Y-93366957D01*
X174644857Y-93295528D01*
X174716285Y-93224100D01*
X174787714Y-93081242D01*
X174859142Y-92795528D01*
X174930571Y-92652671D01*
X175002000Y-92581242D01*
X175144857Y-92509814D01*
X175287714Y-92509814D01*
X175430571Y-92581242D01*
X175502000Y-92652671D01*
X175573428Y-92795528D01*
X175573428Y-93152671D01*
X175502000Y-93366957D01*
X174073428Y-94009814D02*
X175573428Y-94009814D01*
X175573428Y-94581242D01*
X175502000Y-94724100D01*
X175430571Y-94795528D01*
X175287714Y-94866957D01*
X175073428Y-94866957D01*
X174930571Y-94795528D01*
X174859142Y-94724100D01*
X174787714Y-94581242D01*
X174787714Y-94009814D01*
X175573428Y-95366957D02*
X175573428Y-96295528D01*
X175002000Y-95795528D01*
X175002000Y-96009814D01*
X174930571Y-96152671D01*
X174859142Y-96224100D01*
X174716285Y-96295528D01*
X174359142Y-96295528D01*
X174216285Y-96224100D01*
X174144857Y-96152671D01*
X174073428Y-96009814D01*
X174073428Y-95581242D01*
X174144857Y-95438385D01*
X174216285Y-95366957D01*
X175430571Y-96866957D02*
X175502000Y-96938385D01*
X175573428Y-97081242D01*
X175573428Y-97438385D01*
X175502000Y-97581242D01*
X175430571Y-97652671D01*
X175287714Y-97724100D01*
X175144857Y-97724100D01*
X174930571Y-97652671D01*
X174073428Y-96795528D01*
X174073428Y-97724100D01*
D12*
X203037000Y-94034600D02*
X211237000Y-93984600D01*
X203037000Y-104034600D02*
X211237000Y-104034600D01*
X203037000Y-104034600D02*
X203037000Y-94034600D01*
X211237000Y-104034600D02*
X211237000Y-94034600D01*
X171633320Y-99391480D02*
X163433320Y-99441480D01*
X171633320Y-89391480D02*
X163433320Y-89391480D01*
X171633320Y-89391480D02*
X171633320Y-99391480D01*
X163433320Y-89391480D02*
X163433320Y-99391480D01*
X177243200Y-101038879D02*
X177243200Y-100713321D01*
X176223200Y-101038879D02*
X176223200Y-100713321D01*
X165735880Y-79843240D02*
X165735880Y-86303240D01*
X170265880Y-79843240D02*
X167665880Y-79843240D01*
X172195880Y-79843240D02*
X172195880Y-86303240D01*
X170265880Y-86303240D02*
X167665880Y-86303240D01*
X172165880Y-79843240D02*
X172195880Y-79843240D01*
X165735880Y-79843240D02*
X165765880Y-79843240D01*
X165735880Y-86303240D02*
X165765880Y-86303240D01*
X172195880Y-86303240D02*
X172165880Y-86303240D01*
X203476320Y-106243339D02*
X203476320Y-105917781D01*
X202456320Y-106243339D02*
X202456320Y-105917781D01*
X189316000Y-104532000D02*
X189316000Y-102082000D01*
X186096000Y-102732000D02*
X186096000Y-104532000D01*
X181424040Y-112217419D02*
X181424040Y-111891861D01*
X180404040Y-112217419D02*
X180404040Y-111891861D01*
X172026000Y-102458000D02*
X173486000Y-102458000D01*
X172026000Y-105618000D02*
X174186000Y-105618000D01*
X172026000Y-105618000D02*
X172026000Y-104688000D01*
X172026000Y-102458000D02*
X172026000Y-103388000D01*
X175513000Y-99957000D02*
X171628000Y-99957000D01*
X175513000Y-102227000D02*
X175513000Y-99957000D01*
X171628000Y-102227000D02*
X175513000Y-102227000D01*
X171991000Y-105943000D02*
X168106000Y-105943000D01*
X171991000Y-108213000D02*
X171991000Y-105943000D01*
X168106000Y-108213000D02*
X171991000Y-108213000D01*
X178436000Y-78646779D02*
X178436000Y-78321221D01*
X177416000Y-78646779D02*
X177416000Y-78321221D01*
X201135000Y-105090000D02*
X201610000Y-105090000D01*
X201610000Y-105090000D02*
X201610000Y-105565000D01*
X197865000Y-109310000D02*
X197390000Y-109310000D01*
X197390000Y-109310000D02*
X197390000Y-108835000D01*
X201135000Y-109310000D02*
X201610000Y-109310000D01*
X201610000Y-109310000D02*
X201610000Y-108835000D01*
X197865000Y-105090000D02*
X197390000Y-105090000D01*
X181246400Y-106362140D02*
X181721400Y-106362140D01*
X178501400Y-103142140D02*
X178501400Y-103617140D01*
X178976400Y-103142140D02*
X178501400Y-103142140D01*
X181721400Y-103142140D02*
X181721400Y-103617140D01*
X181246400Y-103142140D02*
X181721400Y-103142140D01*
X178501400Y-106362140D02*
X178501400Y-105887140D01*
X178976400Y-106362140D02*
X178501400Y-106362140D01*
X178216000Y-92454279D02*
X178216000Y-92128721D01*
X177196000Y-92454279D02*
X177196000Y-92128721D01*
X178216000Y-95566779D02*
X178216000Y-95241221D01*
X177196000Y-95566779D02*
X177196000Y-95241221D01*
X169169299Y-108603320D02*
X168843741Y-108603320D01*
X169169299Y-109623320D02*
X168843741Y-109623320D01*
X197647879Y-99976400D02*
X197322321Y-99976400D01*
X197647879Y-98956400D02*
X197322321Y-98956400D01*
X193012600Y-104383521D02*
X193012600Y-104709079D01*
X194032600Y-104383521D02*
X194032600Y-104709079D01*
X182547800Y-104292181D02*
X182547800Y-104617739D01*
X183567800Y-104292181D02*
X183567800Y-104617739D01*
X184978580Y-98193641D02*
X184978580Y-98519199D01*
X185998580Y-98193641D02*
X185998580Y-98519199D01*
X178636200Y-98280001D02*
X178636200Y-98605559D01*
X179656200Y-98280001D02*
X179656200Y-98605559D01*
X200011279Y-82904000D02*
X199685721Y-82904000D01*
X200011279Y-83924000D02*
X199685721Y-83924000D01*
X200018779Y-81184000D02*
X199693221Y-81184000D01*
X200018779Y-82204000D02*
X199693221Y-82204000D01*
X177218779Y-80254000D02*
X176893221Y-80254000D01*
X177218779Y-81274000D02*
X176893221Y-81274000D01*
X201549120Y-102018560D02*
X201549120Y-103478560D01*
X198389120Y-102018560D02*
X198389120Y-104178560D01*
X198389120Y-102018560D02*
X199319120Y-102018560D01*
X201549120Y-102018560D02*
X200619120Y-102018560D01*
X197881360Y-102008400D02*
X196951360Y-102008400D01*
X194721360Y-102008400D02*
X195651360Y-102008400D01*
X194721360Y-102008400D02*
X194721360Y-104168400D01*
X197881360Y-102008400D02*
X197881360Y-103468400D01*
X168426000Y-102428000D02*
X169886000Y-102428000D01*
X168426000Y-105588000D02*
X170586000Y-105588000D01*
X168426000Y-105588000D02*
X168426000Y-104658000D01*
X168426000Y-102428000D02*
X168426000Y-103358000D01*
X180456464Y-107280880D02*
X179252336Y-107280880D01*
X180456464Y-110000880D02*
X179252336Y-110000880D01*
X192174000Y-116500000D02*
X192174000Y-114840000D01*
X184254000Y-116500000D02*
X192174000Y-116500000D01*
X184254000Y-114840000D02*
X184254000Y-116500000D01*
X190264000Y-107030000D02*
X191414000Y-107030000D01*
X186164000Y-106440000D02*
X186864000Y-106440000D01*
X186164000Y-107030000D02*
X186164000Y-106440000D01*
X185014000Y-107030000D02*
X186164000Y-107030000D01*
X192174000Y-109340000D02*
X192174000Y-111940000D01*
X184254000Y-111940000D02*
X184254000Y-109340000D01*
X167026000Y-102852304D02*
X167026000Y-101648176D01*
X165206000Y-102852304D02*
X165206000Y-101648176D01*
X184631000Y-99821100D02*
X184631000Y-97536100D01*
X183161000Y-99821100D02*
X184631000Y-99821100D01*
X183161000Y-97536100D02*
X183161000Y-99821100D01*
X181466160Y-99826180D02*
X181466160Y-97541180D01*
X179996160Y-99826180D02*
X181466160Y-99826180D01*
X179996160Y-97541180D02*
X179996160Y-99826180D01*
X195527200Y-109075001D02*
X195527200Y-109400559D01*
X196547200Y-109075001D02*
X196547200Y-109400559D01*
X175029400Y-108346021D02*
X175029400Y-108671579D01*
X176049400Y-108346021D02*
X176049400Y-108671579D01*
X176846000Y-78656779D02*
X176846000Y-78331221D01*
X175826000Y-78656779D02*
X175826000Y-78331221D01*
X178942681Y-102292880D02*
X179268239Y-102292880D01*
X178942681Y-101272880D02*
X179268239Y-101272880D01*
X177286000Y-82903721D02*
X177286000Y-83229279D01*
X178306000Y-82903721D02*
X178306000Y-83229279D01*
X174823660Y-103845141D02*
X174823660Y-104170699D01*
X175843660Y-103845141D02*
X175843660Y-104170699D01*
X197693820Y-113245681D02*
X197693820Y-113571239D01*
X198713820Y-113245681D02*
X198713820Y-113571239D01*
X199296300Y-113235901D02*
X199296300Y-113561459D01*
X200316300Y-113235901D02*
X200316300Y-113561459D01*
X169461720Y-112557241D02*
X169461720Y-112882799D01*
X170481720Y-112557241D02*
X170481720Y-112882799D01*
D13*
X200929240Y-87977980D02*
X200929240Y-92295980D01*
X204840840Y-87977980D02*
G75*
G03X204459840Y-87596980I-381000J0D01*
G01*
X201310240Y-92676980D02*
G75*
G02X200929240Y-92295980I0J381000D01*
G01*
X200929240Y-87977980D02*
G75*
G02X201310240Y-87596980I381000J0D01*
G01*
X204459840Y-92676980D02*
G75*
G03X204840840Y-92295980I0J381000D01*
G01*
X204840840Y-92295980D02*
X204840840Y-87977980D01*
X204459840Y-87596980D02*
X201310240Y-87596980D01*
X201310240Y-92676980D02*
X204459840Y-92676980D01*
X202377040Y-92676980D02*
G75*
G02X203393040Y-92676980I508000J0D01*
G01*
D14*
X204485240Y-92676980D02*
X204485240Y-87596980D01*
D12*
X197277660Y-114837580D02*
X197277660Y-112552580D01*
X195807660Y-114837580D02*
X197277660Y-114837580D01*
X195807660Y-112552580D02*
X195807660Y-114837580D01*
X202164620Y-114865420D02*
X202164620Y-112580420D01*
X200694620Y-114865420D02*
X202164620Y-114865420D01*
X200694620Y-112580420D02*
X200694620Y-114865420D01*
X172540600Y-114235600D02*
X172540600Y-111950600D01*
X171070600Y-114235600D02*
X172540600Y-114235600D01*
X171070600Y-111950600D02*
X171070600Y-114235600D01*
X206311281Y-87306880D02*
X206636839Y-87306880D01*
X206311281Y-86286880D02*
X206636839Y-86286880D01*
X179296000Y-76849000D02*
X178916000Y-76849000D01*
X179296000Y-70429000D02*
X179296000Y-76849000D01*
X197536000Y-70429000D02*
X197536000Y-76849000D01*
X179296000Y-70429000D02*
X197536000Y-70429000D01*
X197536000Y-96174000D02*
X196536000Y-96174000D01*
X197536000Y-95394000D02*
X197536000Y-96174000D01*
X179296000Y-96174000D02*
X180296000Y-96174000D01*
X179296000Y-95394000D02*
X179296000Y-96174000D01*
M02*
