M48
; DRILL file {KiCad 5.1.5+dfsg1-2build2} date Fri 24 Jun 2022 13:23:10
; FORMAT={-:-/ absolute / metric / decimal}
; #@! TF.CreationDate,2022-06-24T13:23:10+12:00
; #@! TF.GenerationSoftware,Kicad,Pcbnew,5.1.5+dfsg1-2build2
FMAT,2
METRIC
T1C0.200
T2C0.400
T3C1.300
T4C0.900
T5C3.200
%
G90
G05
T1
X179.521Y-104.162
X179.521Y-105.342
X180.701Y-104.162
X180.701Y-105.342
T2
X166.695Y-85.481
X166.7Y-80.66
X168.016Y-87.193
X168.057Y-79.024
X168.732Y-111.823
X171.069Y-109.063
X172.73Y-111.811
X174.831Y-80.538
X174.846Y-79.522
X174.932Y-78.306
X174.953Y-105.976
X175.014Y-77.63
X175.186Y-81.717
X175.572Y-110.553
X175.816Y-105.951
X176.406Y-84.033
X176.987Y-109.317
X177.028Y-108.402
X177.053Y-107.406
X177.16Y-110.424
X177.373Y-106.495
X177.6Y-89.8
X177.777Y-85.242
X177.884Y-97.942
X177.922Y-98.897
X178.067Y-100.419
X178.224Y-110.637
X179.69Y-112.908
X179.832Y-100.579
X180.924Y-114.041
X181.061Y-102.22
X181.082Y-101.341
X181.707Y-77.711
X181.707Y-78.549
X182.512Y-93.749
X182.689Y-78.034
X183.012Y-80.742
X183.421Y-93.729
X184.346Y-104.544
X184.371Y-105.54
X185.496Y-102.492
X185.768Y-83.754
X185.829Y-86.726
X185.834Y-84.93
X186.731Y-98.405
X186.779Y-97.518
X186.896Y-87.493
X187.429Y-86.045
X187.447Y-84.851
X187.462Y-83.787
X187.703Y-100.914
X188.671Y-84.851
X188.915Y-87.366
X188.946Y-83.657
X188.963Y-85.964
X190.061Y-102.525
X190.851Y-108.496
X194.673Y-110.198
X194.686Y-108.961
X194.732Y-78.839
X194.752Y-78.026
X194.762Y-106.434
X194.762Y-107.484
X195.146Y-113.124
X195.169Y-112.227
X195.519Y-105.303
X196.431Y-105.893
X198.816Y-78.76
X198.836Y-77.909
X199.96Y-100.609
X202.74Y-113.325
X202.763Y-112.418
X202.789Y-103.952
X204.282Y-104.846
X204.33Y-86.764
X204.33Y-105.743
X205.651Y-85.463
X207.32Y-85.476
X207.597Y-90.691
X207.597Y-92.062
X208.412Y-86.822
T3
X207.137Y-96.535
X207.137Y-101.535
X167.533Y-91.891
X167.533Y-96.891
T4
X186.014Y-110.49
X190.414Y-110.49
T5
X163.957Y-114.3
X209.994Y-77.064
T0
M30
