G04 #@! TF.GenerationSoftware,KiCad,Pcbnew,5.1.5+dfsg1-2build2*
G04 #@! TF.CreationDate,2022-06-24T13:23:12+12:00*
G04 #@! TF.ProjectId,bbq-monitor,6262712d-6d6f-46e6-9974-6f722e6b6963,rev?*
G04 #@! TF.SameCoordinates,Original*
G04 #@! TF.FileFunction,Copper,L3,Inr*
G04 #@! TF.FilePolarity,Positive*
%FSLAX46Y46*%
G04 Gerber Fmt 4.6, Leading zero omitted, Abs format (unit mm)*
G04 Created by KiCad (PCBNEW 5.1.5+dfsg1-2build2) date 2022-06-24 13:23:12*
%MOMM*%
%LPD*%
G04 APERTURE LIST*
%ADD10C,3.000000*%
%ADD11C,0.500000*%
%ADD12C,0.800000*%
%ADD13C,0.254000*%
G04 APERTURE END LIST*
D10*
X207137000Y-96534600D03*
X207137000Y-101534600D03*
X167533320Y-96891480D03*
X167533320Y-91891480D03*
D11*
X179521400Y-104162140D03*
X180701400Y-104162140D03*
X179521400Y-105342140D03*
X180701400Y-105342140D03*
D12*
X186895740Y-87492840D03*
X185828940Y-86725760D03*
X188915040Y-87365840D03*
X188963300Y-85963760D03*
X187429140Y-86045040D03*
X188671200Y-84851240D03*
X187446920Y-84851240D03*
X185834020Y-84929980D03*
X188945520Y-83657440D03*
X187462160Y-83786980D03*
X185767980Y-83753960D03*
X181706520Y-77711300D03*
X181706520Y-78549500D03*
X182689500Y-78033880D03*
X175013620Y-77630020D03*
X174932340Y-78305660D03*
X194751960Y-78026260D03*
X198836280Y-77909420D03*
X198815960Y-78760320D03*
X194731640Y-78839060D03*
X174952660Y-105976420D03*
X175572420Y-110553500D03*
X182511700Y-93748860D03*
X183421020Y-93728540D03*
X177883820Y-97942400D03*
X177921920Y-98897440D03*
X181081680Y-101340920D03*
X181061360Y-102219760D03*
X187703460Y-100914200D03*
X175816260Y-105951020D03*
X177777140Y-85242400D03*
X176405540Y-84033360D03*
X190850520Y-108496100D03*
X186778900Y-97518220D03*
X186730640Y-98404680D03*
X194673220Y-110197900D03*
X196430900Y-105892600D03*
X204282040Y-104846120D03*
X204330300Y-105742740D03*
X207319880Y-85476080D03*
X208412080Y-86822280D03*
X207596740Y-92062300D03*
X207596740Y-90690700D03*
X177600000Y-89800000D03*
X178066700Y-100418900D03*
X179832000Y-100578920D03*
X171069000Y-109062520D03*
X179689760Y-112908080D03*
X180924200Y-114040920D03*
X166695120Y-85481160D03*
X168015920Y-87193120D03*
X166700200Y-80660240D03*
X168056560Y-79024480D03*
X168732200Y-111823500D03*
X199960170Y-100609205D03*
X183012080Y-80741520D03*
X172730160Y-111810800D03*
X204330300Y-86763860D03*
X205651100Y-85463380D03*
X195168520Y-112227360D03*
X195145660Y-113123980D03*
X202763120Y-112417860D03*
X202740260Y-113324640D03*
X194685920Y-108960920D03*
X184345580Y-104543860D03*
X184370980Y-105539540D03*
X177053240Y-107406440D03*
X177027840Y-108402120D03*
X176987200Y-109316520D03*
X177373280Y-106494580D03*
X177159920Y-110423960D03*
X178224180Y-110637320D03*
X174845980Y-79522320D03*
X174830740Y-80538320D03*
X175186340Y-81716880D03*
X195519040Y-105303320D03*
X202788520Y-103952040D03*
X194762120Y-107484400D03*
X185496200Y-102491540D03*
X194762120Y-106434400D03*
X190060580Y-102524560D03*
D13*
G36*
X174018394Y-77328122D02*
G01*
X173978620Y-77528081D01*
X173978620Y-77731959D01*
X174001680Y-77847888D01*
X173937114Y-78003762D01*
X173897340Y-78203721D01*
X173897340Y-78407599D01*
X173937114Y-78607558D01*
X174015135Y-78795916D01*
X174128403Y-78965434D01*
X174272566Y-79109597D01*
X174442084Y-79222865D01*
X174630442Y-79300886D01*
X174830401Y-79340660D01*
X175034279Y-79340660D01*
X175234238Y-79300886D01*
X175422596Y-79222865D01*
X175592114Y-79109597D01*
X175736277Y-78965434D01*
X175849545Y-78795916D01*
X175927566Y-78607558D01*
X175967340Y-78407599D01*
X175967340Y-78203721D01*
X175944280Y-78087792D01*
X176008846Y-77931918D01*
X176048620Y-77731959D01*
X176048620Y-77528081D01*
X176008846Y-77328122D01*
X175936837Y-77154278D01*
X180804624Y-77198132D01*
X180789315Y-77221044D01*
X180711294Y-77409402D01*
X180671520Y-77609361D01*
X180671520Y-77813239D01*
X180711294Y-78013198D01*
X180759841Y-78130400D01*
X180711294Y-78247602D01*
X180671520Y-78447561D01*
X180671520Y-78651439D01*
X180711294Y-78851398D01*
X180789315Y-79039756D01*
X180902583Y-79209274D01*
X181046746Y-79353437D01*
X181216264Y-79466705D01*
X181404622Y-79544726D01*
X181604581Y-79584500D01*
X181808459Y-79584500D01*
X182008418Y-79544726D01*
X182196776Y-79466705D01*
X182366294Y-79353437D01*
X182510457Y-79209274D01*
X182604265Y-79068880D01*
X182791439Y-79068880D01*
X182991398Y-79029106D01*
X183179756Y-78951085D01*
X183349274Y-78837817D01*
X183493437Y-78693654D01*
X183606705Y-78524136D01*
X183684726Y-78335778D01*
X183724500Y-78135819D01*
X183724500Y-77931941D01*
X183684726Y-77731982D01*
X183606705Y-77543624D01*
X183493437Y-77374106D01*
X183349274Y-77229943D01*
X183335794Y-77220936D01*
X193997522Y-77316987D01*
X193948023Y-77366486D01*
X193834755Y-77536004D01*
X193756734Y-77724362D01*
X193716960Y-77924321D01*
X193716960Y-78128199D01*
X193756734Y-78328158D01*
X193789860Y-78408132D01*
X193736414Y-78537162D01*
X193696640Y-78737121D01*
X193696640Y-78940999D01*
X193736414Y-79140958D01*
X193814435Y-79329316D01*
X193927703Y-79498834D01*
X194071866Y-79642997D01*
X194241384Y-79756265D01*
X194429742Y-79834286D01*
X194629701Y-79874060D01*
X194833579Y-79874060D01*
X195033538Y-79834286D01*
X195221896Y-79756265D01*
X195391414Y-79642997D01*
X195535577Y-79498834D01*
X195648845Y-79329316D01*
X195726866Y-79140958D01*
X195766640Y-78940999D01*
X195766640Y-78737121D01*
X195726866Y-78537162D01*
X195693740Y-78457188D01*
X195747186Y-78328158D01*
X195786960Y-78128199D01*
X195786960Y-77924321D01*
X195747186Y-77724362D01*
X195669165Y-77536004D01*
X195555897Y-77366486D01*
X195520115Y-77330704D01*
X197963474Y-77352716D01*
X197919075Y-77419164D01*
X197841054Y-77607522D01*
X197801280Y-77807481D01*
X197801280Y-78011359D01*
X197841054Y-78211318D01*
X197882071Y-78310342D01*
X197820734Y-78458422D01*
X197780960Y-78658381D01*
X197780960Y-78862259D01*
X197820734Y-79062218D01*
X197898755Y-79250576D01*
X198012023Y-79420094D01*
X198156186Y-79564257D01*
X198325704Y-79677525D01*
X198514062Y-79755546D01*
X198714021Y-79795320D01*
X198917899Y-79795320D01*
X199117858Y-79755546D01*
X199306216Y-79677525D01*
X199475734Y-79564257D01*
X199619897Y-79420094D01*
X199733165Y-79250576D01*
X199811186Y-79062218D01*
X199850960Y-78862259D01*
X199850960Y-78658381D01*
X199811186Y-78458422D01*
X199770169Y-78359398D01*
X199831506Y-78211318D01*
X199871280Y-78011359D01*
X199871280Y-77807481D01*
X199831506Y-77607522D01*
X199753485Y-77419164D01*
X199719658Y-77368538D01*
X202408968Y-77392766D01*
X202419703Y-77393581D01*
X202442573Y-77393069D01*
X202465474Y-77393275D01*
X202476209Y-77392315D01*
X207759500Y-77273966D01*
X207759500Y-77283728D01*
X207845390Y-77715525D01*
X208013869Y-78122269D01*
X208258462Y-78488329D01*
X208569771Y-78799638D01*
X208935831Y-79044231D01*
X209342575Y-79212710D01*
X209774372Y-79298600D01*
X210214628Y-79298600D01*
X210404400Y-79260852D01*
X210404400Y-79586095D01*
X210404339Y-79586726D01*
X210404400Y-79619556D01*
X210404400Y-79652747D01*
X210404463Y-79653385D01*
X210414349Y-84974331D01*
X210413902Y-84979912D01*
X210414412Y-85007954D01*
X210414464Y-85036019D01*
X210415023Y-85041593D01*
X210921791Y-112913809D01*
X210883849Y-113300767D01*
X210779396Y-113646735D01*
X210609733Y-113965824D01*
X210381324Y-114245881D01*
X210102866Y-114476241D01*
X209784970Y-114648127D01*
X209439740Y-114754994D01*
X209049336Y-114796027D01*
X181733775Y-114692257D01*
X181841405Y-114531176D01*
X181919426Y-114342818D01*
X181959200Y-114142859D01*
X181959200Y-113938981D01*
X181919426Y-113739022D01*
X181841405Y-113550664D01*
X181728137Y-113381146D01*
X181583974Y-113236983D01*
X181414456Y-113123715D01*
X181226098Y-113045694D01*
X181026139Y-113005920D01*
X180822261Y-113005920D01*
X180721592Y-113025944D01*
X180724760Y-113010019D01*
X180724760Y-112806141D01*
X180684986Y-112606182D01*
X180606965Y-112417824D01*
X180493697Y-112248306D01*
X180349534Y-112104143D01*
X180180016Y-111990875D01*
X179991658Y-111912854D01*
X179791699Y-111873080D01*
X179587821Y-111873080D01*
X179387862Y-111912854D01*
X179199504Y-111990875D01*
X179029986Y-112104143D01*
X178885823Y-112248306D01*
X178772555Y-112417824D01*
X178694534Y-112606182D01*
X178654760Y-112806141D01*
X178654760Y-113010019D01*
X178694534Y-113209978D01*
X178772555Y-113398336D01*
X178885823Y-113567854D01*
X179029986Y-113712017D01*
X179199504Y-113825285D01*
X179387862Y-113903306D01*
X179587821Y-113943080D01*
X179791699Y-113943080D01*
X179892368Y-113923056D01*
X179889200Y-113938981D01*
X179889200Y-114142859D01*
X179928974Y-114342818D01*
X180006995Y-114531176D01*
X180110505Y-114686090D01*
X166169523Y-114633129D01*
X166192000Y-114520128D01*
X166192000Y-114079872D01*
X166106110Y-113648075D01*
X165937631Y-113241331D01*
X165693038Y-112875271D01*
X165381729Y-112563962D01*
X165015669Y-112319369D01*
X164608925Y-112150890D01*
X164177128Y-112065000D01*
X163765691Y-112065000D01*
X163771769Y-111721561D01*
X167697200Y-111721561D01*
X167697200Y-111925439D01*
X167736974Y-112125398D01*
X167814995Y-112313756D01*
X167928263Y-112483274D01*
X168072426Y-112627437D01*
X168241944Y-112740705D01*
X168430302Y-112818726D01*
X168630261Y-112858500D01*
X168834139Y-112858500D01*
X169034098Y-112818726D01*
X169222456Y-112740705D01*
X169391974Y-112627437D01*
X169536137Y-112483274D01*
X169649405Y-112313756D01*
X169727426Y-112125398D01*
X169767200Y-111925439D01*
X169767200Y-111721561D01*
X169727426Y-111521602D01*
X169649405Y-111333244D01*
X169536137Y-111163726D01*
X169391974Y-111019563D01*
X169222456Y-110906295D01*
X169034098Y-110828274D01*
X168834139Y-110788500D01*
X168630261Y-110788500D01*
X168430302Y-110828274D01*
X168241944Y-110906295D01*
X168072426Y-111019563D01*
X167928263Y-111163726D01*
X167814995Y-111333244D01*
X167736974Y-111521602D01*
X167697200Y-111721561D01*
X163771769Y-111721561D01*
X163794247Y-110451561D01*
X174537420Y-110451561D01*
X174537420Y-110655439D01*
X174577194Y-110855398D01*
X174655215Y-111043756D01*
X174768483Y-111213274D01*
X174912646Y-111357437D01*
X175082164Y-111470705D01*
X175270522Y-111548726D01*
X175470481Y-111588500D01*
X175674359Y-111588500D01*
X175874318Y-111548726D01*
X176062676Y-111470705D01*
X176232194Y-111357437D01*
X176376357Y-111213274D01*
X176489625Y-111043756D01*
X176567646Y-110855398D01*
X176607420Y-110655439D01*
X176607420Y-110451561D01*
X176593810Y-110383137D01*
X184929000Y-110383137D01*
X184929000Y-110596863D01*
X184970696Y-110806483D01*
X185052485Y-111003940D01*
X185171225Y-111181647D01*
X185322353Y-111332775D01*
X185500060Y-111451515D01*
X185697517Y-111533304D01*
X185907137Y-111575000D01*
X186120863Y-111575000D01*
X186330483Y-111533304D01*
X186527940Y-111451515D01*
X186705647Y-111332775D01*
X186856775Y-111181647D01*
X186975515Y-111003940D01*
X187057304Y-110806483D01*
X187099000Y-110596863D01*
X187099000Y-110383137D01*
X189329000Y-110383137D01*
X189329000Y-110596863D01*
X189370696Y-110806483D01*
X189452485Y-111003940D01*
X189571225Y-111181647D01*
X189722353Y-111332775D01*
X189900060Y-111451515D01*
X190097517Y-111533304D01*
X190307137Y-111575000D01*
X190520863Y-111575000D01*
X190730483Y-111533304D01*
X190927940Y-111451515D01*
X191105647Y-111332775D01*
X191256775Y-111181647D01*
X191375515Y-111003940D01*
X191457304Y-110806483D01*
X191499000Y-110596863D01*
X191499000Y-110383137D01*
X191457304Y-110173517D01*
X191425180Y-110095961D01*
X193638220Y-110095961D01*
X193638220Y-110299839D01*
X193677994Y-110499798D01*
X193756015Y-110688156D01*
X193869283Y-110857674D01*
X194013446Y-111001837D01*
X194182964Y-111115105D01*
X194371322Y-111193126D01*
X194571281Y-111232900D01*
X194775159Y-111232900D01*
X194975118Y-111193126D01*
X195163476Y-111115105D01*
X195332994Y-111001837D01*
X195477157Y-110857674D01*
X195590425Y-110688156D01*
X195668446Y-110499798D01*
X195708220Y-110299839D01*
X195708220Y-110095961D01*
X195668446Y-109896002D01*
X195590425Y-109707644D01*
X195477157Y-109538126D01*
X195414471Y-109475440D01*
X206090768Y-109475440D01*
X206090768Y-109726560D01*
X206139759Y-109972855D01*
X206235859Y-110204859D01*
X206375374Y-110413658D01*
X206552942Y-110591226D01*
X206761741Y-110730741D01*
X206993745Y-110826841D01*
X207240040Y-110875832D01*
X207491160Y-110875832D01*
X207737455Y-110826841D01*
X207969459Y-110730741D01*
X208178258Y-110591226D01*
X208355826Y-110413658D01*
X208495341Y-110204859D01*
X208591441Y-109972855D01*
X208640432Y-109726560D01*
X208640432Y-109475440D01*
X208591441Y-109229145D01*
X208495341Y-108997141D01*
X208355826Y-108788342D01*
X208178258Y-108610774D01*
X207969459Y-108471259D01*
X207737455Y-108375159D01*
X207491160Y-108326168D01*
X207240040Y-108326168D01*
X206993745Y-108375159D01*
X206761741Y-108471259D01*
X206552942Y-108610774D01*
X206375374Y-108788342D01*
X206235859Y-108997141D01*
X206139759Y-109229145D01*
X206090768Y-109475440D01*
X195414471Y-109475440D01*
X195332994Y-109393963D01*
X195163476Y-109280695D01*
X194975118Y-109202674D01*
X194775159Y-109162900D01*
X194571281Y-109162900D01*
X194371322Y-109202674D01*
X194182964Y-109280695D01*
X194013446Y-109393963D01*
X193869283Y-109538126D01*
X193756015Y-109707644D01*
X193677994Y-109896002D01*
X193638220Y-110095961D01*
X191425180Y-110095961D01*
X191375515Y-109976060D01*
X191256775Y-109798353D01*
X191105647Y-109647225D01*
X190931854Y-109531100D01*
X190952459Y-109531100D01*
X191152418Y-109491326D01*
X191340776Y-109413305D01*
X191510294Y-109300037D01*
X191654457Y-109155874D01*
X191767725Y-108986356D01*
X191845746Y-108797998D01*
X191885520Y-108598039D01*
X191885520Y-108394161D01*
X191845746Y-108194202D01*
X191767725Y-108005844D01*
X191654457Y-107836326D01*
X191510294Y-107692163D01*
X191340776Y-107578895D01*
X191152418Y-107500874D01*
X190952459Y-107461100D01*
X190748581Y-107461100D01*
X190548622Y-107500874D01*
X190360264Y-107578895D01*
X190190746Y-107692163D01*
X190046583Y-107836326D01*
X189933315Y-108005844D01*
X189855294Y-108194202D01*
X189815520Y-108394161D01*
X189815520Y-108598039D01*
X189855294Y-108797998D01*
X189933315Y-108986356D01*
X190046583Y-109155874D01*
X190190746Y-109300037D01*
X190347835Y-109405000D01*
X190307137Y-109405000D01*
X190097517Y-109446696D01*
X189900060Y-109528485D01*
X189722353Y-109647225D01*
X189571225Y-109798353D01*
X189452485Y-109976060D01*
X189370696Y-110173517D01*
X189329000Y-110383137D01*
X187099000Y-110383137D01*
X187057304Y-110173517D01*
X186975515Y-109976060D01*
X186856775Y-109798353D01*
X186705647Y-109647225D01*
X186527940Y-109528485D01*
X186330483Y-109446696D01*
X186120863Y-109405000D01*
X185907137Y-109405000D01*
X185697517Y-109446696D01*
X185500060Y-109528485D01*
X185322353Y-109647225D01*
X185171225Y-109798353D01*
X185052485Y-109976060D01*
X184970696Y-110173517D01*
X184929000Y-110383137D01*
X176593810Y-110383137D01*
X176567646Y-110251602D01*
X176489625Y-110063244D01*
X176376357Y-109893726D01*
X176232194Y-109749563D01*
X176062676Y-109636295D01*
X175874318Y-109558274D01*
X175674359Y-109518500D01*
X175470481Y-109518500D01*
X175270522Y-109558274D01*
X175082164Y-109636295D01*
X174912646Y-109749563D01*
X174768483Y-109893726D01*
X174655215Y-110063244D01*
X174577194Y-110251602D01*
X174537420Y-110451561D01*
X163794247Y-110451561D01*
X163821639Y-108903940D01*
X164993568Y-108903940D01*
X164993568Y-109155060D01*
X165042559Y-109401355D01*
X165138659Y-109633359D01*
X165278174Y-109842158D01*
X165455742Y-110019726D01*
X165664541Y-110159241D01*
X165896545Y-110255341D01*
X166142840Y-110304332D01*
X166393960Y-110304332D01*
X166640255Y-110255341D01*
X166872259Y-110159241D01*
X167081058Y-110019726D01*
X167258626Y-109842158D01*
X167398141Y-109633359D01*
X167494241Y-109401355D01*
X167543232Y-109155060D01*
X167543232Y-108960581D01*
X170034000Y-108960581D01*
X170034000Y-109164459D01*
X170073774Y-109364418D01*
X170151795Y-109552776D01*
X170265063Y-109722294D01*
X170409226Y-109866457D01*
X170578744Y-109979725D01*
X170767102Y-110057746D01*
X170967061Y-110097520D01*
X171170939Y-110097520D01*
X171370898Y-110057746D01*
X171559256Y-109979725D01*
X171728774Y-109866457D01*
X171872937Y-109722294D01*
X171986205Y-109552776D01*
X172064226Y-109364418D01*
X172104000Y-109164459D01*
X172104000Y-108960581D01*
X172064226Y-108760622D01*
X171986205Y-108572264D01*
X171872937Y-108402746D01*
X171728774Y-108258583D01*
X171559256Y-108145315D01*
X171370898Y-108067294D01*
X171170939Y-108027520D01*
X170967061Y-108027520D01*
X170767102Y-108067294D01*
X170578744Y-108145315D01*
X170409226Y-108258583D01*
X170265063Y-108402746D01*
X170151795Y-108572264D01*
X170073774Y-108760622D01*
X170034000Y-108960581D01*
X167543232Y-108960581D01*
X167543232Y-108903940D01*
X167494241Y-108657645D01*
X167398141Y-108425641D01*
X167258626Y-108216842D01*
X167081058Y-108039274D01*
X166872259Y-107899759D01*
X166640255Y-107803659D01*
X166393960Y-107754668D01*
X166142840Y-107754668D01*
X165896545Y-107803659D01*
X165664541Y-107899759D01*
X165455742Y-108039274D01*
X165278174Y-108216842D01*
X165138659Y-108425641D01*
X165042559Y-108657645D01*
X164993568Y-108903940D01*
X163821639Y-108903940D01*
X163875257Y-105874481D01*
X173917660Y-105874481D01*
X173917660Y-106078359D01*
X173957434Y-106278318D01*
X174035455Y-106466676D01*
X174148723Y-106636194D01*
X174292886Y-106780357D01*
X174462404Y-106893625D01*
X174650762Y-106971646D01*
X174850721Y-107011420D01*
X175054599Y-107011420D01*
X175254558Y-106971646D01*
X175415120Y-106905138D01*
X175514362Y-106946246D01*
X175714321Y-106986020D01*
X175918199Y-106986020D01*
X176118158Y-106946246D01*
X176306516Y-106868225D01*
X176476034Y-106754957D01*
X176620197Y-106610794D01*
X176733465Y-106441276D01*
X176778537Y-106332461D01*
X193727120Y-106332461D01*
X193727120Y-106536339D01*
X193766894Y-106736298D01*
X193844915Y-106924656D01*
X193868130Y-106959400D01*
X193844915Y-106994144D01*
X193766894Y-107182502D01*
X193727120Y-107382461D01*
X193727120Y-107586339D01*
X193766894Y-107786298D01*
X193844915Y-107974656D01*
X193958183Y-108144174D01*
X194102346Y-108288337D01*
X194271864Y-108401605D01*
X194460222Y-108479626D01*
X194660181Y-108519400D01*
X194864059Y-108519400D01*
X195064018Y-108479626D01*
X195252376Y-108401605D01*
X195421894Y-108288337D01*
X195566057Y-108144174D01*
X195679325Y-107974656D01*
X195757346Y-107786298D01*
X195797120Y-107586339D01*
X195797120Y-107382461D01*
X195757346Y-107182502D01*
X195679325Y-106994144D01*
X195656110Y-106959400D01*
X195679325Y-106924656D01*
X195757346Y-106736298D01*
X195766229Y-106691640D01*
X195771126Y-106696537D01*
X195940644Y-106809805D01*
X196129002Y-106887826D01*
X196328961Y-106927600D01*
X196532839Y-106927600D01*
X196732798Y-106887826D01*
X196921156Y-106809805D01*
X197090674Y-106696537D01*
X197234837Y-106552374D01*
X197348105Y-106382856D01*
X197426126Y-106194498D01*
X197465900Y-105994539D01*
X197465900Y-105790661D01*
X197426126Y-105590702D01*
X197348105Y-105402344D01*
X197234837Y-105232826D01*
X197090674Y-105088663D01*
X196921156Y-104975395D01*
X196732798Y-104897374D01*
X196532839Y-104857600D01*
X196454693Y-104857600D01*
X196436245Y-104813064D01*
X196322977Y-104643546D01*
X196178814Y-104499383D01*
X196009296Y-104386115D01*
X195820938Y-104308094D01*
X195620979Y-104268320D01*
X195417101Y-104268320D01*
X195217142Y-104308094D01*
X195028784Y-104386115D01*
X194859266Y-104499383D01*
X194715103Y-104643546D01*
X194601835Y-104813064D01*
X194523814Y-105001422D01*
X194484040Y-105201381D01*
X194484040Y-105405259D01*
X194489623Y-105433326D01*
X194460222Y-105439174D01*
X194271864Y-105517195D01*
X194102346Y-105630463D01*
X193958183Y-105774626D01*
X193844915Y-105944144D01*
X193766894Y-106132502D01*
X193727120Y-106332461D01*
X176778537Y-106332461D01*
X176811486Y-106252918D01*
X176851260Y-106052959D01*
X176851260Y-105849081D01*
X176811486Y-105649122D01*
X176733465Y-105460764D01*
X176620197Y-105291246D01*
X176476034Y-105147083D01*
X176306516Y-105033815D01*
X176118158Y-104955794D01*
X175918199Y-104916020D01*
X175714321Y-104916020D01*
X175514362Y-104955794D01*
X175353800Y-105022302D01*
X175254558Y-104981194D01*
X175054599Y-104941420D01*
X174850721Y-104941420D01*
X174650762Y-104981194D01*
X174462404Y-105059215D01*
X174292886Y-105172483D01*
X174148723Y-105316646D01*
X174035455Y-105486164D01*
X173957434Y-105674522D01*
X173917660Y-105874481D01*
X163875257Y-105874481D01*
X163907106Y-104074975D01*
X178636400Y-104074975D01*
X178636400Y-104249305D01*
X178670410Y-104420285D01*
X178737123Y-104581345D01*
X178833976Y-104726295D01*
X178859821Y-104752140D01*
X178833976Y-104777985D01*
X178737123Y-104922935D01*
X178670410Y-105083995D01*
X178636400Y-105254975D01*
X178636400Y-105429305D01*
X178670410Y-105600285D01*
X178737123Y-105761345D01*
X178833976Y-105906295D01*
X178957245Y-106029564D01*
X179102195Y-106126417D01*
X179263255Y-106193130D01*
X179434235Y-106227140D01*
X179608565Y-106227140D01*
X179779545Y-106193130D01*
X179940605Y-106126417D01*
X180085555Y-106029564D01*
X180111400Y-106003719D01*
X180137245Y-106029564D01*
X180282195Y-106126417D01*
X180443255Y-106193130D01*
X180614235Y-106227140D01*
X180788565Y-106227140D01*
X180959545Y-106193130D01*
X181120605Y-106126417D01*
X181265555Y-106029564D01*
X181388824Y-105906295D01*
X181485677Y-105761345D01*
X181552390Y-105600285D01*
X181586400Y-105429305D01*
X181586400Y-105254975D01*
X181552390Y-105083995D01*
X181485677Y-104922935D01*
X181388824Y-104777985D01*
X181362979Y-104752140D01*
X181388824Y-104726295D01*
X181485677Y-104581345D01*
X181552390Y-104420285D01*
X181586400Y-104249305D01*
X181586400Y-104074975D01*
X181552390Y-103903995D01*
X181530067Y-103850101D01*
X201753520Y-103850101D01*
X201753520Y-104053979D01*
X201793294Y-104253938D01*
X201871315Y-104442296D01*
X201984583Y-104611814D01*
X202128746Y-104755977D01*
X202298264Y-104869245D01*
X202486622Y-104947266D01*
X202686581Y-104987040D01*
X202890459Y-104987040D01*
X203090418Y-104947266D01*
X203247040Y-104882391D01*
X203247040Y-104948059D01*
X203286814Y-105148018D01*
X203364835Y-105336376D01*
X203373175Y-105348858D01*
X203335074Y-105440842D01*
X203295300Y-105640801D01*
X203295300Y-105844679D01*
X203335074Y-106044638D01*
X203413095Y-106232996D01*
X203526363Y-106402514D01*
X203670526Y-106546677D01*
X203840044Y-106659945D01*
X204028402Y-106737966D01*
X204228361Y-106777740D01*
X204432239Y-106777740D01*
X204632198Y-106737966D01*
X204820556Y-106659945D01*
X204990074Y-106546677D01*
X205134237Y-106402514D01*
X205247505Y-106232996D01*
X205325526Y-106044638D01*
X205365300Y-105844679D01*
X205365300Y-105640801D01*
X205325526Y-105440842D01*
X205247505Y-105252484D01*
X205239165Y-105240002D01*
X205277266Y-105148018D01*
X205317040Y-104948059D01*
X205317040Y-104744181D01*
X205277266Y-104544222D01*
X205199245Y-104355864D01*
X205085977Y-104186346D01*
X204941814Y-104042183D01*
X204772296Y-103928915D01*
X204583938Y-103850894D01*
X204383979Y-103811120D01*
X204180101Y-103811120D01*
X203980142Y-103850894D01*
X203823520Y-103915769D01*
X203823520Y-103850101D01*
X203783746Y-103650142D01*
X203705725Y-103461784D01*
X203592457Y-103292266D01*
X203448294Y-103148103D01*
X203278776Y-103034835D01*
X203090418Y-102956814D01*
X202890459Y-102917040D01*
X202686581Y-102917040D01*
X202486622Y-102956814D01*
X202298264Y-103034835D01*
X202128746Y-103148103D01*
X201984583Y-103292266D01*
X201871315Y-103461784D01*
X201793294Y-103650142D01*
X201753520Y-103850101D01*
X181530067Y-103850101D01*
X181485677Y-103742935D01*
X181388824Y-103597985D01*
X181265555Y-103474716D01*
X181120605Y-103377863D01*
X180959545Y-103311150D01*
X180788565Y-103277140D01*
X180614235Y-103277140D01*
X180443255Y-103311150D01*
X180282195Y-103377863D01*
X180137245Y-103474716D01*
X180111400Y-103500561D01*
X180085555Y-103474716D01*
X179940605Y-103377863D01*
X179779545Y-103311150D01*
X179608565Y-103277140D01*
X179434235Y-103277140D01*
X179263255Y-103311150D01*
X179102195Y-103377863D01*
X178957245Y-103474716D01*
X178833976Y-103597985D01*
X178737123Y-103742935D01*
X178670410Y-103903995D01*
X178636400Y-104074975D01*
X163907106Y-104074975D01*
X164037970Y-96681201D01*
X165398320Y-96681201D01*
X165398320Y-97101759D01*
X165480367Y-97514236D01*
X165641308Y-97902782D01*
X165874957Y-98252463D01*
X166172337Y-98549843D01*
X166522018Y-98783492D01*
X166910564Y-98944433D01*
X167323041Y-99026480D01*
X167743599Y-99026480D01*
X168156076Y-98944433D01*
X168544622Y-98783492D01*
X168894303Y-98549843D01*
X169191683Y-98252463D01*
X169425332Y-97902782D01*
X169451146Y-97840461D01*
X176848820Y-97840461D01*
X176848820Y-98044339D01*
X176888594Y-98244298D01*
X176966615Y-98432656D01*
X176983621Y-98458108D01*
X176926694Y-98595542D01*
X176886920Y-98795501D01*
X176886920Y-98999379D01*
X176926694Y-99199338D01*
X177004715Y-99387696D01*
X177117983Y-99557214D01*
X177262146Y-99701377D01*
X177297134Y-99724755D01*
X177262763Y-99759126D01*
X177149495Y-99928644D01*
X177071474Y-100117002D01*
X177031700Y-100316961D01*
X177031700Y-100520839D01*
X177071474Y-100720798D01*
X177149495Y-100909156D01*
X177262763Y-101078674D01*
X177406926Y-101222837D01*
X177576444Y-101336105D01*
X177764802Y-101414126D01*
X177964761Y-101453900D01*
X178168639Y-101453900D01*
X178368598Y-101414126D01*
X178556956Y-101336105D01*
X178726474Y-101222837D01*
X178870637Y-101078674D01*
X178900325Y-101034243D01*
X178914795Y-101069176D01*
X179028063Y-101238694D01*
X179172226Y-101382857D01*
X179341744Y-101496125D01*
X179530102Y-101574146D01*
X179730061Y-101613920D01*
X179933939Y-101613920D01*
X180075120Y-101585838D01*
X180086454Y-101642818D01*
X180133258Y-101755812D01*
X180066134Y-101917862D01*
X180026360Y-102117821D01*
X180026360Y-102321699D01*
X180066134Y-102521658D01*
X180144155Y-102710016D01*
X180257423Y-102879534D01*
X180401586Y-103023697D01*
X180571104Y-103136965D01*
X180759462Y-103214986D01*
X180959421Y-103254760D01*
X181163299Y-103254760D01*
X181363258Y-103214986D01*
X181551616Y-103136965D01*
X181721134Y-103023697D01*
X181865297Y-102879534D01*
X181978565Y-102710016D01*
X182056586Y-102521658D01*
X182082853Y-102389601D01*
X184461200Y-102389601D01*
X184461200Y-102593479D01*
X184500974Y-102793438D01*
X184578995Y-102981796D01*
X184692263Y-103151314D01*
X184836426Y-103295477D01*
X185005944Y-103408745D01*
X185194302Y-103486766D01*
X185394261Y-103526540D01*
X185598139Y-103526540D01*
X185798098Y-103486766D01*
X185986456Y-103408745D01*
X186155974Y-103295477D01*
X186300137Y-103151314D01*
X186413405Y-102981796D01*
X186491426Y-102793438D01*
X186531200Y-102593479D01*
X186531200Y-102422621D01*
X189025580Y-102422621D01*
X189025580Y-102626499D01*
X189065354Y-102826458D01*
X189143375Y-103014816D01*
X189256643Y-103184334D01*
X189400806Y-103328497D01*
X189570324Y-103441765D01*
X189758682Y-103519786D01*
X189958641Y-103559560D01*
X190162519Y-103559560D01*
X190362478Y-103519786D01*
X190550836Y-103441765D01*
X190720354Y-103328497D01*
X190864517Y-103184334D01*
X190977785Y-103014816D01*
X191055806Y-102826458D01*
X191095580Y-102626499D01*
X191095580Y-102422621D01*
X191055806Y-102222662D01*
X190977785Y-102034304D01*
X190864517Y-101864786D01*
X190720354Y-101720623D01*
X190550836Y-101607355D01*
X190362478Y-101529334D01*
X190162519Y-101489560D01*
X189958641Y-101489560D01*
X189758682Y-101529334D01*
X189570324Y-101607355D01*
X189400806Y-101720623D01*
X189256643Y-101864786D01*
X189143375Y-102034304D01*
X189065354Y-102222662D01*
X189025580Y-102422621D01*
X186531200Y-102422621D01*
X186531200Y-102389601D01*
X186491426Y-102189642D01*
X186413405Y-102001284D01*
X186300137Y-101831766D01*
X186155974Y-101687603D01*
X185986456Y-101574335D01*
X185798098Y-101496314D01*
X185598139Y-101456540D01*
X185394261Y-101456540D01*
X185194302Y-101496314D01*
X185005944Y-101574335D01*
X184836426Y-101687603D01*
X184692263Y-101831766D01*
X184578995Y-102001284D01*
X184500974Y-102189642D01*
X184461200Y-102389601D01*
X182082853Y-102389601D01*
X182096360Y-102321699D01*
X182096360Y-102117821D01*
X182056586Y-101917862D01*
X182009782Y-101804868D01*
X182076906Y-101642818D01*
X182116680Y-101442859D01*
X182116680Y-101238981D01*
X182076906Y-101039022D01*
X181998885Y-100850664D01*
X181973226Y-100812261D01*
X186668460Y-100812261D01*
X186668460Y-101016139D01*
X186708234Y-101216098D01*
X186786255Y-101404456D01*
X186899523Y-101573974D01*
X187043686Y-101718137D01*
X187213204Y-101831405D01*
X187401562Y-101909426D01*
X187601521Y-101949200D01*
X187805399Y-101949200D01*
X188005358Y-101909426D01*
X188193716Y-101831405D01*
X188363234Y-101718137D01*
X188507397Y-101573974D01*
X188620665Y-101404456D01*
X188698686Y-101216098D01*
X188738460Y-101016139D01*
X188738460Y-100812261D01*
X188698686Y-100612302D01*
X188655179Y-100507266D01*
X198925170Y-100507266D01*
X198925170Y-100711144D01*
X198964944Y-100911103D01*
X199042965Y-101099461D01*
X199156233Y-101268979D01*
X199300396Y-101413142D01*
X199469914Y-101526410D01*
X199658272Y-101604431D01*
X199858231Y-101644205D01*
X200062109Y-101644205D01*
X200262068Y-101604431D01*
X200450426Y-101526410D01*
X200619944Y-101413142D01*
X200708765Y-101324321D01*
X205002000Y-101324321D01*
X205002000Y-101744879D01*
X205084047Y-102157356D01*
X205244988Y-102545902D01*
X205478637Y-102895583D01*
X205776017Y-103192963D01*
X206125698Y-103426612D01*
X206514244Y-103587553D01*
X206926721Y-103669600D01*
X207347279Y-103669600D01*
X207759756Y-103587553D01*
X208148302Y-103426612D01*
X208497983Y-103192963D01*
X208795363Y-102895583D01*
X209029012Y-102545902D01*
X209189953Y-102157356D01*
X209272000Y-101744879D01*
X209272000Y-101324321D01*
X209189953Y-100911844D01*
X209029012Y-100523298D01*
X208795363Y-100173617D01*
X208497983Y-99876237D01*
X208148302Y-99642588D01*
X207759756Y-99481647D01*
X207347279Y-99399600D01*
X206926721Y-99399600D01*
X206514244Y-99481647D01*
X206125698Y-99642588D01*
X205776017Y-99876237D01*
X205478637Y-100173617D01*
X205244988Y-100523298D01*
X205084047Y-100911844D01*
X205002000Y-101324321D01*
X200708765Y-101324321D01*
X200764107Y-101268979D01*
X200877375Y-101099461D01*
X200955396Y-100911103D01*
X200995170Y-100711144D01*
X200995170Y-100507266D01*
X200955396Y-100307307D01*
X200877375Y-100118949D01*
X200764107Y-99949431D01*
X200619944Y-99805268D01*
X200450426Y-99692000D01*
X200262068Y-99613979D01*
X200062109Y-99574205D01*
X199858231Y-99574205D01*
X199658272Y-99613979D01*
X199469914Y-99692000D01*
X199300396Y-99805268D01*
X199156233Y-99949431D01*
X199042965Y-100118949D01*
X198964944Y-100307307D01*
X198925170Y-100507266D01*
X188655179Y-100507266D01*
X188620665Y-100423944D01*
X188507397Y-100254426D01*
X188363234Y-100110263D01*
X188193716Y-99996995D01*
X188005358Y-99918974D01*
X187805399Y-99879200D01*
X187601521Y-99879200D01*
X187401562Y-99918974D01*
X187213204Y-99996995D01*
X187043686Y-100110263D01*
X186899523Y-100254426D01*
X186786255Y-100423944D01*
X186708234Y-100612302D01*
X186668460Y-100812261D01*
X181973226Y-100812261D01*
X181885617Y-100681146D01*
X181741454Y-100536983D01*
X181571936Y-100423715D01*
X181383578Y-100345694D01*
X181183619Y-100305920D01*
X180979741Y-100305920D01*
X180838560Y-100334002D01*
X180827226Y-100277022D01*
X180749205Y-100088664D01*
X180635937Y-99919146D01*
X180491774Y-99774983D01*
X180322256Y-99661715D01*
X180133898Y-99583694D01*
X179933939Y-99543920D01*
X179730061Y-99543920D01*
X179530102Y-99583694D01*
X179341744Y-99661715D01*
X179172226Y-99774983D01*
X179028063Y-99919146D01*
X178998375Y-99963577D01*
X178983905Y-99928644D01*
X178870637Y-99759126D01*
X178726474Y-99614963D01*
X178691486Y-99591585D01*
X178725857Y-99557214D01*
X178839125Y-99387696D01*
X178917146Y-99199338D01*
X178956920Y-98999379D01*
X178956920Y-98795501D01*
X178917146Y-98595542D01*
X178839125Y-98407184D01*
X178822119Y-98381732D01*
X178854838Y-98302741D01*
X185695640Y-98302741D01*
X185695640Y-98506619D01*
X185735414Y-98706578D01*
X185813435Y-98894936D01*
X185926703Y-99064454D01*
X186070866Y-99208617D01*
X186240384Y-99321885D01*
X186428742Y-99399906D01*
X186628701Y-99439680D01*
X186832579Y-99439680D01*
X187032538Y-99399906D01*
X187220896Y-99321885D01*
X187390414Y-99208617D01*
X187534577Y-99064454D01*
X187647845Y-98894936D01*
X187725866Y-98706578D01*
X187765640Y-98506619D01*
X187765640Y-98302741D01*
X187725866Y-98102782D01*
X187690363Y-98017070D01*
X187696105Y-98008476D01*
X187774126Y-97820118D01*
X187813900Y-97620159D01*
X187813900Y-97416281D01*
X187774126Y-97216322D01*
X187696105Y-97027964D01*
X187582837Y-96858446D01*
X187438674Y-96714283D01*
X187269156Y-96601015D01*
X187080798Y-96522994D01*
X186880839Y-96483220D01*
X186676961Y-96483220D01*
X186477002Y-96522994D01*
X186288644Y-96601015D01*
X186119126Y-96714283D01*
X185974963Y-96858446D01*
X185861695Y-97027964D01*
X185783674Y-97216322D01*
X185743900Y-97416281D01*
X185743900Y-97620159D01*
X185783674Y-97820118D01*
X185819177Y-97905830D01*
X185813435Y-97914424D01*
X185735414Y-98102782D01*
X185695640Y-98302741D01*
X178854838Y-98302741D01*
X178879046Y-98244298D01*
X178918820Y-98044339D01*
X178918820Y-97840461D01*
X178879046Y-97640502D01*
X178801025Y-97452144D01*
X178687757Y-97282626D01*
X178543594Y-97138463D01*
X178374076Y-97025195D01*
X178185718Y-96947174D01*
X177985759Y-96907400D01*
X177781881Y-96907400D01*
X177581922Y-96947174D01*
X177393564Y-97025195D01*
X177224046Y-97138463D01*
X177079883Y-97282626D01*
X176966615Y-97452144D01*
X176888594Y-97640502D01*
X176848820Y-97840461D01*
X169451146Y-97840461D01*
X169586273Y-97514236D01*
X169668320Y-97101759D01*
X169668320Y-96681201D01*
X169597332Y-96324321D01*
X205002000Y-96324321D01*
X205002000Y-96744879D01*
X205084047Y-97157356D01*
X205244988Y-97545902D01*
X205478637Y-97895583D01*
X205776017Y-98192963D01*
X206125698Y-98426612D01*
X206514244Y-98587553D01*
X206926721Y-98669600D01*
X207347279Y-98669600D01*
X207759756Y-98587553D01*
X208148302Y-98426612D01*
X208497983Y-98192963D01*
X208795363Y-97895583D01*
X209029012Y-97545902D01*
X209189953Y-97157356D01*
X209272000Y-96744879D01*
X209272000Y-96324321D01*
X209189953Y-95911844D01*
X209029012Y-95523298D01*
X208795363Y-95173617D01*
X208497983Y-94876237D01*
X208148302Y-94642588D01*
X207759756Y-94481647D01*
X207347279Y-94399600D01*
X206926721Y-94399600D01*
X206514244Y-94481647D01*
X206125698Y-94642588D01*
X205776017Y-94876237D01*
X205478637Y-95173617D01*
X205244988Y-95523298D01*
X205084047Y-95911844D01*
X205002000Y-96324321D01*
X169597332Y-96324321D01*
X169586273Y-96268724D01*
X169425332Y-95880178D01*
X169191683Y-95530497D01*
X168894303Y-95233117D01*
X168544622Y-94999468D01*
X168156076Y-94838527D01*
X167743599Y-94756480D01*
X167323041Y-94756480D01*
X166910564Y-94838527D01*
X166522018Y-94999468D01*
X166172337Y-95233117D01*
X165874957Y-95530497D01*
X165641308Y-95880178D01*
X165480367Y-96268724D01*
X165398320Y-96681201D01*
X164037970Y-96681201D01*
X164126466Y-91681201D01*
X165398320Y-91681201D01*
X165398320Y-92101759D01*
X165480367Y-92514236D01*
X165641308Y-92902782D01*
X165874957Y-93252463D01*
X166172337Y-93549843D01*
X166522018Y-93783492D01*
X166910564Y-93944433D01*
X167323041Y-94026480D01*
X167743599Y-94026480D01*
X168156076Y-93944433D01*
X168544622Y-93783492D01*
X168749015Y-93646921D01*
X181476700Y-93646921D01*
X181476700Y-93850799D01*
X181516474Y-94050758D01*
X181594495Y-94239116D01*
X181707763Y-94408634D01*
X181851926Y-94552797D01*
X182021444Y-94666065D01*
X182209802Y-94744086D01*
X182409761Y-94783860D01*
X182613639Y-94783860D01*
X182813598Y-94744086D01*
X182990888Y-94670649D01*
X183119122Y-94723766D01*
X183319081Y-94763540D01*
X183522959Y-94763540D01*
X183722918Y-94723766D01*
X183911276Y-94645745D01*
X184080794Y-94532477D01*
X184224957Y-94388314D01*
X184338225Y-94218796D01*
X184416246Y-94030438D01*
X184456020Y-93830479D01*
X184456020Y-93626601D01*
X184416246Y-93426642D01*
X184338225Y-93238284D01*
X184224957Y-93068766D01*
X184080794Y-92924603D01*
X183911276Y-92811335D01*
X183722918Y-92733314D01*
X183522959Y-92693540D01*
X183319081Y-92693540D01*
X183119122Y-92733314D01*
X182941832Y-92806751D01*
X182813598Y-92753634D01*
X182613639Y-92713860D01*
X182409761Y-92713860D01*
X182209802Y-92753634D01*
X182021444Y-92831655D01*
X181851926Y-92944923D01*
X181707763Y-93089086D01*
X181594495Y-93258604D01*
X181516474Y-93446962D01*
X181476700Y-93646921D01*
X168749015Y-93646921D01*
X168894303Y-93549843D01*
X169191683Y-93252463D01*
X169425332Y-92902782D01*
X169586273Y-92514236D01*
X169668320Y-92101759D01*
X169668320Y-91681201D01*
X169586273Y-91268724D01*
X169425332Y-90880178D01*
X169191683Y-90530497D01*
X169099326Y-90438140D01*
X171483268Y-90438140D01*
X171483268Y-90689260D01*
X171532259Y-90935555D01*
X171628359Y-91167559D01*
X171767874Y-91376358D01*
X171945442Y-91553926D01*
X172154241Y-91693441D01*
X172386245Y-91789541D01*
X172632540Y-91838532D01*
X172883660Y-91838532D01*
X173129955Y-91789541D01*
X173361959Y-91693441D01*
X173570758Y-91553926D01*
X173748326Y-91376358D01*
X173887841Y-91167559D01*
X173983941Y-90935555D01*
X174032932Y-90689260D01*
X174032932Y-90438140D01*
X173983941Y-90191845D01*
X173887841Y-89959841D01*
X173748326Y-89751042D01*
X173695345Y-89698061D01*
X176565000Y-89698061D01*
X176565000Y-89901939D01*
X176604774Y-90101898D01*
X176682795Y-90290256D01*
X176796063Y-90459774D01*
X176940226Y-90603937D01*
X177109744Y-90717205D01*
X177298102Y-90795226D01*
X177498061Y-90835000D01*
X177701939Y-90835000D01*
X177901898Y-90795226D01*
X178090256Y-90717205D01*
X178259774Y-90603937D01*
X178274950Y-90588761D01*
X206561740Y-90588761D01*
X206561740Y-90792639D01*
X206601514Y-90992598D01*
X206679535Y-91180956D01*
X206792803Y-91350474D01*
X206818829Y-91376500D01*
X206792803Y-91402526D01*
X206679535Y-91572044D01*
X206601514Y-91760402D01*
X206561740Y-91960361D01*
X206561740Y-92164239D01*
X206601514Y-92364198D01*
X206679535Y-92552556D01*
X206792803Y-92722074D01*
X206936966Y-92866237D01*
X207106484Y-92979505D01*
X207294842Y-93057526D01*
X207494801Y-93097300D01*
X207698679Y-93097300D01*
X207898638Y-93057526D01*
X208086996Y-92979505D01*
X208256514Y-92866237D01*
X208400677Y-92722074D01*
X208513945Y-92552556D01*
X208591966Y-92364198D01*
X208631740Y-92164239D01*
X208631740Y-91960361D01*
X208591966Y-91760402D01*
X208513945Y-91572044D01*
X208400677Y-91402526D01*
X208374651Y-91376500D01*
X208400677Y-91350474D01*
X208513945Y-91180956D01*
X208591966Y-90992598D01*
X208631740Y-90792639D01*
X208631740Y-90588761D01*
X208591966Y-90388802D01*
X208513945Y-90200444D01*
X208400677Y-90030926D01*
X208256514Y-89886763D01*
X208086996Y-89773495D01*
X207898638Y-89695474D01*
X207698679Y-89655700D01*
X207494801Y-89655700D01*
X207294842Y-89695474D01*
X207106484Y-89773495D01*
X206936966Y-89886763D01*
X206792803Y-90030926D01*
X206679535Y-90200444D01*
X206601514Y-90388802D01*
X206561740Y-90588761D01*
X178274950Y-90588761D01*
X178403937Y-90459774D01*
X178517205Y-90290256D01*
X178595226Y-90101898D01*
X178635000Y-89901939D01*
X178635000Y-89698061D01*
X178595226Y-89498102D01*
X178517205Y-89309744D01*
X178403937Y-89140226D01*
X178259774Y-88996063D01*
X178090256Y-88882795D01*
X177901898Y-88804774D01*
X177701939Y-88765000D01*
X177498061Y-88765000D01*
X177298102Y-88804774D01*
X177109744Y-88882795D01*
X176940226Y-88996063D01*
X176796063Y-89140226D01*
X176682795Y-89309744D01*
X176604774Y-89498102D01*
X176565000Y-89698061D01*
X173695345Y-89698061D01*
X173570758Y-89573474D01*
X173361959Y-89433959D01*
X173129955Y-89337859D01*
X172883660Y-89288868D01*
X172632540Y-89288868D01*
X172386245Y-89337859D01*
X172154241Y-89433959D01*
X171945442Y-89573474D01*
X171767874Y-89751042D01*
X171628359Y-89959841D01*
X171532259Y-90191845D01*
X171483268Y-90438140D01*
X169099326Y-90438140D01*
X168894303Y-90233117D01*
X168544622Y-89999468D01*
X168156076Y-89838527D01*
X167743599Y-89756480D01*
X167323041Y-89756480D01*
X166910564Y-89838527D01*
X166522018Y-89999468D01*
X166172337Y-90233117D01*
X165874957Y-90530497D01*
X165641308Y-90880178D01*
X165480367Y-91268724D01*
X165398320Y-91681201D01*
X164126466Y-91681201D01*
X164207705Y-87091181D01*
X166980920Y-87091181D01*
X166980920Y-87295059D01*
X167020694Y-87495018D01*
X167098715Y-87683376D01*
X167211983Y-87852894D01*
X167356146Y-87997057D01*
X167525664Y-88110325D01*
X167714022Y-88188346D01*
X167913981Y-88228120D01*
X168117859Y-88228120D01*
X168317818Y-88188346D01*
X168506176Y-88110325D01*
X168675694Y-87997057D01*
X168819857Y-87852894D01*
X168933125Y-87683376D01*
X169011146Y-87495018D01*
X169050920Y-87295059D01*
X169050920Y-87091181D01*
X169011146Y-86891222D01*
X168933125Y-86702864D01*
X168819857Y-86533346D01*
X168675694Y-86389183D01*
X168506176Y-86275915D01*
X168317818Y-86197894D01*
X168117859Y-86158120D01*
X167913981Y-86158120D01*
X167714022Y-86197894D01*
X167525664Y-86275915D01*
X167356146Y-86389183D01*
X167211983Y-86533346D01*
X167098715Y-86702864D01*
X167020694Y-86891222D01*
X166980920Y-87091181D01*
X164207705Y-87091181D01*
X164238006Y-85379221D01*
X165660120Y-85379221D01*
X165660120Y-85583099D01*
X165699894Y-85783058D01*
X165777915Y-85971416D01*
X165891183Y-86140934D01*
X166035346Y-86285097D01*
X166204864Y-86398365D01*
X166393222Y-86476386D01*
X166593181Y-86516160D01*
X166797059Y-86516160D01*
X166997018Y-86476386D01*
X167185376Y-86398365D01*
X167354894Y-86285097D01*
X167499057Y-86140934D01*
X167612325Y-85971416D01*
X167690346Y-85783058D01*
X167730120Y-85583099D01*
X167730120Y-85379221D01*
X167690346Y-85179262D01*
X167612325Y-84990904D01*
X167499057Y-84821386D01*
X167354894Y-84677223D01*
X167185376Y-84563955D01*
X166997018Y-84485934D01*
X166797059Y-84446160D01*
X166593181Y-84446160D01*
X166393222Y-84485934D01*
X166204864Y-84563955D01*
X166035346Y-84677223D01*
X165891183Y-84821386D01*
X165777915Y-84990904D01*
X165699894Y-85179262D01*
X165660120Y-85379221D01*
X164238006Y-85379221D01*
X164260597Y-84102843D01*
X164272019Y-83931421D01*
X175370540Y-83931421D01*
X175370540Y-84135299D01*
X175410314Y-84335258D01*
X175488335Y-84523616D01*
X175601603Y-84693134D01*
X175745766Y-84837297D01*
X175915284Y-84950565D01*
X176103642Y-85028586D01*
X176303601Y-85068360D01*
X176507479Y-85068360D01*
X176707438Y-85028586D01*
X176769507Y-85002876D01*
X176742140Y-85140461D01*
X176742140Y-85344339D01*
X176781914Y-85544298D01*
X176859935Y-85732656D01*
X176973203Y-85902174D01*
X177117366Y-86046337D01*
X177286884Y-86159605D01*
X177475242Y-86237626D01*
X177675201Y-86277400D01*
X177879079Y-86277400D01*
X178079038Y-86237626D01*
X178267396Y-86159605D01*
X178436914Y-86046337D01*
X178581077Y-85902174D01*
X178694345Y-85732656D01*
X178772366Y-85544298D01*
X178812140Y-85344339D01*
X178812140Y-85140461D01*
X178772366Y-84940502D01*
X178694345Y-84752144D01*
X178581077Y-84582626D01*
X178436914Y-84438463D01*
X178267396Y-84325195D01*
X178079038Y-84247174D01*
X177879079Y-84207400D01*
X177675201Y-84207400D01*
X177475242Y-84247174D01*
X177413173Y-84272884D01*
X177440540Y-84135299D01*
X177440540Y-83931421D01*
X177400766Y-83731462D01*
X177367861Y-83652021D01*
X184732980Y-83652021D01*
X184732980Y-83855899D01*
X184772754Y-84055858D01*
X184850775Y-84244216D01*
X184949112Y-84391388D01*
X184916815Y-84439724D01*
X184838794Y-84628082D01*
X184799020Y-84828041D01*
X184799020Y-85031919D01*
X184838794Y-85231878D01*
X184916815Y-85420236D01*
X185030083Y-85589754D01*
X185174246Y-85733917D01*
X185312317Y-85826173D01*
X185169166Y-85921823D01*
X185025003Y-86065986D01*
X184911735Y-86235504D01*
X184833714Y-86423862D01*
X184793940Y-86623821D01*
X184793940Y-86827699D01*
X184833714Y-87027658D01*
X184911735Y-87216016D01*
X185025003Y-87385534D01*
X185169166Y-87529697D01*
X185338684Y-87642965D01*
X185527042Y-87720986D01*
X185727001Y-87760760D01*
X185893755Y-87760760D01*
X185900514Y-87794738D01*
X185978535Y-87983096D01*
X186091803Y-88152614D01*
X186235966Y-88296777D01*
X186405484Y-88410045D01*
X186593842Y-88488066D01*
X186793801Y-88527840D01*
X186997679Y-88527840D01*
X187197638Y-88488066D01*
X187385996Y-88410045D01*
X187555514Y-88296777D01*
X187699677Y-88152614D01*
X187812945Y-87983096D01*
X187890966Y-87794738D01*
X187918021Y-87658723D01*
X187919814Y-87667738D01*
X187997835Y-87856096D01*
X188111103Y-88025614D01*
X188255266Y-88169777D01*
X188424784Y-88283045D01*
X188613142Y-88361066D01*
X188813101Y-88400840D01*
X189016979Y-88400840D01*
X189216938Y-88361066D01*
X189405296Y-88283045D01*
X189574814Y-88169777D01*
X189718977Y-88025614D01*
X189832245Y-87856096D01*
X189910266Y-87667738D01*
X189950040Y-87467779D01*
X189950040Y-87263901D01*
X189910266Y-87063942D01*
X189832245Y-86875584D01*
X189718977Y-86706066D01*
X189701841Y-86688930D01*
X189767237Y-86623534D01*
X189880505Y-86454016D01*
X189958526Y-86265658D01*
X189998300Y-86065699D01*
X189998300Y-85861821D01*
X189958526Y-85661862D01*
X189880505Y-85473504D01*
X189814113Y-85374141D01*
X206284880Y-85374141D01*
X206284880Y-85578019D01*
X206324654Y-85777978D01*
X206402675Y-85966336D01*
X206515943Y-86135854D01*
X206660106Y-86280017D01*
X206829624Y-86393285D01*
X207017982Y-86471306D01*
X207217941Y-86511080D01*
X207420707Y-86511080D01*
X207416854Y-86520382D01*
X207377080Y-86720341D01*
X207377080Y-86924219D01*
X207416854Y-87124178D01*
X207494875Y-87312536D01*
X207608143Y-87482054D01*
X207752306Y-87626217D01*
X207921824Y-87739485D01*
X208110182Y-87817506D01*
X208310141Y-87857280D01*
X208514019Y-87857280D01*
X208713978Y-87817506D01*
X208902336Y-87739485D01*
X209071854Y-87626217D01*
X209216017Y-87482054D01*
X209329285Y-87312536D01*
X209407306Y-87124178D01*
X209447080Y-86924219D01*
X209447080Y-86720341D01*
X209407306Y-86520382D01*
X209329285Y-86332024D01*
X209216017Y-86162506D01*
X209071854Y-86018343D01*
X208902336Y-85905075D01*
X208713978Y-85827054D01*
X208514019Y-85787280D01*
X208311253Y-85787280D01*
X208315106Y-85777978D01*
X208354880Y-85578019D01*
X208354880Y-85374141D01*
X208315106Y-85174182D01*
X208237085Y-84985824D01*
X208123817Y-84816306D01*
X207979654Y-84672143D01*
X207810136Y-84558875D01*
X207621778Y-84480854D01*
X207421819Y-84441080D01*
X207217941Y-84441080D01*
X207017982Y-84480854D01*
X206829624Y-84558875D01*
X206660106Y-84672143D01*
X206515943Y-84816306D01*
X206402675Y-84985824D01*
X206324654Y-85174182D01*
X206284880Y-85374141D01*
X189814113Y-85374141D01*
X189767237Y-85303986D01*
X189651770Y-85188519D01*
X189666426Y-85153138D01*
X189706200Y-84953179D01*
X189706200Y-84749301D01*
X189666426Y-84549342D01*
X189622756Y-84443915D01*
X189749457Y-84317214D01*
X189862725Y-84147696D01*
X189940746Y-83959338D01*
X189980520Y-83759379D01*
X189980520Y-83555501D01*
X189940746Y-83355542D01*
X189862725Y-83167184D01*
X189749457Y-82997666D01*
X189605294Y-82853503D01*
X189435776Y-82740235D01*
X189247418Y-82662214D01*
X189047459Y-82622440D01*
X188843581Y-82622440D01*
X188643622Y-82662214D01*
X188455264Y-82740235D01*
X188285746Y-82853503D01*
X188141583Y-82997666D01*
X188139570Y-83000679D01*
X188121934Y-82983043D01*
X187952416Y-82869775D01*
X187764058Y-82791754D01*
X187564099Y-82751980D01*
X187360221Y-82751980D01*
X187160262Y-82791754D01*
X186971904Y-82869775D01*
X186802386Y-82983043D01*
X186658223Y-83127206D01*
X186626102Y-83175279D01*
X186571917Y-83094186D01*
X186427754Y-82950023D01*
X186258236Y-82836755D01*
X186069878Y-82758734D01*
X185869919Y-82718960D01*
X185666041Y-82718960D01*
X185466082Y-82758734D01*
X185277724Y-82836755D01*
X185108206Y-82950023D01*
X184964043Y-83094186D01*
X184850775Y-83263704D01*
X184772754Y-83452062D01*
X184732980Y-83652021D01*
X177367861Y-83652021D01*
X177322745Y-83543104D01*
X177209477Y-83373586D01*
X177065314Y-83229423D01*
X176895796Y-83116155D01*
X176707438Y-83038134D01*
X176507479Y-82998360D01*
X176303601Y-82998360D01*
X176103642Y-83038134D01*
X175915284Y-83116155D01*
X175745766Y-83229423D01*
X175601603Y-83373586D01*
X175488335Y-83543104D01*
X175410314Y-83731462D01*
X175370540Y-83931421D01*
X164272019Y-83931421D01*
X164496775Y-80558301D01*
X165665200Y-80558301D01*
X165665200Y-80762179D01*
X165704974Y-80962138D01*
X165782995Y-81150496D01*
X165896263Y-81320014D01*
X166040426Y-81464177D01*
X166209944Y-81577445D01*
X166398302Y-81655466D01*
X166598261Y-81695240D01*
X166802139Y-81695240D01*
X167002098Y-81655466D01*
X167190456Y-81577445D01*
X167359974Y-81464177D01*
X167504137Y-81320014D01*
X167617405Y-81150496D01*
X167695426Y-80962138D01*
X167735200Y-80762179D01*
X167735200Y-80639581D01*
X181977080Y-80639581D01*
X181977080Y-80843459D01*
X182016854Y-81043418D01*
X182094875Y-81231776D01*
X182208143Y-81401294D01*
X182352306Y-81545457D01*
X182521824Y-81658725D01*
X182710182Y-81736746D01*
X182910141Y-81776520D01*
X183114019Y-81776520D01*
X183313978Y-81736746D01*
X183502336Y-81658725D01*
X183671854Y-81545457D01*
X183816017Y-81401294D01*
X183929285Y-81231776D01*
X184007306Y-81043418D01*
X184047080Y-80843459D01*
X184047080Y-80639581D01*
X184007306Y-80439622D01*
X183929285Y-80251264D01*
X183816017Y-80081746D01*
X183796511Y-80062240D01*
X203728568Y-80062240D01*
X203728568Y-80313360D01*
X203777559Y-80559655D01*
X203873659Y-80791659D01*
X204013174Y-81000458D01*
X204190742Y-81178026D01*
X204399541Y-81317541D01*
X204631545Y-81413641D01*
X204877840Y-81462632D01*
X205128960Y-81462632D01*
X205375255Y-81413641D01*
X205607259Y-81317541D01*
X205816058Y-81178026D01*
X205993626Y-81000458D01*
X206133141Y-80791659D01*
X206229241Y-80559655D01*
X206278232Y-80313360D01*
X206278232Y-80062240D01*
X206229241Y-79815945D01*
X206133141Y-79583941D01*
X205993626Y-79375142D01*
X205816058Y-79197574D01*
X205607259Y-79058059D01*
X205375255Y-78961959D01*
X205128960Y-78912968D01*
X204877840Y-78912968D01*
X204631545Y-78961959D01*
X204399541Y-79058059D01*
X204190742Y-79197574D01*
X204013174Y-79375142D01*
X203873659Y-79583941D01*
X203777559Y-79815945D01*
X203728568Y-80062240D01*
X183796511Y-80062240D01*
X183671854Y-79937583D01*
X183502336Y-79824315D01*
X183313978Y-79746294D01*
X183114019Y-79706520D01*
X182910141Y-79706520D01*
X182710182Y-79746294D01*
X182521824Y-79824315D01*
X182352306Y-79937583D01*
X182208143Y-80081746D01*
X182094875Y-80251264D01*
X182016854Y-80439622D01*
X181977080Y-80639581D01*
X167735200Y-80639581D01*
X167735200Y-80558301D01*
X167695426Y-80358342D01*
X167617405Y-80169984D01*
X167504137Y-80000466D01*
X167359974Y-79856303D01*
X167190456Y-79743035D01*
X167002098Y-79665014D01*
X166802139Y-79625240D01*
X166598261Y-79625240D01*
X166398302Y-79665014D01*
X166209944Y-79743035D01*
X166040426Y-79856303D01*
X165896263Y-80000466D01*
X165782995Y-80169984D01*
X165704974Y-80358342D01*
X165665200Y-80558301D01*
X164496775Y-80558301D01*
X164581344Y-79289107D01*
X164583580Y-79266406D01*
X164583580Y-79255551D01*
X164584301Y-79244730D01*
X164583580Y-79221950D01*
X164583580Y-79173504D01*
X164608187Y-78922541D01*
X167021560Y-78922541D01*
X167021560Y-79126419D01*
X167061334Y-79326378D01*
X167139355Y-79514736D01*
X167252623Y-79684254D01*
X167396786Y-79828417D01*
X167566304Y-79941685D01*
X167754662Y-80019706D01*
X167954621Y-80059480D01*
X168158499Y-80059480D01*
X168358458Y-80019706D01*
X168546816Y-79941685D01*
X168716334Y-79828417D01*
X168860497Y-79684254D01*
X168973765Y-79514736D01*
X169051786Y-79326378D01*
X169091560Y-79126419D01*
X169091560Y-78922541D01*
X169051786Y-78722582D01*
X168973765Y-78534224D01*
X168860497Y-78364706D01*
X168716334Y-78220543D01*
X168546816Y-78107275D01*
X168358458Y-78029254D01*
X168158499Y-77989480D01*
X167954621Y-77989480D01*
X167754662Y-78029254D01*
X167566304Y-78107275D01*
X167396786Y-78220543D01*
X167252623Y-78364706D01*
X167139355Y-78534224D01*
X167061334Y-78722582D01*
X167021560Y-78922541D01*
X164608187Y-78922541D01*
X164622131Y-78780332D01*
X164726584Y-78434366D01*
X164896247Y-78115276D01*
X165124656Y-77835219D01*
X165403114Y-77604859D01*
X165721010Y-77432973D01*
X166066238Y-77326107D01*
X166460011Y-77284719D01*
X174095532Y-77141896D01*
X174018394Y-77328122D01*
G37*
X174018394Y-77328122D02*
X173978620Y-77528081D01*
X173978620Y-77731959D01*
X174001680Y-77847888D01*
X173937114Y-78003762D01*
X173897340Y-78203721D01*
X173897340Y-78407599D01*
X173937114Y-78607558D01*
X174015135Y-78795916D01*
X174128403Y-78965434D01*
X174272566Y-79109597D01*
X174442084Y-79222865D01*
X174630442Y-79300886D01*
X174830401Y-79340660D01*
X175034279Y-79340660D01*
X175234238Y-79300886D01*
X175422596Y-79222865D01*
X175592114Y-79109597D01*
X175736277Y-78965434D01*
X175849545Y-78795916D01*
X175927566Y-78607558D01*
X175967340Y-78407599D01*
X175967340Y-78203721D01*
X175944280Y-78087792D01*
X176008846Y-77931918D01*
X176048620Y-77731959D01*
X176048620Y-77528081D01*
X176008846Y-77328122D01*
X175936837Y-77154278D01*
X180804624Y-77198132D01*
X180789315Y-77221044D01*
X180711294Y-77409402D01*
X180671520Y-77609361D01*
X180671520Y-77813239D01*
X180711294Y-78013198D01*
X180759841Y-78130400D01*
X180711294Y-78247602D01*
X180671520Y-78447561D01*
X180671520Y-78651439D01*
X180711294Y-78851398D01*
X180789315Y-79039756D01*
X180902583Y-79209274D01*
X181046746Y-79353437D01*
X181216264Y-79466705D01*
X181404622Y-79544726D01*
X181604581Y-79584500D01*
X181808459Y-79584500D01*
X182008418Y-79544726D01*
X182196776Y-79466705D01*
X182366294Y-79353437D01*
X182510457Y-79209274D01*
X182604265Y-79068880D01*
X182791439Y-79068880D01*
X182991398Y-79029106D01*
X183179756Y-78951085D01*
X183349274Y-78837817D01*
X183493437Y-78693654D01*
X183606705Y-78524136D01*
X183684726Y-78335778D01*
X183724500Y-78135819D01*
X183724500Y-77931941D01*
X183684726Y-77731982D01*
X183606705Y-77543624D01*
X183493437Y-77374106D01*
X183349274Y-77229943D01*
X183335794Y-77220936D01*
X193997522Y-77316987D01*
X193948023Y-77366486D01*
X193834755Y-77536004D01*
X193756734Y-77724362D01*
X193716960Y-77924321D01*
X193716960Y-78128199D01*
X193756734Y-78328158D01*
X193789860Y-78408132D01*
X193736414Y-78537162D01*
X193696640Y-78737121D01*
X193696640Y-78940999D01*
X193736414Y-79140958D01*
X193814435Y-79329316D01*
X193927703Y-79498834D01*
X194071866Y-79642997D01*
X194241384Y-79756265D01*
X194429742Y-79834286D01*
X194629701Y-79874060D01*
X194833579Y-79874060D01*
X195033538Y-79834286D01*
X195221896Y-79756265D01*
X195391414Y-79642997D01*
X195535577Y-79498834D01*
X195648845Y-79329316D01*
X195726866Y-79140958D01*
X195766640Y-78940999D01*
X195766640Y-78737121D01*
X195726866Y-78537162D01*
X195693740Y-78457188D01*
X195747186Y-78328158D01*
X195786960Y-78128199D01*
X195786960Y-77924321D01*
X195747186Y-77724362D01*
X195669165Y-77536004D01*
X195555897Y-77366486D01*
X195520115Y-77330704D01*
X197963474Y-77352716D01*
X197919075Y-77419164D01*
X197841054Y-77607522D01*
X197801280Y-77807481D01*
X197801280Y-78011359D01*
X197841054Y-78211318D01*
X197882071Y-78310342D01*
X197820734Y-78458422D01*
X197780960Y-78658381D01*
X197780960Y-78862259D01*
X197820734Y-79062218D01*
X197898755Y-79250576D01*
X198012023Y-79420094D01*
X198156186Y-79564257D01*
X198325704Y-79677525D01*
X198514062Y-79755546D01*
X198714021Y-79795320D01*
X198917899Y-79795320D01*
X199117858Y-79755546D01*
X199306216Y-79677525D01*
X199475734Y-79564257D01*
X199619897Y-79420094D01*
X199733165Y-79250576D01*
X199811186Y-79062218D01*
X199850960Y-78862259D01*
X199850960Y-78658381D01*
X199811186Y-78458422D01*
X199770169Y-78359398D01*
X199831506Y-78211318D01*
X199871280Y-78011359D01*
X199871280Y-77807481D01*
X199831506Y-77607522D01*
X199753485Y-77419164D01*
X199719658Y-77368538D01*
X202408968Y-77392766D01*
X202419703Y-77393581D01*
X202442573Y-77393069D01*
X202465474Y-77393275D01*
X202476209Y-77392315D01*
X207759500Y-77273966D01*
X207759500Y-77283728D01*
X207845390Y-77715525D01*
X208013869Y-78122269D01*
X208258462Y-78488329D01*
X208569771Y-78799638D01*
X208935831Y-79044231D01*
X209342575Y-79212710D01*
X209774372Y-79298600D01*
X210214628Y-79298600D01*
X210404400Y-79260852D01*
X210404400Y-79586095D01*
X210404339Y-79586726D01*
X210404400Y-79619556D01*
X210404400Y-79652747D01*
X210404463Y-79653385D01*
X210414349Y-84974331D01*
X210413902Y-84979912D01*
X210414412Y-85007954D01*
X210414464Y-85036019D01*
X210415023Y-85041593D01*
X210921791Y-112913809D01*
X210883849Y-113300767D01*
X210779396Y-113646735D01*
X210609733Y-113965824D01*
X210381324Y-114245881D01*
X210102866Y-114476241D01*
X209784970Y-114648127D01*
X209439740Y-114754994D01*
X209049336Y-114796027D01*
X181733775Y-114692257D01*
X181841405Y-114531176D01*
X181919426Y-114342818D01*
X181959200Y-114142859D01*
X181959200Y-113938981D01*
X181919426Y-113739022D01*
X181841405Y-113550664D01*
X181728137Y-113381146D01*
X181583974Y-113236983D01*
X181414456Y-113123715D01*
X181226098Y-113045694D01*
X181026139Y-113005920D01*
X180822261Y-113005920D01*
X180721592Y-113025944D01*
X180724760Y-113010019D01*
X180724760Y-112806141D01*
X180684986Y-112606182D01*
X180606965Y-112417824D01*
X180493697Y-112248306D01*
X180349534Y-112104143D01*
X180180016Y-111990875D01*
X179991658Y-111912854D01*
X179791699Y-111873080D01*
X179587821Y-111873080D01*
X179387862Y-111912854D01*
X179199504Y-111990875D01*
X179029986Y-112104143D01*
X178885823Y-112248306D01*
X178772555Y-112417824D01*
X178694534Y-112606182D01*
X178654760Y-112806141D01*
X178654760Y-113010019D01*
X178694534Y-113209978D01*
X178772555Y-113398336D01*
X178885823Y-113567854D01*
X179029986Y-113712017D01*
X179199504Y-113825285D01*
X179387862Y-113903306D01*
X179587821Y-113943080D01*
X179791699Y-113943080D01*
X179892368Y-113923056D01*
X179889200Y-113938981D01*
X179889200Y-114142859D01*
X179928974Y-114342818D01*
X180006995Y-114531176D01*
X180110505Y-114686090D01*
X166169523Y-114633129D01*
X166192000Y-114520128D01*
X166192000Y-114079872D01*
X166106110Y-113648075D01*
X165937631Y-113241331D01*
X165693038Y-112875271D01*
X165381729Y-112563962D01*
X165015669Y-112319369D01*
X164608925Y-112150890D01*
X164177128Y-112065000D01*
X163765691Y-112065000D01*
X163771769Y-111721561D01*
X167697200Y-111721561D01*
X167697200Y-111925439D01*
X167736974Y-112125398D01*
X167814995Y-112313756D01*
X167928263Y-112483274D01*
X168072426Y-112627437D01*
X168241944Y-112740705D01*
X168430302Y-112818726D01*
X168630261Y-112858500D01*
X168834139Y-112858500D01*
X169034098Y-112818726D01*
X169222456Y-112740705D01*
X169391974Y-112627437D01*
X169536137Y-112483274D01*
X169649405Y-112313756D01*
X169727426Y-112125398D01*
X169767200Y-111925439D01*
X169767200Y-111721561D01*
X169727426Y-111521602D01*
X169649405Y-111333244D01*
X169536137Y-111163726D01*
X169391974Y-111019563D01*
X169222456Y-110906295D01*
X169034098Y-110828274D01*
X168834139Y-110788500D01*
X168630261Y-110788500D01*
X168430302Y-110828274D01*
X168241944Y-110906295D01*
X168072426Y-111019563D01*
X167928263Y-111163726D01*
X167814995Y-111333244D01*
X167736974Y-111521602D01*
X167697200Y-111721561D01*
X163771769Y-111721561D01*
X163794247Y-110451561D01*
X174537420Y-110451561D01*
X174537420Y-110655439D01*
X174577194Y-110855398D01*
X174655215Y-111043756D01*
X174768483Y-111213274D01*
X174912646Y-111357437D01*
X175082164Y-111470705D01*
X175270522Y-111548726D01*
X175470481Y-111588500D01*
X175674359Y-111588500D01*
X175874318Y-111548726D01*
X176062676Y-111470705D01*
X176232194Y-111357437D01*
X176376357Y-111213274D01*
X176489625Y-111043756D01*
X176567646Y-110855398D01*
X176607420Y-110655439D01*
X176607420Y-110451561D01*
X176593810Y-110383137D01*
X184929000Y-110383137D01*
X184929000Y-110596863D01*
X184970696Y-110806483D01*
X185052485Y-111003940D01*
X185171225Y-111181647D01*
X185322353Y-111332775D01*
X185500060Y-111451515D01*
X185697517Y-111533304D01*
X185907137Y-111575000D01*
X186120863Y-111575000D01*
X186330483Y-111533304D01*
X186527940Y-111451515D01*
X186705647Y-111332775D01*
X186856775Y-111181647D01*
X186975515Y-111003940D01*
X187057304Y-110806483D01*
X187099000Y-110596863D01*
X187099000Y-110383137D01*
X189329000Y-110383137D01*
X189329000Y-110596863D01*
X189370696Y-110806483D01*
X189452485Y-111003940D01*
X189571225Y-111181647D01*
X189722353Y-111332775D01*
X189900060Y-111451515D01*
X190097517Y-111533304D01*
X190307137Y-111575000D01*
X190520863Y-111575000D01*
X190730483Y-111533304D01*
X190927940Y-111451515D01*
X191105647Y-111332775D01*
X191256775Y-111181647D01*
X191375515Y-111003940D01*
X191457304Y-110806483D01*
X191499000Y-110596863D01*
X191499000Y-110383137D01*
X191457304Y-110173517D01*
X191425180Y-110095961D01*
X193638220Y-110095961D01*
X193638220Y-110299839D01*
X193677994Y-110499798D01*
X193756015Y-110688156D01*
X193869283Y-110857674D01*
X194013446Y-111001837D01*
X194182964Y-111115105D01*
X194371322Y-111193126D01*
X194571281Y-111232900D01*
X194775159Y-111232900D01*
X194975118Y-111193126D01*
X195163476Y-111115105D01*
X195332994Y-111001837D01*
X195477157Y-110857674D01*
X195590425Y-110688156D01*
X195668446Y-110499798D01*
X195708220Y-110299839D01*
X195708220Y-110095961D01*
X195668446Y-109896002D01*
X195590425Y-109707644D01*
X195477157Y-109538126D01*
X195414471Y-109475440D01*
X206090768Y-109475440D01*
X206090768Y-109726560D01*
X206139759Y-109972855D01*
X206235859Y-110204859D01*
X206375374Y-110413658D01*
X206552942Y-110591226D01*
X206761741Y-110730741D01*
X206993745Y-110826841D01*
X207240040Y-110875832D01*
X207491160Y-110875832D01*
X207737455Y-110826841D01*
X207969459Y-110730741D01*
X208178258Y-110591226D01*
X208355826Y-110413658D01*
X208495341Y-110204859D01*
X208591441Y-109972855D01*
X208640432Y-109726560D01*
X208640432Y-109475440D01*
X208591441Y-109229145D01*
X208495341Y-108997141D01*
X208355826Y-108788342D01*
X208178258Y-108610774D01*
X207969459Y-108471259D01*
X207737455Y-108375159D01*
X207491160Y-108326168D01*
X207240040Y-108326168D01*
X206993745Y-108375159D01*
X206761741Y-108471259D01*
X206552942Y-108610774D01*
X206375374Y-108788342D01*
X206235859Y-108997141D01*
X206139759Y-109229145D01*
X206090768Y-109475440D01*
X195414471Y-109475440D01*
X195332994Y-109393963D01*
X195163476Y-109280695D01*
X194975118Y-109202674D01*
X194775159Y-109162900D01*
X194571281Y-109162900D01*
X194371322Y-109202674D01*
X194182964Y-109280695D01*
X194013446Y-109393963D01*
X193869283Y-109538126D01*
X193756015Y-109707644D01*
X193677994Y-109896002D01*
X193638220Y-110095961D01*
X191425180Y-110095961D01*
X191375515Y-109976060D01*
X191256775Y-109798353D01*
X191105647Y-109647225D01*
X190931854Y-109531100D01*
X190952459Y-109531100D01*
X191152418Y-109491326D01*
X191340776Y-109413305D01*
X191510294Y-109300037D01*
X191654457Y-109155874D01*
X191767725Y-108986356D01*
X191845746Y-108797998D01*
X191885520Y-108598039D01*
X191885520Y-108394161D01*
X191845746Y-108194202D01*
X191767725Y-108005844D01*
X191654457Y-107836326D01*
X191510294Y-107692163D01*
X191340776Y-107578895D01*
X191152418Y-107500874D01*
X190952459Y-107461100D01*
X190748581Y-107461100D01*
X190548622Y-107500874D01*
X190360264Y-107578895D01*
X190190746Y-107692163D01*
X190046583Y-107836326D01*
X189933315Y-108005844D01*
X189855294Y-108194202D01*
X189815520Y-108394161D01*
X189815520Y-108598039D01*
X189855294Y-108797998D01*
X189933315Y-108986356D01*
X190046583Y-109155874D01*
X190190746Y-109300037D01*
X190347835Y-109405000D01*
X190307137Y-109405000D01*
X190097517Y-109446696D01*
X189900060Y-109528485D01*
X189722353Y-109647225D01*
X189571225Y-109798353D01*
X189452485Y-109976060D01*
X189370696Y-110173517D01*
X189329000Y-110383137D01*
X187099000Y-110383137D01*
X187057304Y-110173517D01*
X186975515Y-109976060D01*
X186856775Y-109798353D01*
X186705647Y-109647225D01*
X186527940Y-109528485D01*
X186330483Y-109446696D01*
X186120863Y-109405000D01*
X185907137Y-109405000D01*
X185697517Y-109446696D01*
X185500060Y-109528485D01*
X185322353Y-109647225D01*
X185171225Y-109798353D01*
X185052485Y-109976060D01*
X184970696Y-110173517D01*
X184929000Y-110383137D01*
X176593810Y-110383137D01*
X176567646Y-110251602D01*
X176489625Y-110063244D01*
X176376357Y-109893726D01*
X176232194Y-109749563D01*
X176062676Y-109636295D01*
X175874318Y-109558274D01*
X175674359Y-109518500D01*
X175470481Y-109518500D01*
X175270522Y-109558274D01*
X175082164Y-109636295D01*
X174912646Y-109749563D01*
X174768483Y-109893726D01*
X174655215Y-110063244D01*
X174577194Y-110251602D01*
X174537420Y-110451561D01*
X163794247Y-110451561D01*
X163821639Y-108903940D01*
X164993568Y-108903940D01*
X164993568Y-109155060D01*
X165042559Y-109401355D01*
X165138659Y-109633359D01*
X165278174Y-109842158D01*
X165455742Y-110019726D01*
X165664541Y-110159241D01*
X165896545Y-110255341D01*
X166142840Y-110304332D01*
X166393960Y-110304332D01*
X166640255Y-110255341D01*
X166872259Y-110159241D01*
X167081058Y-110019726D01*
X167258626Y-109842158D01*
X167398141Y-109633359D01*
X167494241Y-109401355D01*
X167543232Y-109155060D01*
X167543232Y-108960581D01*
X170034000Y-108960581D01*
X170034000Y-109164459D01*
X170073774Y-109364418D01*
X170151795Y-109552776D01*
X170265063Y-109722294D01*
X170409226Y-109866457D01*
X170578744Y-109979725D01*
X170767102Y-110057746D01*
X170967061Y-110097520D01*
X171170939Y-110097520D01*
X171370898Y-110057746D01*
X171559256Y-109979725D01*
X171728774Y-109866457D01*
X171872937Y-109722294D01*
X171986205Y-109552776D01*
X172064226Y-109364418D01*
X172104000Y-109164459D01*
X172104000Y-108960581D01*
X172064226Y-108760622D01*
X171986205Y-108572264D01*
X171872937Y-108402746D01*
X171728774Y-108258583D01*
X171559256Y-108145315D01*
X171370898Y-108067294D01*
X171170939Y-108027520D01*
X170967061Y-108027520D01*
X170767102Y-108067294D01*
X170578744Y-108145315D01*
X170409226Y-108258583D01*
X170265063Y-108402746D01*
X170151795Y-108572264D01*
X170073774Y-108760622D01*
X170034000Y-108960581D01*
X167543232Y-108960581D01*
X167543232Y-108903940D01*
X167494241Y-108657645D01*
X167398141Y-108425641D01*
X167258626Y-108216842D01*
X167081058Y-108039274D01*
X166872259Y-107899759D01*
X166640255Y-107803659D01*
X166393960Y-107754668D01*
X166142840Y-107754668D01*
X165896545Y-107803659D01*
X165664541Y-107899759D01*
X165455742Y-108039274D01*
X165278174Y-108216842D01*
X165138659Y-108425641D01*
X165042559Y-108657645D01*
X164993568Y-108903940D01*
X163821639Y-108903940D01*
X163875257Y-105874481D01*
X173917660Y-105874481D01*
X173917660Y-106078359D01*
X173957434Y-106278318D01*
X174035455Y-106466676D01*
X174148723Y-106636194D01*
X174292886Y-106780357D01*
X174462404Y-106893625D01*
X174650762Y-106971646D01*
X174850721Y-107011420D01*
X175054599Y-107011420D01*
X175254558Y-106971646D01*
X175415120Y-106905138D01*
X175514362Y-106946246D01*
X175714321Y-106986020D01*
X175918199Y-106986020D01*
X176118158Y-106946246D01*
X176306516Y-106868225D01*
X176476034Y-106754957D01*
X176620197Y-106610794D01*
X176733465Y-106441276D01*
X176778537Y-106332461D01*
X193727120Y-106332461D01*
X193727120Y-106536339D01*
X193766894Y-106736298D01*
X193844915Y-106924656D01*
X193868130Y-106959400D01*
X193844915Y-106994144D01*
X193766894Y-107182502D01*
X193727120Y-107382461D01*
X193727120Y-107586339D01*
X193766894Y-107786298D01*
X193844915Y-107974656D01*
X193958183Y-108144174D01*
X194102346Y-108288337D01*
X194271864Y-108401605D01*
X194460222Y-108479626D01*
X194660181Y-108519400D01*
X194864059Y-108519400D01*
X195064018Y-108479626D01*
X195252376Y-108401605D01*
X195421894Y-108288337D01*
X195566057Y-108144174D01*
X195679325Y-107974656D01*
X195757346Y-107786298D01*
X195797120Y-107586339D01*
X195797120Y-107382461D01*
X195757346Y-107182502D01*
X195679325Y-106994144D01*
X195656110Y-106959400D01*
X195679325Y-106924656D01*
X195757346Y-106736298D01*
X195766229Y-106691640D01*
X195771126Y-106696537D01*
X195940644Y-106809805D01*
X196129002Y-106887826D01*
X196328961Y-106927600D01*
X196532839Y-106927600D01*
X196732798Y-106887826D01*
X196921156Y-106809805D01*
X197090674Y-106696537D01*
X197234837Y-106552374D01*
X197348105Y-106382856D01*
X197426126Y-106194498D01*
X197465900Y-105994539D01*
X197465900Y-105790661D01*
X197426126Y-105590702D01*
X197348105Y-105402344D01*
X197234837Y-105232826D01*
X197090674Y-105088663D01*
X196921156Y-104975395D01*
X196732798Y-104897374D01*
X196532839Y-104857600D01*
X196454693Y-104857600D01*
X196436245Y-104813064D01*
X196322977Y-104643546D01*
X196178814Y-104499383D01*
X196009296Y-104386115D01*
X195820938Y-104308094D01*
X195620979Y-104268320D01*
X195417101Y-104268320D01*
X195217142Y-104308094D01*
X195028784Y-104386115D01*
X194859266Y-104499383D01*
X194715103Y-104643546D01*
X194601835Y-104813064D01*
X194523814Y-105001422D01*
X194484040Y-105201381D01*
X194484040Y-105405259D01*
X194489623Y-105433326D01*
X194460222Y-105439174D01*
X194271864Y-105517195D01*
X194102346Y-105630463D01*
X193958183Y-105774626D01*
X193844915Y-105944144D01*
X193766894Y-106132502D01*
X193727120Y-106332461D01*
X176778537Y-106332461D01*
X176811486Y-106252918D01*
X176851260Y-106052959D01*
X176851260Y-105849081D01*
X176811486Y-105649122D01*
X176733465Y-105460764D01*
X176620197Y-105291246D01*
X176476034Y-105147083D01*
X176306516Y-105033815D01*
X176118158Y-104955794D01*
X175918199Y-104916020D01*
X175714321Y-104916020D01*
X175514362Y-104955794D01*
X175353800Y-105022302D01*
X175254558Y-104981194D01*
X175054599Y-104941420D01*
X174850721Y-104941420D01*
X174650762Y-104981194D01*
X174462404Y-105059215D01*
X174292886Y-105172483D01*
X174148723Y-105316646D01*
X174035455Y-105486164D01*
X173957434Y-105674522D01*
X173917660Y-105874481D01*
X163875257Y-105874481D01*
X163907106Y-104074975D01*
X178636400Y-104074975D01*
X178636400Y-104249305D01*
X178670410Y-104420285D01*
X178737123Y-104581345D01*
X178833976Y-104726295D01*
X178859821Y-104752140D01*
X178833976Y-104777985D01*
X178737123Y-104922935D01*
X178670410Y-105083995D01*
X178636400Y-105254975D01*
X178636400Y-105429305D01*
X178670410Y-105600285D01*
X178737123Y-105761345D01*
X178833976Y-105906295D01*
X178957245Y-106029564D01*
X179102195Y-106126417D01*
X179263255Y-106193130D01*
X179434235Y-106227140D01*
X179608565Y-106227140D01*
X179779545Y-106193130D01*
X179940605Y-106126417D01*
X180085555Y-106029564D01*
X180111400Y-106003719D01*
X180137245Y-106029564D01*
X180282195Y-106126417D01*
X180443255Y-106193130D01*
X180614235Y-106227140D01*
X180788565Y-106227140D01*
X180959545Y-106193130D01*
X181120605Y-106126417D01*
X181265555Y-106029564D01*
X181388824Y-105906295D01*
X181485677Y-105761345D01*
X181552390Y-105600285D01*
X181586400Y-105429305D01*
X181586400Y-105254975D01*
X181552390Y-105083995D01*
X181485677Y-104922935D01*
X181388824Y-104777985D01*
X181362979Y-104752140D01*
X181388824Y-104726295D01*
X181485677Y-104581345D01*
X181552390Y-104420285D01*
X181586400Y-104249305D01*
X181586400Y-104074975D01*
X181552390Y-103903995D01*
X181530067Y-103850101D01*
X201753520Y-103850101D01*
X201753520Y-104053979D01*
X201793294Y-104253938D01*
X201871315Y-104442296D01*
X201984583Y-104611814D01*
X202128746Y-104755977D01*
X202298264Y-104869245D01*
X202486622Y-104947266D01*
X202686581Y-104987040D01*
X202890459Y-104987040D01*
X203090418Y-104947266D01*
X203247040Y-104882391D01*
X203247040Y-104948059D01*
X203286814Y-105148018D01*
X203364835Y-105336376D01*
X203373175Y-105348858D01*
X203335074Y-105440842D01*
X203295300Y-105640801D01*
X203295300Y-105844679D01*
X203335074Y-106044638D01*
X203413095Y-106232996D01*
X203526363Y-106402514D01*
X203670526Y-106546677D01*
X203840044Y-106659945D01*
X204028402Y-106737966D01*
X204228361Y-106777740D01*
X204432239Y-106777740D01*
X204632198Y-106737966D01*
X204820556Y-106659945D01*
X204990074Y-106546677D01*
X205134237Y-106402514D01*
X205247505Y-106232996D01*
X205325526Y-106044638D01*
X205365300Y-105844679D01*
X205365300Y-105640801D01*
X205325526Y-105440842D01*
X205247505Y-105252484D01*
X205239165Y-105240002D01*
X205277266Y-105148018D01*
X205317040Y-104948059D01*
X205317040Y-104744181D01*
X205277266Y-104544222D01*
X205199245Y-104355864D01*
X205085977Y-104186346D01*
X204941814Y-104042183D01*
X204772296Y-103928915D01*
X204583938Y-103850894D01*
X204383979Y-103811120D01*
X204180101Y-103811120D01*
X203980142Y-103850894D01*
X203823520Y-103915769D01*
X203823520Y-103850101D01*
X203783746Y-103650142D01*
X203705725Y-103461784D01*
X203592457Y-103292266D01*
X203448294Y-103148103D01*
X203278776Y-103034835D01*
X203090418Y-102956814D01*
X202890459Y-102917040D01*
X202686581Y-102917040D01*
X202486622Y-102956814D01*
X202298264Y-103034835D01*
X202128746Y-103148103D01*
X201984583Y-103292266D01*
X201871315Y-103461784D01*
X201793294Y-103650142D01*
X201753520Y-103850101D01*
X181530067Y-103850101D01*
X181485677Y-103742935D01*
X181388824Y-103597985D01*
X181265555Y-103474716D01*
X181120605Y-103377863D01*
X180959545Y-103311150D01*
X180788565Y-103277140D01*
X180614235Y-103277140D01*
X180443255Y-103311150D01*
X180282195Y-103377863D01*
X180137245Y-103474716D01*
X180111400Y-103500561D01*
X180085555Y-103474716D01*
X179940605Y-103377863D01*
X179779545Y-103311150D01*
X179608565Y-103277140D01*
X179434235Y-103277140D01*
X179263255Y-103311150D01*
X179102195Y-103377863D01*
X178957245Y-103474716D01*
X178833976Y-103597985D01*
X178737123Y-103742935D01*
X178670410Y-103903995D01*
X178636400Y-104074975D01*
X163907106Y-104074975D01*
X164037970Y-96681201D01*
X165398320Y-96681201D01*
X165398320Y-97101759D01*
X165480367Y-97514236D01*
X165641308Y-97902782D01*
X165874957Y-98252463D01*
X166172337Y-98549843D01*
X166522018Y-98783492D01*
X166910564Y-98944433D01*
X167323041Y-99026480D01*
X167743599Y-99026480D01*
X168156076Y-98944433D01*
X168544622Y-98783492D01*
X168894303Y-98549843D01*
X169191683Y-98252463D01*
X169425332Y-97902782D01*
X169451146Y-97840461D01*
X176848820Y-97840461D01*
X176848820Y-98044339D01*
X176888594Y-98244298D01*
X176966615Y-98432656D01*
X176983621Y-98458108D01*
X176926694Y-98595542D01*
X176886920Y-98795501D01*
X176886920Y-98999379D01*
X176926694Y-99199338D01*
X177004715Y-99387696D01*
X177117983Y-99557214D01*
X177262146Y-99701377D01*
X177297134Y-99724755D01*
X177262763Y-99759126D01*
X177149495Y-99928644D01*
X177071474Y-100117002D01*
X177031700Y-100316961D01*
X177031700Y-100520839D01*
X177071474Y-100720798D01*
X177149495Y-100909156D01*
X177262763Y-101078674D01*
X177406926Y-101222837D01*
X177576444Y-101336105D01*
X177764802Y-101414126D01*
X177964761Y-101453900D01*
X178168639Y-101453900D01*
X178368598Y-101414126D01*
X178556956Y-101336105D01*
X178726474Y-101222837D01*
X178870637Y-101078674D01*
X178900325Y-101034243D01*
X178914795Y-101069176D01*
X179028063Y-101238694D01*
X179172226Y-101382857D01*
X179341744Y-101496125D01*
X179530102Y-101574146D01*
X179730061Y-101613920D01*
X179933939Y-101613920D01*
X180075120Y-101585838D01*
X180086454Y-101642818D01*
X180133258Y-101755812D01*
X180066134Y-101917862D01*
X180026360Y-102117821D01*
X180026360Y-102321699D01*
X180066134Y-102521658D01*
X180144155Y-102710016D01*
X180257423Y-102879534D01*
X180401586Y-103023697D01*
X180571104Y-103136965D01*
X180759462Y-103214986D01*
X180959421Y-103254760D01*
X181163299Y-103254760D01*
X181363258Y-103214986D01*
X181551616Y-103136965D01*
X181721134Y-103023697D01*
X181865297Y-102879534D01*
X181978565Y-102710016D01*
X182056586Y-102521658D01*
X182082853Y-102389601D01*
X184461200Y-102389601D01*
X184461200Y-102593479D01*
X184500974Y-102793438D01*
X184578995Y-102981796D01*
X184692263Y-103151314D01*
X184836426Y-103295477D01*
X185005944Y-103408745D01*
X185194302Y-103486766D01*
X185394261Y-103526540D01*
X185598139Y-103526540D01*
X185798098Y-103486766D01*
X185986456Y-103408745D01*
X186155974Y-103295477D01*
X186300137Y-103151314D01*
X186413405Y-102981796D01*
X186491426Y-102793438D01*
X186531200Y-102593479D01*
X186531200Y-102422621D01*
X189025580Y-102422621D01*
X189025580Y-102626499D01*
X189065354Y-102826458D01*
X189143375Y-103014816D01*
X189256643Y-103184334D01*
X189400806Y-103328497D01*
X189570324Y-103441765D01*
X189758682Y-103519786D01*
X189958641Y-103559560D01*
X190162519Y-103559560D01*
X190362478Y-103519786D01*
X190550836Y-103441765D01*
X190720354Y-103328497D01*
X190864517Y-103184334D01*
X190977785Y-103014816D01*
X191055806Y-102826458D01*
X191095580Y-102626499D01*
X191095580Y-102422621D01*
X191055806Y-102222662D01*
X190977785Y-102034304D01*
X190864517Y-101864786D01*
X190720354Y-101720623D01*
X190550836Y-101607355D01*
X190362478Y-101529334D01*
X190162519Y-101489560D01*
X189958641Y-101489560D01*
X189758682Y-101529334D01*
X189570324Y-101607355D01*
X189400806Y-101720623D01*
X189256643Y-101864786D01*
X189143375Y-102034304D01*
X189065354Y-102222662D01*
X189025580Y-102422621D01*
X186531200Y-102422621D01*
X186531200Y-102389601D01*
X186491426Y-102189642D01*
X186413405Y-102001284D01*
X186300137Y-101831766D01*
X186155974Y-101687603D01*
X185986456Y-101574335D01*
X185798098Y-101496314D01*
X185598139Y-101456540D01*
X185394261Y-101456540D01*
X185194302Y-101496314D01*
X185005944Y-101574335D01*
X184836426Y-101687603D01*
X184692263Y-101831766D01*
X184578995Y-102001284D01*
X184500974Y-102189642D01*
X184461200Y-102389601D01*
X182082853Y-102389601D01*
X182096360Y-102321699D01*
X182096360Y-102117821D01*
X182056586Y-101917862D01*
X182009782Y-101804868D01*
X182076906Y-101642818D01*
X182116680Y-101442859D01*
X182116680Y-101238981D01*
X182076906Y-101039022D01*
X181998885Y-100850664D01*
X181973226Y-100812261D01*
X186668460Y-100812261D01*
X186668460Y-101016139D01*
X186708234Y-101216098D01*
X186786255Y-101404456D01*
X186899523Y-101573974D01*
X187043686Y-101718137D01*
X187213204Y-101831405D01*
X187401562Y-101909426D01*
X187601521Y-101949200D01*
X187805399Y-101949200D01*
X188005358Y-101909426D01*
X188193716Y-101831405D01*
X188363234Y-101718137D01*
X188507397Y-101573974D01*
X188620665Y-101404456D01*
X188698686Y-101216098D01*
X188738460Y-101016139D01*
X188738460Y-100812261D01*
X188698686Y-100612302D01*
X188655179Y-100507266D01*
X198925170Y-100507266D01*
X198925170Y-100711144D01*
X198964944Y-100911103D01*
X199042965Y-101099461D01*
X199156233Y-101268979D01*
X199300396Y-101413142D01*
X199469914Y-101526410D01*
X199658272Y-101604431D01*
X199858231Y-101644205D01*
X200062109Y-101644205D01*
X200262068Y-101604431D01*
X200450426Y-101526410D01*
X200619944Y-101413142D01*
X200708765Y-101324321D01*
X205002000Y-101324321D01*
X205002000Y-101744879D01*
X205084047Y-102157356D01*
X205244988Y-102545902D01*
X205478637Y-102895583D01*
X205776017Y-103192963D01*
X206125698Y-103426612D01*
X206514244Y-103587553D01*
X206926721Y-103669600D01*
X207347279Y-103669600D01*
X207759756Y-103587553D01*
X208148302Y-103426612D01*
X208497983Y-103192963D01*
X208795363Y-102895583D01*
X209029012Y-102545902D01*
X209189953Y-102157356D01*
X209272000Y-101744879D01*
X209272000Y-101324321D01*
X209189953Y-100911844D01*
X209029012Y-100523298D01*
X208795363Y-100173617D01*
X208497983Y-99876237D01*
X208148302Y-99642588D01*
X207759756Y-99481647D01*
X207347279Y-99399600D01*
X206926721Y-99399600D01*
X206514244Y-99481647D01*
X206125698Y-99642588D01*
X205776017Y-99876237D01*
X205478637Y-100173617D01*
X205244988Y-100523298D01*
X205084047Y-100911844D01*
X205002000Y-101324321D01*
X200708765Y-101324321D01*
X200764107Y-101268979D01*
X200877375Y-101099461D01*
X200955396Y-100911103D01*
X200995170Y-100711144D01*
X200995170Y-100507266D01*
X200955396Y-100307307D01*
X200877375Y-100118949D01*
X200764107Y-99949431D01*
X200619944Y-99805268D01*
X200450426Y-99692000D01*
X200262068Y-99613979D01*
X200062109Y-99574205D01*
X199858231Y-99574205D01*
X199658272Y-99613979D01*
X199469914Y-99692000D01*
X199300396Y-99805268D01*
X199156233Y-99949431D01*
X199042965Y-100118949D01*
X198964944Y-100307307D01*
X198925170Y-100507266D01*
X188655179Y-100507266D01*
X188620665Y-100423944D01*
X188507397Y-100254426D01*
X188363234Y-100110263D01*
X188193716Y-99996995D01*
X188005358Y-99918974D01*
X187805399Y-99879200D01*
X187601521Y-99879200D01*
X187401562Y-99918974D01*
X187213204Y-99996995D01*
X187043686Y-100110263D01*
X186899523Y-100254426D01*
X186786255Y-100423944D01*
X186708234Y-100612302D01*
X186668460Y-100812261D01*
X181973226Y-100812261D01*
X181885617Y-100681146D01*
X181741454Y-100536983D01*
X181571936Y-100423715D01*
X181383578Y-100345694D01*
X181183619Y-100305920D01*
X180979741Y-100305920D01*
X180838560Y-100334002D01*
X180827226Y-100277022D01*
X180749205Y-100088664D01*
X180635937Y-99919146D01*
X180491774Y-99774983D01*
X180322256Y-99661715D01*
X180133898Y-99583694D01*
X179933939Y-99543920D01*
X179730061Y-99543920D01*
X179530102Y-99583694D01*
X179341744Y-99661715D01*
X179172226Y-99774983D01*
X179028063Y-99919146D01*
X178998375Y-99963577D01*
X178983905Y-99928644D01*
X178870637Y-99759126D01*
X178726474Y-99614963D01*
X178691486Y-99591585D01*
X178725857Y-99557214D01*
X178839125Y-99387696D01*
X178917146Y-99199338D01*
X178956920Y-98999379D01*
X178956920Y-98795501D01*
X178917146Y-98595542D01*
X178839125Y-98407184D01*
X178822119Y-98381732D01*
X178854838Y-98302741D01*
X185695640Y-98302741D01*
X185695640Y-98506619D01*
X185735414Y-98706578D01*
X185813435Y-98894936D01*
X185926703Y-99064454D01*
X186070866Y-99208617D01*
X186240384Y-99321885D01*
X186428742Y-99399906D01*
X186628701Y-99439680D01*
X186832579Y-99439680D01*
X187032538Y-99399906D01*
X187220896Y-99321885D01*
X187390414Y-99208617D01*
X187534577Y-99064454D01*
X187647845Y-98894936D01*
X187725866Y-98706578D01*
X187765640Y-98506619D01*
X187765640Y-98302741D01*
X187725866Y-98102782D01*
X187690363Y-98017070D01*
X187696105Y-98008476D01*
X187774126Y-97820118D01*
X187813900Y-97620159D01*
X187813900Y-97416281D01*
X187774126Y-97216322D01*
X187696105Y-97027964D01*
X187582837Y-96858446D01*
X187438674Y-96714283D01*
X187269156Y-96601015D01*
X187080798Y-96522994D01*
X186880839Y-96483220D01*
X186676961Y-96483220D01*
X186477002Y-96522994D01*
X186288644Y-96601015D01*
X186119126Y-96714283D01*
X185974963Y-96858446D01*
X185861695Y-97027964D01*
X185783674Y-97216322D01*
X185743900Y-97416281D01*
X185743900Y-97620159D01*
X185783674Y-97820118D01*
X185819177Y-97905830D01*
X185813435Y-97914424D01*
X185735414Y-98102782D01*
X185695640Y-98302741D01*
X178854838Y-98302741D01*
X178879046Y-98244298D01*
X178918820Y-98044339D01*
X178918820Y-97840461D01*
X178879046Y-97640502D01*
X178801025Y-97452144D01*
X178687757Y-97282626D01*
X178543594Y-97138463D01*
X178374076Y-97025195D01*
X178185718Y-96947174D01*
X177985759Y-96907400D01*
X177781881Y-96907400D01*
X177581922Y-96947174D01*
X177393564Y-97025195D01*
X177224046Y-97138463D01*
X177079883Y-97282626D01*
X176966615Y-97452144D01*
X176888594Y-97640502D01*
X176848820Y-97840461D01*
X169451146Y-97840461D01*
X169586273Y-97514236D01*
X169668320Y-97101759D01*
X169668320Y-96681201D01*
X169597332Y-96324321D01*
X205002000Y-96324321D01*
X205002000Y-96744879D01*
X205084047Y-97157356D01*
X205244988Y-97545902D01*
X205478637Y-97895583D01*
X205776017Y-98192963D01*
X206125698Y-98426612D01*
X206514244Y-98587553D01*
X206926721Y-98669600D01*
X207347279Y-98669600D01*
X207759756Y-98587553D01*
X208148302Y-98426612D01*
X208497983Y-98192963D01*
X208795363Y-97895583D01*
X209029012Y-97545902D01*
X209189953Y-97157356D01*
X209272000Y-96744879D01*
X209272000Y-96324321D01*
X209189953Y-95911844D01*
X209029012Y-95523298D01*
X208795363Y-95173617D01*
X208497983Y-94876237D01*
X208148302Y-94642588D01*
X207759756Y-94481647D01*
X207347279Y-94399600D01*
X206926721Y-94399600D01*
X206514244Y-94481647D01*
X206125698Y-94642588D01*
X205776017Y-94876237D01*
X205478637Y-95173617D01*
X205244988Y-95523298D01*
X205084047Y-95911844D01*
X205002000Y-96324321D01*
X169597332Y-96324321D01*
X169586273Y-96268724D01*
X169425332Y-95880178D01*
X169191683Y-95530497D01*
X168894303Y-95233117D01*
X168544622Y-94999468D01*
X168156076Y-94838527D01*
X167743599Y-94756480D01*
X167323041Y-94756480D01*
X166910564Y-94838527D01*
X166522018Y-94999468D01*
X166172337Y-95233117D01*
X165874957Y-95530497D01*
X165641308Y-95880178D01*
X165480367Y-96268724D01*
X165398320Y-96681201D01*
X164037970Y-96681201D01*
X164126466Y-91681201D01*
X165398320Y-91681201D01*
X165398320Y-92101759D01*
X165480367Y-92514236D01*
X165641308Y-92902782D01*
X165874957Y-93252463D01*
X166172337Y-93549843D01*
X166522018Y-93783492D01*
X166910564Y-93944433D01*
X167323041Y-94026480D01*
X167743599Y-94026480D01*
X168156076Y-93944433D01*
X168544622Y-93783492D01*
X168749015Y-93646921D01*
X181476700Y-93646921D01*
X181476700Y-93850799D01*
X181516474Y-94050758D01*
X181594495Y-94239116D01*
X181707763Y-94408634D01*
X181851926Y-94552797D01*
X182021444Y-94666065D01*
X182209802Y-94744086D01*
X182409761Y-94783860D01*
X182613639Y-94783860D01*
X182813598Y-94744086D01*
X182990888Y-94670649D01*
X183119122Y-94723766D01*
X183319081Y-94763540D01*
X183522959Y-94763540D01*
X183722918Y-94723766D01*
X183911276Y-94645745D01*
X184080794Y-94532477D01*
X184224957Y-94388314D01*
X184338225Y-94218796D01*
X184416246Y-94030438D01*
X184456020Y-93830479D01*
X184456020Y-93626601D01*
X184416246Y-93426642D01*
X184338225Y-93238284D01*
X184224957Y-93068766D01*
X184080794Y-92924603D01*
X183911276Y-92811335D01*
X183722918Y-92733314D01*
X183522959Y-92693540D01*
X183319081Y-92693540D01*
X183119122Y-92733314D01*
X182941832Y-92806751D01*
X182813598Y-92753634D01*
X182613639Y-92713860D01*
X182409761Y-92713860D01*
X182209802Y-92753634D01*
X182021444Y-92831655D01*
X181851926Y-92944923D01*
X181707763Y-93089086D01*
X181594495Y-93258604D01*
X181516474Y-93446962D01*
X181476700Y-93646921D01*
X168749015Y-93646921D01*
X168894303Y-93549843D01*
X169191683Y-93252463D01*
X169425332Y-92902782D01*
X169586273Y-92514236D01*
X169668320Y-92101759D01*
X169668320Y-91681201D01*
X169586273Y-91268724D01*
X169425332Y-90880178D01*
X169191683Y-90530497D01*
X169099326Y-90438140D01*
X171483268Y-90438140D01*
X171483268Y-90689260D01*
X171532259Y-90935555D01*
X171628359Y-91167559D01*
X171767874Y-91376358D01*
X171945442Y-91553926D01*
X172154241Y-91693441D01*
X172386245Y-91789541D01*
X172632540Y-91838532D01*
X172883660Y-91838532D01*
X173129955Y-91789541D01*
X173361959Y-91693441D01*
X173570758Y-91553926D01*
X173748326Y-91376358D01*
X173887841Y-91167559D01*
X173983941Y-90935555D01*
X174032932Y-90689260D01*
X174032932Y-90438140D01*
X173983941Y-90191845D01*
X173887841Y-89959841D01*
X173748326Y-89751042D01*
X173695345Y-89698061D01*
X176565000Y-89698061D01*
X176565000Y-89901939D01*
X176604774Y-90101898D01*
X176682795Y-90290256D01*
X176796063Y-90459774D01*
X176940226Y-90603937D01*
X177109744Y-90717205D01*
X177298102Y-90795226D01*
X177498061Y-90835000D01*
X177701939Y-90835000D01*
X177901898Y-90795226D01*
X178090256Y-90717205D01*
X178259774Y-90603937D01*
X178274950Y-90588761D01*
X206561740Y-90588761D01*
X206561740Y-90792639D01*
X206601514Y-90992598D01*
X206679535Y-91180956D01*
X206792803Y-91350474D01*
X206818829Y-91376500D01*
X206792803Y-91402526D01*
X206679535Y-91572044D01*
X206601514Y-91760402D01*
X206561740Y-91960361D01*
X206561740Y-92164239D01*
X206601514Y-92364198D01*
X206679535Y-92552556D01*
X206792803Y-92722074D01*
X206936966Y-92866237D01*
X207106484Y-92979505D01*
X207294842Y-93057526D01*
X207494801Y-93097300D01*
X207698679Y-93097300D01*
X207898638Y-93057526D01*
X208086996Y-92979505D01*
X208256514Y-92866237D01*
X208400677Y-92722074D01*
X208513945Y-92552556D01*
X208591966Y-92364198D01*
X208631740Y-92164239D01*
X208631740Y-91960361D01*
X208591966Y-91760402D01*
X208513945Y-91572044D01*
X208400677Y-91402526D01*
X208374651Y-91376500D01*
X208400677Y-91350474D01*
X208513945Y-91180956D01*
X208591966Y-90992598D01*
X208631740Y-90792639D01*
X208631740Y-90588761D01*
X208591966Y-90388802D01*
X208513945Y-90200444D01*
X208400677Y-90030926D01*
X208256514Y-89886763D01*
X208086996Y-89773495D01*
X207898638Y-89695474D01*
X207698679Y-89655700D01*
X207494801Y-89655700D01*
X207294842Y-89695474D01*
X207106484Y-89773495D01*
X206936966Y-89886763D01*
X206792803Y-90030926D01*
X206679535Y-90200444D01*
X206601514Y-90388802D01*
X206561740Y-90588761D01*
X178274950Y-90588761D01*
X178403937Y-90459774D01*
X178517205Y-90290256D01*
X178595226Y-90101898D01*
X178635000Y-89901939D01*
X178635000Y-89698061D01*
X178595226Y-89498102D01*
X178517205Y-89309744D01*
X178403937Y-89140226D01*
X178259774Y-88996063D01*
X178090256Y-88882795D01*
X177901898Y-88804774D01*
X177701939Y-88765000D01*
X177498061Y-88765000D01*
X177298102Y-88804774D01*
X177109744Y-88882795D01*
X176940226Y-88996063D01*
X176796063Y-89140226D01*
X176682795Y-89309744D01*
X176604774Y-89498102D01*
X176565000Y-89698061D01*
X173695345Y-89698061D01*
X173570758Y-89573474D01*
X173361959Y-89433959D01*
X173129955Y-89337859D01*
X172883660Y-89288868D01*
X172632540Y-89288868D01*
X172386245Y-89337859D01*
X172154241Y-89433959D01*
X171945442Y-89573474D01*
X171767874Y-89751042D01*
X171628359Y-89959841D01*
X171532259Y-90191845D01*
X171483268Y-90438140D01*
X169099326Y-90438140D01*
X168894303Y-90233117D01*
X168544622Y-89999468D01*
X168156076Y-89838527D01*
X167743599Y-89756480D01*
X167323041Y-89756480D01*
X166910564Y-89838527D01*
X166522018Y-89999468D01*
X166172337Y-90233117D01*
X165874957Y-90530497D01*
X165641308Y-90880178D01*
X165480367Y-91268724D01*
X165398320Y-91681201D01*
X164126466Y-91681201D01*
X164207705Y-87091181D01*
X166980920Y-87091181D01*
X166980920Y-87295059D01*
X167020694Y-87495018D01*
X167098715Y-87683376D01*
X167211983Y-87852894D01*
X167356146Y-87997057D01*
X167525664Y-88110325D01*
X167714022Y-88188346D01*
X167913981Y-88228120D01*
X168117859Y-88228120D01*
X168317818Y-88188346D01*
X168506176Y-88110325D01*
X168675694Y-87997057D01*
X168819857Y-87852894D01*
X168933125Y-87683376D01*
X169011146Y-87495018D01*
X169050920Y-87295059D01*
X169050920Y-87091181D01*
X169011146Y-86891222D01*
X168933125Y-86702864D01*
X168819857Y-86533346D01*
X168675694Y-86389183D01*
X168506176Y-86275915D01*
X168317818Y-86197894D01*
X168117859Y-86158120D01*
X167913981Y-86158120D01*
X167714022Y-86197894D01*
X167525664Y-86275915D01*
X167356146Y-86389183D01*
X167211983Y-86533346D01*
X167098715Y-86702864D01*
X167020694Y-86891222D01*
X166980920Y-87091181D01*
X164207705Y-87091181D01*
X164238006Y-85379221D01*
X165660120Y-85379221D01*
X165660120Y-85583099D01*
X165699894Y-85783058D01*
X165777915Y-85971416D01*
X165891183Y-86140934D01*
X166035346Y-86285097D01*
X166204864Y-86398365D01*
X166393222Y-86476386D01*
X166593181Y-86516160D01*
X166797059Y-86516160D01*
X166997018Y-86476386D01*
X167185376Y-86398365D01*
X167354894Y-86285097D01*
X167499057Y-86140934D01*
X167612325Y-85971416D01*
X167690346Y-85783058D01*
X167730120Y-85583099D01*
X167730120Y-85379221D01*
X167690346Y-85179262D01*
X167612325Y-84990904D01*
X167499057Y-84821386D01*
X167354894Y-84677223D01*
X167185376Y-84563955D01*
X166997018Y-84485934D01*
X166797059Y-84446160D01*
X166593181Y-84446160D01*
X166393222Y-84485934D01*
X166204864Y-84563955D01*
X166035346Y-84677223D01*
X165891183Y-84821386D01*
X165777915Y-84990904D01*
X165699894Y-85179262D01*
X165660120Y-85379221D01*
X164238006Y-85379221D01*
X164260597Y-84102843D01*
X164272019Y-83931421D01*
X175370540Y-83931421D01*
X175370540Y-84135299D01*
X175410314Y-84335258D01*
X175488335Y-84523616D01*
X175601603Y-84693134D01*
X175745766Y-84837297D01*
X175915284Y-84950565D01*
X176103642Y-85028586D01*
X176303601Y-85068360D01*
X176507479Y-85068360D01*
X176707438Y-85028586D01*
X176769507Y-85002876D01*
X176742140Y-85140461D01*
X176742140Y-85344339D01*
X176781914Y-85544298D01*
X176859935Y-85732656D01*
X176973203Y-85902174D01*
X177117366Y-86046337D01*
X177286884Y-86159605D01*
X177475242Y-86237626D01*
X177675201Y-86277400D01*
X177879079Y-86277400D01*
X178079038Y-86237626D01*
X178267396Y-86159605D01*
X178436914Y-86046337D01*
X178581077Y-85902174D01*
X178694345Y-85732656D01*
X178772366Y-85544298D01*
X178812140Y-85344339D01*
X178812140Y-85140461D01*
X178772366Y-84940502D01*
X178694345Y-84752144D01*
X178581077Y-84582626D01*
X178436914Y-84438463D01*
X178267396Y-84325195D01*
X178079038Y-84247174D01*
X177879079Y-84207400D01*
X177675201Y-84207400D01*
X177475242Y-84247174D01*
X177413173Y-84272884D01*
X177440540Y-84135299D01*
X177440540Y-83931421D01*
X177400766Y-83731462D01*
X177367861Y-83652021D01*
X184732980Y-83652021D01*
X184732980Y-83855899D01*
X184772754Y-84055858D01*
X184850775Y-84244216D01*
X184949112Y-84391388D01*
X184916815Y-84439724D01*
X184838794Y-84628082D01*
X184799020Y-84828041D01*
X184799020Y-85031919D01*
X184838794Y-85231878D01*
X184916815Y-85420236D01*
X185030083Y-85589754D01*
X185174246Y-85733917D01*
X185312317Y-85826173D01*
X185169166Y-85921823D01*
X185025003Y-86065986D01*
X184911735Y-86235504D01*
X184833714Y-86423862D01*
X184793940Y-86623821D01*
X184793940Y-86827699D01*
X184833714Y-87027658D01*
X184911735Y-87216016D01*
X185025003Y-87385534D01*
X185169166Y-87529697D01*
X185338684Y-87642965D01*
X185527042Y-87720986D01*
X185727001Y-87760760D01*
X185893755Y-87760760D01*
X185900514Y-87794738D01*
X185978535Y-87983096D01*
X186091803Y-88152614D01*
X186235966Y-88296777D01*
X186405484Y-88410045D01*
X186593842Y-88488066D01*
X186793801Y-88527840D01*
X186997679Y-88527840D01*
X187197638Y-88488066D01*
X187385996Y-88410045D01*
X187555514Y-88296777D01*
X187699677Y-88152614D01*
X187812945Y-87983096D01*
X187890966Y-87794738D01*
X187918021Y-87658723D01*
X187919814Y-87667738D01*
X187997835Y-87856096D01*
X188111103Y-88025614D01*
X188255266Y-88169777D01*
X188424784Y-88283045D01*
X188613142Y-88361066D01*
X188813101Y-88400840D01*
X189016979Y-88400840D01*
X189216938Y-88361066D01*
X189405296Y-88283045D01*
X189574814Y-88169777D01*
X189718977Y-88025614D01*
X189832245Y-87856096D01*
X189910266Y-87667738D01*
X189950040Y-87467779D01*
X189950040Y-87263901D01*
X189910266Y-87063942D01*
X189832245Y-86875584D01*
X189718977Y-86706066D01*
X189701841Y-86688930D01*
X189767237Y-86623534D01*
X189880505Y-86454016D01*
X189958526Y-86265658D01*
X189998300Y-86065699D01*
X189998300Y-85861821D01*
X189958526Y-85661862D01*
X189880505Y-85473504D01*
X189814113Y-85374141D01*
X206284880Y-85374141D01*
X206284880Y-85578019D01*
X206324654Y-85777978D01*
X206402675Y-85966336D01*
X206515943Y-86135854D01*
X206660106Y-86280017D01*
X206829624Y-86393285D01*
X207017982Y-86471306D01*
X207217941Y-86511080D01*
X207420707Y-86511080D01*
X207416854Y-86520382D01*
X207377080Y-86720341D01*
X207377080Y-86924219D01*
X207416854Y-87124178D01*
X207494875Y-87312536D01*
X207608143Y-87482054D01*
X207752306Y-87626217D01*
X207921824Y-87739485D01*
X208110182Y-87817506D01*
X208310141Y-87857280D01*
X208514019Y-87857280D01*
X208713978Y-87817506D01*
X208902336Y-87739485D01*
X209071854Y-87626217D01*
X209216017Y-87482054D01*
X209329285Y-87312536D01*
X209407306Y-87124178D01*
X209447080Y-86924219D01*
X209447080Y-86720341D01*
X209407306Y-86520382D01*
X209329285Y-86332024D01*
X209216017Y-86162506D01*
X209071854Y-86018343D01*
X208902336Y-85905075D01*
X208713978Y-85827054D01*
X208514019Y-85787280D01*
X208311253Y-85787280D01*
X208315106Y-85777978D01*
X208354880Y-85578019D01*
X208354880Y-85374141D01*
X208315106Y-85174182D01*
X208237085Y-84985824D01*
X208123817Y-84816306D01*
X207979654Y-84672143D01*
X207810136Y-84558875D01*
X207621778Y-84480854D01*
X207421819Y-84441080D01*
X207217941Y-84441080D01*
X207017982Y-84480854D01*
X206829624Y-84558875D01*
X206660106Y-84672143D01*
X206515943Y-84816306D01*
X206402675Y-84985824D01*
X206324654Y-85174182D01*
X206284880Y-85374141D01*
X189814113Y-85374141D01*
X189767237Y-85303986D01*
X189651770Y-85188519D01*
X189666426Y-85153138D01*
X189706200Y-84953179D01*
X189706200Y-84749301D01*
X189666426Y-84549342D01*
X189622756Y-84443915D01*
X189749457Y-84317214D01*
X189862725Y-84147696D01*
X189940746Y-83959338D01*
X189980520Y-83759379D01*
X189980520Y-83555501D01*
X189940746Y-83355542D01*
X189862725Y-83167184D01*
X189749457Y-82997666D01*
X189605294Y-82853503D01*
X189435776Y-82740235D01*
X189247418Y-82662214D01*
X189047459Y-82622440D01*
X188843581Y-82622440D01*
X188643622Y-82662214D01*
X188455264Y-82740235D01*
X188285746Y-82853503D01*
X188141583Y-82997666D01*
X188139570Y-83000679D01*
X188121934Y-82983043D01*
X187952416Y-82869775D01*
X187764058Y-82791754D01*
X187564099Y-82751980D01*
X187360221Y-82751980D01*
X187160262Y-82791754D01*
X186971904Y-82869775D01*
X186802386Y-82983043D01*
X186658223Y-83127206D01*
X186626102Y-83175279D01*
X186571917Y-83094186D01*
X186427754Y-82950023D01*
X186258236Y-82836755D01*
X186069878Y-82758734D01*
X185869919Y-82718960D01*
X185666041Y-82718960D01*
X185466082Y-82758734D01*
X185277724Y-82836755D01*
X185108206Y-82950023D01*
X184964043Y-83094186D01*
X184850775Y-83263704D01*
X184772754Y-83452062D01*
X184732980Y-83652021D01*
X177367861Y-83652021D01*
X177322745Y-83543104D01*
X177209477Y-83373586D01*
X177065314Y-83229423D01*
X176895796Y-83116155D01*
X176707438Y-83038134D01*
X176507479Y-82998360D01*
X176303601Y-82998360D01*
X176103642Y-83038134D01*
X175915284Y-83116155D01*
X175745766Y-83229423D01*
X175601603Y-83373586D01*
X175488335Y-83543104D01*
X175410314Y-83731462D01*
X175370540Y-83931421D01*
X164272019Y-83931421D01*
X164496775Y-80558301D01*
X165665200Y-80558301D01*
X165665200Y-80762179D01*
X165704974Y-80962138D01*
X165782995Y-81150496D01*
X165896263Y-81320014D01*
X166040426Y-81464177D01*
X166209944Y-81577445D01*
X166398302Y-81655466D01*
X166598261Y-81695240D01*
X166802139Y-81695240D01*
X167002098Y-81655466D01*
X167190456Y-81577445D01*
X167359974Y-81464177D01*
X167504137Y-81320014D01*
X167617405Y-81150496D01*
X167695426Y-80962138D01*
X167735200Y-80762179D01*
X167735200Y-80639581D01*
X181977080Y-80639581D01*
X181977080Y-80843459D01*
X182016854Y-81043418D01*
X182094875Y-81231776D01*
X182208143Y-81401294D01*
X182352306Y-81545457D01*
X182521824Y-81658725D01*
X182710182Y-81736746D01*
X182910141Y-81776520D01*
X183114019Y-81776520D01*
X183313978Y-81736746D01*
X183502336Y-81658725D01*
X183671854Y-81545457D01*
X183816017Y-81401294D01*
X183929285Y-81231776D01*
X184007306Y-81043418D01*
X184047080Y-80843459D01*
X184047080Y-80639581D01*
X184007306Y-80439622D01*
X183929285Y-80251264D01*
X183816017Y-80081746D01*
X183796511Y-80062240D01*
X203728568Y-80062240D01*
X203728568Y-80313360D01*
X203777559Y-80559655D01*
X203873659Y-80791659D01*
X204013174Y-81000458D01*
X204190742Y-81178026D01*
X204399541Y-81317541D01*
X204631545Y-81413641D01*
X204877840Y-81462632D01*
X205128960Y-81462632D01*
X205375255Y-81413641D01*
X205607259Y-81317541D01*
X205816058Y-81178026D01*
X205993626Y-81000458D01*
X206133141Y-80791659D01*
X206229241Y-80559655D01*
X206278232Y-80313360D01*
X206278232Y-80062240D01*
X206229241Y-79815945D01*
X206133141Y-79583941D01*
X205993626Y-79375142D01*
X205816058Y-79197574D01*
X205607259Y-79058059D01*
X205375255Y-78961959D01*
X205128960Y-78912968D01*
X204877840Y-78912968D01*
X204631545Y-78961959D01*
X204399541Y-79058059D01*
X204190742Y-79197574D01*
X204013174Y-79375142D01*
X203873659Y-79583941D01*
X203777559Y-79815945D01*
X203728568Y-80062240D01*
X183796511Y-80062240D01*
X183671854Y-79937583D01*
X183502336Y-79824315D01*
X183313978Y-79746294D01*
X183114019Y-79706520D01*
X182910141Y-79706520D01*
X182710182Y-79746294D01*
X182521824Y-79824315D01*
X182352306Y-79937583D01*
X182208143Y-80081746D01*
X182094875Y-80251264D01*
X182016854Y-80439622D01*
X181977080Y-80639581D01*
X167735200Y-80639581D01*
X167735200Y-80558301D01*
X167695426Y-80358342D01*
X167617405Y-80169984D01*
X167504137Y-80000466D01*
X167359974Y-79856303D01*
X167190456Y-79743035D01*
X167002098Y-79665014D01*
X166802139Y-79625240D01*
X166598261Y-79625240D01*
X166398302Y-79665014D01*
X166209944Y-79743035D01*
X166040426Y-79856303D01*
X165896263Y-80000466D01*
X165782995Y-80169984D01*
X165704974Y-80358342D01*
X165665200Y-80558301D01*
X164496775Y-80558301D01*
X164581344Y-79289107D01*
X164583580Y-79266406D01*
X164583580Y-79255551D01*
X164584301Y-79244730D01*
X164583580Y-79221950D01*
X164583580Y-79173504D01*
X164608187Y-78922541D01*
X167021560Y-78922541D01*
X167021560Y-79126419D01*
X167061334Y-79326378D01*
X167139355Y-79514736D01*
X167252623Y-79684254D01*
X167396786Y-79828417D01*
X167566304Y-79941685D01*
X167754662Y-80019706D01*
X167954621Y-80059480D01*
X168158499Y-80059480D01*
X168358458Y-80019706D01*
X168546816Y-79941685D01*
X168716334Y-79828417D01*
X168860497Y-79684254D01*
X168973765Y-79514736D01*
X169051786Y-79326378D01*
X169091560Y-79126419D01*
X169091560Y-78922541D01*
X169051786Y-78722582D01*
X168973765Y-78534224D01*
X168860497Y-78364706D01*
X168716334Y-78220543D01*
X168546816Y-78107275D01*
X168358458Y-78029254D01*
X168158499Y-77989480D01*
X167954621Y-77989480D01*
X167754662Y-78029254D01*
X167566304Y-78107275D01*
X167396786Y-78220543D01*
X167252623Y-78364706D01*
X167139355Y-78534224D01*
X167061334Y-78722582D01*
X167021560Y-78922541D01*
X164608187Y-78922541D01*
X164622131Y-78780332D01*
X164726584Y-78434366D01*
X164896247Y-78115276D01*
X165124656Y-77835219D01*
X165403114Y-77604859D01*
X165721010Y-77432973D01*
X166066238Y-77326107D01*
X166460011Y-77284719D01*
X174095532Y-77141896D01*
X174018394Y-77328122D01*
M02*
