G04 #@! TF.GenerationSoftware,KiCad,Pcbnew,5.1.5+dfsg1-2build2*
G04 #@! TF.CreationDate,2021-08-26T19:06:41+12:00*
G04 #@! TF.ProjectId,bbq-monitor,6262712d-6d6f-46e6-9974-6f722e6b6963,rev?*
G04 #@! TF.SameCoordinates,Original*
G04 #@! TF.FileFunction,Legend,Top*
G04 #@! TF.FilePolarity,Positive*
%FSLAX46Y46*%
G04 Gerber Fmt 4.6, Leading zero omitted, Abs format (unit mm)*
G04 Created by KiCad (PCBNEW 5.1.5+dfsg1-2build2) date 2021-08-26 19:06:41*
%MOMM*%
%LPD*%
G04 APERTURE LIST*
%ADD10C,0.150000*%
%ADD11C,0.120000*%
G04 APERTURE END LIST*
D10*
X169709523Y-65547619D02*
X169709523Y-66547619D01*
X169328571Y-66547619D01*
X169233333Y-66500000D01*
X169185714Y-66452380D01*
X169138095Y-66357142D01*
X169138095Y-66214285D01*
X169185714Y-66119047D01*
X169233333Y-66071428D01*
X169328571Y-66023809D01*
X169709523Y-66023809D01*
X168519047Y-66547619D02*
X168328571Y-66547619D01*
X168233333Y-66500000D01*
X168138095Y-66404761D01*
X168090476Y-66214285D01*
X168090476Y-65880952D01*
X168138095Y-65690476D01*
X168233333Y-65595238D01*
X168328571Y-65547619D01*
X168519047Y-65547619D01*
X168614285Y-65595238D01*
X168709523Y-65690476D01*
X168757142Y-65880952D01*
X168757142Y-66214285D01*
X168709523Y-66404761D01*
X168614285Y-66500000D01*
X168519047Y-66547619D01*
X167757142Y-66547619D02*
X167519047Y-65547619D01*
X167328571Y-66261904D01*
X167138095Y-65547619D01*
X166900000Y-66547619D01*
X166519047Y-66071428D02*
X166185714Y-66071428D01*
X166042857Y-65547619D02*
X166519047Y-65547619D01*
X166519047Y-66547619D01*
X166042857Y-66547619D01*
X165042857Y-65547619D02*
X165376190Y-66023809D01*
X165614285Y-65547619D02*
X165614285Y-66547619D01*
X165233333Y-66547619D01*
X165138095Y-66500000D01*
X165090476Y-66452380D01*
X165042857Y-66357142D01*
X165042857Y-66214285D01*
X165090476Y-66119047D01*
X165138095Y-66071428D01*
X165233333Y-66023809D01*
X165614285Y-66023809D01*
X170419047Y-59371428D02*
X171180952Y-59371428D01*
X170800000Y-59752380D02*
X170800000Y-58990476D01*
X178759523Y-66647619D02*
X178188095Y-66647619D01*
X178473809Y-65647619D02*
X178473809Y-66647619D01*
X177854761Y-66171428D02*
X177521428Y-66171428D01*
X177378571Y-65647619D02*
X177854761Y-65647619D01*
X177854761Y-66647619D01*
X177378571Y-66647619D01*
X176950000Y-65647619D02*
X176950000Y-66647619D01*
X176616666Y-65933333D01*
X176283333Y-66647619D01*
X176283333Y-65647619D01*
X175807142Y-65647619D02*
X175807142Y-66647619D01*
X175426190Y-66647619D01*
X175330952Y-66600000D01*
X175283333Y-66552380D01*
X175235714Y-66457142D01*
X175235714Y-66314285D01*
X175283333Y-66219047D01*
X175330952Y-66171428D01*
X175426190Y-66123809D01*
X175807142Y-66123809D01*
X150072619Y-67319047D02*
X151072619Y-67319047D01*
X150596428Y-67319047D02*
X150596428Y-67890476D01*
X150072619Y-67890476D02*
X151072619Y-67890476D01*
X150072619Y-68795238D02*
X150596428Y-68795238D01*
X150691666Y-68747619D01*
X150739285Y-68652380D01*
X150739285Y-68461904D01*
X150691666Y-68366666D01*
X150120238Y-68795238D02*
X150072619Y-68700000D01*
X150072619Y-68461904D01*
X150120238Y-68366666D01*
X150215476Y-68319047D01*
X150310714Y-68319047D01*
X150405952Y-68366666D01*
X150453571Y-68461904D01*
X150453571Y-68700000D01*
X150501190Y-68795238D01*
X150072619Y-69271428D02*
X150739285Y-69271428D01*
X150548809Y-69271428D02*
X150644047Y-69319047D01*
X150691666Y-69366666D01*
X150739285Y-69461904D01*
X150739285Y-69557142D01*
X150072619Y-69890476D02*
X150739285Y-69890476D01*
X150548809Y-69890476D02*
X150644047Y-69938095D01*
X150691666Y-69985714D01*
X150739285Y-70080952D01*
X150739285Y-70176190D01*
X150739285Y-70414285D02*
X150072619Y-70652380D01*
X150739285Y-70890476D02*
X150072619Y-70652380D01*
X149834523Y-70557142D01*
X149786904Y-70509523D01*
X149739285Y-70414285D01*
X150072619Y-72033333D02*
X151072619Y-72033333D01*
X151072619Y-72271428D01*
X151025000Y-72414285D01*
X150929761Y-72509523D01*
X150834523Y-72557142D01*
X150644047Y-72604761D01*
X150501190Y-72604761D01*
X150310714Y-72557142D01*
X150215476Y-72509523D01*
X150120238Y-72414285D01*
X150072619Y-72271428D01*
X150072619Y-72033333D01*
X150072619Y-73176190D02*
X150120238Y-73080952D01*
X150167857Y-73033333D01*
X150263095Y-72985714D01*
X150548809Y-72985714D01*
X150644047Y-73033333D01*
X150691666Y-73080952D01*
X150739285Y-73176190D01*
X150739285Y-73319047D01*
X150691666Y-73414285D01*
X150644047Y-73461904D01*
X150548809Y-73509523D01*
X150263095Y-73509523D01*
X150167857Y-73461904D01*
X150120238Y-73414285D01*
X150072619Y-73319047D01*
X150072619Y-73176190D01*
X150072619Y-73938095D02*
X151072619Y-73938095D01*
X150691666Y-73938095D02*
X150739285Y-74033333D01*
X150739285Y-74223809D01*
X150691666Y-74319047D01*
X150644047Y-74366666D01*
X150548809Y-74414285D01*
X150263095Y-74414285D01*
X150167857Y-74366666D01*
X150120238Y-74319047D01*
X150072619Y-74223809D01*
X150072619Y-74033333D01*
X150120238Y-73938095D01*
X150072619Y-74842857D02*
X151072619Y-74842857D01*
X150691666Y-74842857D02*
X150739285Y-74938095D01*
X150739285Y-75128571D01*
X150691666Y-75223809D01*
X150644047Y-75271428D01*
X150548809Y-75319047D01*
X150263095Y-75319047D01*
X150167857Y-75271428D01*
X150120238Y-75223809D01*
X150072619Y-75128571D01*
X150072619Y-74938095D01*
X150120238Y-74842857D01*
X150120238Y-75700000D02*
X150072619Y-75795238D01*
X150072619Y-75985714D01*
X150120238Y-76080952D01*
X150215476Y-76128571D01*
X150263095Y-76128571D01*
X150358333Y-76080952D01*
X150405952Y-75985714D01*
X150405952Y-75842857D01*
X150453571Y-75747619D01*
X150548809Y-75700000D01*
X150596428Y-75700000D01*
X150691666Y-75747619D01*
X150739285Y-75842857D01*
X150739285Y-75985714D01*
X150691666Y-76080952D01*
X149422619Y-67271428D02*
X148422619Y-67604761D01*
X149422619Y-67938095D01*
X148470238Y-68652380D02*
X148422619Y-68557142D01*
X148422619Y-68366666D01*
X148470238Y-68271428D01*
X148565476Y-68223809D01*
X148946428Y-68223809D01*
X149041666Y-68271428D01*
X149089285Y-68366666D01*
X149089285Y-68557142D01*
X149041666Y-68652380D01*
X148946428Y-68700000D01*
X148851190Y-68700000D01*
X148755952Y-68223809D01*
X148422619Y-69128571D02*
X149089285Y-69128571D01*
X148898809Y-69128571D02*
X148994047Y-69176190D01*
X149041666Y-69223809D01*
X149089285Y-69319047D01*
X149089285Y-69414285D01*
X148470238Y-69700000D02*
X148422619Y-69795238D01*
X148422619Y-69985714D01*
X148470238Y-70080952D01*
X148565476Y-70128571D01*
X148613095Y-70128571D01*
X148708333Y-70080952D01*
X148755952Y-69985714D01*
X148755952Y-69842857D01*
X148803571Y-69747619D01*
X148898809Y-69700000D01*
X148946428Y-69700000D01*
X149041666Y-69747619D01*
X149089285Y-69842857D01*
X149089285Y-69985714D01*
X149041666Y-70080952D01*
X148422619Y-70557142D02*
X149089285Y-70557142D01*
X149422619Y-70557142D02*
X149375000Y-70509523D01*
X149327380Y-70557142D01*
X149375000Y-70604761D01*
X149422619Y-70557142D01*
X149327380Y-70557142D01*
X148422619Y-71176190D02*
X148470238Y-71080952D01*
X148517857Y-71033333D01*
X148613095Y-70985714D01*
X148898809Y-70985714D01*
X148994047Y-71033333D01*
X149041666Y-71080952D01*
X149089285Y-71176190D01*
X149089285Y-71319047D01*
X149041666Y-71414285D01*
X148994047Y-71461904D01*
X148898809Y-71509523D01*
X148613095Y-71509523D01*
X148517857Y-71461904D01*
X148470238Y-71414285D01*
X148422619Y-71319047D01*
X148422619Y-71176190D01*
X149089285Y-71938095D02*
X148422619Y-71938095D01*
X148994047Y-71938095D02*
X149041666Y-71985714D01*
X149089285Y-72080952D01*
X149089285Y-72223809D01*
X149041666Y-72319047D01*
X148946428Y-72366666D01*
X148422619Y-72366666D01*
X148517857Y-72842857D02*
X148470238Y-72890476D01*
X148422619Y-72842857D01*
X148470238Y-72795238D01*
X148517857Y-72842857D01*
X148422619Y-72842857D01*
X149041666Y-72842857D02*
X148994047Y-72890476D01*
X148946428Y-72842857D01*
X148994047Y-72795238D01*
X149041666Y-72842857D01*
X148946428Y-72842857D01*
X148422619Y-74604761D02*
X148422619Y-74033333D01*
X148422619Y-74319047D02*
X149422619Y-74319047D01*
X149279761Y-74223809D01*
X149184523Y-74128571D01*
X149136904Y-74033333D01*
X148517857Y-75033333D02*
X148470238Y-75080952D01*
X148422619Y-75033333D01*
X148470238Y-74985714D01*
X148517857Y-75033333D01*
X148422619Y-75033333D01*
X149422619Y-75700000D02*
X149422619Y-75795238D01*
X149375000Y-75890476D01*
X149327380Y-75938095D01*
X149232142Y-75985714D01*
X149041666Y-76033333D01*
X148803571Y-76033333D01*
X148613095Y-75985714D01*
X148517857Y-75938095D01*
X148470238Y-75890476D01*
X148422619Y-75795238D01*
X148422619Y-75700000D01*
X148470238Y-75604761D01*
X148517857Y-75557142D01*
X148613095Y-75509523D01*
X148803571Y-75461904D01*
X149041666Y-75461904D01*
X149232142Y-75509523D01*
X149327380Y-75557142D01*
X149375000Y-75604761D01*
X149422619Y-75700000D01*
D11*
X169540000Y-59370000D02*
X169540000Y-58770000D01*
X167940000Y-59370000D02*
X169540000Y-59370000D01*
X167940000Y-58770000D02*
X167940000Y-59370000D01*
X167000000Y-59370000D02*
X167000000Y-58770000D01*
X165400000Y-59370000D02*
X167000000Y-59370000D01*
X165400000Y-58770000D02*
X165400000Y-59370000D01*
X168490000Y-64790000D02*
X168490000Y-63790000D01*
X166450000Y-64790000D02*
X166450000Y-63790000D01*
X168490000Y-63260000D02*
X168740000Y-63790000D01*
X166450000Y-63260000D02*
X168490000Y-63260000D01*
X166200000Y-63790000D02*
X166450000Y-63260000D01*
X168740000Y-63790000D02*
X168740000Y-64790000D01*
X166200000Y-63790000D02*
X168740000Y-63790000D01*
X166200000Y-64790000D02*
X166200000Y-63790000D01*
X164530000Y-59800000D02*
X164530000Y-63800000D01*
X170120000Y-58770000D02*
X164820000Y-58770000D01*
X170120000Y-64790000D02*
X170120000Y-58770000D01*
X164820000Y-64790000D02*
X170120000Y-64790000D01*
X164820000Y-58770000D02*
X164820000Y-64790000D01*
X163790000Y-70137221D02*
X163790000Y-70462779D01*
X164810000Y-70137221D02*
X164810000Y-70462779D01*
X163790000Y-67037221D02*
X163790000Y-67362779D01*
X164810000Y-67037221D02*
X164810000Y-67362779D01*
X170662779Y-67490000D02*
X170337221Y-67490000D01*
X170662779Y-68510000D02*
X170337221Y-68510000D01*
X168965000Y-69027500D02*
X168965000Y-71312500D01*
X170435000Y-69027500D02*
X168965000Y-69027500D01*
X170435000Y-71312500D02*
X170435000Y-69027500D01*
X156562779Y-66590000D02*
X156237221Y-66590000D01*
X156562779Y-67610000D02*
X156237221Y-67610000D01*
X187360000Y-72100000D02*
X185750000Y-72100000D01*
X187360000Y-72100000D02*
X187360000Y-70100000D01*
X187080000Y-59560000D02*
X187080000Y-71810000D01*
X181320000Y-59560000D02*
X187080000Y-59560000D01*
X181320000Y-71820000D02*
X181320000Y-59560000D01*
X187070000Y-71820000D02*
X181330000Y-71820000D01*
X176950000Y-71490000D02*
X174025000Y-71490000D01*
X176950000Y-71490000D02*
X178450000Y-71490000D01*
X176950000Y-74710000D02*
X175450000Y-74710000D01*
X176950000Y-74710000D02*
X178450000Y-74710000D01*
X159900000Y-90210000D02*
X162350000Y-90210000D01*
X161700000Y-86990000D02*
X159900000Y-86990000D01*
X167995000Y-88970000D02*
X168470000Y-88970000D01*
X168470000Y-88970000D02*
X168470000Y-89445000D01*
X164725000Y-93190000D02*
X164250000Y-93190000D01*
X164250000Y-93190000D02*
X164250000Y-92715000D01*
X167995000Y-93190000D02*
X168470000Y-93190000D01*
X168470000Y-93190000D02*
X168470000Y-92715000D01*
X164725000Y-88970000D02*
X164250000Y-88970000D01*
X157040000Y-70863000D02*
X157040000Y-70388000D01*
X157040000Y-70388000D02*
X157515000Y-70388000D01*
X160260000Y-73133000D02*
X160260000Y-73608000D01*
X160260000Y-73608000D02*
X159785000Y-73608000D01*
X160260000Y-70863000D02*
X160260000Y-70388000D01*
X160260000Y-70388000D02*
X159785000Y-70388000D01*
X157040000Y-73133000D02*
X157040000Y-73608000D01*
X194245000Y-78180000D02*
X194245000Y-77800000D01*
X200665000Y-78180000D02*
X194245000Y-78180000D01*
X200665000Y-96420000D02*
X194245000Y-96420000D01*
X200665000Y-78180000D02*
X200665000Y-96420000D01*
X174920000Y-96420000D02*
X174920000Y-95420000D01*
X175700000Y-96420000D02*
X174920000Y-96420000D01*
X174920000Y-78180000D02*
X174920000Y-79180000D01*
X175700000Y-78180000D02*
X174920000Y-78180000D01*
X171455000Y-72120000D02*
X164995000Y-72120000D01*
X171455000Y-76650000D02*
X171455000Y-74050000D01*
X171455000Y-78580000D02*
X164995000Y-78580000D01*
X164995000Y-76650000D02*
X164995000Y-74050000D01*
X171455000Y-78550000D02*
X171455000Y-78580000D01*
X171455000Y-72120000D02*
X171455000Y-72150000D01*
X164995000Y-72120000D02*
X164995000Y-72150000D01*
X164995000Y-78580000D02*
X164995000Y-78550000D01*
X189640000Y-72874721D02*
X189640000Y-73200279D01*
X190660000Y-72874721D02*
X190660000Y-73200279D01*
X173490000Y-67249721D02*
X173490000Y-67575279D01*
X174510000Y-67249721D02*
X174510000Y-67575279D01*
X179490000Y-67237221D02*
X179490000Y-67562779D01*
X180510000Y-67237221D02*
X180510000Y-67562779D01*
X172510000Y-65912779D02*
X172510000Y-65587221D01*
X171490000Y-65912779D02*
X171490000Y-65587221D01*
X164690000Y-83837221D02*
X164690000Y-84162779D01*
X165710000Y-83837221D02*
X165710000Y-84162779D01*
X167824721Y-84510000D02*
X168150279Y-84510000D01*
X167824721Y-83490000D02*
X168150279Y-83490000D01*
X160519221Y-75810000D02*
X160844779Y-75810000D01*
X160519221Y-74790000D02*
X160844779Y-74790000D01*
X166537221Y-68610000D02*
X166862779Y-68610000D01*
X166537221Y-67590000D02*
X166862779Y-67590000D01*
X167824721Y-86110000D02*
X168150279Y-86110000D01*
X167824721Y-85090000D02*
X168150279Y-85090000D01*
X167837221Y-87910000D02*
X168162779Y-87910000D01*
X167837221Y-86890000D02*
X168162779Y-86890000D01*
X160190000Y-78124721D02*
X160190000Y-78450279D01*
X161210000Y-78124721D02*
X161210000Y-78450279D01*
X169380000Y-80640000D02*
X169380000Y-82100000D01*
X166220000Y-80640000D02*
X166220000Y-82800000D01*
X166220000Y-80640000D02*
X167150000Y-80640000D01*
X169380000Y-80640000D02*
X168450000Y-80640000D01*
X161020000Y-84560000D02*
X161020000Y-83100000D01*
X164180000Y-84560000D02*
X164180000Y-82400000D01*
X164180000Y-84560000D02*
X163250000Y-84560000D01*
X161020000Y-84560000D02*
X161950000Y-84560000D01*
X156040000Y-62820000D02*
X157500000Y-62820000D01*
X156040000Y-65980000D02*
X158200000Y-65980000D01*
X156040000Y-65980000D02*
X156040000Y-65050000D01*
X156040000Y-62820000D02*
X156040000Y-63750000D01*
X157344064Y-74702000D02*
X156139936Y-74702000D01*
X157344064Y-77422000D02*
X156139936Y-77422000D01*
X179090000Y-59320000D02*
X179090000Y-58720000D01*
X177490000Y-59320000D02*
X179090000Y-59320000D01*
X177490000Y-58720000D02*
X177490000Y-59320000D01*
X176550000Y-59320000D02*
X176550000Y-58720000D01*
X174950000Y-59320000D02*
X176550000Y-59320000D01*
X174950000Y-58720000D02*
X174950000Y-59320000D01*
X178040000Y-64740000D02*
X178040000Y-63740000D01*
X176000000Y-64740000D02*
X176000000Y-63740000D01*
X178040000Y-63210000D02*
X178290000Y-63740000D01*
X176000000Y-63210000D02*
X178040000Y-63210000D01*
X175750000Y-63740000D02*
X176000000Y-63210000D01*
X178290000Y-63740000D02*
X178290000Y-64740000D01*
X175750000Y-63740000D02*
X178290000Y-63740000D01*
X175750000Y-64740000D02*
X175750000Y-63740000D01*
X174080000Y-59750000D02*
X174080000Y-63750000D01*
X179670000Y-58720000D02*
X174370000Y-58720000D01*
X179670000Y-64740000D02*
X179670000Y-58720000D01*
X174370000Y-64740000D02*
X179670000Y-64740000D01*
X174370000Y-58720000D02*
X174370000Y-64740000D01*
X150650000Y-81840000D02*
X153250000Y-81840000D01*
X153250000Y-89760000D02*
X150650000Y-89760000D01*
X155560000Y-82600000D02*
X155560000Y-83750000D01*
X155560000Y-83750000D02*
X156150000Y-83750000D01*
X156150000Y-83750000D02*
X156150000Y-84450000D01*
X155560000Y-87850000D02*
X155560000Y-89000000D01*
X147750000Y-81840000D02*
X146090000Y-81840000D01*
X146090000Y-81840000D02*
X146090000Y-89760000D01*
X146090000Y-89760000D02*
X147750000Y-89760000D01*
X159797936Y-60590000D02*
X161002064Y-60590000D01*
X159797936Y-62410000D02*
X161002064Y-62410000D01*
X166765000Y-69015000D02*
X166765000Y-71300000D01*
X168235000Y-69015000D02*
X166765000Y-69015000D01*
X168235000Y-71300000D02*
X168235000Y-69015000D01*
X175172279Y-69546000D02*
X174846721Y-69546000D01*
X175172279Y-70566000D02*
X174846721Y-70566000D01*
X176950279Y-67768000D02*
X176624721Y-67768000D01*
X176950279Y-68788000D02*
X176624721Y-68788000D01*
X178728279Y-69546000D02*
X178402721Y-69546000D01*
X178728279Y-70566000D02*
X178402721Y-70566000D01*
X181762779Y-76290000D02*
X181437221Y-76290000D01*
X181762779Y-77310000D02*
X181437221Y-77310000D01*
X162490000Y-92849721D02*
X162490000Y-93175279D01*
X163510000Y-92849721D02*
X163510000Y-93175279D01*
X164090000Y-95749721D02*
X164090000Y-96075279D01*
X165110000Y-95749721D02*
X165110000Y-96075279D01*
X156112000Y-72922779D02*
X156112000Y-72597221D01*
X155092000Y-72922779D02*
X155092000Y-72597221D01*
X169490000Y-91437221D02*
X169490000Y-91762779D01*
X170510000Y-91437221D02*
X170510000Y-91762779D01*
X192437221Y-75510000D02*
X192762779Y-75510000D01*
X192437221Y-74490000D02*
X192762779Y-74490000D01*
X159985721Y-69460000D02*
X160311279Y-69460000D01*
X159985721Y-68440000D02*
X160311279Y-68440000D01*
X191162779Y-76090000D02*
X190837221Y-76090000D01*
X191162779Y-77110000D02*
X190837221Y-77110000D01*
X161790000Y-78124721D02*
X161790000Y-78450279D01*
X162810000Y-78124721D02*
X162810000Y-78450279D01*
X156112000Y-69762779D02*
X156112000Y-69437221D01*
X155092000Y-69762779D02*
X155092000Y-69437221D01*
X159949721Y-67860000D02*
X160275279Y-67860000D01*
X159949721Y-66840000D02*
X160275279Y-66840000D01*
M02*
