M48
; DRILL file {KiCad 5.1.5+dfsg1-2build2} date Thu 26 Aug 2021 19:08:15
; FORMAT={-:-/ absolute / metric / decimal}
; #@! TF.CreationDate,2021-08-26T19:08:15+12:00
; #@! TF.GenerationSoftware,Kicad,Pcbnew,5.1.5+dfsg1-2build2
FMAT,2
METRIC
T1C0.200
T2C0.400
T3C0.500
T4C0.800
T5C1.200
T6C3.200
T7C0.900
%
G90
G05
T1
X158.06Y-71.408
X158.06Y-72.588
X159.24Y-71.408
X159.24Y-72.588
T2
X149.6Y-68.8
X149.6Y-71.6
X149.6Y-74.4
X149.6Y-77.2
X151.5Y-72.65
X151.65Y-76.0
X151.8Y-68.0
X152.1Y-78.9
X152.3Y-70.2
X154.0Y-75.0
X154.0Y-76.0
X154.0Y-77.0
X154.4Y-68.0
X154.4Y-68.8
X154.4Y-69.6
X154.4Y-71.2
X154.4Y-72.2
X154.6Y-88.4
X154.7Y-94.6
X155.2Y-92.8
X155.4Y-98.7
X155.8Y-59.9
X156.0Y-88.4
X156.6Y-83.4
X156.6Y-87.6
X156.9Y-68.3
X157.6Y-93.6
X158.0Y-91.6
X158.2Y-80.4
X158.9Y-95.9
X158.9Y-98.5
X159.4Y-82.6
X159.6Y-59.5
X160.6Y-80.2
X161.2Y-70.2
X161.2Y-71.2
X161.2Y-72.0
X161.2Y-72.8
X161.6Y-74.0
X161.8Y-92.2
X161.85Y-98.8
X162.0Y-67.0
X162.0Y-67.8
X162.0Y-68.8
X162.0Y-69.8
X162.4Y-80.2
X162.4Y-97.1
X162.6Y-75.2
X163.0Y-95.0
X163.2Y-88.6
X163.2Y-89.9
X163.4Y-74.4
X163.6Y-59.8
X164.4Y-74.4
X165.1Y-99.1
X165.4Y-64.3
X165.6Y-96.8
X165.8Y-90.6
X165.8Y-95.2
X166.3Y-94.2
X166.8Y-91.4
X167.3Y-99.1
X167.5Y-65.2
X168.8Y-96.7
X169.3Y-64.1
X170.0Y-93.6
X170.5Y-65.5
X170.5Y-98.0
X171.5Y-70.4
X171.7Y-62.4
X172.1Y-69.5
X172.2Y-60.3
X172.2Y-71.6
X172.3Y-99.8
X173.0Y-70.0
X176.6Y-72.8
X176.6Y-73.6
X177.2Y-81.6
X178.4Y-100.1
X179.7Y-86.3
X180.2Y-88.4
X180.2Y-91.4
X180.4Y-84.0
X180.8Y-70.6
X180.8Y-75.6
X181.5Y-60.9
X182.0Y-64.4
X182.0Y-72.6
X182.0Y-73.6
X182.4Y-75.2
X182.6Y-69.6
X183.9Y-72.4
X184.4Y-85.2
X184.4Y-86.2
X184.4Y-87.4
X185.1Y-74.0
X185.2Y-91.6
X185.5Y-63.1
X185.6Y-85.2
X185.6Y-86.2
X185.6Y-87.4
X185.8Y-100.0
X186.6Y-61.0
X186.8Y-85.2
X186.8Y-86.2
X186.8Y-87.4
X188.0Y-66.4
X188.0Y-67.6
X188.5Y-91.4
X190.2Y-68.2
X190.2Y-71.0
X190.2Y-75.4
X191.2Y-98.2
X191.4Y-84.2
X191.5Y-86.7
X191.8Y-73.6
X191.8Y-89.8
X192.4Y-80.6
X192.7Y-71.25
X192.8Y-94.0
X193.0Y-68.4
X193.4Y-76.2
X193.4Y-80.6
X193.8Y-94.0
T3
X148.4Y-62.8
X149.103Y-61.103
X149.103Y-64.497
X150.8Y-60.4
X150.8Y-65.2
X152.497Y-61.103
X152.497Y-64.497
X153.2Y-62.8
X188.4Y-62.95
X189.103Y-61.253
X189.103Y-64.647
X190.8Y-60.55
X190.8Y-65.35
X192.497Y-61.253
X192.497Y-64.647
X193.2Y-62.95
X148.5Y-96.8
X149.203Y-95.103
X149.203Y-98.497
X150.9Y-94.4
X150.9Y-99.2
X152.597Y-95.103
X152.597Y-98.497
X153.3Y-96.8
T4
X184.2Y-61.88
X184.2Y-64.42
X184.2Y-66.96
X184.2Y-69.5
T5
X175.75Y-61.75
X178.29Y-61.75
X166.2Y-61.8
X168.74Y-61.8
T6
X150.8Y-62.8
X190.8Y-62.95
X150.9Y-96.8
T7
X152.1Y-83.6
X152.1Y-88.0
T0
M30
