G04 #@! TF.GenerationSoftware,KiCad,Pcbnew,5.1.5+dfsg1-2build2*
G04 #@! TF.CreationDate,2022-06-24T13:23:12+12:00*
G04 #@! TF.ProjectId,bbq-monitor,6262712d-6d6f-46e6-9974-6f722e6b6963,rev?*
G04 #@! TF.SameCoordinates,Original*
G04 #@! TF.FileFunction,Legend,Bot*
G04 #@! TF.FilePolarity,Positive*
%FSLAX46Y46*%
G04 Gerber Fmt 4.6, Leading zero omitted, Abs format (unit mm)*
G04 Created by KiCad (PCBNEW 5.1.5+dfsg1-2build2) date 2022-06-24 13:23:12*
%MOMM*%
%LPD*%
G04 APERTURE LIST*
%ADD10C,0.010000*%
G04 APERTURE END LIST*
D10*
G36*
X182799383Y-105564677D02*
G01*
X182712477Y-105413781D01*
X182469410Y-105214507D01*
X182382834Y-105155886D01*
X182140482Y-105006638D01*
X181993210Y-104949653D01*
X181902423Y-104973244D01*
X181873963Y-105001797D01*
X181846902Y-105085835D01*
X181917186Y-105189653D01*
X182106146Y-105338859D01*
X182219997Y-105417161D01*
X182460337Y-105565722D01*
X182647363Y-105657016D01*
X182733450Y-105672085D01*
X182799383Y-105564677D01*
G37*
X182799383Y-105564677D02*
X182712477Y-105413781D01*
X182469410Y-105214507D01*
X182382834Y-105155886D01*
X182140482Y-105006638D01*
X181993210Y-104949653D01*
X181902423Y-104973244D01*
X181873963Y-105001797D01*
X181846902Y-105085835D01*
X181917186Y-105189653D01*
X182106146Y-105338859D01*
X182219997Y-105417161D01*
X182460337Y-105565722D01*
X182647363Y-105657016D01*
X182733450Y-105672085D01*
X182799383Y-105564677D01*
G36*
X189718244Y-98159712D02*
G01*
X189706622Y-98109377D01*
X189661800Y-98103267D01*
X189592109Y-98134245D01*
X189605355Y-98159712D01*
X189705835Y-98169845D01*
X189718244Y-98159712D01*
G37*
X189718244Y-98159712D02*
X189706622Y-98109377D01*
X189661800Y-98103267D01*
X189592109Y-98134245D01*
X189605355Y-98159712D01*
X189705835Y-98169845D01*
X189718244Y-98159712D01*
G36*
X181364466Y-98145600D02*
G01*
X181322133Y-98103267D01*
X181279800Y-98145600D01*
X181322133Y-98187934D01*
X181364466Y-98145600D01*
G37*
X181364466Y-98145600D02*
X181322133Y-98103267D01*
X181279800Y-98145600D01*
X181322133Y-98187934D01*
X181364466Y-98145600D01*
G36*
X189024770Y-98310615D02*
G01*
X189029099Y-98309577D01*
X189267175Y-98243483D01*
X189379560Y-98180785D01*
X189407799Y-98098304D01*
X189407800Y-98098270D01*
X189347078Y-98023644D01*
X189202988Y-98031935D01*
X189032637Y-98111513D01*
X188936387Y-98194282D01*
X188834811Y-98314727D01*
X188857641Y-98345258D01*
X189024770Y-98310615D01*
G37*
X189024770Y-98310615D02*
X189029099Y-98309577D01*
X189267175Y-98243483D01*
X189379560Y-98180785D01*
X189407799Y-98098304D01*
X189407800Y-98098270D01*
X189347078Y-98023644D01*
X189202988Y-98031935D01*
X189032637Y-98111513D01*
X188936387Y-98194282D01*
X188834811Y-98314727D01*
X188857641Y-98345258D01*
X189024770Y-98310615D01*
G36*
X182079806Y-98291105D02*
G01*
X182023479Y-98190060D01*
X181900415Y-98081480D01*
X181735417Y-98022784D01*
X181592057Y-98025888D01*
X181533800Y-98098270D01*
X181563963Y-98182809D01*
X181682422Y-98246630D01*
X181895678Y-98305354D01*
X182054984Y-98334269D01*
X182079806Y-98291105D01*
G37*
X182079806Y-98291105D02*
X182023479Y-98190060D01*
X181900415Y-98081480D01*
X181735417Y-98022784D01*
X181592057Y-98025888D01*
X181533800Y-98098270D01*
X181563963Y-98182809D01*
X181682422Y-98246630D01*
X181895678Y-98305354D01*
X182054984Y-98334269D01*
X182079806Y-98291105D01*
G36*
X188354018Y-98393318D02*
G01*
X188412966Y-98379734D01*
X188617899Y-98293424D01*
X188799152Y-98161283D01*
X188895896Y-98030074D01*
X188899800Y-98005478D01*
X188838480Y-97931054D01*
X188692685Y-97934784D01*
X188519662Y-98002144D01*
X188376656Y-98118611D01*
X188359204Y-98142622D01*
X188249111Y-98324704D01*
X188245207Y-98398674D01*
X188354018Y-98393318D01*
G37*
X188354018Y-98393318D02*
X188412966Y-98379734D01*
X188617899Y-98293424D01*
X188799152Y-98161283D01*
X188895896Y-98030074D01*
X188899800Y-98005478D01*
X188838480Y-97931054D01*
X188692685Y-97934784D01*
X188519662Y-98002144D01*
X188376656Y-98118611D01*
X188359204Y-98142622D01*
X188249111Y-98324704D01*
X188245207Y-98398674D01*
X188354018Y-98393318D01*
G36*
X182742663Y-98318532D02*
G01*
X182625617Y-98152837D01*
X182566132Y-98082100D01*
X182425234Y-97979568D01*
X182264375Y-97934266D01*
X182148080Y-97957439D01*
X182126466Y-98005478D01*
X182195842Y-98130051D01*
X182363424Y-98266061D01*
X182568394Y-98366759D01*
X182613416Y-98379764D01*
X182737812Y-98389235D01*
X182742663Y-98318532D01*
G37*
X182742663Y-98318532D02*
X182625617Y-98152837D01*
X182566132Y-98082100D01*
X182425234Y-97979568D01*
X182264375Y-97934266D01*
X182148080Y-97957439D01*
X182126466Y-98005478D01*
X182195842Y-98130051D01*
X182363424Y-98266061D01*
X182568394Y-98366759D01*
X182613416Y-98379764D01*
X182737812Y-98389235D01*
X182742663Y-98318532D01*
G36*
X187949905Y-98377208D02*
G01*
X188114903Y-98219135D01*
X188131496Y-98196786D01*
X188238718Y-98028979D01*
X188244347Y-97943874D01*
X188172670Y-97900452D01*
X188014119Y-97857063D01*
X187906899Y-97903243D01*
X187790961Y-98068398D01*
X187775054Y-98095164D01*
X187661939Y-98302942D01*
X187645278Y-98405919D01*
X187726952Y-98439758D01*
X187793368Y-98441934D01*
X187949905Y-98377208D01*
G37*
X187949905Y-98377208D02*
X188114903Y-98219135D01*
X188131496Y-98196786D01*
X188238718Y-98028979D01*
X188244347Y-97943874D01*
X188172670Y-97900452D01*
X188014119Y-97857063D01*
X187906899Y-97903243D01*
X187790961Y-98068398D01*
X187775054Y-98095164D01*
X187661939Y-98302942D01*
X187645278Y-98405919D01*
X187726952Y-98439758D01*
X187793368Y-98441934D01*
X187949905Y-98377208D01*
G36*
X187236724Y-98464964D02*
G01*
X187429109Y-98350220D01*
X187574021Y-98138039D01*
X187711727Y-97849267D01*
X187476105Y-97849267D01*
X187297636Y-97883648D01*
X187185306Y-98017825D01*
X187138808Y-98130445D01*
X187061545Y-98357508D01*
X187054105Y-98462667D01*
X187127258Y-98482722D01*
X187236724Y-98464964D01*
G37*
X187236724Y-98464964D02*
X187429109Y-98350220D01*
X187574021Y-98138039D01*
X187711727Y-97849267D01*
X187476105Y-97849267D01*
X187297636Y-97883648D01*
X187185306Y-98017825D01*
X187138808Y-98130445D01*
X187061545Y-98357508D01*
X187054105Y-98462667D01*
X187127258Y-98482722D01*
X187236724Y-98464964D01*
G36*
X186766515Y-98455906D02*
G01*
X186903474Y-98232977D01*
X186908997Y-98219927D01*
X186990569Y-98017329D01*
X187034618Y-97893583D01*
X187037133Y-97881261D01*
X186967994Y-97851192D01*
X186815000Y-97851293D01*
X186659784Y-97875857D01*
X186586419Y-97912767D01*
X186544191Y-98033186D01*
X186492855Y-98238381D01*
X186490029Y-98251434D01*
X186463383Y-98439557D01*
X186508873Y-98514916D01*
X186605936Y-98526600D01*
X186766515Y-98455906D01*
G37*
X186766515Y-98455906D02*
X186903474Y-98232977D01*
X186908997Y-98219927D01*
X186990569Y-98017329D01*
X187034618Y-97893583D01*
X187037133Y-97881261D01*
X186967994Y-97851192D01*
X186815000Y-97851293D01*
X186659784Y-97875857D01*
X186586419Y-97912767D01*
X186544191Y-98033186D01*
X186492855Y-98238381D01*
X186490029Y-98251434D01*
X186463383Y-98439557D01*
X186508873Y-98514916D01*
X186605936Y-98526600D01*
X186766515Y-98455906D01*
G36*
X184489285Y-98514430D02*
G01*
X184528099Y-98447330D01*
X184500542Y-98279419D01*
X184477831Y-98187934D01*
X184402105Y-97964457D01*
X184303057Y-97866467D01*
X184190501Y-97849267D01*
X184036316Y-97875097D01*
X183989133Y-97921300D01*
X184014876Y-98044782D01*
X184077318Y-98246206D01*
X184082082Y-98259966D01*
X184192254Y-98460790D01*
X184351790Y-98526212D01*
X184369413Y-98526600D01*
X184489285Y-98514430D01*
G37*
X184489285Y-98514430D02*
X184528099Y-98447330D01*
X184500542Y-98279419D01*
X184477831Y-98187934D01*
X184402105Y-97964457D01*
X184303057Y-97866467D01*
X184190501Y-97849267D01*
X184036316Y-97875097D01*
X183989133Y-97921300D01*
X184014876Y-98044782D01*
X184077318Y-98246206D01*
X184082082Y-98259966D01*
X184192254Y-98460790D01*
X184351790Y-98526212D01*
X184369413Y-98526600D01*
X184489285Y-98514430D01*
G36*
X183989133Y-98482866D02*
G01*
X183959825Y-98399868D01*
X183886885Y-98218319D01*
X183860997Y-98155940D01*
X183742302Y-97941898D01*
X183600687Y-97856375D01*
X183522330Y-97849267D01*
X183363599Y-97865317D01*
X183311800Y-97895805D01*
X183374937Y-98088390D01*
X183525488Y-98292477D01*
X183705163Y-98436691D01*
X183774215Y-98462035D01*
X183933803Y-98485818D01*
X183989133Y-98482866D01*
G37*
X183989133Y-98482866D02*
X183959825Y-98399868D01*
X183886885Y-98218319D01*
X183860997Y-98155940D01*
X183742302Y-97941898D01*
X183600687Y-97856375D01*
X183522330Y-97849267D01*
X183363599Y-97865317D01*
X183311800Y-97895805D01*
X183374937Y-98088390D01*
X183525488Y-98292477D01*
X183705163Y-98436691D01*
X183774215Y-98462035D01*
X183933803Y-98485818D01*
X183989133Y-98482866D01*
G36*
X183330402Y-98431955D02*
G01*
X183353881Y-98370678D01*
X183281430Y-98211094D01*
X183272243Y-98193303D01*
X183148816Y-97985977D01*
X183035904Y-97902663D01*
X182883978Y-97909041D01*
X182867300Y-97912705D01*
X182750582Y-97952086D01*
X182735380Y-98025006D01*
X182820032Y-98178098D01*
X182855870Y-98233246D01*
X183040835Y-98401662D01*
X183196711Y-98441934D01*
X183330402Y-98431955D01*
G37*
X183330402Y-98431955D02*
X183353881Y-98370678D01*
X183281430Y-98211094D01*
X183272243Y-98193303D01*
X183148816Y-97985977D01*
X183035904Y-97902663D01*
X182883978Y-97909041D01*
X182867300Y-97912705D01*
X182750582Y-97952086D01*
X182735380Y-98025006D01*
X182820032Y-98178098D01*
X182855870Y-98233246D01*
X183040835Y-98401662D01*
X183196711Y-98441934D01*
X183330402Y-98431955D01*
G36*
X186202209Y-98490534D02*
G01*
X186285656Y-98350708D01*
X186306883Y-98262017D01*
X186351784Y-97985039D01*
X186337852Y-97834276D01*
X186253471Y-97773324D01*
X186148133Y-97764600D01*
X185983630Y-97804968D01*
X185936466Y-97881017D01*
X185920548Y-98043638D01*
X185883550Y-98262017D01*
X185861302Y-98444602D01*
X185917123Y-98515691D01*
X186042300Y-98526600D01*
X186202209Y-98490534D01*
G37*
X186202209Y-98490534D02*
X186285656Y-98350708D01*
X186306883Y-98262017D01*
X186351784Y-97985039D01*
X186337852Y-97834276D01*
X186253471Y-97773324D01*
X186148133Y-97764600D01*
X185983630Y-97804968D01*
X185936466Y-97881017D01*
X185920548Y-98043638D01*
X185883550Y-98262017D01*
X185861302Y-98444602D01*
X185917123Y-98515691D01*
X186042300Y-98526600D01*
X186202209Y-98490534D01*
G36*
X185601415Y-98510809D02*
G01*
X185663299Y-98433187D01*
X185681658Y-98248364D01*
X185682466Y-98145600D01*
X185673693Y-97910493D01*
X185630570Y-97799102D01*
X185527891Y-97766056D01*
X185470800Y-97764600D01*
X185340184Y-97780392D01*
X185278300Y-97858014D01*
X185259941Y-98042837D01*
X185259133Y-98145600D01*
X185267906Y-98380708D01*
X185311029Y-98492099D01*
X185413708Y-98525145D01*
X185470800Y-98526600D01*
X185601415Y-98510809D01*
G37*
X185601415Y-98510809D02*
X185663299Y-98433187D01*
X185681658Y-98248364D01*
X185682466Y-98145600D01*
X185673693Y-97910493D01*
X185630570Y-97799102D01*
X185527891Y-97766056D01*
X185470800Y-97764600D01*
X185340184Y-97780392D01*
X185278300Y-97858014D01*
X185259941Y-98042837D01*
X185259133Y-98145600D01*
X185267906Y-98380708D01*
X185311029Y-98492099D01*
X185413708Y-98525145D01*
X185470800Y-98526600D01*
X185601415Y-98510809D01*
G36*
X185035445Y-98504302D02*
G01*
X185078147Y-98407683D01*
X185075285Y-98192162D01*
X185073501Y-98166767D01*
X185044552Y-97937081D01*
X184979460Y-97826267D01*
X184844449Y-97783884D01*
X184814633Y-97780143D01*
X184646655Y-97782223D01*
X184582272Y-97822477D01*
X184603552Y-97942637D01*
X184655659Y-98153138D01*
X184670918Y-98209100D01*
X184762623Y-98434806D01*
X184885219Y-98522514D01*
X184929314Y-98526600D01*
X185035445Y-98504302D01*
G37*
X185035445Y-98504302D02*
X185078147Y-98407683D01*
X185075285Y-98192162D01*
X185073501Y-98166767D01*
X185044552Y-97937081D01*
X184979460Y-97826267D01*
X184844449Y-97783884D01*
X184814633Y-97780143D01*
X184646655Y-97782223D01*
X184582272Y-97822477D01*
X184603552Y-97942637D01*
X184655659Y-98153138D01*
X184670918Y-98209100D01*
X184762623Y-98434806D01*
X184885219Y-98522514D01*
X184929314Y-98526600D01*
X185035445Y-98504302D01*
G36*
X190435568Y-97532698D02*
G01*
X190488151Y-97391798D01*
X190410896Y-97258305D01*
X190238760Y-97178566D01*
X190163469Y-97171934D01*
X189997153Y-97187782D01*
X189961969Y-97262848D01*
X189991583Y-97362434D01*
X190114148Y-97527665D01*
X190285315Y-97590910D01*
X190435568Y-97532698D01*
G37*
X190435568Y-97532698D02*
X190488151Y-97391798D01*
X190410896Y-97258305D01*
X190238760Y-97178566D01*
X190163469Y-97171934D01*
X189997153Y-97187782D01*
X189961969Y-97262848D01*
X189991583Y-97362434D01*
X190114148Y-97527665D01*
X190285315Y-97590910D01*
X190435568Y-97532698D01*
G36*
X180888617Y-97568640D02*
G01*
X180941133Y-97517525D01*
X180969061Y-97375636D01*
X180992525Y-97305859D01*
X180992016Y-97210803D01*
X180868868Y-97174485D01*
X180780858Y-97171934D01*
X180595188Y-97192898D01*
X180525363Y-97283214D01*
X180517800Y-97383600D01*
X180552769Y-97544722D01*
X180690459Y-97594373D01*
X180729466Y-97595267D01*
X180888617Y-97568640D01*
G37*
X180888617Y-97568640D02*
X180941133Y-97517525D01*
X180969061Y-97375636D01*
X180992525Y-97305859D01*
X180992016Y-97210803D01*
X180868868Y-97174485D01*
X180780858Y-97171934D01*
X180595188Y-97192898D01*
X180525363Y-97283214D01*
X180517800Y-97383600D01*
X180552769Y-97544722D01*
X180690459Y-97594373D01*
X180729466Y-97595267D01*
X180888617Y-97568640D01*
G36*
X188852088Y-91363381D02*
G01*
X188936621Y-91332029D01*
X189096144Y-91243339D01*
X189153800Y-91162696D01*
X189098507Y-91081598D01*
X188965748Y-91101574D01*
X188805200Y-91211858D01*
X188772800Y-91245267D01*
X188673284Y-91370549D01*
X188695101Y-91407477D01*
X188852088Y-91363381D01*
G37*
X188852088Y-91363381D02*
X188936621Y-91332029D01*
X189096144Y-91243339D01*
X189153800Y-91162696D01*
X189098507Y-91081598D01*
X188965748Y-91101574D01*
X188805200Y-91211858D01*
X188772800Y-91245267D01*
X188673284Y-91370549D01*
X188695101Y-91407477D01*
X188852088Y-91363381D01*
G36*
X182771567Y-91391121D02*
G01*
X182729397Y-91294014D01*
X182699484Y-91245267D01*
X182575263Y-91127649D01*
X182427151Y-91076411D01*
X182317381Y-91104283D01*
X182295800Y-91162696D01*
X182365989Y-91253111D01*
X182512978Y-91332029D01*
X182707851Y-91399874D01*
X182771567Y-91391121D01*
G37*
X182771567Y-91391121D02*
X182729397Y-91294014D01*
X182699484Y-91245267D01*
X182575263Y-91127649D01*
X182427151Y-91076411D01*
X182317381Y-91104283D01*
X182295800Y-91162696D01*
X182365989Y-91253111D01*
X182512978Y-91332029D01*
X182707851Y-91399874D01*
X182771567Y-91391121D01*
G36*
X188257015Y-91451264D02*
G01*
X188285966Y-91441407D01*
X188473681Y-91342021D01*
X188641272Y-91204238D01*
X188728095Y-91079710D01*
X188730466Y-91062812D01*
X188673052Y-90989204D01*
X188538102Y-91002971D01*
X188381559Y-91087285D01*
X188274537Y-91199955D01*
X188162808Y-91387537D01*
X188156619Y-91463948D01*
X188257015Y-91451264D01*
G37*
X188257015Y-91451264D02*
X188285966Y-91441407D01*
X188473681Y-91342021D01*
X188641272Y-91204238D01*
X188728095Y-91079710D01*
X188730466Y-91062812D01*
X188673052Y-90989204D01*
X188538102Y-91002971D01*
X188381559Y-91087285D01*
X188274537Y-91199955D01*
X188162808Y-91387537D01*
X188156619Y-91463948D01*
X188257015Y-91451264D01*
G36*
X183302102Y-91449707D02*
G01*
X183298002Y-91356874D01*
X183202336Y-91216723D01*
X183061519Y-91080094D01*
X182921967Y-90997824D01*
X182883535Y-90991267D01*
X182766877Y-91012947D01*
X182777983Y-91109042D01*
X182806355Y-91165376D01*
X182924388Y-91300144D01*
X183091995Y-91411932D01*
X183244370Y-91463573D01*
X183302102Y-91449707D01*
G37*
X183302102Y-91449707D02*
X183298002Y-91356874D01*
X183202336Y-91216723D01*
X183061519Y-91080094D01*
X182921967Y-90997824D01*
X182883535Y-90991267D01*
X182766877Y-91012947D01*
X182777983Y-91109042D01*
X182806355Y-91165376D01*
X182924388Y-91300144D01*
X183091995Y-91411932D01*
X183244370Y-91463573D01*
X183302102Y-91449707D01*
G36*
X187907867Y-91439009D02*
G01*
X188043639Y-91296316D01*
X188147573Y-91128311D01*
X188179047Y-90992115D01*
X188163791Y-90960814D01*
X188016234Y-90907523D01*
X187858735Y-91007219D01*
X187758974Y-91156396D01*
X187658563Y-91365347D01*
X187644472Y-91466060D01*
X187719184Y-91497420D01*
X187780878Y-91499267D01*
X187907867Y-91439009D01*
G37*
X187907867Y-91439009D02*
X188043639Y-91296316D01*
X188147573Y-91128311D01*
X188179047Y-90992115D01*
X188163791Y-90960814D01*
X188016234Y-90907523D01*
X187858735Y-91007219D01*
X187758974Y-91156396D01*
X187658563Y-91365347D01*
X187644472Y-91466060D01*
X187719184Y-91497420D01*
X187780878Y-91499267D01*
X187907867Y-91439009D01*
G36*
X187278597Y-91527077D02*
G01*
X187416416Y-91427760D01*
X187553249Y-91236245D01*
X187573561Y-91196337D01*
X187657901Y-91007599D01*
X187658728Y-90926210D01*
X187566088Y-90906996D01*
X187509712Y-90906600D01*
X187341728Y-90956948D01*
X187229533Y-91133085D01*
X187214749Y-91173235D01*
X187140569Y-91409277D01*
X187137238Y-91521261D01*
X187210581Y-91541485D01*
X187278597Y-91527077D01*
G37*
X187278597Y-91527077D02*
X187416416Y-91427760D01*
X187553249Y-91236245D01*
X187573561Y-91196337D01*
X187657901Y-91007599D01*
X187658728Y-90926210D01*
X187566088Y-90906996D01*
X187509712Y-90906600D01*
X187341728Y-90956948D01*
X187229533Y-91133085D01*
X187214749Y-91173235D01*
X187140569Y-91409277D01*
X187137238Y-91521261D01*
X187210581Y-91541485D01*
X187278597Y-91527077D01*
G36*
X184324458Y-91488415D02*
G01*
X184327800Y-91454519D01*
X184281569Y-91205629D01*
X184165898Y-91004908D01*
X184015319Y-90908574D01*
X183991228Y-90906600D01*
X183852268Y-90918960D01*
X183819800Y-90936300D01*
X183844736Y-91028302D01*
X183905217Y-91210991D01*
X183909792Y-91224151D01*
X184006185Y-91392196D01*
X184136562Y-91508312D01*
X184257221Y-91548413D01*
X184324458Y-91488415D01*
G37*
X184324458Y-91488415D02*
X184327800Y-91454519D01*
X184281569Y-91205629D01*
X184165898Y-91004908D01*
X184015319Y-90908574D01*
X183991228Y-90906600D01*
X183852268Y-90918960D01*
X183819800Y-90936300D01*
X183844736Y-91028302D01*
X183905217Y-91210991D01*
X183909792Y-91224151D01*
X184006185Y-91392196D01*
X184136562Y-91508312D01*
X184257221Y-91548413D01*
X184324458Y-91488415D01*
G36*
X183823025Y-91487296D02*
G01*
X183837799Y-91421807D01*
X183774485Y-91258433D01*
X183749502Y-91202934D01*
X183611781Y-90982007D01*
X183474399Y-90908068D01*
X183354818Y-90990249D01*
X183351832Y-90994990D01*
X183351825Y-91133372D01*
X183446866Y-91304424D01*
X183591250Y-91446672D01*
X183726760Y-91499267D01*
X183823025Y-91487296D01*
G37*
X183823025Y-91487296D02*
X183837799Y-91421807D01*
X183774485Y-91258433D01*
X183749502Y-91202934D01*
X183611781Y-90982007D01*
X183474399Y-90908068D01*
X183354818Y-90990249D01*
X183351832Y-90994990D01*
X183351825Y-91133372D01*
X183446866Y-91304424D01*
X183591250Y-91446672D01*
X183726760Y-91499267D01*
X183823025Y-91487296D01*
G36*
X186890229Y-91513537D02*
G01*
X186999821Y-91344383D01*
X187065196Y-91139526D01*
X187063273Y-90962020D01*
X187013476Y-90890188D01*
X186843885Y-90826593D01*
X186753483Y-90886079D01*
X186713141Y-91005112D01*
X186664085Y-91217212D01*
X186654397Y-91267079D01*
X186626425Y-91474540D01*
X186658318Y-91564773D01*
X186759505Y-91583934D01*
X186890229Y-91513537D01*
G37*
X186890229Y-91513537D02*
X186999821Y-91344383D01*
X187065196Y-91139526D01*
X187063273Y-90962020D01*
X187013476Y-90890188D01*
X186843885Y-90826593D01*
X186753483Y-90886079D01*
X186713141Y-91005112D01*
X186664085Y-91217212D01*
X186654397Y-91267079D01*
X186626425Y-91474540D01*
X186658318Y-91564773D01*
X186759505Y-91583934D01*
X186890229Y-91513537D01*
G36*
X184806545Y-91528269D02*
G01*
X184834138Y-91364211D01*
X184776049Y-91102637D01*
X184753228Y-91039112D01*
X184635161Y-90867126D01*
X184485593Y-90820922D01*
X184391165Y-90871457D01*
X184376227Y-90989006D01*
X184430667Y-91181015D01*
X184526482Y-91383415D01*
X184635665Y-91532137D01*
X184696057Y-91568975D01*
X184806545Y-91528269D01*
G37*
X184806545Y-91528269D02*
X184834138Y-91364211D01*
X184776049Y-91102637D01*
X184753228Y-91039112D01*
X184635161Y-90867126D01*
X184485593Y-90820922D01*
X184391165Y-90871457D01*
X184376227Y-90989006D01*
X184430667Y-91181015D01*
X184526482Y-91383415D01*
X184635665Y-91532137D01*
X184696057Y-91568975D01*
X184806545Y-91528269D01*
G36*
X202107800Y-80492600D02*
G01*
X171627800Y-80492600D01*
X171627800Y-97051429D01*
X179941506Y-97051429D01*
X179948163Y-96862878D01*
X179994493Y-96751208D01*
X180061411Y-96689013D01*
X180249642Y-96605663D01*
X180393164Y-96679614D01*
X180474376Y-96817578D01*
X180610658Y-96965518D01*
X180813043Y-97002399D01*
X180962560Y-96984588D01*
X181078675Y-96908261D01*
X181197351Y-96738657D01*
X181316715Y-96515566D01*
X181536344Y-96168806D01*
X181864711Y-95761421D01*
X182262884Y-95339437D01*
X182960470Y-94649940D01*
X181868334Y-91788033D01*
X181614317Y-91128789D01*
X181374881Y-90519560D01*
X181157539Y-89978552D01*
X180969806Y-89523971D01*
X180819197Y-89174023D01*
X180713225Y-88946915D01*
X180660381Y-88861313D01*
X180580024Y-88757378D01*
X180462520Y-88533795D01*
X180327820Y-88230331D01*
X180264767Y-88072769D01*
X180134562Y-87730416D01*
X180061295Y-87508138D01*
X180039804Y-87368478D01*
X180064925Y-87273975D01*
X180131496Y-87187171D01*
X180141224Y-87176378D01*
X180366254Y-87039228D01*
X180555806Y-87028992D01*
X180686714Y-87054206D01*
X180787470Y-87121250D01*
X180882536Y-87262474D01*
X180996376Y-87510226D01*
X181087148Y-87731600D01*
X181208011Y-88061758D01*
X181291585Y-88349793D01*
X181324575Y-88547394D01*
X181322001Y-88584959D01*
X181337318Y-88726909D01*
X181406326Y-88990140D01*
X181518394Y-89339294D01*
X181662888Y-89739011D01*
X181691143Y-89812626D01*
X181864468Y-90249588D01*
X181995142Y-90548967D01*
X182095581Y-90733309D01*
X182178204Y-90825160D01*
X182255428Y-90847066D01*
X182260623Y-90846599D01*
X182421422Y-90827184D01*
X182694089Y-90792478D01*
X183022651Y-90749617D01*
X183057800Y-90744975D01*
X183445118Y-90699746D01*
X183916624Y-90653311D01*
X184387432Y-90613839D01*
X184518300Y-90604408D01*
X184900104Y-90581233D01*
X185143398Y-90576903D01*
X185278258Y-90594348D01*
X185334756Y-90636500D01*
X185343800Y-90684865D01*
X185272048Y-90796455D01*
X185121550Y-90821934D01*
X184971637Y-90838635D01*
X184928884Y-90923039D01*
X184952216Y-91086517D01*
X184989958Y-91310247D01*
X185005133Y-91467517D01*
X185075699Y-91561932D01*
X185174466Y-91583934D01*
X185316042Y-91641831D01*
X185343800Y-91723359D01*
X185327780Y-91782832D01*
X185260978Y-91818923D01*
X185115276Y-91834017D01*
X184862555Y-91830499D01*
X184474699Y-91810756D01*
X184379711Y-91805146D01*
X183931802Y-91773715D01*
X183489720Y-91734733D01*
X183114085Y-91693930D01*
X182924424Y-91667563D01*
X182658097Y-91628684D01*
X182469909Y-91609636D01*
X182408569Y-91612276D01*
X182429916Y-91693203D01*
X182500463Y-91900899D01*
X182608613Y-92204086D01*
X182742770Y-92571491D01*
X182891335Y-92971837D01*
X183042712Y-93373850D01*
X183185303Y-93746256D01*
X183307512Y-94057777D01*
X183390327Y-94259867D01*
X183466355Y-94438133D01*
X184045244Y-94240886D01*
X184373451Y-94140579D01*
X184673813Y-94068420D01*
X184878133Y-94040297D01*
X185131491Y-94020975D01*
X185315883Y-93987668D01*
X185499634Y-93938381D01*
X185501569Y-90461430D01*
X185501219Y-89578162D01*
X185498763Y-88849238D01*
X185493708Y-88259674D01*
X185485562Y-87794488D01*
X185473830Y-87438697D01*
X185458019Y-87177319D01*
X185437636Y-86995372D01*
X185412188Y-86877872D01*
X185381319Y-86810034D01*
X185304919Y-86599247D01*
X185265472Y-86234060D01*
X185259133Y-85939563D01*
X185263789Y-85588714D01*
X185283981Y-85366020D01*
X185329043Y-85230414D01*
X185408310Y-85140829D01*
X185447305Y-85111735D01*
X185719900Y-84990663D01*
X185957240Y-85034832D01*
X186057419Y-85112981D01*
X186126982Y-85229983D01*
X186168858Y-85432544D01*
X186187928Y-85753102D01*
X186190466Y-85996985D01*
X186181505Y-86337755D01*
X186157549Y-86610639D01*
X186122989Y-86773981D01*
X186105800Y-86800267D01*
X186083154Y-86898993D01*
X186063819Y-87161510D01*
X186047923Y-87582307D01*
X186035595Y-88155873D01*
X186026963Y-88876695D01*
X186022155Y-89739261D01*
X186021133Y-90438489D01*
X186021133Y-94024383D01*
X186380966Y-94083723D01*
X186673435Y-94152614D01*
X187056739Y-94280728D01*
X187554337Y-94476319D01*
X187849771Y-94600479D01*
X187902200Y-94536666D01*
X188001277Y-94343340D01*
X188135152Y-94049896D01*
X188291977Y-93685729D01*
X188459901Y-93280236D01*
X188627076Y-92862811D01*
X188781652Y-92462849D01*
X188911780Y-92109747D01*
X189005612Y-91832898D01*
X189051297Y-91661700D01*
X189050499Y-91621745D01*
X188955176Y-91615507D01*
X188745184Y-91635271D01*
X188551335Y-91663305D01*
X188272416Y-91699806D01*
X187881734Y-91739342D01*
X187436648Y-91776524D01*
X187096048Y-91799972D01*
X186671543Y-91823877D01*
X186388090Y-91832038D01*
X186217955Y-91822282D01*
X186133400Y-91792439D01*
X186106692Y-91740336D01*
X186105800Y-91722443D01*
X186175743Y-91606298D01*
X186265258Y-91583934D01*
X186412813Y-91505967D01*
X186502935Y-91284440D01*
X186527977Y-91012434D01*
X186488405Y-90865927D01*
X186337996Y-90822182D01*
X186317466Y-90821934D01*
X186144904Y-90775985D01*
X186105800Y-90687798D01*
X186123919Y-90630324D01*
X186196937Y-90596040D01*
X186352844Y-90582721D01*
X186619627Y-90588143D01*
X187025277Y-90610082D01*
X187058300Y-90612099D01*
X187533719Y-90648396D01*
X188032090Y-90698134D01*
X188478915Y-90753400D01*
X188684823Y-90784823D01*
X188998368Y-90835758D01*
X189237508Y-90870378D01*
X189362028Y-90883008D01*
X189371002Y-90881688D01*
X189439206Y-90743226D01*
X189543211Y-90485020D01*
X189669621Y-90145777D01*
X189805038Y-89764200D01*
X189936064Y-89378994D01*
X190049302Y-89028864D01*
X190131355Y-88752513D01*
X190168824Y-88588647D01*
X190169800Y-88574019D01*
X190199921Y-88373968D01*
X190279517Y-88076761D01*
X190392440Y-87741341D01*
X190412588Y-87687889D01*
X190544032Y-87363789D01*
X190647788Y-87168050D01*
X190747034Y-87067522D01*
X190864950Y-87029054D01*
X190874068Y-87027881D01*
X191140316Y-87048016D01*
X191344865Y-87157260D01*
X191438373Y-87327281D01*
X191439800Y-87352689D01*
X191404457Y-87549422D01*
X191313035Y-87835654D01*
X191187441Y-88158125D01*
X191049583Y-88463576D01*
X190921366Y-88698747D01*
X190846295Y-88795574D01*
X190783386Y-88902557D01*
X190668676Y-89149874D01*
X190509702Y-89519265D01*
X190314002Y-89992468D01*
X190089114Y-90551223D01*
X189842576Y-91177269D01*
X189581925Y-91852344D01*
X189549410Y-91937474D01*
X188401432Y-94946733D01*
X188841116Y-95404822D01*
X189118862Y-95727772D01*
X189404330Y-96112659D01*
X189609459Y-96432755D01*
X189788184Y-96727776D01*
X189922016Y-96900972D01*
X190040692Y-96982520D01*
X190171084Y-97002600D01*
X190372456Y-96952910D01*
X190448220Y-96833694D01*
X190560195Y-96657219D01*
X190736280Y-96601293D01*
X190890544Y-96664829D01*
X190966527Y-96814122D01*
X191009391Y-97071452D01*
X191015076Y-97378036D01*
X190979524Y-97675089D01*
X190964634Y-97737577D01*
X190858432Y-97924058D01*
X190701284Y-97969213D01*
X190559297Y-97888003D01*
X190382465Y-97781828D01*
X190210331Y-97779950D01*
X190132568Y-97841013D01*
X190028478Y-97865690D01*
X189817735Y-97833685D01*
X189713242Y-97805439D01*
X189256956Y-97695149D01*
X188693104Y-97608478D01*
X188008737Y-97544422D01*
X187190909Y-97501979D01*
X186226670Y-97480144D01*
X185470800Y-97476566D01*
X184373318Y-97487852D01*
X183433939Y-97519377D01*
X182642552Y-97571926D01*
X181989048Y-97646281D01*
X181463318Y-97743228D01*
X181228357Y-97805439D01*
X180988901Y-97859261D01*
X180835227Y-97858172D01*
X180809031Y-97841013D01*
X180679460Y-97768578D01*
X180498017Y-97805636D01*
X180382302Y-97888003D01*
X180228946Y-97983313D01*
X180110232Y-97923037D01*
X180022953Y-97703101D01*
X179968276Y-97361988D01*
X179941506Y-97051429D01*
X171627800Y-97051429D01*
X171627800Y-98150976D01*
X180856466Y-98150976D01*
X180940079Y-98034505D01*
X181187084Y-97926908D01*
X181591734Y-97828998D01*
X182148279Y-97741588D01*
X182850972Y-97665490D01*
X183694064Y-97601517D01*
X184671806Y-97550483D01*
X185259133Y-97528413D01*
X185502060Y-97528209D01*
X185873859Y-97537526D01*
X186334420Y-97554923D01*
X186843638Y-97578958D01*
X187183377Y-97597554D01*
X188075623Y-97660888D01*
X188814042Y-97738328D01*
X189395639Y-97829285D01*
X189817419Y-97933170D01*
X190076386Y-98049394D01*
X190169546Y-98177368D01*
X190169800Y-98184711D01*
X190086872Y-98278617D01*
X189844651Y-98377621D01*
X189452982Y-98478680D01*
X188921711Y-98578751D01*
X188865419Y-98587922D01*
X188436810Y-98638894D01*
X187872335Y-98679144D01*
X187204261Y-98708662D01*
X186464856Y-98727438D01*
X185686388Y-98735462D01*
X184901125Y-98732726D01*
X184141334Y-98719219D01*
X183439283Y-98694931D01*
X182827240Y-98659853D01*
X182337472Y-98613974D01*
X182166384Y-98589936D01*
X181641329Y-98497460D01*
X181266421Y-98412877D01*
X181023066Y-98329955D01*
X180892666Y-98242462D01*
X180856466Y-98150976D01*
X171627800Y-98150976D01*
X171627800Y-98607004D01*
X180812714Y-98607004D01*
X180831621Y-98579668D01*
X180946988Y-98530106D01*
X181139567Y-98550053D01*
X181426562Y-98644972D01*
X181825175Y-98820330D01*
X182254803Y-99031734D01*
X182403925Y-99112771D01*
X187375800Y-99112771D01*
X187424997Y-99038128D01*
X187541108Y-99078636D01*
X187634433Y-99167183D01*
X187928980Y-99404394D01*
X188321442Y-99518820D01*
X188819372Y-99511505D01*
X189353245Y-99404541D01*
X189998377Y-99286702D01*
X190642790Y-99266204D01*
X191246115Y-99339377D01*
X191767981Y-99502552D01*
X192034318Y-99648254D01*
X192258754Y-99821627D01*
X192355087Y-99941447D01*
X192321783Y-99992617D01*
X192157309Y-99960043D01*
X192062270Y-99923478D01*
X191535357Y-99779852D01*
X190895685Y-99737181D01*
X190167228Y-99796528D01*
X189958133Y-99830233D01*
X189239890Y-99932459D01*
X188667506Y-99958708D01*
X188243076Y-99908967D01*
X188059013Y-99841975D01*
X187867514Y-99709762D01*
X187662117Y-99520136D01*
X187486830Y-99320067D01*
X187385662Y-99156525D01*
X187375800Y-99112771D01*
X182403925Y-99112771D01*
X182961191Y-99415604D01*
X183416448Y-99689170D01*
X186370094Y-99689170D01*
X186416285Y-99658795D01*
X186565969Y-99761797D01*
X186804300Y-99988047D01*
X187093882Y-100250703D01*
X187413074Y-100491207D01*
X187672133Y-100646358D01*
X187854172Y-100726854D01*
X188039139Y-100785418D01*
X188261200Y-100826945D01*
X188554524Y-100856328D01*
X188953278Y-100878461D01*
X189412520Y-100895626D01*
X189912539Y-100913288D01*
X190280257Y-100932198D01*
X190552614Y-100959189D01*
X190766552Y-101001091D01*
X190959011Y-101064736D01*
X191166930Y-101156954D01*
X191374339Y-101258424D01*
X192010137Y-101648427D01*
X192623975Y-102166522D01*
X193172452Y-102772830D01*
X193460439Y-103175227D01*
X193628436Y-103446194D01*
X193752383Y-103666486D01*
X193809158Y-103794562D01*
X193810466Y-103804079D01*
X193754509Y-103783515D01*
X193602283Y-103663124D01*
X193377251Y-103462819D01*
X193111966Y-103211355D01*
X192528494Y-102673527D01*
X191999322Y-102260481D01*
X191486808Y-101954801D01*
X190953311Y-101739070D01*
X190361188Y-101595870D01*
X189672799Y-101507786D01*
X189381711Y-101485380D01*
X188871354Y-101444994D01*
X188489472Y-101397265D01*
X188195209Y-101334839D01*
X187947706Y-101250363D01*
X187857711Y-101211087D01*
X187270819Y-100868907D01*
X186810821Y-100433274D01*
X186599567Y-100141522D01*
X186430239Y-99850790D01*
X186370094Y-99689170D01*
X183416448Y-99689170D01*
X183737073Y-99881835D01*
X184553785Y-100409800D01*
X185382664Y-100978869D01*
X186195044Y-101568414D01*
X186962262Y-102157807D01*
X186988821Y-102179587D01*
X189120892Y-102179587D01*
X189194227Y-102127077D01*
X189405136Y-102092064D01*
X189645630Y-102083428D01*
X190226447Y-102160997D01*
X190554026Y-102282887D01*
X191032915Y-102595930D01*
X191452639Y-103053955D01*
X191797291Y-103638233D01*
X191893898Y-103860698D01*
X192134716Y-104353745D01*
X192458763Y-104802973D01*
X192634731Y-105000386D01*
X192859815Y-105246873D01*
X193032019Y-105446633D01*
X193124485Y-105568034D01*
X193133133Y-105587316D01*
X193065681Y-105582998D01*
X192891948Y-105514623D01*
X192729289Y-105436810D01*
X192250976Y-105111729D01*
X191803276Y-104648030D01*
X191413369Y-104076391D01*
X191254457Y-103772114D01*
X190928870Y-103203442D01*
X190553546Y-102784013D01*
X190106452Y-102496017D01*
X189565556Y-102321644D01*
X189428606Y-102296237D01*
X189195546Y-102239378D01*
X189120892Y-102179587D01*
X186988821Y-102179587D01*
X187655653Y-102726419D01*
X188246554Y-103253622D01*
X188582300Y-103585356D01*
X188913868Y-103954951D01*
X189107510Y-104226902D01*
X189163105Y-104401973D01*
X189080528Y-104480929D01*
X188859657Y-104464534D01*
X188500368Y-104353552D01*
X188461056Y-104338881D01*
X188007404Y-104143430D01*
X187485763Y-103877404D01*
X186910006Y-103551274D01*
X186294006Y-103175513D01*
X185651635Y-102760593D01*
X184996767Y-102316986D01*
X184343273Y-101855164D01*
X183705027Y-101385600D01*
X183095902Y-100918765D01*
X182529770Y-100465132D01*
X182020504Y-100035172D01*
X181581977Y-99639359D01*
X181228061Y-99288163D01*
X180972631Y-98992057D01*
X180829557Y-98761513D01*
X180812714Y-98607004D01*
X171627800Y-98607004D01*
X171627800Y-101070487D01*
X180276813Y-101070487D01*
X180300467Y-100444256D01*
X180372981Y-99861838D01*
X180475318Y-99436767D01*
X180559313Y-99180768D01*
X180618803Y-99004547D01*
X180639095Y-98950244D01*
X180698136Y-99006039D01*
X180856353Y-99159041D01*
X181091891Y-99388032D01*
X181382894Y-99671790D01*
X181491466Y-99777833D01*
X182084715Y-100322784D01*
X182798626Y-100920395D01*
X183602656Y-101547098D01*
X184466258Y-102179327D01*
X185358891Y-102793515D01*
X185640133Y-102978785D01*
X186107042Y-103273386D01*
X186602794Y-103569622D01*
X187101817Y-103853887D01*
X187578537Y-104112575D01*
X188007380Y-104332080D01*
X188362773Y-104498794D01*
X188619143Y-104599111D01*
X188729689Y-104622600D01*
X188862472Y-104641985D01*
X188875532Y-104708745D01*
X188761068Y-104835792D01*
X188511279Y-105036036D01*
X188454013Y-105078867D01*
X187713466Y-105536198D01*
X186906571Y-105868076D01*
X186068307Y-106064878D01*
X185233650Y-106116981D01*
X184805257Y-106082710D01*
X184387567Y-106011644D01*
X183950849Y-105913338D01*
X183587254Y-105808626D01*
X183576506Y-105804935D01*
X183247649Y-105704504D01*
X183044689Y-105677660D01*
X182950514Y-105712019D01*
X182914560Y-105827761D01*
X183000533Y-105960767D01*
X183127404Y-106155314D01*
X183102696Y-106311300D01*
X183027806Y-106390359D01*
X182910380Y-106387251D01*
X182695227Y-106295626D01*
X182413252Y-106137096D01*
X182095359Y-105933274D01*
X181772451Y-105705771D01*
X181475430Y-105476199D01*
X181235202Y-105266171D01*
X181082669Y-105097298D01*
X181044843Y-105003600D01*
X181132642Y-104871626D01*
X181327369Y-104848456D01*
X181544041Y-104912354D01*
X181684525Y-104905135D01*
X181734875Y-104831338D01*
X181709600Y-104668275D01*
X181545204Y-104419502D01*
X181459947Y-104318458D01*
X181101405Y-103833578D01*
X180774206Y-103248768D01*
X180513562Y-102633384D01*
X180384451Y-102200009D01*
X180304111Y-101676937D01*
X180276813Y-101070487D01*
X171627800Y-101070487D01*
X171627800Y-110972600D01*
X202107800Y-110972600D01*
X202107800Y-80492600D01*
G37*
X202107800Y-80492600D02*
X171627800Y-80492600D01*
X171627800Y-97051429D01*
X179941506Y-97051429D01*
X179948163Y-96862878D01*
X179994493Y-96751208D01*
X180061411Y-96689013D01*
X180249642Y-96605663D01*
X180393164Y-96679614D01*
X180474376Y-96817578D01*
X180610658Y-96965518D01*
X180813043Y-97002399D01*
X180962560Y-96984588D01*
X181078675Y-96908261D01*
X181197351Y-96738657D01*
X181316715Y-96515566D01*
X181536344Y-96168806D01*
X181864711Y-95761421D01*
X182262884Y-95339437D01*
X182960470Y-94649940D01*
X181868334Y-91788033D01*
X181614317Y-91128789D01*
X181374881Y-90519560D01*
X181157539Y-89978552D01*
X180969806Y-89523971D01*
X180819197Y-89174023D01*
X180713225Y-88946915D01*
X180660381Y-88861313D01*
X180580024Y-88757378D01*
X180462520Y-88533795D01*
X180327820Y-88230331D01*
X180264767Y-88072769D01*
X180134562Y-87730416D01*
X180061295Y-87508138D01*
X180039804Y-87368478D01*
X180064925Y-87273975D01*
X180131496Y-87187171D01*
X180141224Y-87176378D01*
X180366254Y-87039228D01*
X180555806Y-87028992D01*
X180686714Y-87054206D01*
X180787470Y-87121250D01*
X180882536Y-87262474D01*
X180996376Y-87510226D01*
X181087148Y-87731600D01*
X181208011Y-88061758D01*
X181291585Y-88349793D01*
X181324575Y-88547394D01*
X181322001Y-88584959D01*
X181337318Y-88726909D01*
X181406326Y-88990140D01*
X181518394Y-89339294D01*
X181662888Y-89739011D01*
X181691143Y-89812626D01*
X181864468Y-90249588D01*
X181995142Y-90548967D01*
X182095581Y-90733309D01*
X182178204Y-90825160D01*
X182255428Y-90847066D01*
X182260623Y-90846599D01*
X182421422Y-90827184D01*
X182694089Y-90792478D01*
X183022651Y-90749617D01*
X183057800Y-90744975D01*
X183445118Y-90699746D01*
X183916624Y-90653311D01*
X184387432Y-90613839D01*
X184518300Y-90604408D01*
X184900104Y-90581233D01*
X185143398Y-90576903D01*
X185278258Y-90594348D01*
X185334756Y-90636500D01*
X185343800Y-90684865D01*
X185272048Y-90796455D01*
X185121550Y-90821934D01*
X184971637Y-90838635D01*
X184928884Y-90923039D01*
X184952216Y-91086517D01*
X184989958Y-91310247D01*
X185005133Y-91467517D01*
X185075699Y-91561932D01*
X185174466Y-91583934D01*
X185316042Y-91641831D01*
X185343800Y-91723359D01*
X185327780Y-91782832D01*
X185260978Y-91818923D01*
X185115276Y-91834017D01*
X184862555Y-91830499D01*
X184474699Y-91810756D01*
X184379711Y-91805146D01*
X183931802Y-91773715D01*
X183489720Y-91734733D01*
X183114085Y-91693930D01*
X182924424Y-91667563D01*
X182658097Y-91628684D01*
X182469909Y-91609636D01*
X182408569Y-91612276D01*
X182429916Y-91693203D01*
X182500463Y-91900899D01*
X182608613Y-92204086D01*
X182742770Y-92571491D01*
X182891335Y-92971837D01*
X183042712Y-93373850D01*
X183185303Y-93746256D01*
X183307512Y-94057777D01*
X183390327Y-94259867D01*
X183466355Y-94438133D01*
X184045244Y-94240886D01*
X184373451Y-94140579D01*
X184673813Y-94068420D01*
X184878133Y-94040297D01*
X185131491Y-94020975D01*
X185315883Y-93987668D01*
X185499634Y-93938381D01*
X185501569Y-90461430D01*
X185501219Y-89578162D01*
X185498763Y-88849238D01*
X185493708Y-88259674D01*
X185485562Y-87794488D01*
X185473830Y-87438697D01*
X185458019Y-87177319D01*
X185437636Y-86995372D01*
X185412188Y-86877872D01*
X185381319Y-86810034D01*
X185304919Y-86599247D01*
X185265472Y-86234060D01*
X185259133Y-85939563D01*
X185263789Y-85588714D01*
X185283981Y-85366020D01*
X185329043Y-85230414D01*
X185408310Y-85140829D01*
X185447305Y-85111735D01*
X185719900Y-84990663D01*
X185957240Y-85034832D01*
X186057419Y-85112981D01*
X186126982Y-85229983D01*
X186168858Y-85432544D01*
X186187928Y-85753102D01*
X186190466Y-85996985D01*
X186181505Y-86337755D01*
X186157549Y-86610639D01*
X186122989Y-86773981D01*
X186105800Y-86800267D01*
X186083154Y-86898993D01*
X186063819Y-87161510D01*
X186047923Y-87582307D01*
X186035595Y-88155873D01*
X186026963Y-88876695D01*
X186022155Y-89739261D01*
X186021133Y-90438489D01*
X186021133Y-94024383D01*
X186380966Y-94083723D01*
X186673435Y-94152614D01*
X187056739Y-94280728D01*
X187554337Y-94476319D01*
X187849771Y-94600479D01*
X187902200Y-94536666D01*
X188001277Y-94343340D01*
X188135152Y-94049896D01*
X188291977Y-93685729D01*
X188459901Y-93280236D01*
X188627076Y-92862811D01*
X188781652Y-92462849D01*
X188911780Y-92109747D01*
X189005612Y-91832898D01*
X189051297Y-91661700D01*
X189050499Y-91621745D01*
X188955176Y-91615507D01*
X188745184Y-91635271D01*
X188551335Y-91663305D01*
X188272416Y-91699806D01*
X187881734Y-91739342D01*
X187436648Y-91776524D01*
X187096048Y-91799972D01*
X186671543Y-91823877D01*
X186388090Y-91832038D01*
X186217955Y-91822282D01*
X186133400Y-91792439D01*
X186106692Y-91740336D01*
X186105800Y-91722443D01*
X186175743Y-91606298D01*
X186265258Y-91583934D01*
X186412813Y-91505967D01*
X186502935Y-91284440D01*
X186527977Y-91012434D01*
X186488405Y-90865927D01*
X186337996Y-90822182D01*
X186317466Y-90821934D01*
X186144904Y-90775985D01*
X186105800Y-90687798D01*
X186123919Y-90630324D01*
X186196937Y-90596040D01*
X186352844Y-90582721D01*
X186619627Y-90588143D01*
X187025277Y-90610082D01*
X187058300Y-90612099D01*
X187533719Y-90648396D01*
X188032090Y-90698134D01*
X188478915Y-90753400D01*
X188684823Y-90784823D01*
X188998368Y-90835758D01*
X189237508Y-90870378D01*
X189362028Y-90883008D01*
X189371002Y-90881688D01*
X189439206Y-90743226D01*
X189543211Y-90485020D01*
X189669621Y-90145777D01*
X189805038Y-89764200D01*
X189936064Y-89378994D01*
X190049302Y-89028864D01*
X190131355Y-88752513D01*
X190168824Y-88588647D01*
X190169800Y-88574019D01*
X190199921Y-88373968D01*
X190279517Y-88076761D01*
X190392440Y-87741341D01*
X190412588Y-87687889D01*
X190544032Y-87363789D01*
X190647788Y-87168050D01*
X190747034Y-87067522D01*
X190864950Y-87029054D01*
X190874068Y-87027881D01*
X191140316Y-87048016D01*
X191344865Y-87157260D01*
X191438373Y-87327281D01*
X191439800Y-87352689D01*
X191404457Y-87549422D01*
X191313035Y-87835654D01*
X191187441Y-88158125D01*
X191049583Y-88463576D01*
X190921366Y-88698747D01*
X190846295Y-88795574D01*
X190783386Y-88902557D01*
X190668676Y-89149874D01*
X190509702Y-89519265D01*
X190314002Y-89992468D01*
X190089114Y-90551223D01*
X189842576Y-91177269D01*
X189581925Y-91852344D01*
X189549410Y-91937474D01*
X188401432Y-94946733D01*
X188841116Y-95404822D01*
X189118862Y-95727772D01*
X189404330Y-96112659D01*
X189609459Y-96432755D01*
X189788184Y-96727776D01*
X189922016Y-96900972D01*
X190040692Y-96982520D01*
X190171084Y-97002600D01*
X190372456Y-96952910D01*
X190448220Y-96833694D01*
X190560195Y-96657219D01*
X190736280Y-96601293D01*
X190890544Y-96664829D01*
X190966527Y-96814122D01*
X191009391Y-97071452D01*
X191015076Y-97378036D01*
X190979524Y-97675089D01*
X190964634Y-97737577D01*
X190858432Y-97924058D01*
X190701284Y-97969213D01*
X190559297Y-97888003D01*
X190382465Y-97781828D01*
X190210331Y-97779950D01*
X190132568Y-97841013D01*
X190028478Y-97865690D01*
X189817735Y-97833685D01*
X189713242Y-97805439D01*
X189256956Y-97695149D01*
X188693104Y-97608478D01*
X188008737Y-97544422D01*
X187190909Y-97501979D01*
X186226670Y-97480144D01*
X185470800Y-97476566D01*
X184373318Y-97487852D01*
X183433939Y-97519377D01*
X182642552Y-97571926D01*
X181989048Y-97646281D01*
X181463318Y-97743228D01*
X181228357Y-97805439D01*
X180988901Y-97859261D01*
X180835227Y-97858172D01*
X180809031Y-97841013D01*
X180679460Y-97768578D01*
X180498017Y-97805636D01*
X180382302Y-97888003D01*
X180228946Y-97983313D01*
X180110232Y-97923037D01*
X180022953Y-97703101D01*
X179968276Y-97361988D01*
X179941506Y-97051429D01*
X171627800Y-97051429D01*
X171627800Y-98150976D01*
X180856466Y-98150976D01*
X180940079Y-98034505D01*
X181187084Y-97926908D01*
X181591734Y-97828998D01*
X182148279Y-97741588D01*
X182850972Y-97665490D01*
X183694064Y-97601517D01*
X184671806Y-97550483D01*
X185259133Y-97528413D01*
X185502060Y-97528209D01*
X185873859Y-97537526D01*
X186334420Y-97554923D01*
X186843638Y-97578958D01*
X187183377Y-97597554D01*
X188075623Y-97660888D01*
X188814042Y-97738328D01*
X189395639Y-97829285D01*
X189817419Y-97933170D01*
X190076386Y-98049394D01*
X190169546Y-98177368D01*
X190169800Y-98184711D01*
X190086872Y-98278617D01*
X189844651Y-98377621D01*
X189452982Y-98478680D01*
X188921711Y-98578751D01*
X188865419Y-98587922D01*
X188436810Y-98638894D01*
X187872335Y-98679144D01*
X187204261Y-98708662D01*
X186464856Y-98727438D01*
X185686388Y-98735462D01*
X184901125Y-98732726D01*
X184141334Y-98719219D01*
X183439283Y-98694931D01*
X182827240Y-98659853D01*
X182337472Y-98613974D01*
X182166384Y-98589936D01*
X181641329Y-98497460D01*
X181266421Y-98412877D01*
X181023066Y-98329955D01*
X180892666Y-98242462D01*
X180856466Y-98150976D01*
X171627800Y-98150976D01*
X171627800Y-98607004D01*
X180812714Y-98607004D01*
X180831621Y-98579668D01*
X180946988Y-98530106D01*
X181139567Y-98550053D01*
X181426562Y-98644972D01*
X181825175Y-98820330D01*
X182254803Y-99031734D01*
X182403925Y-99112771D01*
X187375800Y-99112771D01*
X187424997Y-99038128D01*
X187541108Y-99078636D01*
X187634433Y-99167183D01*
X187928980Y-99404394D01*
X188321442Y-99518820D01*
X188819372Y-99511505D01*
X189353245Y-99404541D01*
X189998377Y-99286702D01*
X190642790Y-99266204D01*
X191246115Y-99339377D01*
X191767981Y-99502552D01*
X192034318Y-99648254D01*
X192258754Y-99821627D01*
X192355087Y-99941447D01*
X192321783Y-99992617D01*
X192157309Y-99960043D01*
X192062270Y-99923478D01*
X191535357Y-99779852D01*
X190895685Y-99737181D01*
X190167228Y-99796528D01*
X189958133Y-99830233D01*
X189239890Y-99932459D01*
X188667506Y-99958708D01*
X188243076Y-99908967D01*
X188059013Y-99841975D01*
X187867514Y-99709762D01*
X187662117Y-99520136D01*
X187486830Y-99320067D01*
X187385662Y-99156525D01*
X187375800Y-99112771D01*
X182403925Y-99112771D01*
X182961191Y-99415604D01*
X183416448Y-99689170D01*
X186370094Y-99689170D01*
X186416285Y-99658795D01*
X186565969Y-99761797D01*
X186804300Y-99988047D01*
X187093882Y-100250703D01*
X187413074Y-100491207D01*
X187672133Y-100646358D01*
X187854172Y-100726854D01*
X188039139Y-100785418D01*
X188261200Y-100826945D01*
X188554524Y-100856328D01*
X188953278Y-100878461D01*
X189412520Y-100895626D01*
X189912539Y-100913288D01*
X190280257Y-100932198D01*
X190552614Y-100959189D01*
X190766552Y-101001091D01*
X190959011Y-101064736D01*
X191166930Y-101156954D01*
X191374339Y-101258424D01*
X192010137Y-101648427D01*
X192623975Y-102166522D01*
X193172452Y-102772830D01*
X193460439Y-103175227D01*
X193628436Y-103446194D01*
X193752383Y-103666486D01*
X193809158Y-103794562D01*
X193810466Y-103804079D01*
X193754509Y-103783515D01*
X193602283Y-103663124D01*
X193377251Y-103462819D01*
X193111966Y-103211355D01*
X192528494Y-102673527D01*
X191999322Y-102260481D01*
X191486808Y-101954801D01*
X190953311Y-101739070D01*
X190361188Y-101595870D01*
X189672799Y-101507786D01*
X189381711Y-101485380D01*
X188871354Y-101444994D01*
X188489472Y-101397265D01*
X188195209Y-101334839D01*
X187947706Y-101250363D01*
X187857711Y-101211087D01*
X187270819Y-100868907D01*
X186810821Y-100433274D01*
X186599567Y-100141522D01*
X186430239Y-99850790D01*
X186370094Y-99689170D01*
X183416448Y-99689170D01*
X183737073Y-99881835D01*
X184553785Y-100409800D01*
X185382664Y-100978869D01*
X186195044Y-101568414D01*
X186962262Y-102157807D01*
X186988821Y-102179587D01*
X189120892Y-102179587D01*
X189194227Y-102127077D01*
X189405136Y-102092064D01*
X189645630Y-102083428D01*
X190226447Y-102160997D01*
X190554026Y-102282887D01*
X191032915Y-102595930D01*
X191452639Y-103053955D01*
X191797291Y-103638233D01*
X191893898Y-103860698D01*
X192134716Y-104353745D01*
X192458763Y-104802973D01*
X192634731Y-105000386D01*
X192859815Y-105246873D01*
X193032019Y-105446633D01*
X193124485Y-105568034D01*
X193133133Y-105587316D01*
X193065681Y-105582998D01*
X192891948Y-105514623D01*
X192729289Y-105436810D01*
X192250976Y-105111729D01*
X191803276Y-104648030D01*
X191413369Y-104076391D01*
X191254457Y-103772114D01*
X190928870Y-103203442D01*
X190553546Y-102784013D01*
X190106452Y-102496017D01*
X189565556Y-102321644D01*
X189428606Y-102296237D01*
X189195546Y-102239378D01*
X189120892Y-102179587D01*
X186988821Y-102179587D01*
X187655653Y-102726419D01*
X188246554Y-103253622D01*
X188582300Y-103585356D01*
X188913868Y-103954951D01*
X189107510Y-104226902D01*
X189163105Y-104401973D01*
X189080528Y-104480929D01*
X188859657Y-104464534D01*
X188500368Y-104353552D01*
X188461056Y-104338881D01*
X188007404Y-104143430D01*
X187485763Y-103877404D01*
X186910006Y-103551274D01*
X186294006Y-103175513D01*
X185651635Y-102760593D01*
X184996767Y-102316986D01*
X184343273Y-101855164D01*
X183705027Y-101385600D01*
X183095902Y-100918765D01*
X182529770Y-100465132D01*
X182020504Y-100035172D01*
X181581977Y-99639359D01*
X181228061Y-99288163D01*
X180972631Y-98992057D01*
X180829557Y-98761513D01*
X180812714Y-98607004D01*
X171627800Y-98607004D01*
X171627800Y-101070487D01*
X180276813Y-101070487D01*
X180300467Y-100444256D01*
X180372981Y-99861838D01*
X180475318Y-99436767D01*
X180559313Y-99180768D01*
X180618803Y-99004547D01*
X180639095Y-98950244D01*
X180698136Y-99006039D01*
X180856353Y-99159041D01*
X181091891Y-99388032D01*
X181382894Y-99671790D01*
X181491466Y-99777833D01*
X182084715Y-100322784D01*
X182798626Y-100920395D01*
X183602656Y-101547098D01*
X184466258Y-102179327D01*
X185358891Y-102793515D01*
X185640133Y-102978785D01*
X186107042Y-103273386D01*
X186602794Y-103569622D01*
X187101817Y-103853887D01*
X187578537Y-104112575D01*
X188007380Y-104332080D01*
X188362773Y-104498794D01*
X188619143Y-104599111D01*
X188729689Y-104622600D01*
X188862472Y-104641985D01*
X188875532Y-104708745D01*
X188761068Y-104835792D01*
X188511279Y-105036036D01*
X188454013Y-105078867D01*
X187713466Y-105536198D01*
X186906571Y-105868076D01*
X186068307Y-106064878D01*
X185233650Y-106116981D01*
X184805257Y-106082710D01*
X184387567Y-106011644D01*
X183950849Y-105913338D01*
X183587254Y-105808626D01*
X183576506Y-105804935D01*
X183247649Y-105704504D01*
X183044689Y-105677660D01*
X182950514Y-105712019D01*
X182914560Y-105827761D01*
X183000533Y-105960767D01*
X183127404Y-106155314D01*
X183102696Y-106311300D01*
X183027806Y-106390359D01*
X182910380Y-106387251D01*
X182695227Y-106295626D01*
X182413252Y-106137096D01*
X182095359Y-105933274D01*
X181772451Y-105705771D01*
X181475430Y-105476199D01*
X181235202Y-105266171D01*
X181082669Y-105097298D01*
X181044843Y-105003600D01*
X181132642Y-104871626D01*
X181327369Y-104848456D01*
X181544041Y-104912354D01*
X181684525Y-104905135D01*
X181734875Y-104831338D01*
X181709600Y-104668275D01*
X181545204Y-104419502D01*
X181459947Y-104318458D01*
X181101405Y-103833578D01*
X180774206Y-103248768D01*
X180513562Y-102633384D01*
X180384451Y-102200009D01*
X180304111Y-101676937D01*
X180276813Y-101070487D01*
X171627800Y-101070487D01*
X171627800Y-110972600D01*
X202107800Y-110972600D01*
X202107800Y-80492600D01*
M02*
