G04 #@! TF.GenerationSoftware,KiCad,Pcbnew,5.1.5+dfsg1-2build2*
G04 #@! TF.CreationDate,2021-08-26T19:06:41+12:00*
G04 #@! TF.ProjectId,bbq-monitor,6262712d-6d6f-46e6-9974-6f722e6b6963,rev?*
G04 #@! TF.SameCoordinates,Original*
G04 #@! TF.FileFunction,Copper,L3,Inr*
G04 #@! TF.FilePolarity,Positive*
%FSLAX46Y46*%
G04 Gerber Fmt 4.6, Leading zero omitted, Abs format (unit mm)*
G04 Created by KiCad (PCBNEW 5.1.5+dfsg1-2build2) date 2021-08-26 19:06:41*
%MOMM*%
%LPD*%
G04 APERTURE LIST*
%ADD10O,1.740000X2.200000*%
%ADD11C,0.100000*%
%ADD12C,0.800000*%
%ADD13C,6.400000*%
%ADD14C,1.500000*%
%ADD15R,1.500000X1.500000*%
%ADD16C,0.500000*%
%ADD17C,0.254000*%
G04 APERTURE END LIST*
D10*
X168740000Y-61800000D03*
G04 #@! TA.AperFunction,ViaPad*
D11*
G36*
X166844505Y-60701204D02*
G01*
X166868773Y-60704804D01*
X166892572Y-60710765D01*
X166915671Y-60719030D01*
X166937850Y-60729520D01*
X166958893Y-60742132D01*
X166978599Y-60756747D01*
X166996777Y-60773223D01*
X167013253Y-60791401D01*
X167027868Y-60811107D01*
X167040480Y-60832150D01*
X167050970Y-60854329D01*
X167059235Y-60877428D01*
X167065196Y-60901227D01*
X167068796Y-60925495D01*
X167070000Y-60949999D01*
X167070000Y-62650001D01*
X167068796Y-62674505D01*
X167065196Y-62698773D01*
X167059235Y-62722572D01*
X167050970Y-62745671D01*
X167040480Y-62767850D01*
X167027868Y-62788893D01*
X167013253Y-62808599D01*
X166996777Y-62826777D01*
X166978599Y-62843253D01*
X166958893Y-62857868D01*
X166937850Y-62870480D01*
X166915671Y-62880970D01*
X166892572Y-62889235D01*
X166868773Y-62895196D01*
X166844505Y-62898796D01*
X166820001Y-62900000D01*
X165579999Y-62900000D01*
X165555495Y-62898796D01*
X165531227Y-62895196D01*
X165507428Y-62889235D01*
X165484329Y-62880970D01*
X165462150Y-62870480D01*
X165441107Y-62857868D01*
X165421401Y-62843253D01*
X165403223Y-62826777D01*
X165386747Y-62808599D01*
X165372132Y-62788893D01*
X165359520Y-62767850D01*
X165349030Y-62745671D01*
X165340765Y-62722572D01*
X165334804Y-62698773D01*
X165331204Y-62674505D01*
X165330000Y-62650001D01*
X165330000Y-60949999D01*
X165331204Y-60925495D01*
X165334804Y-60901227D01*
X165340765Y-60877428D01*
X165349030Y-60854329D01*
X165359520Y-60832150D01*
X165372132Y-60811107D01*
X165386747Y-60791401D01*
X165403223Y-60773223D01*
X165421401Y-60756747D01*
X165441107Y-60742132D01*
X165462150Y-60729520D01*
X165484329Y-60719030D01*
X165507428Y-60710765D01*
X165531227Y-60704804D01*
X165555495Y-60701204D01*
X165579999Y-60700000D01*
X166820001Y-60700000D01*
X166844505Y-60701204D01*
G37*
G04 #@! TD.AperFunction*
D12*
X189102944Y-61252944D03*
X188400000Y-62950000D03*
X189102944Y-64647056D03*
X190800000Y-65350000D03*
X192497056Y-64647056D03*
X193200000Y-62950000D03*
X192497056Y-61252944D03*
X190800000Y-60550000D03*
D13*
X190800000Y-62950000D03*
X150800000Y-62800000D03*
D12*
X150800000Y-60400000D03*
X152497056Y-61102944D03*
X153200000Y-62800000D03*
X152497056Y-64497056D03*
X150800000Y-65200000D03*
X149102944Y-64497056D03*
X148400000Y-62800000D03*
X149102944Y-61102944D03*
D13*
X150900000Y-96800000D03*
D12*
X150900000Y-94400000D03*
X152597056Y-95102944D03*
X153300000Y-96800000D03*
X152597056Y-98497056D03*
X150900000Y-99200000D03*
X149202944Y-98497056D03*
X148500000Y-96800000D03*
X149202944Y-95102944D03*
D14*
X184200000Y-61880000D03*
X184200000Y-64420000D03*
X184200000Y-66960000D03*
D15*
X184200000Y-69500000D03*
D16*
X158060000Y-72588000D03*
X158060000Y-71408000D03*
X159240000Y-72588000D03*
X159240000Y-71408000D03*
D10*
X178290000Y-61750000D03*
G04 #@! TA.AperFunction,ViaPad*
D11*
G36*
X176394505Y-60651204D02*
G01*
X176418773Y-60654804D01*
X176442572Y-60660765D01*
X176465671Y-60669030D01*
X176487850Y-60679520D01*
X176508893Y-60692132D01*
X176528599Y-60706747D01*
X176546777Y-60723223D01*
X176563253Y-60741401D01*
X176577868Y-60761107D01*
X176590480Y-60782150D01*
X176600970Y-60804329D01*
X176609235Y-60827428D01*
X176615196Y-60851227D01*
X176618796Y-60875495D01*
X176620000Y-60899999D01*
X176620000Y-62600001D01*
X176618796Y-62624505D01*
X176615196Y-62648773D01*
X176609235Y-62672572D01*
X176600970Y-62695671D01*
X176590480Y-62717850D01*
X176577868Y-62738893D01*
X176563253Y-62758599D01*
X176546777Y-62776777D01*
X176528599Y-62793253D01*
X176508893Y-62807868D01*
X176487850Y-62820480D01*
X176465671Y-62830970D01*
X176442572Y-62839235D01*
X176418773Y-62845196D01*
X176394505Y-62848796D01*
X176370001Y-62850000D01*
X175129999Y-62850000D01*
X175105495Y-62848796D01*
X175081227Y-62845196D01*
X175057428Y-62839235D01*
X175034329Y-62830970D01*
X175012150Y-62820480D01*
X174991107Y-62807868D01*
X174971401Y-62793253D01*
X174953223Y-62776777D01*
X174936747Y-62758599D01*
X174922132Y-62738893D01*
X174909520Y-62717850D01*
X174899030Y-62695671D01*
X174890765Y-62672572D01*
X174884804Y-62648773D01*
X174881204Y-62624505D01*
X174880000Y-62600001D01*
X174880000Y-60899999D01*
X174881204Y-60875495D01*
X174884804Y-60851227D01*
X174890765Y-60827428D01*
X174899030Y-60804329D01*
X174909520Y-60782150D01*
X174922132Y-60761107D01*
X174936747Y-60741401D01*
X174953223Y-60723223D01*
X174971401Y-60706747D01*
X174991107Y-60692132D01*
X175012150Y-60679520D01*
X175034329Y-60669030D01*
X175057428Y-60660765D01*
X175081227Y-60654804D01*
X175105495Y-60651204D01*
X175129999Y-60650000D01*
X176370001Y-60650000D01*
X176394505Y-60651204D01*
G37*
G04 #@! TD.AperFunction*
D12*
X166800000Y-91400000D03*
X165800000Y-90600000D03*
X185600000Y-86200000D03*
X185600000Y-85200000D03*
X186800000Y-85200000D03*
X186800000Y-86200000D03*
X186800000Y-87400000D03*
X185600000Y-87400000D03*
X184400000Y-87400000D03*
X184400000Y-86200000D03*
X184400000Y-85200000D03*
X192400000Y-80600000D03*
X193400000Y-80600000D03*
X193400000Y-76200000D03*
X190200000Y-75400000D03*
X192800000Y-94000000D03*
X193800000Y-94000000D03*
X170000000Y-93600000D03*
X165600000Y-96800000D03*
X163000000Y-95000000D03*
X163200000Y-88600000D03*
X156600000Y-87600000D03*
X162400000Y-80200000D03*
X164400000Y-74400000D03*
X163400000Y-74400000D03*
X172200000Y-71600000D03*
X173000000Y-70000000D03*
X171500000Y-70400000D03*
X154400000Y-68800000D03*
X154400000Y-69600000D03*
X156900000Y-68300000D03*
X162000000Y-67800000D03*
X162000000Y-67000000D03*
X162000000Y-68800000D03*
X162000000Y-69800000D03*
X161200000Y-70200000D03*
X154400000Y-72200000D03*
X188000000Y-67600000D03*
X188000000Y-66400000D03*
X180800000Y-70600000D03*
X163200000Y-89900000D03*
X156000000Y-88400000D03*
X154600000Y-88400000D03*
X176600000Y-72800000D03*
X176600000Y-73600000D03*
X180800000Y-75600000D03*
X177200000Y-81600000D03*
X161200000Y-71200000D03*
X161200000Y-72000000D03*
X161200000Y-72800000D03*
X149600000Y-68800000D03*
X149600000Y-71600000D03*
X149600000Y-74400000D03*
X149600000Y-77200000D03*
X154700000Y-94600000D03*
X158900000Y-95900000D03*
X157600000Y-93600000D03*
X158900000Y-98500000D03*
X162400000Y-97100000D03*
X155200000Y-92800000D03*
X181500000Y-60900000D03*
X182000000Y-64400000D03*
X182600000Y-69600000D03*
X193000000Y-68400000D03*
X190200000Y-68200000D03*
X170500000Y-65500000D03*
X172100000Y-69500000D03*
X180200000Y-91400000D03*
X180200000Y-88400000D03*
X180400000Y-84000000D03*
X191400000Y-84200000D03*
X191800000Y-89800000D03*
X185200000Y-91600000D03*
X185500000Y-63100000D03*
X158200000Y-80400000D03*
X159400000Y-82600000D03*
X191200000Y-98200000D03*
X186600000Y-61000000D03*
X172300000Y-99800000D03*
X178400000Y-100100000D03*
X185800000Y-100000000D03*
X152100000Y-78900000D03*
X159600000Y-59500000D03*
X155800000Y-59900000D03*
X163600000Y-59800000D03*
X185100000Y-74000000D03*
X183900000Y-72400000D03*
X188500000Y-91400000D03*
X191500000Y-86700000D03*
X179700000Y-86300000D03*
X158000000Y-91600000D03*
X172200000Y-60300000D03*
X161850000Y-98800000D03*
X165100000Y-99100000D03*
X151500000Y-72650000D03*
X151650000Y-76000000D03*
X151800000Y-68000000D03*
X171700000Y-62400000D03*
X155400000Y-98700000D03*
X192700000Y-71250000D03*
X168800000Y-96700000D03*
X170500000Y-98000000D03*
X167300000Y-99100000D03*
X167500000Y-65200000D03*
X165400000Y-64300000D03*
X169300000Y-64100000D03*
X154400000Y-71200000D03*
X154400000Y-68000000D03*
X182400000Y-75200000D03*
X161600000Y-74000000D03*
X165800000Y-95200000D03*
X191800000Y-73600000D03*
X190200000Y-71000000D03*
X182000000Y-72600000D03*
X182000000Y-73600000D03*
X160600000Y-80200000D03*
X154000000Y-75000000D03*
X154000000Y-76000000D03*
X154000000Y-77000000D03*
X162600000Y-75200000D03*
X161800000Y-92200000D03*
X156600000Y-83400000D03*
X166300000Y-94200000D03*
X152300000Y-70200000D03*
D17*
G36*
X158836150Y-58800139D02*
G01*
X158796063Y-58840226D01*
X158682795Y-59009744D01*
X158604774Y-59198102D01*
X158565000Y-59398061D01*
X158565000Y-59601939D01*
X158604774Y-59801898D01*
X158682795Y-59990256D01*
X158796063Y-60159774D01*
X158940226Y-60303937D01*
X159109744Y-60417205D01*
X159298102Y-60495226D01*
X159498061Y-60535000D01*
X159701939Y-60535000D01*
X159901898Y-60495226D01*
X160090256Y-60417205D01*
X160259774Y-60303937D01*
X160403937Y-60159774D01*
X160517205Y-59990256D01*
X160595226Y-59801898D01*
X160635000Y-59601939D01*
X160635000Y-59398061D01*
X160595226Y-59198102D01*
X160517205Y-59009744D01*
X160403937Y-58840226D01*
X160366807Y-58803096D01*
X163288527Y-58808740D01*
X163109744Y-58882795D01*
X162940226Y-58996063D01*
X162796063Y-59140226D01*
X162682795Y-59309744D01*
X162604774Y-59498102D01*
X162565000Y-59698061D01*
X162565000Y-59901939D01*
X162604774Y-60101898D01*
X162682795Y-60290256D01*
X162796063Y-60459774D01*
X162940226Y-60603937D01*
X163109744Y-60717205D01*
X163298102Y-60795226D01*
X163498061Y-60835000D01*
X163701939Y-60835000D01*
X163901898Y-60795226D01*
X164090256Y-60717205D01*
X164259774Y-60603937D01*
X164403937Y-60459774D01*
X164517205Y-60290256D01*
X164595226Y-60101898D01*
X164635000Y-59901939D01*
X164635000Y-59698061D01*
X164595226Y-59498102D01*
X164517205Y-59309744D01*
X164403937Y-59140226D01*
X164259774Y-58996063D01*
X164090256Y-58882795D01*
X163914392Y-58809949D01*
X190335282Y-58860991D01*
X190431628Y-58881440D01*
X190450114Y-58883378D01*
X191215142Y-58953448D01*
X191891794Y-59144068D01*
X192522377Y-59454806D01*
X192954308Y-59777147D01*
X192616554Y-59551467D01*
X191918628Y-59262377D01*
X191177715Y-59115000D01*
X190422285Y-59115000D01*
X189681372Y-59262377D01*
X188983446Y-59551467D01*
X188355330Y-59971161D01*
X187821161Y-60505330D01*
X187617507Y-60810119D01*
X187595226Y-60698102D01*
X187517205Y-60509744D01*
X187403937Y-60340226D01*
X187259774Y-60196063D01*
X187090256Y-60082795D01*
X186901898Y-60004774D01*
X186701939Y-59965000D01*
X186498061Y-59965000D01*
X186298102Y-60004774D01*
X186109744Y-60082795D01*
X185940226Y-60196063D01*
X185796063Y-60340226D01*
X185682795Y-60509744D01*
X185604774Y-60698102D01*
X185565000Y-60898061D01*
X185565000Y-61101939D01*
X185604774Y-61301898D01*
X185682795Y-61490256D01*
X185796063Y-61659774D01*
X185940226Y-61803937D01*
X186109744Y-61917205D01*
X186298102Y-61995226D01*
X186498061Y-62035000D01*
X186701939Y-62035000D01*
X186901898Y-61995226D01*
X187090256Y-61917205D01*
X187096077Y-61913315D01*
X186965000Y-62572285D01*
X186965000Y-63327715D01*
X187112377Y-64068628D01*
X187401467Y-64766554D01*
X187812683Y-65381983D01*
X187698102Y-65404774D01*
X187509744Y-65482795D01*
X187340226Y-65596063D01*
X187196063Y-65740226D01*
X187082795Y-65909744D01*
X187004774Y-66098102D01*
X186965000Y-66298061D01*
X186965000Y-66501939D01*
X187004774Y-66701898D01*
X187082795Y-66890256D01*
X187156123Y-67000000D01*
X187082795Y-67109744D01*
X187004774Y-67298102D01*
X186965000Y-67498061D01*
X186965000Y-67701939D01*
X187004774Y-67901898D01*
X187082795Y-68090256D01*
X187196063Y-68259774D01*
X187340226Y-68403937D01*
X187509744Y-68517205D01*
X187698102Y-68595226D01*
X187898061Y-68635000D01*
X188101939Y-68635000D01*
X188301898Y-68595226D01*
X188490256Y-68517205D01*
X188659774Y-68403937D01*
X188803937Y-68259774D01*
X188911989Y-68098061D01*
X189165000Y-68098061D01*
X189165000Y-68301939D01*
X189204774Y-68501898D01*
X189282795Y-68690256D01*
X189396063Y-68859774D01*
X189540226Y-69003937D01*
X189709744Y-69117205D01*
X189898102Y-69195226D01*
X190098061Y-69235000D01*
X190301939Y-69235000D01*
X190501898Y-69195226D01*
X190690256Y-69117205D01*
X190859774Y-69003937D01*
X191003937Y-68859774D01*
X191117205Y-68690256D01*
X191195226Y-68501898D01*
X191235000Y-68301939D01*
X191235000Y-68298061D01*
X191965000Y-68298061D01*
X191965000Y-68501939D01*
X192004774Y-68701898D01*
X192082795Y-68890256D01*
X192196063Y-69059774D01*
X192340226Y-69203937D01*
X192509744Y-69317205D01*
X192698102Y-69395226D01*
X192898061Y-69435000D01*
X193101939Y-69435000D01*
X193301898Y-69395226D01*
X193490256Y-69317205D01*
X193659774Y-69203937D01*
X193803937Y-69059774D01*
X193917205Y-68890256D01*
X193995226Y-68701898D01*
X194035000Y-68501939D01*
X194035000Y-68298061D01*
X193995226Y-68098102D01*
X193917205Y-67909744D01*
X193803937Y-67740226D01*
X193659774Y-67596063D01*
X193490256Y-67482795D01*
X193301898Y-67404774D01*
X193101939Y-67365000D01*
X192898061Y-67365000D01*
X192698102Y-67404774D01*
X192509744Y-67482795D01*
X192340226Y-67596063D01*
X192196063Y-67740226D01*
X192082795Y-67909744D01*
X192004774Y-68098102D01*
X191965000Y-68298061D01*
X191235000Y-68298061D01*
X191235000Y-68098061D01*
X191195226Y-67898102D01*
X191117205Y-67709744D01*
X191003937Y-67540226D01*
X190859774Y-67396063D01*
X190690256Y-67282795D01*
X190501898Y-67204774D01*
X190301939Y-67165000D01*
X190098061Y-67165000D01*
X189898102Y-67204774D01*
X189709744Y-67282795D01*
X189540226Y-67396063D01*
X189396063Y-67540226D01*
X189282795Y-67709744D01*
X189204774Y-67898102D01*
X189165000Y-68098061D01*
X188911989Y-68098061D01*
X188917205Y-68090256D01*
X188995226Y-67901898D01*
X189035000Y-67701939D01*
X189035000Y-67498061D01*
X188995226Y-67298102D01*
X188917205Y-67109744D01*
X188843877Y-67000000D01*
X188917205Y-66890256D01*
X188995226Y-66701898D01*
X189035000Y-66501939D01*
X189035000Y-66369887D01*
X189681372Y-66637623D01*
X190422285Y-66785000D01*
X191177715Y-66785000D01*
X191918628Y-66637623D01*
X192616554Y-66348533D01*
X193244670Y-65928839D01*
X193778839Y-65394670D01*
X194198533Y-64766554D01*
X194377964Y-64333369D01*
X194357297Y-75806533D01*
X194317205Y-75709744D01*
X194203937Y-75540226D01*
X194059774Y-75396063D01*
X193890256Y-75282795D01*
X193701898Y-75204774D01*
X193501939Y-75165000D01*
X193298061Y-75165000D01*
X193098102Y-75204774D01*
X192909744Y-75282795D01*
X192740226Y-75396063D01*
X192596063Y-75540226D01*
X192482795Y-75709744D01*
X192404774Y-75898102D01*
X192365000Y-76098061D01*
X192365000Y-76301939D01*
X192404774Y-76501898D01*
X192482795Y-76690256D01*
X192596063Y-76859774D01*
X192740226Y-77003937D01*
X192909744Y-77117205D01*
X193098102Y-77195226D01*
X193298061Y-77235000D01*
X193501939Y-77235000D01*
X193701898Y-77195226D01*
X193890256Y-77117205D01*
X194059774Y-77003937D01*
X194203937Y-76859774D01*
X194317205Y-76690256D01*
X194355873Y-76596904D01*
X194349405Y-80187481D01*
X194317205Y-80109744D01*
X194203937Y-79940226D01*
X194059774Y-79796063D01*
X193890256Y-79682795D01*
X193701898Y-79604774D01*
X193501939Y-79565000D01*
X193298061Y-79565000D01*
X193098102Y-79604774D01*
X192909744Y-79682795D01*
X192900000Y-79689306D01*
X192890256Y-79682795D01*
X192701898Y-79604774D01*
X192501939Y-79565000D01*
X192298061Y-79565000D01*
X192098102Y-79604774D01*
X191909744Y-79682795D01*
X191740226Y-79796063D01*
X191596063Y-79940226D01*
X191482795Y-80109744D01*
X191404774Y-80298102D01*
X191365000Y-80498061D01*
X191365000Y-80701939D01*
X191404774Y-80901898D01*
X191482795Y-81090256D01*
X191596063Y-81259774D01*
X191740226Y-81403937D01*
X191909744Y-81517205D01*
X192098102Y-81595226D01*
X192298061Y-81635000D01*
X192501939Y-81635000D01*
X192701898Y-81595226D01*
X192890256Y-81517205D01*
X192900000Y-81510694D01*
X192909744Y-81517205D01*
X193098102Y-81595226D01*
X193298061Y-81635000D01*
X193501939Y-81635000D01*
X193701898Y-81595226D01*
X193890256Y-81517205D01*
X194059774Y-81403937D01*
X194203937Y-81259774D01*
X194317205Y-81090256D01*
X194347912Y-81016122D01*
X194326133Y-93106767D01*
X194290256Y-93082795D01*
X194101898Y-93004774D01*
X193901939Y-92965000D01*
X193698061Y-92965000D01*
X193498102Y-93004774D01*
X193309744Y-93082795D01*
X193300000Y-93089306D01*
X193290256Y-93082795D01*
X193101898Y-93004774D01*
X192901939Y-92965000D01*
X192698061Y-92965000D01*
X192498102Y-93004774D01*
X192309744Y-93082795D01*
X192140226Y-93196063D01*
X191996063Y-93340226D01*
X191882795Y-93509744D01*
X191804774Y-93698102D01*
X191765000Y-93898061D01*
X191765000Y-94101939D01*
X191804774Y-94301898D01*
X191882795Y-94490256D01*
X191996063Y-94659774D01*
X192140226Y-94803937D01*
X192309744Y-94917205D01*
X192498102Y-94995226D01*
X192698061Y-95035000D01*
X192901939Y-95035000D01*
X193101898Y-94995226D01*
X193290256Y-94917205D01*
X193300000Y-94910694D01*
X193309744Y-94917205D01*
X193498102Y-94995226D01*
X193698061Y-95035000D01*
X193901939Y-95035000D01*
X194101898Y-94995226D01*
X194290256Y-94917205D01*
X194322911Y-94895386D01*
X194319716Y-96669182D01*
X194299290Y-96765416D01*
X194297352Y-96783903D01*
X194227282Y-97548930D01*
X194036661Y-98225584D01*
X193725925Y-98856164D01*
X193305473Y-99419561D01*
X192789395Y-99896900D01*
X192194968Y-100272201D01*
X191542101Y-100532890D01*
X190831264Y-100674502D01*
X190597173Y-100691968D01*
X190469029Y-100713451D01*
X190464777Y-100715000D01*
X186548711Y-100715000D01*
X186603937Y-100659774D01*
X186717205Y-100490256D01*
X186795226Y-100301898D01*
X186835000Y-100101939D01*
X186835000Y-99898061D01*
X186795226Y-99698102D01*
X186717205Y-99509744D01*
X186603937Y-99340226D01*
X186459774Y-99196063D01*
X186290256Y-99082795D01*
X186101898Y-99004774D01*
X185901939Y-98965000D01*
X185698061Y-98965000D01*
X185498102Y-99004774D01*
X185309744Y-99082795D01*
X185140226Y-99196063D01*
X184996063Y-99340226D01*
X184882795Y-99509744D01*
X184804774Y-99698102D01*
X184765000Y-99898061D01*
X184765000Y-100101939D01*
X184804774Y-100301898D01*
X184882795Y-100490256D01*
X184996063Y-100659774D01*
X185051289Y-100715000D01*
X179233854Y-100715000D01*
X179317205Y-100590256D01*
X179395226Y-100401898D01*
X179435000Y-100201939D01*
X179435000Y-99998061D01*
X179395226Y-99798102D01*
X179317205Y-99609744D01*
X179203937Y-99440226D01*
X179059774Y-99296063D01*
X178890256Y-99182795D01*
X178701898Y-99104774D01*
X178501939Y-99065000D01*
X178298061Y-99065000D01*
X178098102Y-99104774D01*
X177909744Y-99182795D01*
X177740226Y-99296063D01*
X177596063Y-99440226D01*
X177482795Y-99609744D01*
X177404774Y-99798102D01*
X177365000Y-99998061D01*
X177365000Y-100201939D01*
X177404774Y-100401898D01*
X177482795Y-100590256D01*
X177566146Y-100715000D01*
X172793556Y-100715000D01*
X172959774Y-100603937D01*
X173103937Y-100459774D01*
X173217205Y-100290256D01*
X173295226Y-100101898D01*
X173335000Y-99901939D01*
X173335000Y-99698061D01*
X173295226Y-99498102D01*
X173217205Y-99309744D01*
X173103937Y-99140226D01*
X172959774Y-98996063D01*
X172790256Y-98882795D01*
X172601898Y-98804774D01*
X172401939Y-98765000D01*
X172198061Y-98765000D01*
X171998102Y-98804774D01*
X171809744Y-98882795D01*
X171640226Y-98996063D01*
X171496063Y-99140226D01*
X171382795Y-99309744D01*
X171304774Y-99498102D01*
X171265000Y-99698061D01*
X171265000Y-99901939D01*
X171304774Y-100101898D01*
X171382795Y-100290256D01*
X171496063Y-100459774D01*
X171640226Y-100603937D01*
X171806444Y-100715000D01*
X150736110Y-100715000D01*
X150605071Y-100692036D01*
X150595181Y-100691355D01*
X149920243Y-100649600D01*
X149333593Y-100495257D01*
X148788095Y-100229906D01*
X148304526Y-99863654D01*
X147901305Y-99410450D01*
X147593793Y-98887564D01*
X147486332Y-98580016D01*
X147501467Y-98616554D01*
X147921161Y-99244670D01*
X148455330Y-99778839D01*
X149083446Y-100198533D01*
X149781372Y-100487623D01*
X150522285Y-100635000D01*
X151277715Y-100635000D01*
X152018628Y-100487623D01*
X152716554Y-100198533D01*
X153344670Y-99778839D01*
X153878839Y-99244670D01*
X154298533Y-98616554D01*
X154306193Y-98598061D01*
X154365000Y-98598061D01*
X154365000Y-98801939D01*
X154404774Y-99001898D01*
X154482795Y-99190256D01*
X154596063Y-99359774D01*
X154740226Y-99503937D01*
X154909744Y-99617205D01*
X155098102Y-99695226D01*
X155298061Y-99735000D01*
X155501939Y-99735000D01*
X155701898Y-99695226D01*
X155890256Y-99617205D01*
X156059774Y-99503937D01*
X156203937Y-99359774D01*
X156317205Y-99190256D01*
X156395226Y-99001898D01*
X156435000Y-98801939D01*
X156435000Y-98598061D01*
X156395226Y-98398102D01*
X156395210Y-98398061D01*
X157865000Y-98398061D01*
X157865000Y-98601939D01*
X157904774Y-98801898D01*
X157982795Y-98990256D01*
X158096063Y-99159774D01*
X158240226Y-99303937D01*
X158409744Y-99417205D01*
X158598102Y-99495226D01*
X158798061Y-99535000D01*
X159001939Y-99535000D01*
X159201898Y-99495226D01*
X159390256Y-99417205D01*
X159559774Y-99303937D01*
X159703937Y-99159774D01*
X159817205Y-98990256D01*
X159895226Y-98801898D01*
X159915880Y-98698061D01*
X160815000Y-98698061D01*
X160815000Y-98901939D01*
X160854774Y-99101898D01*
X160932795Y-99290256D01*
X161046063Y-99459774D01*
X161190226Y-99603937D01*
X161359744Y-99717205D01*
X161548102Y-99795226D01*
X161748061Y-99835000D01*
X161951939Y-99835000D01*
X162151898Y-99795226D01*
X162340256Y-99717205D01*
X162509774Y-99603937D01*
X162653937Y-99459774D01*
X162767205Y-99290256D01*
X162845226Y-99101898D01*
X162865880Y-98998061D01*
X164065000Y-98998061D01*
X164065000Y-99201939D01*
X164104774Y-99401898D01*
X164182795Y-99590256D01*
X164296063Y-99759774D01*
X164440226Y-99903937D01*
X164609744Y-100017205D01*
X164798102Y-100095226D01*
X164998061Y-100135000D01*
X165201939Y-100135000D01*
X165401898Y-100095226D01*
X165590256Y-100017205D01*
X165759774Y-99903937D01*
X165903937Y-99759774D01*
X166017205Y-99590256D01*
X166095226Y-99401898D01*
X166135000Y-99201939D01*
X166135000Y-98998061D01*
X166265000Y-98998061D01*
X166265000Y-99201939D01*
X166304774Y-99401898D01*
X166382795Y-99590256D01*
X166496063Y-99759774D01*
X166640226Y-99903937D01*
X166809744Y-100017205D01*
X166998102Y-100095226D01*
X167198061Y-100135000D01*
X167401939Y-100135000D01*
X167601898Y-100095226D01*
X167790256Y-100017205D01*
X167959774Y-99903937D01*
X168103937Y-99759774D01*
X168217205Y-99590256D01*
X168295226Y-99401898D01*
X168335000Y-99201939D01*
X168335000Y-98998061D01*
X168295226Y-98798102D01*
X168217205Y-98609744D01*
X168103937Y-98440226D01*
X167959774Y-98296063D01*
X167790256Y-98182795D01*
X167601898Y-98104774D01*
X167401939Y-98065000D01*
X167198061Y-98065000D01*
X166998102Y-98104774D01*
X166809744Y-98182795D01*
X166640226Y-98296063D01*
X166496063Y-98440226D01*
X166382795Y-98609744D01*
X166304774Y-98798102D01*
X166265000Y-98998061D01*
X166135000Y-98998061D01*
X166095226Y-98798102D01*
X166017205Y-98609744D01*
X165903937Y-98440226D01*
X165759774Y-98296063D01*
X165590256Y-98182795D01*
X165401898Y-98104774D01*
X165201939Y-98065000D01*
X164998061Y-98065000D01*
X164798102Y-98104774D01*
X164609744Y-98182795D01*
X164440226Y-98296063D01*
X164296063Y-98440226D01*
X164182795Y-98609744D01*
X164104774Y-98798102D01*
X164065000Y-98998061D01*
X162865880Y-98998061D01*
X162885000Y-98901939D01*
X162885000Y-98698061D01*
X162845226Y-98498102D01*
X162767205Y-98309744D01*
X162653937Y-98140226D01*
X162624360Y-98110649D01*
X162701898Y-98095226D01*
X162890256Y-98017205D01*
X163059774Y-97903937D01*
X163065650Y-97898061D01*
X169465000Y-97898061D01*
X169465000Y-98101939D01*
X169504774Y-98301898D01*
X169582795Y-98490256D01*
X169696063Y-98659774D01*
X169840226Y-98803937D01*
X170009744Y-98917205D01*
X170198102Y-98995226D01*
X170398061Y-99035000D01*
X170601939Y-99035000D01*
X170801898Y-98995226D01*
X170990256Y-98917205D01*
X171159774Y-98803937D01*
X171303937Y-98659774D01*
X171417205Y-98490256D01*
X171495226Y-98301898D01*
X171535000Y-98101939D01*
X171535000Y-98098061D01*
X190165000Y-98098061D01*
X190165000Y-98301939D01*
X190204774Y-98501898D01*
X190282795Y-98690256D01*
X190396063Y-98859774D01*
X190540226Y-99003937D01*
X190709744Y-99117205D01*
X190898102Y-99195226D01*
X191098061Y-99235000D01*
X191301939Y-99235000D01*
X191501898Y-99195226D01*
X191690256Y-99117205D01*
X191859774Y-99003937D01*
X192003937Y-98859774D01*
X192117205Y-98690256D01*
X192195226Y-98501898D01*
X192235000Y-98301939D01*
X192235000Y-98098061D01*
X192195226Y-97898102D01*
X192117205Y-97709744D01*
X192003937Y-97540226D01*
X191859774Y-97396063D01*
X191690256Y-97282795D01*
X191501898Y-97204774D01*
X191301939Y-97165000D01*
X191098061Y-97165000D01*
X190898102Y-97204774D01*
X190709744Y-97282795D01*
X190540226Y-97396063D01*
X190396063Y-97540226D01*
X190282795Y-97709744D01*
X190204774Y-97898102D01*
X190165000Y-98098061D01*
X171535000Y-98098061D01*
X171535000Y-97898061D01*
X171495226Y-97698102D01*
X171417205Y-97509744D01*
X171303937Y-97340226D01*
X171159774Y-97196063D01*
X170990256Y-97082795D01*
X170801898Y-97004774D01*
X170601939Y-96965000D01*
X170398061Y-96965000D01*
X170198102Y-97004774D01*
X170009744Y-97082795D01*
X169840226Y-97196063D01*
X169696063Y-97340226D01*
X169582795Y-97509744D01*
X169504774Y-97698102D01*
X169465000Y-97898061D01*
X163065650Y-97898061D01*
X163203937Y-97759774D01*
X163317205Y-97590256D01*
X163395226Y-97401898D01*
X163435000Y-97201939D01*
X163435000Y-96998061D01*
X163395226Y-96798102D01*
X163353788Y-96698061D01*
X164565000Y-96698061D01*
X164565000Y-96901939D01*
X164604774Y-97101898D01*
X164682795Y-97290256D01*
X164796063Y-97459774D01*
X164940226Y-97603937D01*
X165109744Y-97717205D01*
X165298102Y-97795226D01*
X165498061Y-97835000D01*
X165701939Y-97835000D01*
X165901898Y-97795226D01*
X166090256Y-97717205D01*
X166259774Y-97603937D01*
X166403937Y-97459774D01*
X166517205Y-97290256D01*
X166595226Y-97101898D01*
X166635000Y-96901939D01*
X166635000Y-96698061D01*
X166615109Y-96598061D01*
X167765000Y-96598061D01*
X167765000Y-96801939D01*
X167804774Y-97001898D01*
X167882795Y-97190256D01*
X167996063Y-97359774D01*
X168140226Y-97503937D01*
X168309744Y-97617205D01*
X168498102Y-97695226D01*
X168698061Y-97735000D01*
X168901939Y-97735000D01*
X169101898Y-97695226D01*
X169290256Y-97617205D01*
X169459774Y-97503937D01*
X169603937Y-97359774D01*
X169717205Y-97190256D01*
X169795226Y-97001898D01*
X169835000Y-96801939D01*
X169835000Y-96598061D01*
X169795226Y-96398102D01*
X169717205Y-96209744D01*
X169603937Y-96040226D01*
X169459774Y-95896063D01*
X169290256Y-95782795D01*
X169101898Y-95704774D01*
X168901939Y-95665000D01*
X168698061Y-95665000D01*
X168498102Y-95704774D01*
X168309744Y-95782795D01*
X168140226Y-95896063D01*
X167996063Y-96040226D01*
X167882795Y-96209744D01*
X167804774Y-96398102D01*
X167765000Y-96598061D01*
X166615109Y-96598061D01*
X166595226Y-96498102D01*
X166517205Y-96309744D01*
X166403937Y-96140226D01*
X166259774Y-95996063D01*
X166090256Y-95882795D01*
X165901898Y-95804774D01*
X165701939Y-95765000D01*
X165498061Y-95765000D01*
X165298102Y-95804774D01*
X165109744Y-95882795D01*
X164940226Y-95996063D01*
X164796063Y-96140226D01*
X164682795Y-96309744D01*
X164604774Y-96498102D01*
X164565000Y-96698061D01*
X163353788Y-96698061D01*
X163317205Y-96609744D01*
X163203937Y-96440226D01*
X163059774Y-96296063D01*
X162890256Y-96182795D01*
X162701898Y-96104774D01*
X162501939Y-96065000D01*
X162298061Y-96065000D01*
X162098102Y-96104774D01*
X161909744Y-96182795D01*
X161740226Y-96296063D01*
X161596063Y-96440226D01*
X161482795Y-96609744D01*
X161404774Y-96798102D01*
X161365000Y-96998061D01*
X161365000Y-97201939D01*
X161404774Y-97401898D01*
X161482795Y-97590256D01*
X161596063Y-97759774D01*
X161625640Y-97789351D01*
X161548102Y-97804774D01*
X161359744Y-97882795D01*
X161190226Y-97996063D01*
X161046063Y-98140226D01*
X160932795Y-98309744D01*
X160854774Y-98498102D01*
X160815000Y-98698061D01*
X159915880Y-98698061D01*
X159935000Y-98601939D01*
X159935000Y-98398061D01*
X159895226Y-98198102D01*
X159817205Y-98009744D01*
X159703937Y-97840226D01*
X159559774Y-97696063D01*
X159390256Y-97582795D01*
X159201898Y-97504774D01*
X159001939Y-97465000D01*
X158798061Y-97465000D01*
X158598102Y-97504774D01*
X158409744Y-97582795D01*
X158240226Y-97696063D01*
X158096063Y-97840226D01*
X157982795Y-98009744D01*
X157904774Y-98198102D01*
X157865000Y-98398061D01*
X156395210Y-98398061D01*
X156317205Y-98209744D01*
X156203937Y-98040226D01*
X156059774Y-97896063D01*
X155890256Y-97782795D01*
X155701898Y-97704774D01*
X155501939Y-97665000D01*
X155298061Y-97665000D01*
X155098102Y-97704774D01*
X154909744Y-97782795D01*
X154740226Y-97896063D01*
X154596063Y-98040226D01*
X154482795Y-98209744D01*
X154404774Y-98398102D01*
X154365000Y-98598061D01*
X154306193Y-98598061D01*
X154587623Y-97918628D01*
X154735000Y-97177715D01*
X154735000Y-96422285D01*
X154610834Y-95798061D01*
X157865000Y-95798061D01*
X157865000Y-96001939D01*
X157904774Y-96201898D01*
X157982795Y-96390256D01*
X158096063Y-96559774D01*
X158240226Y-96703937D01*
X158409744Y-96817205D01*
X158598102Y-96895226D01*
X158798061Y-96935000D01*
X159001939Y-96935000D01*
X159201898Y-96895226D01*
X159390256Y-96817205D01*
X159559774Y-96703937D01*
X159703937Y-96559774D01*
X159817205Y-96390256D01*
X159895226Y-96201898D01*
X159935000Y-96001939D01*
X159935000Y-95798061D01*
X159895226Y-95598102D01*
X159817205Y-95409744D01*
X159703937Y-95240226D01*
X159559774Y-95096063D01*
X159390256Y-94982795D01*
X159201898Y-94904774D01*
X159168150Y-94898061D01*
X161965000Y-94898061D01*
X161965000Y-95101939D01*
X162004774Y-95301898D01*
X162082795Y-95490256D01*
X162196063Y-95659774D01*
X162340226Y-95803937D01*
X162509744Y-95917205D01*
X162698102Y-95995226D01*
X162898061Y-96035000D01*
X163101939Y-96035000D01*
X163301898Y-95995226D01*
X163490256Y-95917205D01*
X163659774Y-95803937D01*
X163803937Y-95659774D01*
X163917205Y-95490256D01*
X163995226Y-95301898D01*
X164035000Y-95101939D01*
X164035000Y-94898061D01*
X163995226Y-94698102D01*
X163917205Y-94509744D01*
X163803937Y-94340226D01*
X163659774Y-94196063D01*
X163513104Y-94098061D01*
X165265000Y-94098061D01*
X165265000Y-94301939D01*
X165304774Y-94501898D01*
X165382795Y-94690256D01*
X165496063Y-94859774D01*
X165640226Y-95003937D01*
X165809744Y-95117205D01*
X165998102Y-95195226D01*
X166198061Y-95235000D01*
X166401939Y-95235000D01*
X166601898Y-95195226D01*
X166790256Y-95117205D01*
X166959774Y-95003937D01*
X167103937Y-94859774D01*
X167217205Y-94690256D01*
X167295226Y-94501898D01*
X167335000Y-94301939D01*
X167335000Y-94098061D01*
X167295226Y-93898102D01*
X167217205Y-93709744D01*
X167103937Y-93540226D01*
X167061772Y-93498061D01*
X168965000Y-93498061D01*
X168965000Y-93701939D01*
X169004774Y-93901898D01*
X169082795Y-94090256D01*
X169196063Y-94259774D01*
X169340226Y-94403937D01*
X169509744Y-94517205D01*
X169698102Y-94595226D01*
X169898061Y-94635000D01*
X170101939Y-94635000D01*
X170301898Y-94595226D01*
X170490256Y-94517205D01*
X170659774Y-94403937D01*
X170803937Y-94259774D01*
X170917205Y-94090256D01*
X170995226Y-93901898D01*
X171035000Y-93701939D01*
X171035000Y-93498061D01*
X170995226Y-93298102D01*
X170917205Y-93109744D01*
X170803937Y-92940226D01*
X170659774Y-92796063D01*
X170490256Y-92682795D01*
X170301898Y-92604774D01*
X170101939Y-92565000D01*
X169898061Y-92565000D01*
X169698102Y-92604774D01*
X169509744Y-92682795D01*
X169340226Y-92796063D01*
X169196063Y-92940226D01*
X169082795Y-93109744D01*
X169004774Y-93298102D01*
X168965000Y-93498061D01*
X167061772Y-93498061D01*
X166959774Y-93396063D01*
X166790256Y-93282795D01*
X166601898Y-93204774D01*
X166401939Y-93165000D01*
X166198061Y-93165000D01*
X165998102Y-93204774D01*
X165809744Y-93282795D01*
X165640226Y-93396063D01*
X165496063Y-93540226D01*
X165382795Y-93709744D01*
X165304774Y-93898102D01*
X165265000Y-94098061D01*
X163513104Y-94098061D01*
X163490256Y-94082795D01*
X163301898Y-94004774D01*
X163101939Y-93965000D01*
X162898061Y-93965000D01*
X162698102Y-94004774D01*
X162509744Y-94082795D01*
X162340226Y-94196063D01*
X162196063Y-94340226D01*
X162082795Y-94509744D01*
X162004774Y-94698102D01*
X161965000Y-94898061D01*
X159168150Y-94898061D01*
X159001939Y-94865000D01*
X158798061Y-94865000D01*
X158598102Y-94904774D01*
X158409744Y-94982795D01*
X158240226Y-95096063D01*
X158096063Y-95240226D01*
X157982795Y-95409744D01*
X157904774Y-95598102D01*
X157865000Y-95798061D01*
X154610834Y-95798061D01*
X154587623Y-95681372D01*
X154565753Y-95628574D01*
X154598061Y-95635000D01*
X154801939Y-95635000D01*
X155001898Y-95595226D01*
X155190256Y-95517205D01*
X155359774Y-95403937D01*
X155503937Y-95259774D01*
X155617205Y-95090256D01*
X155695226Y-94901898D01*
X155735000Y-94701939D01*
X155735000Y-94498061D01*
X155695226Y-94298102D01*
X155617205Y-94109744D01*
X155503937Y-93940226D01*
X155382656Y-93818945D01*
X155501898Y-93795226D01*
X155690256Y-93717205D01*
X155859774Y-93603937D01*
X155965650Y-93498061D01*
X156565000Y-93498061D01*
X156565000Y-93701939D01*
X156604774Y-93901898D01*
X156682795Y-94090256D01*
X156796063Y-94259774D01*
X156940226Y-94403937D01*
X157109744Y-94517205D01*
X157298102Y-94595226D01*
X157498061Y-94635000D01*
X157701939Y-94635000D01*
X157901898Y-94595226D01*
X158090256Y-94517205D01*
X158259774Y-94403937D01*
X158403937Y-94259774D01*
X158517205Y-94090256D01*
X158595226Y-93901898D01*
X158635000Y-93701939D01*
X158635000Y-93498061D01*
X158595226Y-93298102D01*
X158517205Y-93109744D01*
X158403937Y-92940226D01*
X158259774Y-92796063D01*
X158090256Y-92682795D01*
X157974869Y-92635000D01*
X158101939Y-92635000D01*
X158301898Y-92595226D01*
X158490256Y-92517205D01*
X158659774Y-92403937D01*
X158803937Y-92259774D01*
X158917205Y-92090256D01*
X158995226Y-91901898D01*
X159035000Y-91701939D01*
X159035000Y-91498061D01*
X158995226Y-91298102D01*
X158917205Y-91109744D01*
X158803937Y-90940226D01*
X158659774Y-90796063D01*
X158490256Y-90682795D01*
X158301898Y-90604774D01*
X158101939Y-90565000D01*
X157898061Y-90565000D01*
X157698102Y-90604774D01*
X157509744Y-90682795D01*
X157340226Y-90796063D01*
X157196063Y-90940226D01*
X157082795Y-91109744D01*
X157004774Y-91298102D01*
X156965000Y-91498061D01*
X156965000Y-91701939D01*
X157004774Y-91901898D01*
X157082795Y-92090256D01*
X157196063Y-92259774D01*
X157340226Y-92403937D01*
X157509744Y-92517205D01*
X157625131Y-92565000D01*
X157498061Y-92565000D01*
X157298102Y-92604774D01*
X157109744Y-92682795D01*
X156940226Y-92796063D01*
X156796063Y-92940226D01*
X156682795Y-93109744D01*
X156604774Y-93298102D01*
X156565000Y-93498061D01*
X155965650Y-93498061D01*
X156003937Y-93459774D01*
X156117205Y-93290256D01*
X156195226Y-93101898D01*
X156235000Y-92901939D01*
X156235000Y-92698061D01*
X156195226Y-92498102D01*
X156117205Y-92309744D01*
X156003937Y-92140226D01*
X155859774Y-91996063D01*
X155690256Y-91882795D01*
X155501898Y-91804774D01*
X155301939Y-91765000D01*
X155098061Y-91765000D01*
X154898102Y-91804774D01*
X154709744Y-91882795D01*
X154540226Y-91996063D01*
X154396063Y-92140226D01*
X154282795Y-92309744D01*
X154204774Y-92498102D01*
X154165000Y-92698061D01*
X154165000Y-92901939D01*
X154204774Y-93101898D01*
X154282795Y-93290256D01*
X154396063Y-93459774D01*
X154517344Y-93581055D01*
X154398102Y-93604774D01*
X154209744Y-93682795D01*
X154040226Y-93796063D01*
X153896063Y-93940226D01*
X153782795Y-94109744D01*
X153738995Y-94215486D01*
X153344670Y-93821161D01*
X152716554Y-93401467D01*
X152018628Y-93112377D01*
X151277715Y-92965000D01*
X150522285Y-92965000D01*
X149781372Y-93112377D01*
X149083446Y-93401467D01*
X148455330Y-93821161D01*
X147921161Y-94355330D01*
X147501467Y-94983446D01*
X147301133Y-95467096D01*
X147307935Y-87893137D01*
X151015000Y-87893137D01*
X151015000Y-88106863D01*
X151056696Y-88316483D01*
X151138485Y-88513940D01*
X151257225Y-88691647D01*
X151408353Y-88842775D01*
X151586060Y-88961515D01*
X151783517Y-89043304D01*
X151993137Y-89085000D01*
X152206863Y-89085000D01*
X152416483Y-89043304D01*
X152613940Y-88961515D01*
X152791647Y-88842775D01*
X152942775Y-88691647D01*
X153061515Y-88513940D01*
X153143304Y-88316483D01*
X153146968Y-88298061D01*
X153565000Y-88298061D01*
X153565000Y-88501939D01*
X153604774Y-88701898D01*
X153682795Y-88890256D01*
X153796063Y-89059774D01*
X153940226Y-89203937D01*
X154109744Y-89317205D01*
X154298102Y-89395226D01*
X154498061Y-89435000D01*
X154701939Y-89435000D01*
X154901898Y-89395226D01*
X155090256Y-89317205D01*
X155259774Y-89203937D01*
X155300000Y-89163711D01*
X155340226Y-89203937D01*
X155509744Y-89317205D01*
X155698102Y-89395226D01*
X155898061Y-89435000D01*
X156101939Y-89435000D01*
X156301898Y-89395226D01*
X156490256Y-89317205D01*
X156659774Y-89203937D01*
X156803937Y-89059774D01*
X156917205Y-88890256D01*
X156995226Y-88701898D01*
X157026729Y-88543519D01*
X157090256Y-88517205D01*
X157118907Y-88498061D01*
X162165000Y-88498061D01*
X162165000Y-88701939D01*
X162204774Y-88901898D01*
X162282795Y-89090256D01*
X162389532Y-89250000D01*
X162282795Y-89409744D01*
X162204774Y-89598102D01*
X162165000Y-89798061D01*
X162165000Y-90001939D01*
X162204774Y-90201898D01*
X162282795Y-90390256D01*
X162396063Y-90559774D01*
X162540226Y-90703937D01*
X162709744Y-90817205D01*
X162898102Y-90895226D01*
X163098061Y-90935000D01*
X163301939Y-90935000D01*
X163501898Y-90895226D01*
X163690256Y-90817205D01*
X163859774Y-90703937D01*
X164003937Y-90559774D01*
X164045172Y-90498061D01*
X164765000Y-90498061D01*
X164765000Y-90701939D01*
X164804774Y-90901898D01*
X164882795Y-91090256D01*
X164996063Y-91259774D01*
X165140226Y-91403937D01*
X165309744Y-91517205D01*
X165498102Y-91595226D01*
X165698061Y-91635000D01*
X165791467Y-91635000D01*
X165804774Y-91701898D01*
X165882795Y-91890256D01*
X165996063Y-92059774D01*
X166140226Y-92203937D01*
X166309744Y-92317205D01*
X166498102Y-92395226D01*
X166698061Y-92435000D01*
X166901939Y-92435000D01*
X167101898Y-92395226D01*
X167290256Y-92317205D01*
X167459774Y-92203937D01*
X167603937Y-92059774D01*
X167717205Y-91890256D01*
X167795226Y-91701898D01*
X167835000Y-91501939D01*
X167835000Y-91298061D01*
X179165000Y-91298061D01*
X179165000Y-91501939D01*
X179204774Y-91701898D01*
X179282795Y-91890256D01*
X179396063Y-92059774D01*
X179540226Y-92203937D01*
X179709744Y-92317205D01*
X179898102Y-92395226D01*
X180098061Y-92435000D01*
X180301939Y-92435000D01*
X180501898Y-92395226D01*
X180690256Y-92317205D01*
X180859774Y-92203937D01*
X181003937Y-92059774D01*
X181117205Y-91890256D01*
X181195226Y-91701898D01*
X181235000Y-91501939D01*
X181235000Y-91498061D01*
X184165000Y-91498061D01*
X184165000Y-91701939D01*
X184204774Y-91901898D01*
X184282795Y-92090256D01*
X184396063Y-92259774D01*
X184540226Y-92403937D01*
X184709744Y-92517205D01*
X184898102Y-92595226D01*
X185098061Y-92635000D01*
X185301939Y-92635000D01*
X185501898Y-92595226D01*
X185690256Y-92517205D01*
X185859774Y-92403937D01*
X186003937Y-92259774D01*
X186117205Y-92090256D01*
X186195226Y-91901898D01*
X186235000Y-91701939D01*
X186235000Y-91498061D01*
X186195226Y-91298102D01*
X186195210Y-91298061D01*
X187465000Y-91298061D01*
X187465000Y-91501939D01*
X187504774Y-91701898D01*
X187582795Y-91890256D01*
X187696063Y-92059774D01*
X187840226Y-92203937D01*
X188009744Y-92317205D01*
X188198102Y-92395226D01*
X188398061Y-92435000D01*
X188601939Y-92435000D01*
X188801898Y-92395226D01*
X188990256Y-92317205D01*
X189159774Y-92203937D01*
X189303937Y-92059774D01*
X189417205Y-91890256D01*
X189495226Y-91701898D01*
X189535000Y-91501939D01*
X189535000Y-91298061D01*
X189495226Y-91098102D01*
X189417205Y-90909744D01*
X189303937Y-90740226D01*
X189159774Y-90596063D01*
X188990256Y-90482795D01*
X188801898Y-90404774D01*
X188601939Y-90365000D01*
X188398061Y-90365000D01*
X188198102Y-90404774D01*
X188009744Y-90482795D01*
X187840226Y-90596063D01*
X187696063Y-90740226D01*
X187582795Y-90909744D01*
X187504774Y-91098102D01*
X187465000Y-91298061D01*
X186195210Y-91298061D01*
X186117205Y-91109744D01*
X186003937Y-90940226D01*
X185859774Y-90796063D01*
X185690256Y-90682795D01*
X185501898Y-90604774D01*
X185301939Y-90565000D01*
X185098061Y-90565000D01*
X184898102Y-90604774D01*
X184709744Y-90682795D01*
X184540226Y-90796063D01*
X184396063Y-90940226D01*
X184282795Y-91109744D01*
X184204774Y-91298102D01*
X184165000Y-91498061D01*
X181235000Y-91498061D01*
X181235000Y-91298061D01*
X181195226Y-91098102D01*
X181117205Y-90909744D01*
X181003937Y-90740226D01*
X180859774Y-90596063D01*
X180690256Y-90482795D01*
X180501898Y-90404774D01*
X180301939Y-90365000D01*
X180098061Y-90365000D01*
X179898102Y-90404774D01*
X179709744Y-90482795D01*
X179540226Y-90596063D01*
X179396063Y-90740226D01*
X179282795Y-90909744D01*
X179204774Y-91098102D01*
X179165000Y-91298061D01*
X167835000Y-91298061D01*
X167795226Y-91098102D01*
X167717205Y-90909744D01*
X167603937Y-90740226D01*
X167459774Y-90596063D01*
X167290256Y-90482795D01*
X167101898Y-90404774D01*
X166901939Y-90365000D01*
X166808533Y-90365000D01*
X166795226Y-90298102D01*
X166717205Y-90109744D01*
X166603937Y-89940226D01*
X166459774Y-89796063D01*
X166313104Y-89698061D01*
X190765000Y-89698061D01*
X190765000Y-89901939D01*
X190804774Y-90101898D01*
X190882795Y-90290256D01*
X190996063Y-90459774D01*
X191140226Y-90603937D01*
X191309744Y-90717205D01*
X191498102Y-90795226D01*
X191698061Y-90835000D01*
X191901939Y-90835000D01*
X192101898Y-90795226D01*
X192290256Y-90717205D01*
X192459774Y-90603937D01*
X192603937Y-90459774D01*
X192717205Y-90290256D01*
X192795226Y-90101898D01*
X192835000Y-89901939D01*
X192835000Y-89698061D01*
X192795226Y-89498102D01*
X192717205Y-89309744D01*
X192603937Y-89140226D01*
X192459774Y-88996063D01*
X192290256Y-88882795D01*
X192101898Y-88804774D01*
X191901939Y-88765000D01*
X191698061Y-88765000D01*
X191498102Y-88804774D01*
X191309744Y-88882795D01*
X191140226Y-88996063D01*
X190996063Y-89140226D01*
X190882795Y-89309744D01*
X190804774Y-89498102D01*
X190765000Y-89698061D01*
X166313104Y-89698061D01*
X166290256Y-89682795D01*
X166101898Y-89604774D01*
X165901939Y-89565000D01*
X165698061Y-89565000D01*
X165498102Y-89604774D01*
X165309744Y-89682795D01*
X165140226Y-89796063D01*
X164996063Y-89940226D01*
X164882795Y-90109744D01*
X164804774Y-90298102D01*
X164765000Y-90498061D01*
X164045172Y-90498061D01*
X164117205Y-90390256D01*
X164195226Y-90201898D01*
X164235000Y-90001939D01*
X164235000Y-89798061D01*
X164195226Y-89598102D01*
X164117205Y-89409744D01*
X164010468Y-89250000D01*
X164117205Y-89090256D01*
X164195226Y-88901898D01*
X164235000Y-88701939D01*
X164235000Y-88498061D01*
X164195226Y-88298102D01*
X164195210Y-88298061D01*
X179165000Y-88298061D01*
X179165000Y-88501939D01*
X179204774Y-88701898D01*
X179282795Y-88890256D01*
X179396063Y-89059774D01*
X179540226Y-89203937D01*
X179709744Y-89317205D01*
X179898102Y-89395226D01*
X180098061Y-89435000D01*
X180301939Y-89435000D01*
X180501898Y-89395226D01*
X180690256Y-89317205D01*
X180859774Y-89203937D01*
X181003937Y-89059774D01*
X181117205Y-88890256D01*
X181195226Y-88701898D01*
X181235000Y-88501939D01*
X181235000Y-88298061D01*
X181195226Y-88098102D01*
X181117205Y-87909744D01*
X181003937Y-87740226D01*
X180859774Y-87596063D01*
X180690256Y-87482795D01*
X180501898Y-87404774D01*
X180301939Y-87365000D01*
X180098061Y-87365000D01*
X179898102Y-87404774D01*
X179709744Y-87482795D01*
X179540226Y-87596063D01*
X179396063Y-87740226D01*
X179282795Y-87909744D01*
X179204774Y-88098102D01*
X179165000Y-88298061D01*
X164195210Y-88298061D01*
X164117205Y-88109744D01*
X164003937Y-87940226D01*
X163859774Y-87796063D01*
X163690256Y-87682795D01*
X163501898Y-87604774D01*
X163301939Y-87565000D01*
X163098061Y-87565000D01*
X162898102Y-87604774D01*
X162709744Y-87682795D01*
X162540226Y-87796063D01*
X162396063Y-87940226D01*
X162282795Y-88109744D01*
X162204774Y-88298102D01*
X162165000Y-88498061D01*
X157118907Y-88498061D01*
X157259774Y-88403937D01*
X157403937Y-88259774D01*
X157517205Y-88090256D01*
X157595226Y-87901898D01*
X157635000Y-87701939D01*
X157635000Y-87498061D01*
X157595226Y-87298102D01*
X157517205Y-87109744D01*
X157403937Y-86940226D01*
X157259774Y-86796063D01*
X157090256Y-86682795D01*
X156901898Y-86604774D01*
X156701939Y-86565000D01*
X156498061Y-86565000D01*
X156298102Y-86604774D01*
X156109744Y-86682795D01*
X155940226Y-86796063D01*
X155796063Y-86940226D01*
X155682795Y-87109744D01*
X155604774Y-87298102D01*
X155573271Y-87456481D01*
X155509744Y-87482795D01*
X155340226Y-87596063D01*
X155300000Y-87636289D01*
X155259774Y-87596063D01*
X155090256Y-87482795D01*
X154901898Y-87404774D01*
X154701939Y-87365000D01*
X154498061Y-87365000D01*
X154298102Y-87404774D01*
X154109744Y-87482795D01*
X153940226Y-87596063D01*
X153796063Y-87740226D01*
X153682795Y-87909744D01*
X153604774Y-88098102D01*
X153565000Y-88298061D01*
X153146968Y-88298061D01*
X153185000Y-88106863D01*
X153185000Y-87893137D01*
X153143304Y-87683517D01*
X153061515Y-87486060D01*
X152942775Y-87308353D01*
X152791647Y-87157225D01*
X152613940Y-87038485D01*
X152416483Y-86956696D01*
X152206863Y-86915000D01*
X151993137Y-86915000D01*
X151783517Y-86956696D01*
X151586060Y-87038485D01*
X151408353Y-87157225D01*
X151257225Y-87308353D01*
X151138485Y-87486060D01*
X151056696Y-87683517D01*
X151015000Y-87893137D01*
X147307935Y-87893137D01*
X147309457Y-86198061D01*
X178665000Y-86198061D01*
X178665000Y-86401939D01*
X178704774Y-86601898D01*
X178782795Y-86790256D01*
X178896063Y-86959774D01*
X179040226Y-87103937D01*
X179209744Y-87217205D01*
X179398102Y-87295226D01*
X179598061Y-87335000D01*
X179801939Y-87335000D01*
X180001898Y-87295226D01*
X180190256Y-87217205D01*
X180359774Y-87103937D01*
X180503937Y-86959774D01*
X180617205Y-86790256D01*
X180695226Y-86601898D01*
X180735000Y-86401939D01*
X180735000Y-86198061D01*
X180695226Y-85998102D01*
X180617205Y-85809744D01*
X180503937Y-85640226D01*
X180359774Y-85496063D01*
X180190256Y-85382795D01*
X180001898Y-85304774D01*
X179801939Y-85265000D01*
X179598061Y-85265000D01*
X179398102Y-85304774D01*
X179209744Y-85382795D01*
X179040226Y-85496063D01*
X178896063Y-85640226D01*
X178782795Y-85809744D01*
X178704774Y-85998102D01*
X178665000Y-86198061D01*
X147309457Y-86198061D01*
X147310444Y-85098061D01*
X183365000Y-85098061D01*
X183365000Y-85301939D01*
X183404774Y-85501898D01*
X183482795Y-85690256D01*
X183489306Y-85700000D01*
X183482795Y-85709744D01*
X183404774Y-85898102D01*
X183365000Y-86098061D01*
X183365000Y-86301939D01*
X183404774Y-86501898D01*
X183482795Y-86690256D01*
X183556123Y-86800000D01*
X183482795Y-86909744D01*
X183404774Y-87098102D01*
X183365000Y-87298061D01*
X183365000Y-87501939D01*
X183404774Y-87701898D01*
X183482795Y-87890256D01*
X183596063Y-88059774D01*
X183740226Y-88203937D01*
X183909744Y-88317205D01*
X184098102Y-88395226D01*
X184298061Y-88435000D01*
X184501939Y-88435000D01*
X184701898Y-88395226D01*
X184890256Y-88317205D01*
X185000000Y-88243877D01*
X185109744Y-88317205D01*
X185298102Y-88395226D01*
X185498061Y-88435000D01*
X185701939Y-88435000D01*
X185901898Y-88395226D01*
X186090256Y-88317205D01*
X186200000Y-88243877D01*
X186309744Y-88317205D01*
X186498102Y-88395226D01*
X186698061Y-88435000D01*
X186901939Y-88435000D01*
X187101898Y-88395226D01*
X187290256Y-88317205D01*
X187459774Y-88203937D01*
X187603937Y-88059774D01*
X187717205Y-87890256D01*
X187795226Y-87701898D01*
X187835000Y-87501939D01*
X187835000Y-87298061D01*
X187795226Y-87098102D01*
X187717205Y-86909744D01*
X187643877Y-86800000D01*
X187717205Y-86690256D01*
X187755393Y-86598061D01*
X190465000Y-86598061D01*
X190465000Y-86801939D01*
X190504774Y-87001898D01*
X190582795Y-87190256D01*
X190696063Y-87359774D01*
X190840226Y-87503937D01*
X191009744Y-87617205D01*
X191198102Y-87695226D01*
X191398061Y-87735000D01*
X191601939Y-87735000D01*
X191801898Y-87695226D01*
X191990256Y-87617205D01*
X192159774Y-87503937D01*
X192303937Y-87359774D01*
X192417205Y-87190256D01*
X192495226Y-87001898D01*
X192535000Y-86801939D01*
X192535000Y-86598061D01*
X192495226Y-86398102D01*
X192417205Y-86209744D01*
X192303937Y-86040226D01*
X192159774Y-85896063D01*
X191990256Y-85782795D01*
X191801898Y-85704774D01*
X191601939Y-85665000D01*
X191398061Y-85665000D01*
X191198102Y-85704774D01*
X191009744Y-85782795D01*
X190840226Y-85896063D01*
X190696063Y-86040226D01*
X190582795Y-86209744D01*
X190504774Y-86398102D01*
X190465000Y-86598061D01*
X187755393Y-86598061D01*
X187795226Y-86501898D01*
X187835000Y-86301939D01*
X187835000Y-86098061D01*
X187795226Y-85898102D01*
X187717205Y-85709744D01*
X187710694Y-85700000D01*
X187717205Y-85690256D01*
X187795226Y-85501898D01*
X187835000Y-85301939D01*
X187835000Y-85098061D01*
X187795226Y-84898102D01*
X187717205Y-84709744D01*
X187603937Y-84540226D01*
X187459774Y-84396063D01*
X187290256Y-84282795D01*
X187101898Y-84204774D01*
X186901939Y-84165000D01*
X186698061Y-84165000D01*
X186498102Y-84204774D01*
X186309744Y-84282795D01*
X186200000Y-84356123D01*
X186090256Y-84282795D01*
X185901898Y-84204774D01*
X185701939Y-84165000D01*
X185498061Y-84165000D01*
X185298102Y-84204774D01*
X185109744Y-84282795D01*
X185000000Y-84356123D01*
X184890256Y-84282795D01*
X184701898Y-84204774D01*
X184501939Y-84165000D01*
X184298061Y-84165000D01*
X184098102Y-84204774D01*
X183909744Y-84282795D01*
X183740226Y-84396063D01*
X183596063Y-84540226D01*
X183482795Y-84709744D01*
X183404774Y-84898102D01*
X183365000Y-85098061D01*
X147310444Y-85098061D01*
X147311886Y-83493137D01*
X151015000Y-83493137D01*
X151015000Y-83706863D01*
X151056696Y-83916483D01*
X151138485Y-84113940D01*
X151257225Y-84291647D01*
X151408353Y-84442775D01*
X151586060Y-84561515D01*
X151783517Y-84643304D01*
X151993137Y-84685000D01*
X152206863Y-84685000D01*
X152416483Y-84643304D01*
X152613940Y-84561515D01*
X152791647Y-84442775D01*
X152942775Y-84291647D01*
X153061515Y-84113940D01*
X153143304Y-83916483D01*
X153185000Y-83706863D01*
X153185000Y-83493137D01*
X153146197Y-83298061D01*
X155565000Y-83298061D01*
X155565000Y-83501939D01*
X155604774Y-83701898D01*
X155682795Y-83890256D01*
X155796063Y-84059774D01*
X155940226Y-84203937D01*
X156109744Y-84317205D01*
X156298102Y-84395226D01*
X156498061Y-84435000D01*
X156701939Y-84435000D01*
X156901898Y-84395226D01*
X157090256Y-84317205D01*
X157259774Y-84203937D01*
X157403937Y-84059774D01*
X157511989Y-83898061D01*
X179365000Y-83898061D01*
X179365000Y-84101939D01*
X179404774Y-84301898D01*
X179482795Y-84490256D01*
X179596063Y-84659774D01*
X179740226Y-84803937D01*
X179909744Y-84917205D01*
X180098102Y-84995226D01*
X180298061Y-85035000D01*
X180501939Y-85035000D01*
X180701898Y-84995226D01*
X180890256Y-84917205D01*
X181059774Y-84803937D01*
X181203937Y-84659774D01*
X181317205Y-84490256D01*
X181395226Y-84301898D01*
X181435000Y-84101939D01*
X181435000Y-84098061D01*
X190365000Y-84098061D01*
X190365000Y-84301939D01*
X190404774Y-84501898D01*
X190482795Y-84690256D01*
X190596063Y-84859774D01*
X190740226Y-85003937D01*
X190909744Y-85117205D01*
X191098102Y-85195226D01*
X191298061Y-85235000D01*
X191501939Y-85235000D01*
X191701898Y-85195226D01*
X191890256Y-85117205D01*
X192059774Y-85003937D01*
X192203937Y-84859774D01*
X192317205Y-84690256D01*
X192395226Y-84501898D01*
X192435000Y-84301939D01*
X192435000Y-84098061D01*
X192395226Y-83898102D01*
X192317205Y-83709744D01*
X192203937Y-83540226D01*
X192059774Y-83396063D01*
X191890256Y-83282795D01*
X191701898Y-83204774D01*
X191501939Y-83165000D01*
X191298061Y-83165000D01*
X191098102Y-83204774D01*
X190909744Y-83282795D01*
X190740226Y-83396063D01*
X190596063Y-83540226D01*
X190482795Y-83709744D01*
X190404774Y-83898102D01*
X190365000Y-84098061D01*
X181435000Y-84098061D01*
X181435000Y-83898061D01*
X181395226Y-83698102D01*
X181317205Y-83509744D01*
X181203937Y-83340226D01*
X181059774Y-83196063D01*
X180890256Y-83082795D01*
X180701898Y-83004774D01*
X180501939Y-82965000D01*
X180298061Y-82965000D01*
X180098102Y-83004774D01*
X179909744Y-83082795D01*
X179740226Y-83196063D01*
X179596063Y-83340226D01*
X179482795Y-83509744D01*
X179404774Y-83698102D01*
X179365000Y-83898061D01*
X157511989Y-83898061D01*
X157517205Y-83890256D01*
X157595226Y-83701898D01*
X157635000Y-83501939D01*
X157635000Y-83298061D01*
X157595226Y-83098102D01*
X157517205Y-82909744D01*
X157403937Y-82740226D01*
X157259774Y-82596063D01*
X157113104Y-82498061D01*
X158365000Y-82498061D01*
X158365000Y-82701939D01*
X158404774Y-82901898D01*
X158482795Y-83090256D01*
X158596063Y-83259774D01*
X158740226Y-83403937D01*
X158909744Y-83517205D01*
X159098102Y-83595226D01*
X159298061Y-83635000D01*
X159501939Y-83635000D01*
X159701898Y-83595226D01*
X159890256Y-83517205D01*
X160059774Y-83403937D01*
X160203937Y-83259774D01*
X160317205Y-83090256D01*
X160395226Y-82901898D01*
X160435000Y-82701939D01*
X160435000Y-82498061D01*
X160395226Y-82298102D01*
X160317205Y-82109744D01*
X160203937Y-81940226D01*
X160059774Y-81796063D01*
X159890256Y-81682795D01*
X159701898Y-81604774D01*
X159501939Y-81565000D01*
X159298061Y-81565000D01*
X159098102Y-81604774D01*
X158909744Y-81682795D01*
X158740226Y-81796063D01*
X158596063Y-81940226D01*
X158482795Y-82109744D01*
X158404774Y-82298102D01*
X158365000Y-82498061D01*
X157113104Y-82498061D01*
X157090256Y-82482795D01*
X156901898Y-82404774D01*
X156701939Y-82365000D01*
X156498061Y-82365000D01*
X156298102Y-82404774D01*
X156109744Y-82482795D01*
X155940226Y-82596063D01*
X155796063Y-82740226D01*
X155682795Y-82909744D01*
X155604774Y-83098102D01*
X155565000Y-83298061D01*
X153146197Y-83298061D01*
X153143304Y-83283517D01*
X153061515Y-83086060D01*
X152942775Y-82908353D01*
X152791647Y-82757225D01*
X152613940Y-82638485D01*
X152416483Y-82556696D01*
X152206863Y-82515000D01*
X151993137Y-82515000D01*
X151783517Y-82556696D01*
X151586060Y-82638485D01*
X151408353Y-82757225D01*
X151257225Y-82908353D01*
X151138485Y-83086060D01*
X151056696Y-83283517D01*
X151015000Y-83493137D01*
X147311886Y-83493137D01*
X147313677Y-81498061D01*
X176165000Y-81498061D01*
X176165000Y-81701939D01*
X176204774Y-81901898D01*
X176282795Y-82090256D01*
X176396063Y-82259774D01*
X176540226Y-82403937D01*
X176709744Y-82517205D01*
X176898102Y-82595226D01*
X177098061Y-82635000D01*
X177301939Y-82635000D01*
X177501898Y-82595226D01*
X177690256Y-82517205D01*
X177859774Y-82403937D01*
X178003937Y-82259774D01*
X178117205Y-82090256D01*
X178195226Y-81901898D01*
X178235000Y-81701939D01*
X178235000Y-81498061D01*
X178195226Y-81298102D01*
X178117205Y-81109744D01*
X178003937Y-80940226D01*
X177859774Y-80796063D01*
X177690256Y-80682795D01*
X177501898Y-80604774D01*
X177301939Y-80565000D01*
X177098061Y-80565000D01*
X176898102Y-80604774D01*
X176709744Y-80682795D01*
X176540226Y-80796063D01*
X176396063Y-80940226D01*
X176282795Y-81109744D01*
X176204774Y-81298102D01*
X176165000Y-81498061D01*
X147313677Y-81498061D01*
X147314755Y-80298061D01*
X157165000Y-80298061D01*
X157165000Y-80501939D01*
X157204774Y-80701898D01*
X157282795Y-80890256D01*
X157396063Y-81059774D01*
X157540226Y-81203937D01*
X157709744Y-81317205D01*
X157898102Y-81395226D01*
X158098061Y-81435000D01*
X158301939Y-81435000D01*
X158501898Y-81395226D01*
X158690256Y-81317205D01*
X158859774Y-81203937D01*
X159003937Y-81059774D01*
X159117205Y-80890256D01*
X159195226Y-80701898D01*
X159235000Y-80501939D01*
X159235000Y-80298061D01*
X159195226Y-80098102D01*
X159195210Y-80098061D01*
X161365000Y-80098061D01*
X161365000Y-80301939D01*
X161404774Y-80501898D01*
X161482795Y-80690256D01*
X161596063Y-80859774D01*
X161740226Y-81003937D01*
X161909744Y-81117205D01*
X162098102Y-81195226D01*
X162298061Y-81235000D01*
X162501939Y-81235000D01*
X162701898Y-81195226D01*
X162890256Y-81117205D01*
X163059774Y-81003937D01*
X163203937Y-80859774D01*
X163317205Y-80690256D01*
X163395226Y-80501898D01*
X163435000Y-80301939D01*
X163435000Y-80098061D01*
X163395226Y-79898102D01*
X163317205Y-79709744D01*
X163203937Y-79540226D01*
X163059774Y-79396063D01*
X162890256Y-79282795D01*
X162701898Y-79204774D01*
X162501939Y-79165000D01*
X162298061Y-79165000D01*
X162098102Y-79204774D01*
X161909744Y-79282795D01*
X161740226Y-79396063D01*
X161596063Y-79540226D01*
X161482795Y-79709744D01*
X161404774Y-79898102D01*
X161365000Y-80098061D01*
X159195210Y-80098061D01*
X159117205Y-79909744D01*
X159003937Y-79740226D01*
X158859774Y-79596063D01*
X158690256Y-79482795D01*
X158501898Y-79404774D01*
X158301939Y-79365000D01*
X158098061Y-79365000D01*
X157898102Y-79404774D01*
X157709744Y-79482795D01*
X157540226Y-79596063D01*
X157396063Y-79740226D01*
X157282795Y-79909744D01*
X157204774Y-80098102D01*
X157165000Y-80298061D01*
X147314755Y-80298061D01*
X147316103Y-78798061D01*
X151065000Y-78798061D01*
X151065000Y-79001939D01*
X151104774Y-79201898D01*
X151182795Y-79390256D01*
X151296063Y-79559774D01*
X151440226Y-79703937D01*
X151609744Y-79817205D01*
X151798102Y-79895226D01*
X151998061Y-79935000D01*
X152201939Y-79935000D01*
X152401898Y-79895226D01*
X152590256Y-79817205D01*
X152759774Y-79703937D01*
X152903937Y-79559774D01*
X153017205Y-79390256D01*
X153095226Y-79201898D01*
X153135000Y-79001939D01*
X153135000Y-78798061D01*
X153095226Y-78598102D01*
X153017205Y-78409744D01*
X152903937Y-78240226D01*
X152759774Y-78096063D01*
X152590256Y-77982795D01*
X152401898Y-77904774D01*
X152201939Y-77865000D01*
X151998061Y-77865000D01*
X151798102Y-77904774D01*
X151609744Y-77982795D01*
X151440226Y-78096063D01*
X151296063Y-78240226D01*
X151182795Y-78409744D01*
X151104774Y-78598102D01*
X151065000Y-78798061D01*
X147316103Y-78798061D01*
X147317630Y-77098061D01*
X148565000Y-77098061D01*
X148565000Y-77301939D01*
X148604774Y-77501898D01*
X148682795Y-77690256D01*
X148796063Y-77859774D01*
X148940226Y-78003937D01*
X149109744Y-78117205D01*
X149298102Y-78195226D01*
X149498061Y-78235000D01*
X149701939Y-78235000D01*
X149901898Y-78195226D01*
X150090256Y-78117205D01*
X150259774Y-78003937D01*
X150403937Y-77859774D01*
X150517205Y-77690256D01*
X150595226Y-77501898D01*
X150635000Y-77301939D01*
X150635000Y-77098061D01*
X150595226Y-76898102D01*
X150517205Y-76709744D01*
X150403937Y-76540226D01*
X150259774Y-76396063D01*
X150090256Y-76282795D01*
X149901898Y-76204774D01*
X149701939Y-76165000D01*
X149498061Y-76165000D01*
X149298102Y-76204774D01*
X149109744Y-76282795D01*
X148940226Y-76396063D01*
X148796063Y-76540226D01*
X148682795Y-76709744D01*
X148604774Y-76898102D01*
X148565000Y-77098061D01*
X147317630Y-77098061D01*
X147318707Y-75898061D01*
X150615000Y-75898061D01*
X150615000Y-76101939D01*
X150654774Y-76301898D01*
X150732795Y-76490256D01*
X150846063Y-76659774D01*
X150990226Y-76803937D01*
X151159744Y-76917205D01*
X151348102Y-76995226D01*
X151548061Y-77035000D01*
X151751939Y-77035000D01*
X151951898Y-76995226D01*
X152140256Y-76917205D01*
X152309774Y-76803937D01*
X152453937Y-76659774D01*
X152567205Y-76490256D01*
X152645226Y-76301898D01*
X152685000Y-76101939D01*
X152685000Y-75898061D01*
X152645226Y-75698102D01*
X152567205Y-75509744D01*
X152559399Y-75498061D01*
X179765000Y-75498061D01*
X179765000Y-75701939D01*
X179804774Y-75901898D01*
X179882795Y-76090256D01*
X179996063Y-76259774D01*
X180140226Y-76403937D01*
X180309744Y-76517205D01*
X180498102Y-76595226D01*
X180698061Y-76635000D01*
X180901939Y-76635000D01*
X181101898Y-76595226D01*
X181290256Y-76517205D01*
X181459774Y-76403937D01*
X181603937Y-76259774D01*
X181717205Y-76090256D01*
X181795226Y-75901898D01*
X181835000Y-75701939D01*
X181835000Y-75498061D01*
X181795226Y-75298102D01*
X181795210Y-75298061D01*
X189165000Y-75298061D01*
X189165000Y-75501939D01*
X189204774Y-75701898D01*
X189282795Y-75890256D01*
X189396063Y-76059774D01*
X189540226Y-76203937D01*
X189709744Y-76317205D01*
X189898102Y-76395226D01*
X190098061Y-76435000D01*
X190301939Y-76435000D01*
X190501898Y-76395226D01*
X190690256Y-76317205D01*
X190859774Y-76203937D01*
X191003937Y-76059774D01*
X191117205Y-75890256D01*
X191195226Y-75701898D01*
X191235000Y-75501939D01*
X191235000Y-75298061D01*
X191195226Y-75098102D01*
X191117205Y-74909744D01*
X191003937Y-74740226D01*
X190859774Y-74596063D01*
X190690256Y-74482795D01*
X190501898Y-74404774D01*
X190301939Y-74365000D01*
X190098061Y-74365000D01*
X189898102Y-74404774D01*
X189709744Y-74482795D01*
X189540226Y-74596063D01*
X189396063Y-74740226D01*
X189282795Y-74909744D01*
X189204774Y-75098102D01*
X189165000Y-75298061D01*
X181795210Y-75298061D01*
X181717205Y-75109744D01*
X181603937Y-74940226D01*
X181459774Y-74796063D01*
X181290256Y-74682795D01*
X181101898Y-74604774D01*
X180901939Y-74565000D01*
X180698061Y-74565000D01*
X180498102Y-74604774D01*
X180309744Y-74682795D01*
X180140226Y-74796063D01*
X179996063Y-74940226D01*
X179882795Y-75109744D01*
X179804774Y-75298102D01*
X179765000Y-75498061D01*
X152559399Y-75498061D01*
X152453937Y-75340226D01*
X152309774Y-75196063D01*
X152140256Y-75082795D01*
X151951898Y-75004774D01*
X151751939Y-74965000D01*
X151548061Y-74965000D01*
X151348102Y-75004774D01*
X151159744Y-75082795D01*
X150990226Y-75196063D01*
X150846063Y-75340226D01*
X150732795Y-75509744D01*
X150654774Y-75698102D01*
X150615000Y-75898061D01*
X147318707Y-75898061D01*
X147320144Y-74298061D01*
X148565000Y-74298061D01*
X148565000Y-74501939D01*
X148604774Y-74701898D01*
X148682795Y-74890256D01*
X148796063Y-75059774D01*
X148940226Y-75203937D01*
X149109744Y-75317205D01*
X149298102Y-75395226D01*
X149498061Y-75435000D01*
X149701939Y-75435000D01*
X149901898Y-75395226D01*
X150090256Y-75317205D01*
X150259774Y-75203937D01*
X150403937Y-75059774D01*
X150517205Y-74890256D01*
X150595226Y-74701898D01*
X150635000Y-74501939D01*
X150635000Y-74298061D01*
X162365000Y-74298061D01*
X162365000Y-74501939D01*
X162404774Y-74701898D01*
X162482795Y-74890256D01*
X162596063Y-75059774D01*
X162740226Y-75203937D01*
X162909744Y-75317205D01*
X163098102Y-75395226D01*
X163298061Y-75435000D01*
X163501939Y-75435000D01*
X163701898Y-75395226D01*
X163890256Y-75317205D01*
X163900000Y-75310694D01*
X163909744Y-75317205D01*
X164098102Y-75395226D01*
X164298061Y-75435000D01*
X164501939Y-75435000D01*
X164701898Y-75395226D01*
X164890256Y-75317205D01*
X165059774Y-75203937D01*
X165203937Y-75059774D01*
X165317205Y-74890256D01*
X165395226Y-74701898D01*
X165435000Y-74501939D01*
X165435000Y-74298061D01*
X165395226Y-74098102D01*
X165317205Y-73909744D01*
X165203937Y-73740226D01*
X165059774Y-73596063D01*
X164890256Y-73482795D01*
X164701898Y-73404774D01*
X164501939Y-73365000D01*
X164298061Y-73365000D01*
X164098102Y-73404774D01*
X163909744Y-73482795D01*
X163900000Y-73489306D01*
X163890256Y-73482795D01*
X163701898Y-73404774D01*
X163501939Y-73365000D01*
X163298061Y-73365000D01*
X163098102Y-73404774D01*
X162909744Y-73482795D01*
X162740226Y-73596063D01*
X162596063Y-73740226D01*
X162482795Y-73909744D01*
X162404774Y-74098102D01*
X162365000Y-74298061D01*
X150635000Y-74298061D01*
X150595226Y-74098102D01*
X150517205Y-73909744D01*
X150403937Y-73740226D01*
X150259774Y-73596063D01*
X150090256Y-73482795D01*
X149901898Y-73404774D01*
X149701939Y-73365000D01*
X149498061Y-73365000D01*
X149298102Y-73404774D01*
X149109744Y-73482795D01*
X148940226Y-73596063D01*
X148796063Y-73740226D01*
X148682795Y-73909744D01*
X148604774Y-74098102D01*
X148565000Y-74298061D01*
X147320144Y-74298061D01*
X147322659Y-71498061D01*
X148565000Y-71498061D01*
X148565000Y-71701939D01*
X148604774Y-71901898D01*
X148682795Y-72090256D01*
X148796063Y-72259774D01*
X148940226Y-72403937D01*
X149109744Y-72517205D01*
X149298102Y-72595226D01*
X149498061Y-72635000D01*
X149701939Y-72635000D01*
X149901898Y-72595226D01*
X150015763Y-72548061D01*
X150465000Y-72548061D01*
X150465000Y-72751939D01*
X150504774Y-72951898D01*
X150582795Y-73140256D01*
X150696063Y-73309774D01*
X150840226Y-73453937D01*
X151009744Y-73567205D01*
X151198102Y-73645226D01*
X151398061Y-73685000D01*
X151601939Y-73685000D01*
X151801898Y-73645226D01*
X151990256Y-73567205D01*
X152159774Y-73453937D01*
X152303937Y-73309774D01*
X152417205Y-73140256D01*
X152495226Y-72951898D01*
X152535000Y-72751939D01*
X152535000Y-72548061D01*
X152495226Y-72348102D01*
X152417205Y-72159744D01*
X152303937Y-71990226D01*
X152159774Y-71846063D01*
X151990256Y-71732795D01*
X151801898Y-71654774D01*
X151601939Y-71615000D01*
X151398061Y-71615000D01*
X151198102Y-71654774D01*
X151009744Y-71732795D01*
X150840226Y-71846063D01*
X150696063Y-71990226D01*
X150582795Y-72159744D01*
X150504774Y-72348102D01*
X150465000Y-72548061D01*
X150015763Y-72548061D01*
X150090256Y-72517205D01*
X150259774Y-72403937D01*
X150403937Y-72259774D01*
X150517205Y-72090256D01*
X150595226Y-71901898D01*
X150635000Y-71701939D01*
X150635000Y-71498061D01*
X150595226Y-71298102D01*
X150517205Y-71109744D01*
X150403937Y-70940226D01*
X150259774Y-70796063D01*
X150090256Y-70682795D01*
X149901898Y-70604774D01*
X149701939Y-70565000D01*
X149498061Y-70565000D01*
X149298102Y-70604774D01*
X149109744Y-70682795D01*
X148940226Y-70796063D01*
X148796063Y-70940226D01*
X148682795Y-71109744D01*
X148604774Y-71298102D01*
X148565000Y-71498061D01*
X147322659Y-71498061D01*
X147323916Y-70098061D01*
X151265000Y-70098061D01*
X151265000Y-70301939D01*
X151304774Y-70501898D01*
X151382795Y-70690256D01*
X151496063Y-70859774D01*
X151640226Y-71003937D01*
X151809744Y-71117205D01*
X151998102Y-71195226D01*
X152198061Y-71235000D01*
X152401939Y-71235000D01*
X152601898Y-71195226D01*
X152790256Y-71117205D01*
X152959774Y-71003937D01*
X153103937Y-70859774D01*
X153217205Y-70690256D01*
X153295226Y-70501898D01*
X153335000Y-70301939D01*
X153335000Y-70098061D01*
X153295226Y-69898102D01*
X153217205Y-69709744D01*
X153103937Y-69540226D01*
X152959774Y-69396063D01*
X152790256Y-69282795D01*
X152601898Y-69204774D01*
X152401939Y-69165000D01*
X152198061Y-69165000D01*
X151998102Y-69204774D01*
X151809744Y-69282795D01*
X151640226Y-69396063D01*
X151496063Y-69540226D01*
X151382795Y-69709744D01*
X151304774Y-69898102D01*
X151265000Y-70098061D01*
X147323916Y-70098061D01*
X147325174Y-68698061D01*
X148565000Y-68698061D01*
X148565000Y-68901939D01*
X148604774Y-69101898D01*
X148682795Y-69290256D01*
X148796063Y-69459774D01*
X148940226Y-69603937D01*
X149109744Y-69717205D01*
X149298102Y-69795226D01*
X149498061Y-69835000D01*
X149701939Y-69835000D01*
X149901898Y-69795226D01*
X150090256Y-69717205D01*
X150259774Y-69603937D01*
X150403937Y-69459774D01*
X150517205Y-69290256D01*
X150595226Y-69101898D01*
X150635000Y-68901939D01*
X150635000Y-68698061D01*
X150595226Y-68498102D01*
X150517205Y-68309744D01*
X150403937Y-68140226D01*
X150259774Y-67996063D01*
X150113104Y-67898061D01*
X150765000Y-67898061D01*
X150765000Y-68101939D01*
X150804774Y-68301898D01*
X150882795Y-68490256D01*
X150996063Y-68659774D01*
X151140226Y-68803937D01*
X151309744Y-68917205D01*
X151498102Y-68995226D01*
X151698061Y-69035000D01*
X151901939Y-69035000D01*
X152101898Y-68995226D01*
X152290256Y-68917205D01*
X152459774Y-68803937D01*
X152603937Y-68659774D01*
X152717205Y-68490256D01*
X152795226Y-68301898D01*
X152835000Y-68101939D01*
X152835000Y-67898061D01*
X153365000Y-67898061D01*
X153365000Y-68101939D01*
X153404774Y-68301898D01*
X153445409Y-68400000D01*
X153404774Y-68498102D01*
X153365000Y-68698061D01*
X153365000Y-68901939D01*
X153404774Y-69101898D01*
X153445409Y-69200000D01*
X153404774Y-69298102D01*
X153365000Y-69498061D01*
X153365000Y-69701939D01*
X153404774Y-69901898D01*
X153482795Y-70090256D01*
X153596063Y-70259774D01*
X153736289Y-70400000D01*
X153596063Y-70540226D01*
X153482795Y-70709744D01*
X153404774Y-70898102D01*
X153365000Y-71098061D01*
X153365000Y-71301939D01*
X153404774Y-71501898D01*
X153482795Y-71690256D01*
X153489306Y-71700000D01*
X153482795Y-71709744D01*
X153404774Y-71898102D01*
X153365000Y-72098061D01*
X153365000Y-72301939D01*
X153404774Y-72501898D01*
X153482795Y-72690256D01*
X153596063Y-72859774D01*
X153740226Y-73003937D01*
X153909744Y-73117205D01*
X154098102Y-73195226D01*
X154298061Y-73235000D01*
X154501939Y-73235000D01*
X154701898Y-73195226D01*
X154890256Y-73117205D01*
X155059774Y-73003937D01*
X155203937Y-72859774D01*
X155317205Y-72690256D01*
X155395226Y-72501898D01*
X155435000Y-72301939D01*
X155435000Y-72098061D01*
X155395226Y-71898102D01*
X155317205Y-71709744D01*
X155310694Y-71700000D01*
X155317205Y-71690256D01*
X155395226Y-71501898D01*
X155431241Y-71320835D01*
X157175000Y-71320835D01*
X157175000Y-71495165D01*
X157209010Y-71666145D01*
X157275723Y-71827205D01*
X157372576Y-71972155D01*
X157398421Y-71998000D01*
X157372576Y-72023845D01*
X157275723Y-72168795D01*
X157209010Y-72329855D01*
X157175000Y-72500835D01*
X157175000Y-72675165D01*
X157209010Y-72846145D01*
X157275723Y-73007205D01*
X157372576Y-73152155D01*
X157495845Y-73275424D01*
X157640795Y-73372277D01*
X157801855Y-73438990D01*
X157972835Y-73473000D01*
X158147165Y-73473000D01*
X158318145Y-73438990D01*
X158479205Y-73372277D01*
X158624155Y-73275424D01*
X158650000Y-73249579D01*
X158675845Y-73275424D01*
X158820795Y-73372277D01*
X158981855Y-73438990D01*
X159152835Y-73473000D01*
X159327165Y-73473000D01*
X159498145Y-73438990D01*
X159659205Y-73372277D01*
X159804155Y-73275424D01*
X159927424Y-73152155D01*
X160024277Y-73007205D01*
X160090990Y-72846145D01*
X160125000Y-72675165D01*
X160125000Y-72500835D01*
X160090990Y-72329855D01*
X160024277Y-72168795D01*
X159927424Y-72023845D01*
X159901579Y-71998000D01*
X159927424Y-71972155D01*
X160024277Y-71827205D01*
X160090990Y-71666145D01*
X160125000Y-71495165D01*
X160125000Y-71320835D01*
X160090990Y-71149855D01*
X160024277Y-70988795D01*
X159927424Y-70843845D01*
X159804155Y-70720576D01*
X159659205Y-70623723D01*
X159498145Y-70557010D01*
X159327165Y-70523000D01*
X159152835Y-70523000D01*
X158981855Y-70557010D01*
X158820795Y-70623723D01*
X158675845Y-70720576D01*
X158650000Y-70746421D01*
X158624155Y-70720576D01*
X158479205Y-70623723D01*
X158318145Y-70557010D01*
X158147165Y-70523000D01*
X157972835Y-70523000D01*
X157801855Y-70557010D01*
X157640795Y-70623723D01*
X157495845Y-70720576D01*
X157372576Y-70843845D01*
X157275723Y-70988795D01*
X157209010Y-71149855D01*
X157175000Y-71320835D01*
X155431241Y-71320835D01*
X155435000Y-71301939D01*
X155435000Y-71098061D01*
X155395226Y-70898102D01*
X155317205Y-70709744D01*
X155203937Y-70540226D01*
X155063711Y-70400000D01*
X155203937Y-70259774D01*
X155311989Y-70098061D01*
X160165000Y-70098061D01*
X160165000Y-70301939D01*
X160204774Y-70501898D01*
X160282795Y-70690256D01*
X160289306Y-70700000D01*
X160282795Y-70709744D01*
X160204774Y-70898102D01*
X160165000Y-71098061D01*
X160165000Y-71301939D01*
X160204774Y-71501898D01*
X160245409Y-71600000D01*
X160204774Y-71698102D01*
X160165000Y-71898061D01*
X160165000Y-72101939D01*
X160204774Y-72301898D01*
X160245409Y-72400000D01*
X160204774Y-72498102D01*
X160165000Y-72698061D01*
X160165000Y-72901939D01*
X160204774Y-73101898D01*
X160282795Y-73290256D01*
X160396063Y-73459774D01*
X160540226Y-73603937D01*
X160709744Y-73717205D01*
X160898102Y-73795226D01*
X161098061Y-73835000D01*
X161301939Y-73835000D01*
X161501898Y-73795226D01*
X161690256Y-73717205D01*
X161859774Y-73603937D01*
X162003937Y-73459774D01*
X162117205Y-73290256D01*
X162195226Y-73101898D01*
X162235000Y-72901939D01*
X162235000Y-72698061D01*
X175565000Y-72698061D01*
X175565000Y-72901939D01*
X175604774Y-73101898D01*
X175645409Y-73200000D01*
X175604774Y-73298102D01*
X175565000Y-73498061D01*
X175565000Y-73701939D01*
X175604774Y-73901898D01*
X175682795Y-74090256D01*
X175796063Y-74259774D01*
X175940226Y-74403937D01*
X176109744Y-74517205D01*
X176298102Y-74595226D01*
X176498061Y-74635000D01*
X176701939Y-74635000D01*
X176901898Y-74595226D01*
X177090256Y-74517205D01*
X177259774Y-74403937D01*
X177403937Y-74259774D01*
X177517205Y-74090256D01*
X177595226Y-73901898D01*
X177635000Y-73701939D01*
X177635000Y-73498061D01*
X177595226Y-73298102D01*
X177554591Y-73200000D01*
X177595226Y-73101898D01*
X177635000Y-72901939D01*
X177635000Y-72698061D01*
X177595226Y-72498102D01*
X177517205Y-72309744D01*
X177509399Y-72298061D01*
X182865000Y-72298061D01*
X182865000Y-72501939D01*
X182904774Y-72701898D01*
X182982795Y-72890256D01*
X183096063Y-73059774D01*
X183240226Y-73203937D01*
X183409744Y-73317205D01*
X183598102Y-73395226D01*
X183798061Y-73435000D01*
X184001939Y-73435000D01*
X184201898Y-73395226D01*
X184281285Y-73362342D01*
X184182795Y-73509744D01*
X184104774Y-73698102D01*
X184065000Y-73898061D01*
X184065000Y-74101939D01*
X184104774Y-74301898D01*
X184182795Y-74490256D01*
X184296063Y-74659774D01*
X184440226Y-74803937D01*
X184609744Y-74917205D01*
X184798102Y-74995226D01*
X184998061Y-75035000D01*
X185201939Y-75035000D01*
X185401898Y-74995226D01*
X185590256Y-74917205D01*
X185759774Y-74803937D01*
X185903937Y-74659774D01*
X186017205Y-74490256D01*
X186095226Y-74301898D01*
X186135000Y-74101939D01*
X186135000Y-73898061D01*
X186095226Y-73698102D01*
X186017205Y-73509744D01*
X185903937Y-73340226D01*
X185759774Y-73196063D01*
X185590256Y-73082795D01*
X185401898Y-73004774D01*
X185201939Y-72965000D01*
X184998061Y-72965000D01*
X184798102Y-73004774D01*
X184718715Y-73037658D01*
X184817205Y-72890256D01*
X184895226Y-72701898D01*
X184935000Y-72501939D01*
X184935000Y-72298061D01*
X184895226Y-72098102D01*
X184817205Y-71909744D01*
X184703937Y-71740226D01*
X184559774Y-71596063D01*
X184390256Y-71482795D01*
X184201898Y-71404774D01*
X184001939Y-71365000D01*
X183798061Y-71365000D01*
X183598102Y-71404774D01*
X183409744Y-71482795D01*
X183240226Y-71596063D01*
X183096063Y-71740226D01*
X182982795Y-71909744D01*
X182904774Y-72098102D01*
X182865000Y-72298061D01*
X177509399Y-72298061D01*
X177403937Y-72140226D01*
X177259774Y-71996063D01*
X177090256Y-71882795D01*
X176901898Y-71804774D01*
X176701939Y-71765000D01*
X176498061Y-71765000D01*
X176298102Y-71804774D01*
X176109744Y-71882795D01*
X175940226Y-71996063D01*
X175796063Y-72140226D01*
X175682795Y-72309744D01*
X175604774Y-72498102D01*
X175565000Y-72698061D01*
X162235000Y-72698061D01*
X162195226Y-72498102D01*
X162154591Y-72400000D01*
X162195226Y-72301898D01*
X162235000Y-72101939D01*
X162235000Y-71898061D01*
X162195226Y-71698102D01*
X162154591Y-71600000D01*
X162195226Y-71501898D01*
X162235000Y-71301939D01*
X162235000Y-71098061D01*
X162195226Y-70898102D01*
X162163977Y-70822660D01*
X162301898Y-70795226D01*
X162490256Y-70717205D01*
X162659774Y-70603937D01*
X162803937Y-70459774D01*
X162911989Y-70298061D01*
X170465000Y-70298061D01*
X170465000Y-70501939D01*
X170504774Y-70701898D01*
X170582795Y-70890256D01*
X170696063Y-71059774D01*
X170840226Y-71203937D01*
X171009744Y-71317205D01*
X171186418Y-71390386D01*
X171165000Y-71498061D01*
X171165000Y-71701939D01*
X171204774Y-71901898D01*
X171282795Y-72090256D01*
X171396063Y-72259774D01*
X171540226Y-72403937D01*
X171709744Y-72517205D01*
X171898102Y-72595226D01*
X172098061Y-72635000D01*
X172301939Y-72635000D01*
X172501898Y-72595226D01*
X172690256Y-72517205D01*
X172859774Y-72403937D01*
X173003937Y-72259774D01*
X173117205Y-72090256D01*
X173195226Y-71901898D01*
X173235000Y-71701939D01*
X173235000Y-71498061D01*
X173195226Y-71298102D01*
X173117205Y-71109744D01*
X173067263Y-71035000D01*
X173101939Y-71035000D01*
X173301898Y-70995226D01*
X173490256Y-70917205D01*
X173659774Y-70803937D01*
X173803937Y-70659774D01*
X173911989Y-70498061D01*
X179765000Y-70498061D01*
X179765000Y-70701939D01*
X179804774Y-70901898D01*
X179882795Y-71090256D01*
X179996063Y-71259774D01*
X180140226Y-71403937D01*
X180309744Y-71517205D01*
X180498102Y-71595226D01*
X180698061Y-71635000D01*
X180901939Y-71635000D01*
X181101898Y-71595226D01*
X181290256Y-71517205D01*
X181459774Y-71403937D01*
X181603937Y-71259774D01*
X181678581Y-71148061D01*
X191665000Y-71148061D01*
X191665000Y-71351939D01*
X191704774Y-71551898D01*
X191782795Y-71740256D01*
X191896063Y-71909774D01*
X192040226Y-72053937D01*
X192209744Y-72167205D01*
X192398102Y-72245226D01*
X192598061Y-72285000D01*
X192801939Y-72285000D01*
X193001898Y-72245226D01*
X193190256Y-72167205D01*
X193359774Y-72053937D01*
X193503937Y-71909774D01*
X193617205Y-71740256D01*
X193695226Y-71551898D01*
X193735000Y-71351939D01*
X193735000Y-71148061D01*
X193695226Y-70948102D01*
X193617205Y-70759744D01*
X193503937Y-70590226D01*
X193359774Y-70446063D01*
X193190256Y-70332795D01*
X193001898Y-70254774D01*
X192801939Y-70215000D01*
X192598061Y-70215000D01*
X192398102Y-70254774D01*
X192209744Y-70332795D01*
X192040226Y-70446063D01*
X191896063Y-70590226D01*
X191782795Y-70759744D01*
X191704774Y-70948102D01*
X191665000Y-71148061D01*
X181678581Y-71148061D01*
X181717205Y-71090256D01*
X181795226Y-70901898D01*
X181835000Y-70701939D01*
X181835000Y-70498061D01*
X181795226Y-70298102D01*
X181752090Y-70193964D01*
X181796063Y-70259774D01*
X181940226Y-70403937D01*
X182109744Y-70517205D01*
X182298102Y-70595226D01*
X182498061Y-70635000D01*
X182701939Y-70635000D01*
X182901898Y-70595226D01*
X182912223Y-70590949D01*
X182919463Y-70604494D01*
X182998815Y-70701185D01*
X183095506Y-70780537D01*
X183205820Y-70839502D01*
X183325518Y-70875812D01*
X183450000Y-70888072D01*
X183914250Y-70885000D01*
X184073000Y-70726250D01*
X184073000Y-69627000D01*
X184327000Y-69627000D01*
X184327000Y-70726250D01*
X184485750Y-70885000D01*
X184950000Y-70888072D01*
X185074482Y-70875812D01*
X185194180Y-70839502D01*
X185304494Y-70780537D01*
X185401185Y-70701185D01*
X185480537Y-70604494D01*
X185539502Y-70494180D01*
X185575812Y-70374482D01*
X185588072Y-70250000D01*
X185585000Y-69785750D01*
X185426250Y-69627000D01*
X184327000Y-69627000D01*
X184073000Y-69627000D01*
X184053000Y-69627000D01*
X184053000Y-69373000D01*
X184073000Y-69373000D01*
X184073000Y-69353000D01*
X184327000Y-69353000D01*
X184327000Y-69373000D01*
X185426250Y-69373000D01*
X185585000Y-69214250D01*
X185588072Y-68750000D01*
X185575812Y-68625518D01*
X185539502Y-68505820D01*
X185480537Y-68395506D01*
X185401185Y-68298815D01*
X185304494Y-68219463D01*
X185194180Y-68160498D01*
X185074482Y-68124188D01*
X184966517Y-68113555D01*
X185082886Y-68035799D01*
X185275799Y-67842886D01*
X185427371Y-67616043D01*
X185531775Y-67363989D01*
X185585000Y-67096411D01*
X185585000Y-66823589D01*
X185531775Y-66556011D01*
X185427371Y-66303957D01*
X185275799Y-66077114D01*
X185082886Y-65884201D01*
X184856043Y-65732629D01*
X184753127Y-65690000D01*
X184856043Y-65647371D01*
X185082886Y-65495799D01*
X185275799Y-65302886D01*
X185427371Y-65076043D01*
X185531775Y-64823989D01*
X185585000Y-64556411D01*
X185585000Y-64283589D01*
X185555444Y-64135000D01*
X185601939Y-64135000D01*
X185801898Y-64095226D01*
X185990256Y-64017205D01*
X186159774Y-63903937D01*
X186303937Y-63759774D01*
X186417205Y-63590256D01*
X186495226Y-63401898D01*
X186535000Y-63201939D01*
X186535000Y-62998061D01*
X186495226Y-62798102D01*
X186417205Y-62609744D01*
X186303937Y-62440226D01*
X186159774Y-62296063D01*
X185990256Y-62182795D01*
X185801898Y-62104774D01*
X185601939Y-62065000D01*
X185575335Y-62065000D01*
X185585000Y-62016411D01*
X185585000Y-61743589D01*
X185531775Y-61476011D01*
X185427371Y-61223957D01*
X185275799Y-60997114D01*
X185082886Y-60804201D01*
X184856043Y-60652629D01*
X184603989Y-60548225D01*
X184336411Y-60495000D01*
X184063589Y-60495000D01*
X183796011Y-60548225D01*
X183543957Y-60652629D01*
X183317114Y-60804201D01*
X183124201Y-60997114D01*
X182972629Y-61223957D01*
X182868225Y-61476011D01*
X182815000Y-61743589D01*
X182815000Y-62016411D01*
X182868225Y-62283989D01*
X182972629Y-62536043D01*
X183124201Y-62762886D01*
X183317114Y-62955799D01*
X183543957Y-63107371D01*
X183646873Y-63150000D01*
X183543957Y-63192629D01*
X183317114Y-63344201D01*
X183124201Y-63537114D01*
X182972629Y-63763957D01*
X182914141Y-63905159D01*
X182803937Y-63740226D01*
X182659774Y-63596063D01*
X182490256Y-63482795D01*
X182301898Y-63404774D01*
X182101939Y-63365000D01*
X181898061Y-63365000D01*
X181698102Y-63404774D01*
X181509744Y-63482795D01*
X181340226Y-63596063D01*
X181196063Y-63740226D01*
X181082795Y-63909744D01*
X181004774Y-64098102D01*
X180965000Y-64298061D01*
X180965000Y-64501939D01*
X181004774Y-64701898D01*
X181082795Y-64890256D01*
X181196063Y-65059774D01*
X181340226Y-65203937D01*
X181509744Y-65317205D01*
X181698102Y-65395226D01*
X181898061Y-65435000D01*
X182101939Y-65435000D01*
X182301898Y-65395226D01*
X182490256Y-65317205D01*
X182659774Y-65203937D01*
X182803937Y-65059774D01*
X182903913Y-64910148D01*
X182972629Y-65076043D01*
X183124201Y-65302886D01*
X183317114Y-65495799D01*
X183543957Y-65647371D01*
X183646873Y-65690000D01*
X183543957Y-65732629D01*
X183317114Y-65884201D01*
X183124201Y-66077114D01*
X182972629Y-66303957D01*
X182868225Y-66556011D01*
X182815000Y-66823589D01*
X182815000Y-67096411D01*
X182868225Y-67363989D01*
X182972629Y-67616043D01*
X183124201Y-67842886D01*
X183317114Y-68035799D01*
X183433483Y-68113555D01*
X183325518Y-68124188D01*
X183205820Y-68160498D01*
X183095506Y-68219463D01*
X182998815Y-68298815D01*
X182919463Y-68395506D01*
X182860498Y-68505820D01*
X182834545Y-68591377D01*
X182701939Y-68565000D01*
X182498061Y-68565000D01*
X182298102Y-68604774D01*
X182109744Y-68682795D01*
X181940226Y-68796063D01*
X181796063Y-68940226D01*
X181682795Y-69109744D01*
X181604774Y-69298102D01*
X181565000Y-69498061D01*
X181565000Y-69701939D01*
X181604774Y-69901898D01*
X181647910Y-70006036D01*
X181603937Y-69940226D01*
X181459774Y-69796063D01*
X181290256Y-69682795D01*
X181101898Y-69604774D01*
X180901939Y-69565000D01*
X180698061Y-69565000D01*
X180498102Y-69604774D01*
X180309744Y-69682795D01*
X180140226Y-69796063D01*
X179996063Y-69940226D01*
X179882795Y-70109744D01*
X179804774Y-70298102D01*
X179765000Y-70498061D01*
X173911989Y-70498061D01*
X173917205Y-70490256D01*
X173995226Y-70301898D01*
X174035000Y-70101939D01*
X174035000Y-69898061D01*
X173995226Y-69698102D01*
X173917205Y-69509744D01*
X173803937Y-69340226D01*
X173659774Y-69196063D01*
X173490256Y-69082795D01*
X173301898Y-69004774D01*
X173101939Y-68965000D01*
X172987308Y-68965000D01*
X172903937Y-68840226D01*
X172759774Y-68696063D01*
X172590256Y-68582795D01*
X172401898Y-68504774D01*
X172201939Y-68465000D01*
X171998061Y-68465000D01*
X171798102Y-68504774D01*
X171609744Y-68582795D01*
X171440226Y-68696063D01*
X171296063Y-68840226D01*
X171182795Y-69009744D01*
X171104774Y-69198102D01*
X171065000Y-69398061D01*
X171065000Y-69459907D01*
X171009744Y-69482795D01*
X170840226Y-69596063D01*
X170696063Y-69740226D01*
X170582795Y-69909744D01*
X170504774Y-70098102D01*
X170465000Y-70298061D01*
X162911989Y-70298061D01*
X162917205Y-70290256D01*
X162995226Y-70101898D01*
X163035000Y-69901939D01*
X163035000Y-69698061D01*
X162995226Y-69498102D01*
X162917205Y-69309744D01*
X162910694Y-69300000D01*
X162917205Y-69290256D01*
X162995226Y-69101898D01*
X163035000Y-68901939D01*
X163035000Y-68698061D01*
X162995226Y-68498102D01*
X162917205Y-68309744D01*
X162910694Y-68300000D01*
X162917205Y-68290256D01*
X162995226Y-68101898D01*
X163035000Y-67901939D01*
X163035000Y-67698061D01*
X162995226Y-67498102D01*
X162954591Y-67400000D01*
X162995226Y-67301898D01*
X163035000Y-67101939D01*
X163035000Y-66898061D01*
X162995226Y-66698102D01*
X162917205Y-66509744D01*
X162803937Y-66340226D01*
X162659774Y-66196063D01*
X162490256Y-66082795D01*
X162301898Y-66004774D01*
X162101939Y-65965000D01*
X161898061Y-65965000D01*
X161698102Y-66004774D01*
X161509744Y-66082795D01*
X161340226Y-66196063D01*
X161196063Y-66340226D01*
X161082795Y-66509744D01*
X161004774Y-66698102D01*
X160965000Y-66898061D01*
X160965000Y-67101939D01*
X161004774Y-67301898D01*
X161045409Y-67400000D01*
X161004774Y-67498102D01*
X160965000Y-67698061D01*
X160965000Y-67901939D01*
X161004774Y-68101898D01*
X161082795Y-68290256D01*
X161089306Y-68300000D01*
X161082795Y-68309744D01*
X161004774Y-68498102D01*
X160965000Y-68698061D01*
X160965000Y-68901939D01*
X161004774Y-69101898D01*
X161036023Y-69177340D01*
X160898102Y-69204774D01*
X160709744Y-69282795D01*
X160540226Y-69396063D01*
X160396063Y-69540226D01*
X160282795Y-69709744D01*
X160204774Y-69898102D01*
X160165000Y-70098061D01*
X155311989Y-70098061D01*
X155317205Y-70090256D01*
X155395226Y-69901898D01*
X155435000Y-69701939D01*
X155435000Y-69498061D01*
X155395226Y-69298102D01*
X155354591Y-69200000D01*
X155395226Y-69101898D01*
X155435000Y-68901939D01*
X155435000Y-68698061D01*
X155395226Y-68498102D01*
X155354591Y-68400000D01*
X155395226Y-68301898D01*
X155415880Y-68198061D01*
X155865000Y-68198061D01*
X155865000Y-68401939D01*
X155904774Y-68601898D01*
X155982795Y-68790256D01*
X156096063Y-68959774D01*
X156240226Y-69103937D01*
X156409744Y-69217205D01*
X156598102Y-69295226D01*
X156798061Y-69335000D01*
X157001939Y-69335000D01*
X157201898Y-69295226D01*
X157390256Y-69217205D01*
X157559774Y-69103937D01*
X157703937Y-68959774D01*
X157817205Y-68790256D01*
X157895226Y-68601898D01*
X157935000Y-68401939D01*
X157935000Y-68198061D01*
X157895226Y-67998102D01*
X157817205Y-67809744D01*
X157703937Y-67640226D01*
X157559774Y-67496063D01*
X157390256Y-67382795D01*
X157201898Y-67304774D01*
X157001939Y-67265000D01*
X156798061Y-67265000D01*
X156598102Y-67304774D01*
X156409744Y-67382795D01*
X156240226Y-67496063D01*
X156096063Y-67640226D01*
X155982795Y-67809744D01*
X155904774Y-67998102D01*
X155865000Y-68198061D01*
X155415880Y-68198061D01*
X155435000Y-68101939D01*
X155435000Y-67898061D01*
X155395226Y-67698102D01*
X155317205Y-67509744D01*
X155203937Y-67340226D01*
X155059774Y-67196063D01*
X154890256Y-67082795D01*
X154701898Y-67004774D01*
X154501939Y-66965000D01*
X154298061Y-66965000D01*
X154098102Y-67004774D01*
X153909744Y-67082795D01*
X153740226Y-67196063D01*
X153596063Y-67340226D01*
X153482795Y-67509744D01*
X153404774Y-67698102D01*
X153365000Y-67898061D01*
X152835000Y-67898061D01*
X152795226Y-67698102D01*
X152717205Y-67509744D01*
X152603937Y-67340226D01*
X152459774Y-67196063D01*
X152290256Y-67082795D01*
X152101898Y-67004774D01*
X151901939Y-66965000D01*
X151698061Y-66965000D01*
X151498102Y-67004774D01*
X151309744Y-67082795D01*
X151140226Y-67196063D01*
X150996063Y-67340226D01*
X150882795Y-67509744D01*
X150804774Y-67698102D01*
X150765000Y-67898061D01*
X150113104Y-67898061D01*
X150090256Y-67882795D01*
X149901898Y-67804774D01*
X149701939Y-67765000D01*
X149498061Y-67765000D01*
X149298102Y-67804774D01*
X149109744Y-67882795D01*
X148940226Y-67996063D01*
X148796063Y-68140226D01*
X148682795Y-68309744D01*
X148604774Y-68498102D01*
X148565000Y-68698061D01*
X147325174Y-68698061D01*
X147328998Y-64441599D01*
X147401467Y-64616554D01*
X147821161Y-65244670D01*
X148355330Y-65778839D01*
X148983446Y-66198533D01*
X149681372Y-66487623D01*
X150422285Y-66635000D01*
X151177715Y-66635000D01*
X151918628Y-66487623D01*
X152616554Y-66198533D01*
X153244670Y-65778839D01*
X153778839Y-65244670D01*
X154198533Y-64616554D01*
X154371878Y-64198061D01*
X164365000Y-64198061D01*
X164365000Y-64401939D01*
X164404774Y-64601898D01*
X164482795Y-64790256D01*
X164596063Y-64959774D01*
X164740226Y-65103937D01*
X164909744Y-65217205D01*
X165098102Y-65295226D01*
X165298061Y-65335000D01*
X165501939Y-65335000D01*
X165701898Y-65295226D01*
X165890256Y-65217205D01*
X166059774Y-65103937D01*
X166065650Y-65098061D01*
X166465000Y-65098061D01*
X166465000Y-65301939D01*
X166504774Y-65501898D01*
X166582795Y-65690256D01*
X166696063Y-65859774D01*
X166840226Y-66003937D01*
X167009744Y-66117205D01*
X167198102Y-66195226D01*
X167398061Y-66235000D01*
X167601939Y-66235000D01*
X167801898Y-66195226D01*
X167990256Y-66117205D01*
X168159774Y-66003937D01*
X168303937Y-65859774D01*
X168417205Y-65690256D01*
X168495226Y-65501898D01*
X168535000Y-65301939D01*
X168535000Y-65098061D01*
X168495226Y-64898102D01*
X168417205Y-64709744D01*
X168303937Y-64540226D01*
X168159774Y-64396063D01*
X167990256Y-64282795D01*
X167801898Y-64204774D01*
X167601939Y-64165000D01*
X167398061Y-64165000D01*
X167198102Y-64204774D01*
X167009744Y-64282795D01*
X166840226Y-64396063D01*
X166696063Y-64540226D01*
X166582795Y-64709744D01*
X166504774Y-64898102D01*
X166465000Y-65098061D01*
X166065650Y-65098061D01*
X166203937Y-64959774D01*
X166317205Y-64790256D01*
X166395226Y-64601898D01*
X166435000Y-64401939D01*
X166435000Y-64198061D01*
X166395226Y-63998102D01*
X166317205Y-63809744D01*
X166203937Y-63640226D01*
X166101783Y-63538072D01*
X166820001Y-63538072D01*
X166993255Y-63521008D01*
X167159851Y-63470472D01*
X167313387Y-63388405D01*
X167447962Y-63277962D01*
X167558405Y-63143387D01*
X167616934Y-63033886D01*
X167670655Y-63099345D01*
X167899822Y-63287417D01*
X168161276Y-63427166D01*
X168444969Y-63513224D01*
X168447144Y-63513438D01*
X168382795Y-63609744D01*
X168304774Y-63798102D01*
X168265000Y-63998061D01*
X168265000Y-64201939D01*
X168304774Y-64401898D01*
X168382795Y-64590256D01*
X168496063Y-64759774D01*
X168640226Y-64903937D01*
X168809744Y-65017205D01*
X168998102Y-65095226D01*
X169198061Y-65135000D01*
X169401939Y-65135000D01*
X169542492Y-65107042D01*
X169504774Y-65198102D01*
X169465000Y-65398061D01*
X169465000Y-65601939D01*
X169504774Y-65801898D01*
X169582795Y-65990256D01*
X169696063Y-66159774D01*
X169840226Y-66303937D01*
X170009744Y-66417205D01*
X170198102Y-66495226D01*
X170398061Y-66535000D01*
X170601939Y-66535000D01*
X170801898Y-66495226D01*
X170990256Y-66417205D01*
X171159774Y-66303937D01*
X171303937Y-66159774D01*
X171417205Y-65990256D01*
X171495226Y-65801898D01*
X171535000Y-65601939D01*
X171535000Y-65398061D01*
X171495226Y-65198102D01*
X171417205Y-65009744D01*
X171303937Y-64840226D01*
X171159774Y-64696063D01*
X170990256Y-64582795D01*
X170801898Y-64504774D01*
X170601939Y-64465000D01*
X170398061Y-64465000D01*
X170257508Y-64492958D01*
X170295226Y-64401898D01*
X170335000Y-64201939D01*
X170335000Y-63998061D01*
X170295226Y-63798102D01*
X170217205Y-63609744D01*
X170103937Y-63440226D01*
X169959774Y-63296063D01*
X169790256Y-63182795D01*
X169735366Y-63160058D01*
X169809345Y-63099345D01*
X169997417Y-62870179D01*
X170137166Y-62608724D01*
X170223224Y-62325031D01*
X170225880Y-62298061D01*
X170665000Y-62298061D01*
X170665000Y-62501939D01*
X170704774Y-62701898D01*
X170782795Y-62890256D01*
X170896063Y-63059774D01*
X171040226Y-63203937D01*
X171209744Y-63317205D01*
X171398102Y-63395226D01*
X171598061Y-63435000D01*
X171801939Y-63435000D01*
X172001898Y-63395226D01*
X172190256Y-63317205D01*
X172359774Y-63203937D01*
X172503937Y-63059774D01*
X172617205Y-62890256D01*
X172695226Y-62701898D01*
X172735000Y-62501939D01*
X172735000Y-62298061D01*
X172695226Y-62098102D01*
X172617205Y-61909744D01*
X172503937Y-61740226D01*
X172359774Y-61596063D01*
X172190256Y-61482795D01*
X172001898Y-61404774D01*
X171801939Y-61365000D01*
X171598061Y-61365000D01*
X171398102Y-61404774D01*
X171209744Y-61482795D01*
X171040226Y-61596063D01*
X170896063Y-61740226D01*
X170782795Y-61909744D01*
X170704774Y-62098102D01*
X170665000Y-62298061D01*
X170225880Y-62298061D01*
X170245000Y-62103935D01*
X170245000Y-61496064D01*
X170223224Y-61274968D01*
X170137166Y-60991275D01*
X169997417Y-60729821D01*
X169809345Y-60500655D01*
X169580178Y-60312583D01*
X169365921Y-60198061D01*
X171165000Y-60198061D01*
X171165000Y-60401939D01*
X171204774Y-60601898D01*
X171282795Y-60790256D01*
X171396063Y-60959774D01*
X171540226Y-61103937D01*
X171709744Y-61217205D01*
X171898102Y-61295226D01*
X172098061Y-61335000D01*
X172301939Y-61335000D01*
X172501898Y-61295226D01*
X172690256Y-61217205D01*
X172859774Y-61103937D01*
X173003937Y-60959774D01*
X173043877Y-60899999D01*
X174241928Y-60899999D01*
X174241928Y-62600001D01*
X174258992Y-62773255D01*
X174309528Y-62939851D01*
X174391595Y-63093387D01*
X174502038Y-63227962D01*
X174636613Y-63338405D01*
X174790149Y-63420472D01*
X174956745Y-63471008D01*
X175129999Y-63488072D01*
X176370001Y-63488072D01*
X176543255Y-63471008D01*
X176709851Y-63420472D01*
X176863387Y-63338405D01*
X176997962Y-63227962D01*
X177108405Y-63093387D01*
X177166934Y-62983886D01*
X177220655Y-63049345D01*
X177449822Y-63237417D01*
X177711276Y-63377166D01*
X177994969Y-63463224D01*
X178290000Y-63492282D01*
X178585032Y-63463224D01*
X178868725Y-63377166D01*
X179130179Y-63237417D01*
X179359345Y-63049345D01*
X179547417Y-62820179D01*
X179687166Y-62558724D01*
X179773224Y-62275031D01*
X179795000Y-62053935D01*
X179795000Y-61446064D01*
X179773224Y-61224968D01*
X179687166Y-60941275D01*
X179610618Y-60798061D01*
X180465000Y-60798061D01*
X180465000Y-61001939D01*
X180504774Y-61201898D01*
X180582795Y-61390256D01*
X180696063Y-61559774D01*
X180840226Y-61703937D01*
X181009744Y-61817205D01*
X181198102Y-61895226D01*
X181398061Y-61935000D01*
X181601939Y-61935000D01*
X181801898Y-61895226D01*
X181990256Y-61817205D01*
X182159774Y-61703937D01*
X182303937Y-61559774D01*
X182417205Y-61390256D01*
X182495226Y-61201898D01*
X182535000Y-61001939D01*
X182535000Y-60798061D01*
X182495226Y-60598102D01*
X182417205Y-60409744D01*
X182303937Y-60240226D01*
X182159774Y-60096063D01*
X181990256Y-59982795D01*
X181801898Y-59904774D01*
X181601939Y-59865000D01*
X181398061Y-59865000D01*
X181198102Y-59904774D01*
X181009744Y-59982795D01*
X180840226Y-60096063D01*
X180696063Y-60240226D01*
X180582795Y-60409744D01*
X180504774Y-60598102D01*
X180465000Y-60798061D01*
X179610618Y-60798061D01*
X179547417Y-60679821D01*
X179359345Y-60450655D01*
X179130178Y-60262583D01*
X178868724Y-60122834D01*
X178585031Y-60036776D01*
X178290000Y-60007718D01*
X177994968Y-60036776D01*
X177711275Y-60122834D01*
X177449821Y-60262583D01*
X177220655Y-60450655D01*
X177166935Y-60516114D01*
X177108405Y-60406613D01*
X176997962Y-60272038D01*
X176863387Y-60161595D01*
X176709851Y-60079528D01*
X176543255Y-60028992D01*
X176370001Y-60011928D01*
X175129999Y-60011928D01*
X174956745Y-60028992D01*
X174790149Y-60079528D01*
X174636613Y-60161595D01*
X174502038Y-60272038D01*
X174391595Y-60406613D01*
X174309528Y-60560149D01*
X174258992Y-60726745D01*
X174241928Y-60899999D01*
X173043877Y-60899999D01*
X173117205Y-60790256D01*
X173195226Y-60601898D01*
X173235000Y-60401939D01*
X173235000Y-60198061D01*
X173195226Y-59998102D01*
X173117205Y-59809744D01*
X173003937Y-59640226D01*
X172859774Y-59496063D01*
X172690256Y-59382795D01*
X172501898Y-59304774D01*
X172301939Y-59265000D01*
X172098061Y-59265000D01*
X171898102Y-59304774D01*
X171709744Y-59382795D01*
X171540226Y-59496063D01*
X171396063Y-59640226D01*
X171282795Y-59809744D01*
X171204774Y-59998102D01*
X171165000Y-60198061D01*
X169365921Y-60198061D01*
X169318724Y-60172834D01*
X169035031Y-60086776D01*
X168740000Y-60057718D01*
X168444968Y-60086776D01*
X168161275Y-60172834D01*
X167899821Y-60312583D01*
X167670655Y-60500655D01*
X167616935Y-60566114D01*
X167558405Y-60456613D01*
X167447962Y-60322038D01*
X167313387Y-60211595D01*
X167159851Y-60129528D01*
X166993255Y-60078992D01*
X166820001Y-60061928D01*
X165579999Y-60061928D01*
X165406745Y-60078992D01*
X165240149Y-60129528D01*
X165086613Y-60211595D01*
X164952038Y-60322038D01*
X164841595Y-60456613D01*
X164759528Y-60610149D01*
X164708992Y-60776745D01*
X164691928Y-60949999D01*
X164691928Y-62650001D01*
X164708992Y-62823255D01*
X164759528Y-62989851D01*
X164841595Y-63143387D01*
X164952038Y-63277962D01*
X165022744Y-63335989D01*
X164909744Y-63382795D01*
X164740226Y-63496063D01*
X164596063Y-63640226D01*
X164482795Y-63809744D01*
X164404774Y-63998102D01*
X164365000Y-64198061D01*
X154371878Y-64198061D01*
X154487623Y-63918628D01*
X154635000Y-63177715D01*
X154635000Y-62422285D01*
X154487623Y-61681372D01*
X154198533Y-60983446D01*
X153778839Y-60355330D01*
X153244670Y-59821161D01*
X153210099Y-59798061D01*
X154765000Y-59798061D01*
X154765000Y-60001939D01*
X154804774Y-60201898D01*
X154882795Y-60390256D01*
X154996063Y-60559774D01*
X155140226Y-60703937D01*
X155309744Y-60817205D01*
X155498102Y-60895226D01*
X155698061Y-60935000D01*
X155901939Y-60935000D01*
X156101898Y-60895226D01*
X156290256Y-60817205D01*
X156459774Y-60703937D01*
X156603937Y-60559774D01*
X156717205Y-60390256D01*
X156795226Y-60201898D01*
X156835000Y-60001939D01*
X156835000Y-59798061D01*
X156795226Y-59598102D01*
X156717205Y-59409744D01*
X156603937Y-59240226D01*
X156459774Y-59096063D01*
X156290256Y-58982795D01*
X156101898Y-58904774D01*
X155901939Y-58865000D01*
X155698061Y-58865000D01*
X155498102Y-58904774D01*
X155309744Y-58982795D01*
X155140226Y-59096063D01*
X154996063Y-59240226D01*
X154882795Y-59409744D01*
X154804774Y-59598102D01*
X154765000Y-59798061D01*
X153210099Y-59798061D01*
X152616554Y-59401467D01*
X151918628Y-59112377D01*
X151177715Y-58965000D01*
X150422285Y-58965000D01*
X149806351Y-59087517D01*
X150107896Y-58967110D01*
X150818736Y-58825498D01*
X151052827Y-58808032D01*
X151180971Y-58786549D01*
X151184244Y-58785356D01*
X158836150Y-58800139D01*
G37*
X158836150Y-58800139D02*
X158796063Y-58840226D01*
X158682795Y-59009744D01*
X158604774Y-59198102D01*
X158565000Y-59398061D01*
X158565000Y-59601939D01*
X158604774Y-59801898D01*
X158682795Y-59990256D01*
X158796063Y-60159774D01*
X158940226Y-60303937D01*
X159109744Y-60417205D01*
X159298102Y-60495226D01*
X159498061Y-60535000D01*
X159701939Y-60535000D01*
X159901898Y-60495226D01*
X160090256Y-60417205D01*
X160259774Y-60303937D01*
X160403937Y-60159774D01*
X160517205Y-59990256D01*
X160595226Y-59801898D01*
X160635000Y-59601939D01*
X160635000Y-59398061D01*
X160595226Y-59198102D01*
X160517205Y-59009744D01*
X160403937Y-58840226D01*
X160366807Y-58803096D01*
X163288527Y-58808740D01*
X163109744Y-58882795D01*
X162940226Y-58996063D01*
X162796063Y-59140226D01*
X162682795Y-59309744D01*
X162604774Y-59498102D01*
X162565000Y-59698061D01*
X162565000Y-59901939D01*
X162604774Y-60101898D01*
X162682795Y-60290256D01*
X162796063Y-60459774D01*
X162940226Y-60603937D01*
X163109744Y-60717205D01*
X163298102Y-60795226D01*
X163498061Y-60835000D01*
X163701939Y-60835000D01*
X163901898Y-60795226D01*
X164090256Y-60717205D01*
X164259774Y-60603937D01*
X164403937Y-60459774D01*
X164517205Y-60290256D01*
X164595226Y-60101898D01*
X164635000Y-59901939D01*
X164635000Y-59698061D01*
X164595226Y-59498102D01*
X164517205Y-59309744D01*
X164403937Y-59140226D01*
X164259774Y-58996063D01*
X164090256Y-58882795D01*
X163914392Y-58809949D01*
X190335282Y-58860991D01*
X190431628Y-58881440D01*
X190450114Y-58883378D01*
X191215142Y-58953448D01*
X191891794Y-59144068D01*
X192522377Y-59454806D01*
X192954308Y-59777147D01*
X192616554Y-59551467D01*
X191918628Y-59262377D01*
X191177715Y-59115000D01*
X190422285Y-59115000D01*
X189681372Y-59262377D01*
X188983446Y-59551467D01*
X188355330Y-59971161D01*
X187821161Y-60505330D01*
X187617507Y-60810119D01*
X187595226Y-60698102D01*
X187517205Y-60509744D01*
X187403937Y-60340226D01*
X187259774Y-60196063D01*
X187090256Y-60082795D01*
X186901898Y-60004774D01*
X186701939Y-59965000D01*
X186498061Y-59965000D01*
X186298102Y-60004774D01*
X186109744Y-60082795D01*
X185940226Y-60196063D01*
X185796063Y-60340226D01*
X185682795Y-60509744D01*
X185604774Y-60698102D01*
X185565000Y-60898061D01*
X185565000Y-61101939D01*
X185604774Y-61301898D01*
X185682795Y-61490256D01*
X185796063Y-61659774D01*
X185940226Y-61803937D01*
X186109744Y-61917205D01*
X186298102Y-61995226D01*
X186498061Y-62035000D01*
X186701939Y-62035000D01*
X186901898Y-61995226D01*
X187090256Y-61917205D01*
X187096077Y-61913315D01*
X186965000Y-62572285D01*
X186965000Y-63327715D01*
X187112377Y-64068628D01*
X187401467Y-64766554D01*
X187812683Y-65381983D01*
X187698102Y-65404774D01*
X187509744Y-65482795D01*
X187340226Y-65596063D01*
X187196063Y-65740226D01*
X187082795Y-65909744D01*
X187004774Y-66098102D01*
X186965000Y-66298061D01*
X186965000Y-66501939D01*
X187004774Y-66701898D01*
X187082795Y-66890256D01*
X187156123Y-67000000D01*
X187082795Y-67109744D01*
X187004774Y-67298102D01*
X186965000Y-67498061D01*
X186965000Y-67701939D01*
X187004774Y-67901898D01*
X187082795Y-68090256D01*
X187196063Y-68259774D01*
X187340226Y-68403937D01*
X187509744Y-68517205D01*
X187698102Y-68595226D01*
X187898061Y-68635000D01*
X188101939Y-68635000D01*
X188301898Y-68595226D01*
X188490256Y-68517205D01*
X188659774Y-68403937D01*
X188803937Y-68259774D01*
X188911989Y-68098061D01*
X189165000Y-68098061D01*
X189165000Y-68301939D01*
X189204774Y-68501898D01*
X189282795Y-68690256D01*
X189396063Y-68859774D01*
X189540226Y-69003937D01*
X189709744Y-69117205D01*
X189898102Y-69195226D01*
X190098061Y-69235000D01*
X190301939Y-69235000D01*
X190501898Y-69195226D01*
X190690256Y-69117205D01*
X190859774Y-69003937D01*
X191003937Y-68859774D01*
X191117205Y-68690256D01*
X191195226Y-68501898D01*
X191235000Y-68301939D01*
X191235000Y-68298061D01*
X191965000Y-68298061D01*
X191965000Y-68501939D01*
X192004774Y-68701898D01*
X192082795Y-68890256D01*
X192196063Y-69059774D01*
X192340226Y-69203937D01*
X192509744Y-69317205D01*
X192698102Y-69395226D01*
X192898061Y-69435000D01*
X193101939Y-69435000D01*
X193301898Y-69395226D01*
X193490256Y-69317205D01*
X193659774Y-69203937D01*
X193803937Y-69059774D01*
X193917205Y-68890256D01*
X193995226Y-68701898D01*
X194035000Y-68501939D01*
X194035000Y-68298061D01*
X193995226Y-68098102D01*
X193917205Y-67909744D01*
X193803937Y-67740226D01*
X193659774Y-67596063D01*
X193490256Y-67482795D01*
X193301898Y-67404774D01*
X193101939Y-67365000D01*
X192898061Y-67365000D01*
X192698102Y-67404774D01*
X192509744Y-67482795D01*
X192340226Y-67596063D01*
X192196063Y-67740226D01*
X192082795Y-67909744D01*
X192004774Y-68098102D01*
X191965000Y-68298061D01*
X191235000Y-68298061D01*
X191235000Y-68098061D01*
X191195226Y-67898102D01*
X191117205Y-67709744D01*
X191003937Y-67540226D01*
X190859774Y-67396063D01*
X190690256Y-67282795D01*
X190501898Y-67204774D01*
X190301939Y-67165000D01*
X190098061Y-67165000D01*
X189898102Y-67204774D01*
X189709744Y-67282795D01*
X189540226Y-67396063D01*
X189396063Y-67540226D01*
X189282795Y-67709744D01*
X189204774Y-67898102D01*
X189165000Y-68098061D01*
X188911989Y-68098061D01*
X188917205Y-68090256D01*
X188995226Y-67901898D01*
X189035000Y-67701939D01*
X189035000Y-67498061D01*
X188995226Y-67298102D01*
X188917205Y-67109744D01*
X188843877Y-67000000D01*
X188917205Y-66890256D01*
X188995226Y-66701898D01*
X189035000Y-66501939D01*
X189035000Y-66369887D01*
X189681372Y-66637623D01*
X190422285Y-66785000D01*
X191177715Y-66785000D01*
X191918628Y-66637623D01*
X192616554Y-66348533D01*
X193244670Y-65928839D01*
X193778839Y-65394670D01*
X194198533Y-64766554D01*
X194377964Y-64333369D01*
X194357297Y-75806533D01*
X194317205Y-75709744D01*
X194203937Y-75540226D01*
X194059774Y-75396063D01*
X193890256Y-75282795D01*
X193701898Y-75204774D01*
X193501939Y-75165000D01*
X193298061Y-75165000D01*
X193098102Y-75204774D01*
X192909744Y-75282795D01*
X192740226Y-75396063D01*
X192596063Y-75540226D01*
X192482795Y-75709744D01*
X192404774Y-75898102D01*
X192365000Y-76098061D01*
X192365000Y-76301939D01*
X192404774Y-76501898D01*
X192482795Y-76690256D01*
X192596063Y-76859774D01*
X192740226Y-77003937D01*
X192909744Y-77117205D01*
X193098102Y-77195226D01*
X193298061Y-77235000D01*
X193501939Y-77235000D01*
X193701898Y-77195226D01*
X193890256Y-77117205D01*
X194059774Y-77003937D01*
X194203937Y-76859774D01*
X194317205Y-76690256D01*
X194355873Y-76596904D01*
X194349405Y-80187481D01*
X194317205Y-80109744D01*
X194203937Y-79940226D01*
X194059774Y-79796063D01*
X193890256Y-79682795D01*
X193701898Y-79604774D01*
X193501939Y-79565000D01*
X193298061Y-79565000D01*
X193098102Y-79604774D01*
X192909744Y-79682795D01*
X192900000Y-79689306D01*
X192890256Y-79682795D01*
X192701898Y-79604774D01*
X192501939Y-79565000D01*
X192298061Y-79565000D01*
X192098102Y-79604774D01*
X191909744Y-79682795D01*
X191740226Y-79796063D01*
X191596063Y-79940226D01*
X191482795Y-80109744D01*
X191404774Y-80298102D01*
X191365000Y-80498061D01*
X191365000Y-80701939D01*
X191404774Y-80901898D01*
X191482795Y-81090256D01*
X191596063Y-81259774D01*
X191740226Y-81403937D01*
X191909744Y-81517205D01*
X192098102Y-81595226D01*
X192298061Y-81635000D01*
X192501939Y-81635000D01*
X192701898Y-81595226D01*
X192890256Y-81517205D01*
X192900000Y-81510694D01*
X192909744Y-81517205D01*
X193098102Y-81595226D01*
X193298061Y-81635000D01*
X193501939Y-81635000D01*
X193701898Y-81595226D01*
X193890256Y-81517205D01*
X194059774Y-81403937D01*
X194203937Y-81259774D01*
X194317205Y-81090256D01*
X194347912Y-81016122D01*
X194326133Y-93106767D01*
X194290256Y-93082795D01*
X194101898Y-93004774D01*
X193901939Y-92965000D01*
X193698061Y-92965000D01*
X193498102Y-93004774D01*
X193309744Y-93082795D01*
X193300000Y-93089306D01*
X193290256Y-93082795D01*
X193101898Y-93004774D01*
X192901939Y-92965000D01*
X192698061Y-92965000D01*
X192498102Y-93004774D01*
X192309744Y-93082795D01*
X192140226Y-93196063D01*
X191996063Y-93340226D01*
X191882795Y-93509744D01*
X191804774Y-93698102D01*
X191765000Y-93898061D01*
X191765000Y-94101939D01*
X191804774Y-94301898D01*
X191882795Y-94490256D01*
X191996063Y-94659774D01*
X192140226Y-94803937D01*
X192309744Y-94917205D01*
X192498102Y-94995226D01*
X192698061Y-95035000D01*
X192901939Y-95035000D01*
X193101898Y-94995226D01*
X193290256Y-94917205D01*
X193300000Y-94910694D01*
X193309744Y-94917205D01*
X193498102Y-94995226D01*
X193698061Y-95035000D01*
X193901939Y-95035000D01*
X194101898Y-94995226D01*
X194290256Y-94917205D01*
X194322911Y-94895386D01*
X194319716Y-96669182D01*
X194299290Y-96765416D01*
X194297352Y-96783903D01*
X194227282Y-97548930D01*
X194036661Y-98225584D01*
X193725925Y-98856164D01*
X193305473Y-99419561D01*
X192789395Y-99896900D01*
X192194968Y-100272201D01*
X191542101Y-100532890D01*
X190831264Y-100674502D01*
X190597173Y-100691968D01*
X190469029Y-100713451D01*
X190464777Y-100715000D01*
X186548711Y-100715000D01*
X186603937Y-100659774D01*
X186717205Y-100490256D01*
X186795226Y-100301898D01*
X186835000Y-100101939D01*
X186835000Y-99898061D01*
X186795226Y-99698102D01*
X186717205Y-99509744D01*
X186603937Y-99340226D01*
X186459774Y-99196063D01*
X186290256Y-99082795D01*
X186101898Y-99004774D01*
X185901939Y-98965000D01*
X185698061Y-98965000D01*
X185498102Y-99004774D01*
X185309744Y-99082795D01*
X185140226Y-99196063D01*
X184996063Y-99340226D01*
X184882795Y-99509744D01*
X184804774Y-99698102D01*
X184765000Y-99898061D01*
X184765000Y-100101939D01*
X184804774Y-100301898D01*
X184882795Y-100490256D01*
X184996063Y-100659774D01*
X185051289Y-100715000D01*
X179233854Y-100715000D01*
X179317205Y-100590256D01*
X179395226Y-100401898D01*
X179435000Y-100201939D01*
X179435000Y-99998061D01*
X179395226Y-99798102D01*
X179317205Y-99609744D01*
X179203937Y-99440226D01*
X179059774Y-99296063D01*
X178890256Y-99182795D01*
X178701898Y-99104774D01*
X178501939Y-99065000D01*
X178298061Y-99065000D01*
X178098102Y-99104774D01*
X177909744Y-99182795D01*
X177740226Y-99296063D01*
X177596063Y-99440226D01*
X177482795Y-99609744D01*
X177404774Y-99798102D01*
X177365000Y-99998061D01*
X177365000Y-100201939D01*
X177404774Y-100401898D01*
X177482795Y-100590256D01*
X177566146Y-100715000D01*
X172793556Y-100715000D01*
X172959774Y-100603937D01*
X173103937Y-100459774D01*
X173217205Y-100290256D01*
X173295226Y-100101898D01*
X173335000Y-99901939D01*
X173335000Y-99698061D01*
X173295226Y-99498102D01*
X173217205Y-99309744D01*
X173103937Y-99140226D01*
X172959774Y-98996063D01*
X172790256Y-98882795D01*
X172601898Y-98804774D01*
X172401939Y-98765000D01*
X172198061Y-98765000D01*
X171998102Y-98804774D01*
X171809744Y-98882795D01*
X171640226Y-98996063D01*
X171496063Y-99140226D01*
X171382795Y-99309744D01*
X171304774Y-99498102D01*
X171265000Y-99698061D01*
X171265000Y-99901939D01*
X171304774Y-100101898D01*
X171382795Y-100290256D01*
X171496063Y-100459774D01*
X171640226Y-100603937D01*
X171806444Y-100715000D01*
X150736110Y-100715000D01*
X150605071Y-100692036D01*
X150595181Y-100691355D01*
X149920243Y-100649600D01*
X149333593Y-100495257D01*
X148788095Y-100229906D01*
X148304526Y-99863654D01*
X147901305Y-99410450D01*
X147593793Y-98887564D01*
X147486332Y-98580016D01*
X147501467Y-98616554D01*
X147921161Y-99244670D01*
X148455330Y-99778839D01*
X149083446Y-100198533D01*
X149781372Y-100487623D01*
X150522285Y-100635000D01*
X151277715Y-100635000D01*
X152018628Y-100487623D01*
X152716554Y-100198533D01*
X153344670Y-99778839D01*
X153878839Y-99244670D01*
X154298533Y-98616554D01*
X154306193Y-98598061D01*
X154365000Y-98598061D01*
X154365000Y-98801939D01*
X154404774Y-99001898D01*
X154482795Y-99190256D01*
X154596063Y-99359774D01*
X154740226Y-99503937D01*
X154909744Y-99617205D01*
X155098102Y-99695226D01*
X155298061Y-99735000D01*
X155501939Y-99735000D01*
X155701898Y-99695226D01*
X155890256Y-99617205D01*
X156059774Y-99503937D01*
X156203937Y-99359774D01*
X156317205Y-99190256D01*
X156395226Y-99001898D01*
X156435000Y-98801939D01*
X156435000Y-98598061D01*
X156395226Y-98398102D01*
X156395210Y-98398061D01*
X157865000Y-98398061D01*
X157865000Y-98601939D01*
X157904774Y-98801898D01*
X157982795Y-98990256D01*
X158096063Y-99159774D01*
X158240226Y-99303937D01*
X158409744Y-99417205D01*
X158598102Y-99495226D01*
X158798061Y-99535000D01*
X159001939Y-99535000D01*
X159201898Y-99495226D01*
X159390256Y-99417205D01*
X159559774Y-99303937D01*
X159703937Y-99159774D01*
X159817205Y-98990256D01*
X159895226Y-98801898D01*
X159915880Y-98698061D01*
X160815000Y-98698061D01*
X160815000Y-98901939D01*
X160854774Y-99101898D01*
X160932795Y-99290256D01*
X161046063Y-99459774D01*
X161190226Y-99603937D01*
X161359744Y-99717205D01*
X161548102Y-99795226D01*
X161748061Y-99835000D01*
X161951939Y-99835000D01*
X162151898Y-99795226D01*
X162340256Y-99717205D01*
X162509774Y-99603937D01*
X162653937Y-99459774D01*
X162767205Y-99290256D01*
X162845226Y-99101898D01*
X162865880Y-98998061D01*
X164065000Y-98998061D01*
X164065000Y-99201939D01*
X164104774Y-99401898D01*
X164182795Y-99590256D01*
X164296063Y-99759774D01*
X164440226Y-99903937D01*
X164609744Y-100017205D01*
X164798102Y-100095226D01*
X164998061Y-100135000D01*
X165201939Y-100135000D01*
X165401898Y-100095226D01*
X165590256Y-100017205D01*
X165759774Y-99903937D01*
X165903937Y-99759774D01*
X166017205Y-99590256D01*
X166095226Y-99401898D01*
X166135000Y-99201939D01*
X166135000Y-98998061D01*
X166265000Y-98998061D01*
X166265000Y-99201939D01*
X166304774Y-99401898D01*
X166382795Y-99590256D01*
X166496063Y-99759774D01*
X166640226Y-99903937D01*
X166809744Y-100017205D01*
X166998102Y-100095226D01*
X167198061Y-100135000D01*
X167401939Y-100135000D01*
X167601898Y-100095226D01*
X167790256Y-100017205D01*
X167959774Y-99903937D01*
X168103937Y-99759774D01*
X168217205Y-99590256D01*
X168295226Y-99401898D01*
X168335000Y-99201939D01*
X168335000Y-98998061D01*
X168295226Y-98798102D01*
X168217205Y-98609744D01*
X168103937Y-98440226D01*
X167959774Y-98296063D01*
X167790256Y-98182795D01*
X167601898Y-98104774D01*
X167401939Y-98065000D01*
X167198061Y-98065000D01*
X166998102Y-98104774D01*
X166809744Y-98182795D01*
X166640226Y-98296063D01*
X166496063Y-98440226D01*
X166382795Y-98609744D01*
X166304774Y-98798102D01*
X166265000Y-98998061D01*
X166135000Y-98998061D01*
X166095226Y-98798102D01*
X166017205Y-98609744D01*
X165903937Y-98440226D01*
X165759774Y-98296063D01*
X165590256Y-98182795D01*
X165401898Y-98104774D01*
X165201939Y-98065000D01*
X164998061Y-98065000D01*
X164798102Y-98104774D01*
X164609744Y-98182795D01*
X164440226Y-98296063D01*
X164296063Y-98440226D01*
X164182795Y-98609744D01*
X164104774Y-98798102D01*
X164065000Y-98998061D01*
X162865880Y-98998061D01*
X162885000Y-98901939D01*
X162885000Y-98698061D01*
X162845226Y-98498102D01*
X162767205Y-98309744D01*
X162653937Y-98140226D01*
X162624360Y-98110649D01*
X162701898Y-98095226D01*
X162890256Y-98017205D01*
X163059774Y-97903937D01*
X163065650Y-97898061D01*
X169465000Y-97898061D01*
X169465000Y-98101939D01*
X169504774Y-98301898D01*
X169582795Y-98490256D01*
X169696063Y-98659774D01*
X169840226Y-98803937D01*
X170009744Y-98917205D01*
X170198102Y-98995226D01*
X170398061Y-99035000D01*
X170601939Y-99035000D01*
X170801898Y-98995226D01*
X170990256Y-98917205D01*
X171159774Y-98803937D01*
X171303937Y-98659774D01*
X171417205Y-98490256D01*
X171495226Y-98301898D01*
X171535000Y-98101939D01*
X171535000Y-98098061D01*
X190165000Y-98098061D01*
X190165000Y-98301939D01*
X190204774Y-98501898D01*
X190282795Y-98690256D01*
X190396063Y-98859774D01*
X190540226Y-99003937D01*
X190709744Y-99117205D01*
X190898102Y-99195226D01*
X191098061Y-99235000D01*
X191301939Y-99235000D01*
X191501898Y-99195226D01*
X191690256Y-99117205D01*
X191859774Y-99003937D01*
X192003937Y-98859774D01*
X192117205Y-98690256D01*
X192195226Y-98501898D01*
X192235000Y-98301939D01*
X192235000Y-98098061D01*
X192195226Y-97898102D01*
X192117205Y-97709744D01*
X192003937Y-97540226D01*
X191859774Y-97396063D01*
X191690256Y-97282795D01*
X191501898Y-97204774D01*
X191301939Y-97165000D01*
X191098061Y-97165000D01*
X190898102Y-97204774D01*
X190709744Y-97282795D01*
X190540226Y-97396063D01*
X190396063Y-97540226D01*
X190282795Y-97709744D01*
X190204774Y-97898102D01*
X190165000Y-98098061D01*
X171535000Y-98098061D01*
X171535000Y-97898061D01*
X171495226Y-97698102D01*
X171417205Y-97509744D01*
X171303937Y-97340226D01*
X171159774Y-97196063D01*
X170990256Y-97082795D01*
X170801898Y-97004774D01*
X170601939Y-96965000D01*
X170398061Y-96965000D01*
X170198102Y-97004774D01*
X170009744Y-97082795D01*
X169840226Y-97196063D01*
X169696063Y-97340226D01*
X169582795Y-97509744D01*
X169504774Y-97698102D01*
X169465000Y-97898061D01*
X163065650Y-97898061D01*
X163203937Y-97759774D01*
X163317205Y-97590256D01*
X163395226Y-97401898D01*
X163435000Y-97201939D01*
X163435000Y-96998061D01*
X163395226Y-96798102D01*
X163353788Y-96698061D01*
X164565000Y-96698061D01*
X164565000Y-96901939D01*
X164604774Y-97101898D01*
X164682795Y-97290256D01*
X164796063Y-97459774D01*
X164940226Y-97603937D01*
X165109744Y-97717205D01*
X165298102Y-97795226D01*
X165498061Y-97835000D01*
X165701939Y-97835000D01*
X165901898Y-97795226D01*
X166090256Y-97717205D01*
X166259774Y-97603937D01*
X166403937Y-97459774D01*
X166517205Y-97290256D01*
X166595226Y-97101898D01*
X166635000Y-96901939D01*
X166635000Y-96698061D01*
X166615109Y-96598061D01*
X167765000Y-96598061D01*
X167765000Y-96801939D01*
X167804774Y-97001898D01*
X167882795Y-97190256D01*
X167996063Y-97359774D01*
X168140226Y-97503937D01*
X168309744Y-97617205D01*
X168498102Y-97695226D01*
X168698061Y-97735000D01*
X168901939Y-97735000D01*
X169101898Y-97695226D01*
X169290256Y-97617205D01*
X169459774Y-97503937D01*
X169603937Y-97359774D01*
X169717205Y-97190256D01*
X169795226Y-97001898D01*
X169835000Y-96801939D01*
X169835000Y-96598061D01*
X169795226Y-96398102D01*
X169717205Y-96209744D01*
X169603937Y-96040226D01*
X169459774Y-95896063D01*
X169290256Y-95782795D01*
X169101898Y-95704774D01*
X168901939Y-95665000D01*
X168698061Y-95665000D01*
X168498102Y-95704774D01*
X168309744Y-95782795D01*
X168140226Y-95896063D01*
X167996063Y-96040226D01*
X167882795Y-96209744D01*
X167804774Y-96398102D01*
X167765000Y-96598061D01*
X166615109Y-96598061D01*
X166595226Y-96498102D01*
X166517205Y-96309744D01*
X166403937Y-96140226D01*
X166259774Y-95996063D01*
X166090256Y-95882795D01*
X165901898Y-95804774D01*
X165701939Y-95765000D01*
X165498061Y-95765000D01*
X165298102Y-95804774D01*
X165109744Y-95882795D01*
X164940226Y-95996063D01*
X164796063Y-96140226D01*
X164682795Y-96309744D01*
X164604774Y-96498102D01*
X164565000Y-96698061D01*
X163353788Y-96698061D01*
X163317205Y-96609744D01*
X163203937Y-96440226D01*
X163059774Y-96296063D01*
X162890256Y-96182795D01*
X162701898Y-96104774D01*
X162501939Y-96065000D01*
X162298061Y-96065000D01*
X162098102Y-96104774D01*
X161909744Y-96182795D01*
X161740226Y-96296063D01*
X161596063Y-96440226D01*
X161482795Y-96609744D01*
X161404774Y-96798102D01*
X161365000Y-96998061D01*
X161365000Y-97201939D01*
X161404774Y-97401898D01*
X161482795Y-97590256D01*
X161596063Y-97759774D01*
X161625640Y-97789351D01*
X161548102Y-97804774D01*
X161359744Y-97882795D01*
X161190226Y-97996063D01*
X161046063Y-98140226D01*
X160932795Y-98309744D01*
X160854774Y-98498102D01*
X160815000Y-98698061D01*
X159915880Y-98698061D01*
X159935000Y-98601939D01*
X159935000Y-98398061D01*
X159895226Y-98198102D01*
X159817205Y-98009744D01*
X159703937Y-97840226D01*
X159559774Y-97696063D01*
X159390256Y-97582795D01*
X159201898Y-97504774D01*
X159001939Y-97465000D01*
X158798061Y-97465000D01*
X158598102Y-97504774D01*
X158409744Y-97582795D01*
X158240226Y-97696063D01*
X158096063Y-97840226D01*
X157982795Y-98009744D01*
X157904774Y-98198102D01*
X157865000Y-98398061D01*
X156395210Y-98398061D01*
X156317205Y-98209744D01*
X156203937Y-98040226D01*
X156059774Y-97896063D01*
X155890256Y-97782795D01*
X155701898Y-97704774D01*
X155501939Y-97665000D01*
X155298061Y-97665000D01*
X155098102Y-97704774D01*
X154909744Y-97782795D01*
X154740226Y-97896063D01*
X154596063Y-98040226D01*
X154482795Y-98209744D01*
X154404774Y-98398102D01*
X154365000Y-98598061D01*
X154306193Y-98598061D01*
X154587623Y-97918628D01*
X154735000Y-97177715D01*
X154735000Y-96422285D01*
X154610834Y-95798061D01*
X157865000Y-95798061D01*
X157865000Y-96001939D01*
X157904774Y-96201898D01*
X157982795Y-96390256D01*
X158096063Y-96559774D01*
X158240226Y-96703937D01*
X158409744Y-96817205D01*
X158598102Y-96895226D01*
X158798061Y-96935000D01*
X159001939Y-96935000D01*
X159201898Y-96895226D01*
X159390256Y-96817205D01*
X159559774Y-96703937D01*
X159703937Y-96559774D01*
X159817205Y-96390256D01*
X159895226Y-96201898D01*
X159935000Y-96001939D01*
X159935000Y-95798061D01*
X159895226Y-95598102D01*
X159817205Y-95409744D01*
X159703937Y-95240226D01*
X159559774Y-95096063D01*
X159390256Y-94982795D01*
X159201898Y-94904774D01*
X159168150Y-94898061D01*
X161965000Y-94898061D01*
X161965000Y-95101939D01*
X162004774Y-95301898D01*
X162082795Y-95490256D01*
X162196063Y-95659774D01*
X162340226Y-95803937D01*
X162509744Y-95917205D01*
X162698102Y-95995226D01*
X162898061Y-96035000D01*
X163101939Y-96035000D01*
X163301898Y-95995226D01*
X163490256Y-95917205D01*
X163659774Y-95803937D01*
X163803937Y-95659774D01*
X163917205Y-95490256D01*
X163995226Y-95301898D01*
X164035000Y-95101939D01*
X164035000Y-94898061D01*
X163995226Y-94698102D01*
X163917205Y-94509744D01*
X163803937Y-94340226D01*
X163659774Y-94196063D01*
X163513104Y-94098061D01*
X165265000Y-94098061D01*
X165265000Y-94301939D01*
X165304774Y-94501898D01*
X165382795Y-94690256D01*
X165496063Y-94859774D01*
X165640226Y-95003937D01*
X165809744Y-95117205D01*
X165998102Y-95195226D01*
X166198061Y-95235000D01*
X166401939Y-95235000D01*
X166601898Y-95195226D01*
X166790256Y-95117205D01*
X166959774Y-95003937D01*
X167103937Y-94859774D01*
X167217205Y-94690256D01*
X167295226Y-94501898D01*
X167335000Y-94301939D01*
X167335000Y-94098061D01*
X167295226Y-93898102D01*
X167217205Y-93709744D01*
X167103937Y-93540226D01*
X167061772Y-93498061D01*
X168965000Y-93498061D01*
X168965000Y-93701939D01*
X169004774Y-93901898D01*
X169082795Y-94090256D01*
X169196063Y-94259774D01*
X169340226Y-94403937D01*
X169509744Y-94517205D01*
X169698102Y-94595226D01*
X169898061Y-94635000D01*
X170101939Y-94635000D01*
X170301898Y-94595226D01*
X170490256Y-94517205D01*
X170659774Y-94403937D01*
X170803937Y-94259774D01*
X170917205Y-94090256D01*
X170995226Y-93901898D01*
X171035000Y-93701939D01*
X171035000Y-93498061D01*
X170995226Y-93298102D01*
X170917205Y-93109744D01*
X170803937Y-92940226D01*
X170659774Y-92796063D01*
X170490256Y-92682795D01*
X170301898Y-92604774D01*
X170101939Y-92565000D01*
X169898061Y-92565000D01*
X169698102Y-92604774D01*
X169509744Y-92682795D01*
X169340226Y-92796063D01*
X169196063Y-92940226D01*
X169082795Y-93109744D01*
X169004774Y-93298102D01*
X168965000Y-93498061D01*
X167061772Y-93498061D01*
X166959774Y-93396063D01*
X166790256Y-93282795D01*
X166601898Y-93204774D01*
X166401939Y-93165000D01*
X166198061Y-93165000D01*
X165998102Y-93204774D01*
X165809744Y-93282795D01*
X165640226Y-93396063D01*
X165496063Y-93540226D01*
X165382795Y-93709744D01*
X165304774Y-93898102D01*
X165265000Y-94098061D01*
X163513104Y-94098061D01*
X163490256Y-94082795D01*
X163301898Y-94004774D01*
X163101939Y-93965000D01*
X162898061Y-93965000D01*
X162698102Y-94004774D01*
X162509744Y-94082795D01*
X162340226Y-94196063D01*
X162196063Y-94340226D01*
X162082795Y-94509744D01*
X162004774Y-94698102D01*
X161965000Y-94898061D01*
X159168150Y-94898061D01*
X159001939Y-94865000D01*
X158798061Y-94865000D01*
X158598102Y-94904774D01*
X158409744Y-94982795D01*
X158240226Y-95096063D01*
X158096063Y-95240226D01*
X157982795Y-95409744D01*
X157904774Y-95598102D01*
X157865000Y-95798061D01*
X154610834Y-95798061D01*
X154587623Y-95681372D01*
X154565753Y-95628574D01*
X154598061Y-95635000D01*
X154801939Y-95635000D01*
X155001898Y-95595226D01*
X155190256Y-95517205D01*
X155359774Y-95403937D01*
X155503937Y-95259774D01*
X155617205Y-95090256D01*
X155695226Y-94901898D01*
X155735000Y-94701939D01*
X155735000Y-94498061D01*
X155695226Y-94298102D01*
X155617205Y-94109744D01*
X155503937Y-93940226D01*
X155382656Y-93818945D01*
X155501898Y-93795226D01*
X155690256Y-93717205D01*
X155859774Y-93603937D01*
X155965650Y-93498061D01*
X156565000Y-93498061D01*
X156565000Y-93701939D01*
X156604774Y-93901898D01*
X156682795Y-94090256D01*
X156796063Y-94259774D01*
X156940226Y-94403937D01*
X157109744Y-94517205D01*
X157298102Y-94595226D01*
X157498061Y-94635000D01*
X157701939Y-94635000D01*
X157901898Y-94595226D01*
X158090256Y-94517205D01*
X158259774Y-94403937D01*
X158403937Y-94259774D01*
X158517205Y-94090256D01*
X158595226Y-93901898D01*
X158635000Y-93701939D01*
X158635000Y-93498061D01*
X158595226Y-93298102D01*
X158517205Y-93109744D01*
X158403937Y-92940226D01*
X158259774Y-92796063D01*
X158090256Y-92682795D01*
X157974869Y-92635000D01*
X158101939Y-92635000D01*
X158301898Y-92595226D01*
X158490256Y-92517205D01*
X158659774Y-92403937D01*
X158803937Y-92259774D01*
X158917205Y-92090256D01*
X158995226Y-91901898D01*
X159035000Y-91701939D01*
X159035000Y-91498061D01*
X158995226Y-91298102D01*
X158917205Y-91109744D01*
X158803937Y-90940226D01*
X158659774Y-90796063D01*
X158490256Y-90682795D01*
X158301898Y-90604774D01*
X158101939Y-90565000D01*
X157898061Y-90565000D01*
X157698102Y-90604774D01*
X157509744Y-90682795D01*
X157340226Y-90796063D01*
X157196063Y-90940226D01*
X157082795Y-91109744D01*
X157004774Y-91298102D01*
X156965000Y-91498061D01*
X156965000Y-91701939D01*
X157004774Y-91901898D01*
X157082795Y-92090256D01*
X157196063Y-92259774D01*
X157340226Y-92403937D01*
X157509744Y-92517205D01*
X157625131Y-92565000D01*
X157498061Y-92565000D01*
X157298102Y-92604774D01*
X157109744Y-92682795D01*
X156940226Y-92796063D01*
X156796063Y-92940226D01*
X156682795Y-93109744D01*
X156604774Y-93298102D01*
X156565000Y-93498061D01*
X155965650Y-93498061D01*
X156003937Y-93459774D01*
X156117205Y-93290256D01*
X156195226Y-93101898D01*
X156235000Y-92901939D01*
X156235000Y-92698061D01*
X156195226Y-92498102D01*
X156117205Y-92309744D01*
X156003937Y-92140226D01*
X155859774Y-91996063D01*
X155690256Y-91882795D01*
X155501898Y-91804774D01*
X155301939Y-91765000D01*
X155098061Y-91765000D01*
X154898102Y-91804774D01*
X154709744Y-91882795D01*
X154540226Y-91996063D01*
X154396063Y-92140226D01*
X154282795Y-92309744D01*
X154204774Y-92498102D01*
X154165000Y-92698061D01*
X154165000Y-92901939D01*
X154204774Y-93101898D01*
X154282795Y-93290256D01*
X154396063Y-93459774D01*
X154517344Y-93581055D01*
X154398102Y-93604774D01*
X154209744Y-93682795D01*
X154040226Y-93796063D01*
X153896063Y-93940226D01*
X153782795Y-94109744D01*
X153738995Y-94215486D01*
X153344670Y-93821161D01*
X152716554Y-93401467D01*
X152018628Y-93112377D01*
X151277715Y-92965000D01*
X150522285Y-92965000D01*
X149781372Y-93112377D01*
X149083446Y-93401467D01*
X148455330Y-93821161D01*
X147921161Y-94355330D01*
X147501467Y-94983446D01*
X147301133Y-95467096D01*
X147307935Y-87893137D01*
X151015000Y-87893137D01*
X151015000Y-88106863D01*
X151056696Y-88316483D01*
X151138485Y-88513940D01*
X151257225Y-88691647D01*
X151408353Y-88842775D01*
X151586060Y-88961515D01*
X151783517Y-89043304D01*
X151993137Y-89085000D01*
X152206863Y-89085000D01*
X152416483Y-89043304D01*
X152613940Y-88961515D01*
X152791647Y-88842775D01*
X152942775Y-88691647D01*
X153061515Y-88513940D01*
X153143304Y-88316483D01*
X153146968Y-88298061D01*
X153565000Y-88298061D01*
X153565000Y-88501939D01*
X153604774Y-88701898D01*
X153682795Y-88890256D01*
X153796063Y-89059774D01*
X153940226Y-89203937D01*
X154109744Y-89317205D01*
X154298102Y-89395226D01*
X154498061Y-89435000D01*
X154701939Y-89435000D01*
X154901898Y-89395226D01*
X155090256Y-89317205D01*
X155259774Y-89203937D01*
X155300000Y-89163711D01*
X155340226Y-89203937D01*
X155509744Y-89317205D01*
X155698102Y-89395226D01*
X155898061Y-89435000D01*
X156101939Y-89435000D01*
X156301898Y-89395226D01*
X156490256Y-89317205D01*
X156659774Y-89203937D01*
X156803937Y-89059774D01*
X156917205Y-88890256D01*
X156995226Y-88701898D01*
X157026729Y-88543519D01*
X157090256Y-88517205D01*
X157118907Y-88498061D01*
X162165000Y-88498061D01*
X162165000Y-88701939D01*
X162204774Y-88901898D01*
X162282795Y-89090256D01*
X162389532Y-89250000D01*
X162282795Y-89409744D01*
X162204774Y-89598102D01*
X162165000Y-89798061D01*
X162165000Y-90001939D01*
X162204774Y-90201898D01*
X162282795Y-90390256D01*
X162396063Y-90559774D01*
X162540226Y-90703937D01*
X162709744Y-90817205D01*
X162898102Y-90895226D01*
X163098061Y-90935000D01*
X163301939Y-90935000D01*
X163501898Y-90895226D01*
X163690256Y-90817205D01*
X163859774Y-90703937D01*
X164003937Y-90559774D01*
X164045172Y-90498061D01*
X164765000Y-90498061D01*
X164765000Y-90701939D01*
X164804774Y-90901898D01*
X164882795Y-91090256D01*
X164996063Y-91259774D01*
X165140226Y-91403937D01*
X165309744Y-91517205D01*
X165498102Y-91595226D01*
X165698061Y-91635000D01*
X165791467Y-91635000D01*
X165804774Y-91701898D01*
X165882795Y-91890256D01*
X165996063Y-92059774D01*
X166140226Y-92203937D01*
X166309744Y-92317205D01*
X166498102Y-92395226D01*
X166698061Y-92435000D01*
X166901939Y-92435000D01*
X167101898Y-92395226D01*
X167290256Y-92317205D01*
X167459774Y-92203937D01*
X167603937Y-92059774D01*
X167717205Y-91890256D01*
X167795226Y-91701898D01*
X167835000Y-91501939D01*
X167835000Y-91298061D01*
X179165000Y-91298061D01*
X179165000Y-91501939D01*
X179204774Y-91701898D01*
X179282795Y-91890256D01*
X179396063Y-92059774D01*
X179540226Y-92203937D01*
X179709744Y-92317205D01*
X179898102Y-92395226D01*
X180098061Y-92435000D01*
X180301939Y-92435000D01*
X180501898Y-92395226D01*
X180690256Y-92317205D01*
X180859774Y-92203937D01*
X181003937Y-92059774D01*
X181117205Y-91890256D01*
X181195226Y-91701898D01*
X181235000Y-91501939D01*
X181235000Y-91498061D01*
X184165000Y-91498061D01*
X184165000Y-91701939D01*
X184204774Y-91901898D01*
X184282795Y-92090256D01*
X184396063Y-92259774D01*
X184540226Y-92403937D01*
X184709744Y-92517205D01*
X184898102Y-92595226D01*
X185098061Y-92635000D01*
X185301939Y-92635000D01*
X185501898Y-92595226D01*
X185690256Y-92517205D01*
X185859774Y-92403937D01*
X186003937Y-92259774D01*
X186117205Y-92090256D01*
X186195226Y-91901898D01*
X186235000Y-91701939D01*
X186235000Y-91498061D01*
X186195226Y-91298102D01*
X186195210Y-91298061D01*
X187465000Y-91298061D01*
X187465000Y-91501939D01*
X187504774Y-91701898D01*
X187582795Y-91890256D01*
X187696063Y-92059774D01*
X187840226Y-92203937D01*
X188009744Y-92317205D01*
X188198102Y-92395226D01*
X188398061Y-92435000D01*
X188601939Y-92435000D01*
X188801898Y-92395226D01*
X188990256Y-92317205D01*
X189159774Y-92203937D01*
X189303937Y-92059774D01*
X189417205Y-91890256D01*
X189495226Y-91701898D01*
X189535000Y-91501939D01*
X189535000Y-91298061D01*
X189495226Y-91098102D01*
X189417205Y-90909744D01*
X189303937Y-90740226D01*
X189159774Y-90596063D01*
X188990256Y-90482795D01*
X188801898Y-90404774D01*
X188601939Y-90365000D01*
X188398061Y-90365000D01*
X188198102Y-90404774D01*
X188009744Y-90482795D01*
X187840226Y-90596063D01*
X187696063Y-90740226D01*
X187582795Y-90909744D01*
X187504774Y-91098102D01*
X187465000Y-91298061D01*
X186195210Y-91298061D01*
X186117205Y-91109744D01*
X186003937Y-90940226D01*
X185859774Y-90796063D01*
X185690256Y-90682795D01*
X185501898Y-90604774D01*
X185301939Y-90565000D01*
X185098061Y-90565000D01*
X184898102Y-90604774D01*
X184709744Y-90682795D01*
X184540226Y-90796063D01*
X184396063Y-90940226D01*
X184282795Y-91109744D01*
X184204774Y-91298102D01*
X184165000Y-91498061D01*
X181235000Y-91498061D01*
X181235000Y-91298061D01*
X181195226Y-91098102D01*
X181117205Y-90909744D01*
X181003937Y-90740226D01*
X180859774Y-90596063D01*
X180690256Y-90482795D01*
X180501898Y-90404774D01*
X180301939Y-90365000D01*
X180098061Y-90365000D01*
X179898102Y-90404774D01*
X179709744Y-90482795D01*
X179540226Y-90596063D01*
X179396063Y-90740226D01*
X179282795Y-90909744D01*
X179204774Y-91098102D01*
X179165000Y-91298061D01*
X167835000Y-91298061D01*
X167795226Y-91098102D01*
X167717205Y-90909744D01*
X167603937Y-90740226D01*
X167459774Y-90596063D01*
X167290256Y-90482795D01*
X167101898Y-90404774D01*
X166901939Y-90365000D01*
X166808533Y-90365000D01*
X166795226Y-90298102D01*
X166717205Y-90109744D01*
X166603937Y-89940226D01*
X166459774Y-89796063D01*
X166313104Y-89698061D01*
X190765000Y-89698061D01*
X190765000Y-89901939D01*
X190804774Y-90101898D01*
X190882795Y-90290256D01*
X190996063Y-90459774D01*
X191140226Y-90603937D01*
X191309744Y-90717205D01*
X191498102Y-90795226D01*
X191698061Y-90835000D01*
X191901939Y-90835000D01*
X192101898Y-90795226D01*
X192290256Y-90717205D01*
X192459774Y-90603937D01*
X192603937Y-90459774D01*
X192717205Y-90290256D01*
X192795226Y-90101898D01*
X192835000Y-89901939D01*
X192835000Y-89698061D01*
X192795226Y-89498102D01*
X192717205Y-89309744D01*
X192603937Y-89140226D01*
X192459774Y-88996063D01*
X192290256Y-88882795D01*
X192101898Y-88804774D01*
X191901939Y-88765000D01*
X191698061Y-88765000D01*
X191498102Y-88804774D01*
X191309744Y-88882795D01*
X191140226Y-88996063D01*
X190996063Y-89140226D01*
X190882795Y-89309744D01*
X190804774Y-89498102D01*
X190765000Y-89698061D01*
X166313104Y-89698061D01*
X166290256Y-89682795D01*
X166101898Y-89604774D01*
X165901939Y-89565000D01*
X165698061Y-89565000D01*
X165498102Y-89604774D01*
X165309744Y-89682795D01*
X165140226Y-89796063D01*
X164996063Y-89940226D01*
X164882795Y-90109744D01*
X164804774Y-90298102D01*
X164765000Y-90498061D01*
X164045172Y-90498061D01*
X164117205Y-90390256D01*
X164195226Y-90201898D01*
X164235000Y-90001939D01*
X164235000Y-89798061D01*
X164195226Y-89598102D01*
X164117205Y-89409744D01*
X164010468Y-89250000D01*
X164117205Y-89090256D01*
X164195226Y-88901898D01*
X164235000Y-88701939D01*
X164235000Y-88498061D01*
X164195226Y-88298102D01*
X164195210Y-88298061D01*
X179165000Y-88298061D01*
X179165000Y-88501939D01*
X179204774Y-88701898D01*
X179282795Y-88890256D01*
X179396063Y-89059774D01*
X179540226Y-89203937D01*
X179709744Y-89317205D01*
X179898102Y-89395226D01*
X180098061Y-89435000D01*
X180301939Y-89435000D01*
X180501898Y-89395226D01*
X180690256Y-89317205D01*
X180859774Y-89203937D01*
X181003937Y-89059774D01*
X181117205Y-88890256D01*
X181195226Y-88701898D01*
X181235000Y-88501939D01*
X181235000Y-88298061D01*
X181195226Y-88098102D01*
X181117205Y-87909744D01*
X181003937Y-87740226D01*
X180859774Y-87596063D01*
X180690256Y-87482795D01*
X180501898Y-87404774D01*
X180301939Y-87365000D01*
X180098061Y-87365000D01*
X179898102Y-87404774D01*
X179709744Y-87482795D01*
X179540226Y-87596063D01*
X179396063Y-87740226D01*
X179282795Y-87909744D01*
X179204774Y-88098102D01*
X179165000Y-88298061D01*
X164195210Y-88298061D01*
X164117205Y-88109744D01*
X164003937Y-87940226D01*
X163859774Y-87796063D01*
X163690256Y-87682795D01*
X163501898Y-87604774D01*
X163301939Y-87565000D01*
X163098061Y-87565000D01*
X162898102Y-87604774D01*
X162709744Y-87682795D01*
X162540226Y-87796063D01*
X162396063Y-87940226D01*
X162282795Y-88109744D01*
X162204774Y-88298102D01*
X162165000Y-88498061D01*
X157118907Y-88498061D01*
X157259774Y-88403937D01*
X157403937Y-88259774D01*
X157517205Y-88090256D01*
X157595226Y-87901898D01*
X157635000Y-87701939D01*
X157635000Y-87498061D01*
X157595226Y-87298102D01*
X157517205Y-87109744D01*
X157403937Y-86940226D01*
X157259774Y-86796063D01*
X157090256Y-86682795D01*
X156901898Y-86604774D01*
X156701939Y-86565000D01*
X156498061Y-86565000D01*
X156298102Y-86604774D01*
X156109744Y-86682795D01*
X155940226Y-86796063D01*
X155796063Y-86940226D01*
X155682795Y-87109744D01*
X155604774Y-87298102D01*
X155573271Y-87456481D01*
X155509744Y-87482795D01*
X155340226Y-87596063D01*
X155300000Y-87636289D01*
X155259774Y-87596063D01*
X155090256Y-87482795D01*
X154901898Y-87404774D01*
X154701939Y-87365000D01*
X154498061Y-87365000D01*
X154298102Y-87404774D01*
X154109744Y-87482795D01*
X153940226Y-87596063D01*
X153796063Y-87740226D01*
X153682795Y-87909744D01*
X153604774Y-88098102D01*
X153565000Y-88298061D01*
X153146968Y-88298061D01*
X153185000Y-88106863D01*
X153185000Y-87893137D01*
X153143304Y-87683517D01*
X153061515Y-87486060D01*
X152942775Y-87308353D01*
X152791647Y-87157225D01*
X152613940Y-87038485D01*
X152416483Y-86956696D01*
X152206863Y-86915000D01*
X151993137Y-86915000D01*
X151783517Y-86956696D01*
X151586060Y-87038485D01*
X151408353Y-87157225D01*
X151257225Y-87308353D01*
X151138485Y-87486060D01*
X151056696Y-87683517D01*
X151015000Y-87893137D01*
X147307935Y-87893137D01*
X147309457Y-86198061D01*
X178665000Y-86198061D01*
X178665000Y-86401939D01*
X178704774Y-86601898D01*
X178782795Y-86790256D01*
X178896063Y-86959774D01*
X179040226Y-87103937D01*
X179209744Y-87217205D01*
X179398102Y-87295226D01*
X179598061Y-87335000D01*
X179801939Y-87335000D01*
X180001898Y-87295226D01*
X180190256Y-87217205D01*
X180359774Y-87103937D01*
X180503937Y-86959774D01*
X180617205Y-86790256D01*
X180695226Y-86601898D01*
X180735000Y-86401939D01*
X180735000Y-86198061D01*
X180695226Y-85998102D01*
X180617205Y-85809744D01*
X180503937Y-85640226D01*
X180359774Y-85496063D01*
X180190256Y-85382795D01*
X180001898Y-85304774D01*
X179801939Y-85265000D01*
X179598061Y-85265000D01*
X179398102Y-85304774D01*
X179209744Y-85382795D01*
X179040226Y-85496063D01*
X178896063Y-85640226D01*
X178782795Y-85809744D01*
X178704774Y-85998102D01*
X178665000Y-86198061D01*
X147309457Y-86198061D01*
X147310444Y-85098061D01*
X183365000Y-85098061D01*
X183365000Y-85301939D01*
X183404774Y-85501898D01*
X183482795Y-85690256D01*
X183489306Y-85700000D01*
X183482795Y-85709744D01*
X183404774Y-85898102D01*
X183365000Y-86098061D01*
X183365000Y-86301939D01*
X183404774Y-86501898D01*
X183482795Y-86690256D01*
X183556123Y-86800000D01*
X183482795Y-86909744D01*
X183404774Y-87098102D01*
X183365000Y-87298061D01*
X183365000Y-87501939D01*
X183404774Y-87701898D01*
X183482795Y-87890256D01*
X183596063Y-88059774D01*
X183740226Y-88203937D01*
X183909744Y-88317205D01*
X184098102Y-88395226D01*
X184298061Y-88435000D01*
X184501939Y-88435000D01*
X184701898Y-88395226D01*
X184890256Y-88317205D01*
X185000000Y-88243877D01*
X185109744Y-88317205D01*
X185298102Y-88395226D01*
X185498061Y-88435000D01*
X185701939Y-88435000D01*
X185901898Y-88395226D01*
X186090256Y-88317205D01*
X186200000Y-88243877D01*
X186309744Y-88317205D01*
X186498102Y-88395226D01*
X186698061Y-88435000D01*
X186901939Y-88435000D01*
X187101898Y-88395226D01*
X187290256Y-88317205D01*
X187459774Y-88203937D01*
X187603937Y-88059774D01*
X187717205Y-87890256D01*
X187795226Y-87701898D01*
X187835000Y-87501939D01*
X187835000Y-87298061D01*
X187795226Y-87098102D01*
X187717205Y-86909744D01*
X187643877Y-86800000D01*
X187717205Y-86690256D01*
X187755393Y-86598061D01*
X190465000Y-86598061D01*
X190465000Y-86801939D01*
X190504774Y-87001898D01*
X190582795Y-87190256D01*
X190696063Y-87359774D01*
X190840226Y-87503937D01*
X191009744Y-87617205D01*
X191198102Y-87695226D01*
X191398061Y-87735000D01*
X191601939Y-87735000D01*
X191801898Y-87695226D01*
X191990256Y-87617205D01*
X192159774Y-87503937D01*
X192303937Y-87359774D01*
X192417205Y-87190256D01*
X192495226Y-87001898D01*
X192535000Y-86801939D01*
X192535000Y-86598061D01*
X192495226Y-86398102D01*
X192417205Y-86209744D01*
X192303937Y-86040226D01*
X192159774Y-85896063D01*
X191990256Y-85782795D01*
X191801898Y-85704774D01*
X191601939Y-85665000D01*
X191398061Y-85665000D01*
X191198102Y-85704774D01*
X191009744Y-85782795D01*
X190840226Y-85896063D01*
X190696063Y-86040226D01*
X190582795Y-86209744D01*
X190504774Y-86398102D01*
X190465000Y-86598061D01*
X187755393Y-86598061D01*
X187795226Y-86501898D01*
X187835000Y-86301939D01*
X187835000Y-86098061D01*
X187795226Y-85898102D01*
X187717205Y-85709744D01*
X187710694Y-85700000D01*
X187717205Y-85690256D01*
X187795226Y-85501898D01*
X187835000Y-85301939D01*
X187835000Y-85098061D01*
X187795226Y-84898102D01*
X187717205Y-84709744D01*
X187603937Y-84540226D01*
X187459774Y-84396063D01*
X187290256Y-84282795D01*
X187101898Y-84204774D01*
X186901939Y-84165000D01*
X186698061Y-84165000D01*
X186498102Y-84204774D01*
X186309744Y-84282795D01*
X186200000Y-84356123D01*
X186090256Y-84282795D01*
X185901898Y-84204774D01*
X185701939Y-84165000D01*
X185498061Y-84165000D01*
X185298102Y-84204774D01*
X185109744Y-84282795D01*
X185000000Y-84356123D01*
X184890256Y-84282795D01*
X184701898Y-84204774D01*
X184501939Y-84165000D01*
X184298061Y-84165000D01*
X184098102Y-84204774D01*
X183909744Y-84282795D01*
X183740226Y-84396063D01*
X183596063Y-84540226D01*
X183482795Y-84709744D01*
X183404774Y-84898102D01*
X183365000Y-85098061D01*
X147310444Y-85098061D01*
X147311886Y-83493137D01*
X151015000Y-83493137D01*
X151015000Y-83706863D01*
X151056696Y-83916483D01*
X151138485Y-84113940D01*
X151257225Y-84291647D01*
X151408353Y-84442775D01*
X151586060Y-84561515D01*
X151783517Y-84643304D01*
X151993137Y-84685000D01*
X152206863Y-84685000D01*
X152416483Y-84643304D01*
X152613940Y-84561515D01*
X152791647Y-84442775D01*
X152942775Y-84291647D01*
X153061515Y-84113940D01*
X153143304Y-83916483D01*
X153185000Y-83706863D01*
X153185000Y-83493137D01*
X153146197Y-83298061D01*
X155565000Y-83298061D01*
X155565000Y-83501939D01*
X155604774Y-83701898D01*
X155682795Y-83890256D01*
X155796063Y-84059774D01*
X155940226Y-84203937D01*
X156109744Y-84317205D01*
X156298102Y-84395226D01*
X156498061Y-84435000D01*
X156701939Y-84435000D01*
X156901898Y-84395226D01*
X157090256Y-84317205D01*
X157259774Y-84203937D01*
X157403937Y-84059774D01*
X157511989Y-83898061D01*
X179365000Y-83898061D01*
X179365000Y-84101939D01*
X179404774Y-84301898D01*
X179482795Y-84490256D01*
X179596063Y-84659774D01*
X179740226Y-84803937D01*
X179909744Y-84917205D01*
X180098102Y-84995226D01*
X180298061Y-85035000D01*
X180501939Y-85035000D01*
X180701898Y-84995226D01*
X180890256Y-84917205D01*
X181059774Y-84803937D01*
X181203937Y-84659774D01*
X181317205Y-84490256D01*
X181395226Y-84301898D01*
X181435000Y-84101939D01*
X181435000Y-84098061D01*
X190365000Y-84098061D01*
X190365000Y-84301939D01*
X190404774Y-84501898D01*
X190482795Y-84690256D01*
X190596063Y-84859774D01*
X190740226Y-85003937D01*
X190909744Y-85117205D01*
X191098102Y-85195226D01*
X191298061Y-85235000D01*
X191501939Y-85235000D01*
X191701898Y-85195226D01*
X191890256Y-85117205D01*
X192059774Y-85003937D01*
X192203937Y-84859774D01*
X192317205Y-84690256D01*
X192395226Y-84501898D01*
X192435000Y-84301939D01*
X192435000Y-84098061D01*
X192395226Y-83898102D01*
X192317205Y-83709744D01*
X192203937Y-83540226D01*
X192059774Y-83396063D01*
X191890256Y-83282795D01*
X191701898Y-83204774D01*
X191501939Y-83165000D01*
X191298061Y-83165000D01*
X191098102Y-83204774D01*
X190909744Y-83282795D01*
X190740226Y-83396063D01*
X190596063Y-83540226D01*
X190482795Y-83709744D01*
X190404774Y-83898102D01*
X190365000Y-84098061D01*
X181435000Y-84098061D01*
X181435000Y-83898061D01*
X181395226Y-83698102D01*
X181317205Y-83509744D01*
X181203937Y-83340226D01*
X181059774Y-83196063D01*
X180890256Y-83082795D01*
X180701898Y-83004774D01*
X180501939Y-82965000D01*
X180298061Y-82965000D01*
X180098102Y-83004774D01*
X179909744Y-83082795D01*
X179740226Y-83196063D01*
X179596063Y-83340226D01*
X179482795Y-83509744D01*
X179404774Y-83698102D01*
X179365000Y-83898061D01*
X157511989Y-83898061D01*
X157517205Y-83890256D01*
X157595226Y-83701898D01*
X157635000Y-83501939D01*
X157635000Y-83298061D01*
X157595226Y-83098102D01*
X157517205Y-82909744D01*
X157403937Y-82740226D01*
X157259774Y-82596063D01*
X157113104Y-82498061D01*
X158365000Y-82498061D01*
X158365000Y-82701939D01*
X158404774Y-82901898D01*
X158482795Y-83090256D01*
X158596063Y-83259774D01*
X158740226Y-83403937D01*
X158909744Y-83517205D01*
X159098102Y-83595226D01*
X159298061Y-83635000D01*
X159501939Y-83635000D01*
X159701898Y-83595226D01*
X159890256Y-83517205D01*
X160059774Y-83403937D01*
X160203937Y-83259774D01*
X160317205Y-83090256D01*
X160395226Y-82901898D01*
X160435000Y-82701939D01*
X160435000Y-82498061D01*
X160395226Y-82298102D01*
X160317205Y-82109744D01*
X160203937Y-81940226D01*
X160059774Y-81796063D01*
X159890256Y-81682795D01*
X159701898Y-81604774D01*
X159501939Y-81565000D01*
X159298061Y-81565000D01*
X159098102Y-81604774D01*
X158909744Y-81682795D01*
X158740226Y-81796063D01*
X158596063Y-81940226D01*
X158482795Y-82109744D01*
X158404774Y-82298102D01*
X158365000Y-82498061D01*
X157113104Y-82498061D01*
X157090256Y-82482795D01*
X156901898Y-82404774D01*
X156701939Y-82365000D01*
X156498061Y-82365000D01*
X156298102Y-82404774D01*
X156109744Y-82482795D01*
X155940226Y-82596063D01*
X155796063Y-82740226D01*
X155682795Y-82909744D01*
X155604774Y-83098102D01*
X155565000Y-83298061D01*
X153146197Y-83298061D01*
X153143304Y-83283517D01*
X153061515Y-83086060D01*
X152942775Y-82908353D01*
X152791647Y-82757225D01*
X152613940Y-82638485D01*
X152416483Y-82556696D01*
X152206863Y-82515000D01*
X151993137Y-82515000D01*
X151783517Y-82556696D01*
X151586060Y-82638485D01*
X151408353Y-82757225D01*
X151257225Y-82908353D01*
X151138485Y-83086060D01*
X151056696Y-83283517D01*
X151015000Y-83493137D01*
X147311886Y-83493137D01*
X147313677Y-81498061D01*
X176165000Y-81498061D01*
X176165000Y-81701939D01*
X176204774Y-81901898D01*
X176282795Y-82090256D01*
X176396063Y-82259774D01*
X176540226Y-82403937D01*
X176709744Y-82517205D01*
X176898102Y-82595226D01*
X177098061Y-82635000D01*
X177301939Y-82635000D01*
X177501898Y-82595226D01*
X177690256Y-82517205D01*
X177859774Y-82403937D01*
X178003937Y-82259774D01*
X178117205Y-82090256D01*
X178195226Y-81901898D01*
X178235000Y-81701939D01*
X178235000Y-81498061D01*
X178195226Y-81298102D01*
X178117205Y-81109744D01*
X178003937Y-80940226D01*
X177859774Y-80796063D01*
X177690256Y-80682795D01*
X177501898Y-80604774D01*
X177301939Y-80565000D01*
X177098061Y-80565000D01*
X176898102Y-80604774D01*
X176709744Y-80682795D01*
X176540226Y-80796063D01*
X176396063Y-80940226D01*
X176282795Y-81109744D01*
X176204774Y-81298102D01*
X176165000Y-81498061D01*
X147313677Y-81498061D01*
X147314755Y-80298061D01*
X157165000Y-80298061D01*
X157165000Y-80501939D01*
X157204774Y-80701898D01*
X157282795Y-80890256D01*
X157396063Y-81059774D01*
X157540226Y-81203937D01*
X157709744Y-81317205D01*
X157898102Y-81395226D01*
X158098061Y-81435000D01*
X158301939Y-81435000D01*
X158501898Y-81395226D01*
X158690256Y-81317205D01*
X158859774Y-81203937D01*
X159003937Y-81059774D01*
X159117205Y-80890256D01*
X159195226Y-80701898D01*
X159235000Y-80501939D01*
X159235000Y-80298061D01*
X159195226Y-80098102D01*
X159195210Y-80098061D01*
X161365000Y-80098061D01*
X161365000Y-80301939D01*
X161404774Y-80501898D01*
X161482795Y-80690256D01*
X161596063Y-80859774D01*
X161740226Y-81003937D01*
X161909744Y-81117205D01*
X162098102Y-81195226D01*
X162298061Y-81235000D01*
X162501939Y-81235000D01*
X162701898Y-81195226D01*
X162890256Y-81117205D01*
X163059774Y-81003937D01*
X163203937Y-80859774D01*
X163317205Y-80690256D01*
X163395226Y-80501898D01*
X163435000Y-80301939D01*
X163435000Y-80098061D01*
X163395226Y-79898102D01*
X163317205Y-79709744D01*
X163203937Y-79540226D01*
X163059774Y-79396063D01*
X162890256Y-79282795D01*
X162701898Y-79204774D01*
X162501939Y-79165000D01*
X162298061Y-79165000D01*
X162098102Y-79204774D01*
X161909744Y-79282795D01*
X161740226Y-79396063D01*
X161596063Y-79540226D01*
X161482795Y-79709744D01*
X161404774Y-79898102D01*
X161365000Y-80098061D01*
X159195210Y-80098061D01*
X159117205Y-79909744D01*
X159003937Y-79740226D01*
X158859774Y-79596063D01*
X158690256Y-79482795D01*
X158501898Y-79404774D01*
X158301939Y-79365000D01*
X158098061Y-79365000D01*
X157898102Y-79404774D01*
X157709744Y-79482795D01*
X157540226Y-79596063D01*
X157396063Y-79740226D01*
X157282795Y-79909744D01*
X157204774Y-80098102D01*
X157165000Y-80298061D01*
X147314755Y-80298061D01*
X147316103Y-78798061D01*
X151065000Y-78798061D01*
X151065000Y-79001939D01*
X151104774Y-79201898D01*
X151182795Y-79390256D01*
X151296063Y-79559774D01*
X151440226Y-79703937D01*
X151609744Y-79817205D01*
X151798102Y-79895226D01*
X151998061Y-79935000D01*
X152201939Y-79935000D01*
X152401898Y-79895226D01*
X152590256Y-79817205D01*
X152759774Y-79703937D01*
X152903937Y-79559774D01*
X153017205Y-79390256D01*
X153095226Y-79201898D01*
X153135000Y-79001939D01*
X153135000Y-78798061D01*
X153095226Y-78598102D01*
X153017205Y-78409744D01*
X152903937Y-78240226D01*
X152759774Y-78096063D01*
X152590256Y-77982795D01*
X152401898Y-77904774D01*
X152201939Y-77865000D01*
X151998061Y-77865000D01*
X151798102Y-77904774D01*
X151609744Y-77982795D01*
X151440226Y-78096063D01*
X151296063Y-78240226D01*
X151182795Y-78409744D01*
X151104774Y-78598102D01*
X151065000Y-78798061D01*
X147316103Y-78798061D01*
X147317630Y-77098061D01*
X148565000Y-77098061D01*
X148565000Y-77301939D01*
X148604774Y-77501898D01*
X148682795Y-77690256D01*
X148796063Y-77859774D01*
X148940226Y-78003937D01*
X149109744Y-78117205D01*
X149298102Y-78195226D01*
X149498061Y-78235000D01*
X149701939Y-78235000D01*
X149901898Y-78195226D01*
X150090256Y-78117205D01*
X150259774Y-78003937D01*
X150403937Y-77859774D01*
X150517205Y-77690256D01*
X150595226Y-77501898D01*
X150635000Y-77301939D01*
X150635000Y-77098061D01*
X150595226Y-76898102D01*
X150517205Y-76709744D01*
X150403937Y-76540226D01*
X150259774Y-76396063D01*
X150090256Y-76282795D01*
X149901898Y-76204774D01*
X149701939Y-76165000D01*
X149498061Y-76165000D01*
X149298102Y-76204774D01*
X149109744Y-76282795D01*
X148940226Y-76396063D01*
X148796063Y-76540226D01*
X148682795Y-76709744D01*
X148604774Y-76898102D01*
X148565000Y-77098061D01*
X147317630Y-77098061D01*
X147318707Y-75898061D01*
X150615000Y-75898061D01*
X150615000Y-76101939D01*
X150654774Y-76301898D01*
X150732795Y-76490256D01*
X150846063Y-76659774D01*
X150990226Y-76803937D01*
X151159744Y-76917205D01*
X151348102Y-76995226D01*
X151548061Y-77035000D01*
X151751939Y-77035000D01*
X151951898Y-76995226D01*
X152140256Y-76917205D01*
X152309774Y-76803937D01*
X152453937Y-76659774D01*
X152567205Y-76490256D01*
X152645226Y-76301898D01*
X152685000Y-76101939D01*
X152685000Y-75898061D01*
X152645226Y-75698102D01*
X152567205Y-75509744D01*
X152559399Y-75498061D01*
X179765000Y-75498061D01*
X179765000Y-75701939D01*
X179804774Y-75901898D01*
X179882795Y-76090256D01*
X179996063Y-76259774D01*
X180140226Y-76403937D01*
X180309744Y-76517205D01*
X180498102Y-76595226D01*
X180698061Y-76635000D01*
X180901939Y-76635000D01*
X181101898Y-76595226D01*
X181290256Y-76517205D01*
X181459774Y-76403937D01*
X181603937Y-76259774D01*
X181717205Y-76090256D01*
X181795226Y-75901898D01*
X181835000Y-75701939D01*
X181835000Y-75498061D01*
X181795226Y-75298102D01*
X181795210Y-75298061D01*
X189165000Y-75298061D01*
X189165000Y-75501939D01*
X189204774Y-75701898D01*
X189282795Y-75890256D01*
X189396063Y-76059774D01*
X189540226Y-76203937D01*
X189709744Y-76317205D01*
X189898102Y-76395226D01*
X190098061Y-76435000D01*
X190301939Y-76435000D01*
X190501898Y-76395226D01*
X190690256Y-76317205D01*
X190859774Y-76203937D01*
X191003937Y-76059774D01*
X191117205Y-75890256D01*
X191195226Y-75701898D01*
X191235000Y-75501939D01*
X191235000Y-75298061D01*
X191195226Y-75098102D01*
X191117205Y-74909744D01*
X191003937Y-74740226D01*
X190859774Y-74596063D01*
X190690256Y-74482795D01*
X190501898Y-74404774D01*
X190301939Y-74365000D01*
X190098061Y-74365000D01*
X189898102Y-74404774D01*
X189709744Y-74482795D01*
X189540226Y-74596063D01*
X189396063Y-74740226D01*
X189282795Y-74909744D01*
X189204774Y-75098102D01*
X189165000Y-75298061D01*
X181795210Y-75298061D01*
X181717205Y-75109744D01*
X181603937Y-74940226D01*
X181459774Y-74796063D01*
X181290256Y-74682795D01*
X181101898Y-74604774D01*
X180901939Y-74565000D01*
X180698061Y-74565000D01*
X180498102Y-74604774D01*
X180309744Y-74682795D01*
X180140226Y-74796063D01*
X179996063Y-74940226D01*
X179882795Y-75109744D01*
X179804774Y-75298102D01*
X179765000Y-75498061D01*
X152559399Y-75498061D01*
X152453937Y-75340226D01*
X152309774Y-75196063D01*
X152140256Y-75082795D01*
X151951898Y-75004774D01*
X151751939Y-74965000D01*
X151548061Y-74965000D01*
X151348102Y-75004774D01*
X151159744Y-75082795D01*
X150990226Y-75196063D01*
X150846063Y-75340226D01*
X150732795Y-75509744D01*
X150654774Y-75698102D01*
X150615000Y-75898061D01*
X147318707Y-75898061D01*
X147320144Y-74298061D01*
X148565000Y-74298061D01*
X148565000Y-74501939D01*
X148604774Y-74701898D01*
X148682795Y-74890256D01*
X148796063Y-75059774D01*
X148940226Y-75203937D01*
X149109744Y-75317205D01*
X149298102Y-75395226D01*
X149498061Y-75435000D01*
X149701939Y-75435000D01*
X149901898Y-75395226D01*
X150090256Y-75317205D01*
X150259774Y-75203937D01*
X150403937Y-75059774D01*
X150517205Y-74890256D01*
X150595226Y-74701898D01*
X150635000Y-74501939D01*
X150635000Y-74298061D01*
X162365000Y-74298061D01*
X162365000Y-74501939D01*
X162404774Y-74701898D01*
X162482795Y-74890256D01*
X162596063Y-75059774D01*
X162740226Y-75203937D01*
X162909744Y-75317205D01*
X163098102Y-75395226D01*
X163298061Y-75435000D01*
X163501939Y-75435000D01*
X163701898Y-75395226D01*
X163890256Y-75317205D01*
X163900000Y-75310694D01*
X163909744Y-75317205D01*
X164098102Y-75395226D01*
X164298061Y-75435000D01*
X164501939Y-75435000D01*
X164701898Y-75395226D01*
X164890256Y-75317205D01*
X165059774Y-75203937D01*
X165203937Y-75059774D01*
X165317205Y-74890256D01*
X165395226Y-74701898D01*
X165435000Y-74501939D01*
X165435000Y-74298061D01*
X165395226Y-74098102D01*
X165317205Y-73909744D01*
X165203937Y-73740226D01*
X165059774Y-73596063D01*
X164890256Y-73482795D01*
X164701898Y-73404774D01*
X164501939Y-73365000D01*
X164298061Y-73365000D01*
X164098102Y-73404774D01*
X163909744Y-73482795D01*
X163900000Y-73489306D01*
X163890256Y-73482795D01*
X163701898Y-73404774D01*
X163501939Y-73365000D01*
X163298061Y-73365000D01*
X163098102Y-73404774D01*
X162909744Y-73482795D01*
X162740226Y-73596063D01*
X162596063Y-73740226D01*
X162482795Y-73909744D01*
X162404774Y-74098102D01*
X162365000Y-74298061D01*
X150635000Y-74298061D01*
X150595226Y-74098102D01*
X150517205Y-73909744D01*
X150403937Y-73740226D01*
X150259774Y-73596063D01*
X150090256Y-73482795D01*
X149901898Y-73404774D01*
X149701939Y-73365000D01*
X149498061Y-73365000D01*
X149298102Y-73404774D01*
X149109744Y-73482795D01*
X148940226Y-73596063D01*
X148796063Y-73740226D01*
X148682795Y-73909744D01*
X148604774Y-74098102D01*
X148565000Y-74298061D01*
X147320144Y-74298061D01*
X147322659Y-71498061D01*
X148565000Y-71498061D01*
X148565000Y-71701939D01*
X148604774Y-71901898D01*
X148682795Y-72090256D01*
X148796063Y-72259774D01*
X148940226Y-72403937D01*
X149109744Y-72517205D01*
X149298102Y-72595226D01*
X149498061Y-72635000D01*
X149701939Y-72635000D01*
X149901898Y-72595226D01*
X150015763Y-72548061D01*
X150465000Y-72548061D01*
X150465000Y-72751939D01*
X150504774Y-72951898D01*
X150582795Y-73140256D01*
X150696063Y-73309774D01*
X150840226Y-73453937D01*
X151009744Y-73567205D01*
X151198102Y-73645226D01*
X151398061Y-73685000D01*
X151601939Y-73685000D01*
X151801898Y-73645226D01*
X151990256Y-73567205D01*
X152159774Y-73453937D01*
X152303937Y-73309774D01*
X152417205Y-73140256D01*
X152495226Y-72951898D01*
X152535000Y-72751939D01*
X152535000Y-72548061D01*
X152495226Y-72348102D01*
X152417205Y-72159744D01*
X152303937Y-71990226D01*
X152159774Y-71846063D01*
X151990256Y-71732795D01*
X151801898Y-71654774D01*
X151601939Y-71615000D01*
X151398061Y-71615000D01*
X151198102Y-71654774D01*
X151009744Y-71732795D01*
X150840226Y-71846063D01*
X150696063Y-71990226D01*
X150582795Y-72159744D01*
X150504774Y-72348102D01*
X150465000Y-72548061D01*
X150015763Y-72548061D01*
X150090256Y-72517205D01*
X150259774Y-72403937D01*
X150403937Y-72259774D01*
X150517205Y-72090256D01*
X150595226Y-71901898D01*
X150635000Y-71701939D01*
X150635000Y-71498061D01*
X150595226Y-71298102D01*
X150517205Y-71109744D01*
X150403937Y-70940226D01*
X150259774Y-70796063D01*
X150090256Y-70682795D01*
X149901898Y-70604774D01*
X149701939Y-70565000D01*
X149498061Y-70565000D01*
X149298102Y-70604774D01*
X149109744Y-70682795D01*
X148940226Y-70796063D01*
X148796063Y-70940226D01*
X148682795Y-71109744D01*
X148604774Y-71298102D01*
X148565000Y-71498061D01*
X147322659Y-71498061D01*
X147323916Y-70098061D01*
X151265000Y-70098061D01*
X151265000Y-70301939D01*
X151304774Y-70501898D01*
X151382795Y-70690256D01*
X151496063Y-70859774D01*
X151640226Y-71003937D01*
X151809744Y-71117205D01*
X151998102Y-71195226D01*
X152198061Y-71235000D01*
X152401939Y-71235000D01*
X152601898Y-71195226D01*
X152790256Y-71117205D01*
X152959774Y-71003937D01*
X153103937Y-70859774D01*
X153217205Y-70690256D01*
X153295226Y-70501898D01*
X153335000Y-70301939D01*
X153335000Y-70098061D01*
X153295226Y-69898102D01*
X153217205Y-69709744D01*
X153103937Y-69540226D01*
X152959774Y-69396063D01*
X152790256Y-69282795D01*
X152601898Y-69204774D01*
X152401939Y-69165000D01*
X152198061Y-69165000D01*
X151998102Y-69204774D01*
X151809744Y-69282795D01*
X151640226Y-69396063D01*
X151496063Y-69540226D01*
X151382795Y-69709744D01*
X151304774Y-69898102D01*
X151265000Y-70098061D01*
X147323916Y-70098061D01*
X147325174Y-68698061D01*
X148565000Y-68698061D01*
X148565000Y-68901939D01*
X148604774Y-69101898D01*
X148682795Y-69290256D01*
X148796063Y-69459774D01*
X148940226Y-69603937D01*
X149109744Y-69717205D01*
X149298102Y-69795226D01*
X149498061Y-69835000D01*
X149701939Y-69835000D01*
X149901898Y-69795226D01*
X150090256Y-69717205D01*
X150259774Y-69603937D01*
X150403937Y-69459774D01*
X150517205Y-69290256D01*
X150595226Y-69101898D01*
X150635000Y-68901939D01*
X150635000Y-68698061D01*
X150595226Y-68498102D01*
X150517205Y-68309744D01*
X150403937Y-68140226D01*
X150259774Y-67996063D01*
X150113104Y-67898061D01*
X150765000Y-67898061D01*
X150765000Y-68101939D01*
X150804774Y-68301898D01*
X150882795Y-68490256D01*
X150996063Y-68659774D01*
X151140226Y-68803937D01*
X151309744Y-68917205D01*
X151498102Y-68995226D01*
X151698061Y-69035000D01*
X151901939Y-69035000D01*
X152101898Y-68995226D01*
X152290256Y-68917205D01*
X152459774Y-68803937D01*
X152603937Y-68659774D01*
X152717205Y-68490256D01*
X152795226Y-68301898D01*
X152835000Y-68101939D01*
X152835000Y-67898061D01*
X153365000Y-67898061D01*
X153365000Y-68101939D01*
X153404774Y-68301898D01*
X153445409Y-68400000D01*
X153404774Y-68498102D01*
X153365000Y-68698061D01*
X153365000Y-68901939D01*
X153404774Y-69101898D01*
X153445409Y-69200000D01*
X153404774Y-69298102D01*
X153365000Y-69498061D01*
X153365000Y-69701939D01*
X153404774Y-69901898D01*
X153482795Y-70090256D01*
X153596063Y-70259774D01*
X153736289Y-70400000D01*
X153596063Y-70540226D01*
X153482795Y-70709744D01*
X153404774Y-70898102D01*
X153365000Y-71098061D01*
X153365000Y-71301939D01*
X153404774Y-71501898D01*
X153482795Y-71690256D01*
X153489306Y-71700000D01*
X153482795Y-71709744D01*
X153404774Y-71898102D01*
X153365000Y-72098061D01*
X153365000Y-72301939D01*
X153404774Y-72501898D01*
X153482795Y-72690256D01*
X153596063Y-72859774D01*
X153740226Y-73003937D01*
X153909744Y-73117205D01*
X154098102Y-73195226D01*
X154298061Y-73235000D01*
X154501939Y-73235000D01*
X154701898Y-73195226D01*
X154890256Y-73117205D01*
X155059774Y-73003937D01*
X155203937Y-72859774D01*
X155317205Y-72690256D01*
X155395226Y-72501898D01*
X155435000Y-72301939D01*
X155435000Y-72098061D01*
X155395226Y-71898102D01*
X155317205Y-71709744D01*
X155310694Y-71700000D01*
X155317205Y-71690256D01*
X155395226Y-71501898D01*
X155431241Y-71320835D01*
X157175000Y-71320835D01*
X157175000Y-71495165D01*
X157209010Y-71666145D01*
X157275723Y-71827205D01*
X157372576Y-71972155D01*
X157398421Y-71998000D01*
X157372576Y-72023845D01*
X157275723Y-72168795D01*
X157209010Y-72329855D01*
X157175000Y-72500835D01*
X157175000Y-72675165D01*
X157209010Y-72846145D01*
X157275723Y-73007205D01*
X157372576Y-73152155D01*
X157495845Y-73275424D01*
X157640795Y-73372277D01*
X157801855Y-73438990D01*
X157972835Y-73473000D01*
X158147165Y-73473000D01*
X158318145Y-73438990D01*
X158479205Y-73372277D01*
X158624155Y-73275424D01*
X158650000Y-73249579D01*
X158675845Y-73275424D01*
X158820795Y-73372277D01*
X158981855Y-73438990D01*
X159152835Y-73473000D01*
X159327165Y-73473000D01*
X159498145Y-73438990D01*
X159659205Y-73372277D01*
X159804155Y-73275424D01*
X159927424Y-73152155D01*
X160024277Y-73007205D01*
X160090990Y-72846145D01*
X160125000Y-72675165D01*
X160125000Y-72500835D01*
X160090990Y-72329855D01*
X160024277Y-72168795D01*
X159927424Y-72023845D01*
X159901579Y-71998000D01*
X159927424Y-71972155D01*
X160024277Y-71827205D01*
X160090990Y-71666145D01*
X160125000Y-71495165D01*
X160125000Y-71320835D01*
X160090990Y-71149855D01*
X160024277Y-70988795D01*
X159927424Y-70843845D01*
X159804155Y-70720576D01*
X159659205Y-70623723D01*
X159498145Y-70557010D01*
X159327165Y-70523000D01*
X159152835Y-70523000D01*
X158981855Y-70557010D01*
X158820795Y-70623723D01*
X158675845Y-70720576D01*
X158650000Y-70746421D01*
X158624155Y-70720576D01*
X158479205Y-70623723D01*
X158318145Y-70557010D01*
X158147165Y-70523000D01*
X157972835Y-70523000D01*
X157801855Y-70557010D01*
X157640795Y-70623723D01*
X157495845Y-70720576D01*
X157372576Y-70843845D01*
X157275723Y-70988795D01*
X157209010Y-71149855D01*
X157175000Y-71320835D01*
X155431241Y-71320835D01*
X155435000Y-71301939D01*
X155435000Y-71098061D01*
X155395226Y-70898102D01*
X155317205Y-70709744D01*
X155203937Y-70540226D01*
X155063711Y-70400000D01*
X155203937Y-70259774D01*
X155311989Y-70098061D01*
X160165000Y-70098061D01*
X160165000Y-70301939D01*
X160204774Y-70501898D01*
X160282795Y-70690256D01*
X160289306Y-70700000D01*
X160282795Y-70709744D01*
X160204774Y-70898102D01*
X160165000Y-71098061D01*
X160165000Y-71301939D01*
X160204774Y-71501898D01*
X160245409Y-71600000D01*
X160204774Y-71698102D01*
X160165000Y-71898061D01*
X160165000Y-72101939D01*
X160204774Y-72301898D01*
X160245409Y-72400000D01*
X160204774Y-72498102D01*
X160165000Y-72698061D01*
X160165000Y-72901939D01*
X160204774Y-73101898D01*
X160282795Y-73290256D01*
X160396063Y-73459774D01*
X160540226Y-73603937D01*
X160709744Y-73717205D01*
X160898102Y-73795226D01*
X161098061Y-73835000D01*
X161301939Y-73835000D01*
X161501898Y-73795226D01*
X161690256Y-73717205D01*
X161859774Y-73603937D01*
X162003937Y-73459774D01*
X162117205Y-73290256D01*
X162195226Y-73101898D01*
X162235000Y-72901939D01*
X162235000Y-72698061D01*
X175565000Y-72698061D01*
X175565000Y-72901939D01*
X175604774Y-73101898D01*
X175645409Y-73200000D01*
X175604774Y-73298102D01*
X175565000Y-73498061D01*
X175565000Y-73701939D01*
X175604774Y-73901898D01*
X175682795Y-74090256D01*
X175796063Y-74259774D01*
X175940226Y-74403937D01*
X176109744Y-74517205D01*
X176298102Y-74595226D01*
X176498061Y-74635000D01*
X176701939Y-74635000D01*
X176901898Y-74595226D01*
X177090256Y-74517205D01*
X177259774Y-74403937D01*
X177403937Y-74259774D01*
X177517205Y-74090256D01*
X177595226Y-73901898D01*
X177635000Y-73701939D01*
X177635000Y-73498061D01*
X177595226Y-73298102D01*
X177554591Y-73200000D01*
X177595226Y-73101898D01*
X177635000Y-72901939D01*
X177635000Y-72698061D01*
X177595226Y-72498102D01*
X177517205Y-72309744D01*
X177509399Y-72298061D01*
X182865000Y-72298061D01*
X182865000Y-72501939D01*
X182904774Y-72701898D01*
X182982795Y-72890256D01*
X183096063Y-73059774D01*
X183240226Y-73203937D01*
X183409744Y-73317205D01*
X183598102Y-73395226D01*
X183798061Y-73435000D01*
X184001939Y-73435000D01*
X184201898Y-73395226D01*
X184281285Y-73362342D01*
X184182795Y-73509744D01*
X184104774Y-73698102D01*
X184065000Y-73898061D01*
X184065000Y-74101939D01*
X184104774Y-74301898D01*
X184182795Y-74490256D01*
X184296063Y-74659774D01*
X184440226Y-74803937D01*
X184609744Y-74917205D01*
X184798102Y-74995226D01*
X184998061Y-75035000D01*
X185201939Y-75035000D01*
X185401898Y-74995226D01*
X185590256Y-74917205D01*
X185759774Y-74803937D01*
X185903937Y-74659774D01*
X186017205Y-74490256D01*
X186095226Y-74301898D01*
X186135000Y-74101939D01*
X186135000Y-73898061D01*
X186095226Y-73698102D01*
X186017205Y-73509744D01*
X185903937Y-73340226D01*
X185759774Y-73196063D01*
X185590256Y-73082795D01*
X185401898Y-73004774D01*
X185201939Y-72965000D01*
X184998061Y-72965000D01*
X184798102Y-73004774D01*
X184718715Y-73037658D01*
X184817205Y-72890256D01*
X184895226Y-72701898D01*
X184935000Y-72501939D01*
X184935000Y-72298061D01*
X184895226Y-72098102D01*
X184817205Y-71909744D01*
X184703937Y-71740226D01*
X184559774Y-71596063D01*
X184390256Y-71482795D01*
X184201898Y-71404774D01*
X184001939Y-71365000D01*
X183798061Y-71365000D01*
X183598102Y-71404774D01*
X183409744Y-71482795D01*
X183240226Y-71596063D01*
X183096063Y-71740226D01*
X182982795Y-71909744D01*
X182904774Y-72098102D01*
X182865000Y-72298061D01*
X177509399Y-72298061D01*
X177403937Y-72140226D01*
X177259774Y-71996063D01*
X177090256Y-71882795D01*
X176901898Y-71804774D01*
X176701939Y-71765000D01*
X176498061Y-71765000D01*
X176298102Y-71804774D01*
X176109744Y-71882795D01*
X175940226Y-71996063D01*
X175796063Y-72140226D01*
X175682795Y-72309744D01*
X175604774Y-72498102D01*
X175565000Y-72698061D01*
X162235000Y-72698061D01*
X162195226Y-72498102D01*
X162154591Y-72400000D01*
X162195226Y-72301898D01*
X162235000Y-72101939D01*
X162235000Y-71898061D01*
X162195226Y-71698102D01*
X162154591Y-71600000D01*
X162195226Y-71501898D01*
X162235000Y-71301939D01*
X162235000Y-71098061D01*
X162195226Y-70898102D01*
X162163977Y-70822660D01*
X162301898Y-70795226D01*
X162490256Y-70717205D01*
X162659774Y-70603937D01*
X162803937Y-70459774D01*
X162911989Y-70298061D01*
X170465000Y-70298061D01*
X170465000Y-70501939D01*
X170504774Y-70701898D01*
X170582795Y-70890256D01*
X170696063Y-71059774D01*
X170840226Y-71203937D01*
X171009744Y-71317205D01*
X171186418Y-71390386D01*
X171165000Y-71498061D01*
X171165000Y-71701939D01*
X171204774Y-71901898D01*
X171282795Y-72090256D01*
X171396063Y-72259774D01*
X171540226Y-72403937D01*
X171709744Y-72517205D01*
X171898102Y-72595226D01*
X172098061Y-72635000D01*
X172301939Y-72635000D01*
X172501898Y-72595226D01*
X172690256Y-72517205D01*
X172859774Y-72403937D01*
X173003937Y-72259774D01*
X173117205Y-72090256D01*
X173195226Y-71901898D01*
X173235000Y-71701939D01*
X173235000Y-71498061D01*
X173195226Y-71298102D01*
X173117205Y-71109744D01*
X173067263Y-71035000D01*
X173101939Y-71035000D01*
X173301898Y-70995226D01*
X173490256Y-70917205D01*
X173659774Y-70803937D01*
X173803937Y-70659774D01*
X173911989Y-70498061D01*
X179765000Y-70498061D01*
X179765000Y-70701939D01*
X179804774Y-70901898D01*
X179882795Y-71090256D01*
X179996063Y-71259774D01*
X180140226Y-71403937D01*
X180309744Y-71517205D01*
X180498102Y-71595226D01*
X180698061Y-71635000D01*
X180901939Y-71635000D01*
X181101898Y-71595226D01*
X181290256Y-71517205D01*
X181459774Y-71403937D01*
X181603937Y-71259774D01*
X181678581Y-71148061D01*
X191665000Y-71148061D01*
X191665000Y-71351939D01*
X191704774Y-71551898D01*
X191782795Y-71740256D01*
X191896063Y-71909774D01*
X192040226Y-72053937D01*
X192209744Y-72167205D01*
X192398102Y-72245226D01*
X192598061Y-72285000D01*
X192801939Y-72285000D01*
X193001898Y-72245226D01*
X193190256Y-72167205D01*
X193359774Y-72053937D01*
X193503937Y-71909774D01*
X193617205Y-71740256D01*
X193695226Y-71551898D01*
X193735000Y-71351939D01*
X193735000Y-71148061D01*
X193695226Y-70948102D01*
X193617205Y-70759744D01*
X193503937Y-70590226D01*
X193359774Y-70446063D01*
X193190256Y-70332795D01*
X193001898Y-70254774D01*
X192801939Y-70215000D01*
X192598061Y-70215000D01*
X192398102Y-70254774D01*
X192209744Y-70332795D01*
X192040226Y-70446063D01*
X191896063Y-70590226D01*
X191782795Y-70759744D01*
X191704774Y-70948102D01*
X191665000Y-71148061D01*
X181678581Y-71148061D01*
X181717205Y-71090256D01*
X181795226Y-70901898D01*
X181835000Y-70701939D01*
X181835000Y-70498061D01*
X181795226Y-70298102D01*
X181752090Y-70193964D01*
X181796063Y-70259774D01*
X181940226Y-70403937D01*
X182109744Y-70517205D01*
X182298102Y-70595226D01*
X182498061Y-70635000D01*
X182701939Y-70635000D01*
X182901898Y-70595226D01*
X182912223Y-70590949D01*
X182919463Y-70604494D01*
X182998815Y-70701185D01*
X183095506Y-70780537D01*
X183205820Y-70839502D01*
X183325518Y-70875812D01*
X183450000Y-70888072D01*
X183914250Y-70885000D01*
X184073000Y-70726250D01*
X184073000Y-69627000D01*
X184327000Y-69627000D01*
X184327000Y-70726250D01*
X184485750Y-70885000D01*
X184950000Y-70888072D01*
X185074482Y-70875812D01*
X185194180Y-70839502D01*
X185304494Y-70780537D01*
X185401185Y-70701185D01*
X185480537Y-70604494D01*
X185539502Y-70494180D01*
X185575812Y-70374482D01*
X185588072Y-70250000D01*
X185585000Y-69785750D01*
X185426250Y-69627000D01*
X184327000Y-69627000D01*
X184073000Y-69627000D01*
X184053000Y-69627000D01*
X184053000Y-69373000D01*
X184073000Y-69373000D01*
X184073000Y-69353000D01*
X184327000Y-69353000D01*
X184327000Y-69373000D01*
X185426250Y-69373000D01*
X185585000Y-69214250D01*
X185588072Y-68750000D01*
X185575812Y-68625518D01*
X185539502Y-68505820D01*
X185480537Y-68395506D01*
X185401185Y-68298815D01*
X185304494Y-68219463D01*
X185194180Y-68160498D01*
X185074482Y-68124188D01*
X184966517Y-68113555D01*
X185082886Y-68035799D01*
X185275799Y-67842886D01*
X185427371Y-67616043D01*
X185531775Y-67363989D01*
X185585000Y-67096411D01*
X185585000Y-66823589D01*
X185531775Y-66556011D01*
X185427371Y-66303957D01*
X185275799Y-66077114D01*
X185082886Y-65884201D01*
X184856043Y-65732629D01*
X184753127Y-65690000D01*
X184856043Y-65647371D01*
X185082886Y-65495799D01*
X185275799Y-65302886D01*
X185427371Y-65076043D01*
X185531775Y-64823989D01*
X185585000Y-64556411D01*
X185585000Y-64283589D01*
X185555444Y-64135000D01*
X185601939Y-64135000D01*
X185801898Y-64095226D01*
X185990256Y-64017205D01*
X186159774Y-63903937D01*
X186303937Y-63759774D01*
X186417205Y-63590256D01*
X186495226Y-63401898D01*
X186535000Y-63201939D01*
X186535000Y-62998061D01*
X186495226Y-62798102D01*
X186417205Y-62609744D01*
X186303937Y-62440226D01*
X186159774Y-62296063D01*
X185990256Y-62182795D01*
X185801898Y-62104774D01*
X185601939Y-62065000D01*
X185575335Y-62065000D01*
X185585000Y-62016411D01*
X185585000Y-61743589D01*
X185531775Y-61476011D01*
X185427371Y-61223957D01*
X185275799Y-60997114D01*
X185082886Y-60804201D01*
X184856043Y-60652629D01*
X184603989Y-60548225D01*
X184336411Y-60495000D01*
X184063589Y-60495000D01*
X183796011Y-60548225D01*
X183543957Y-60652629D01*
X183317114Y-60804201D01*
X183124201Y-60997114D01*
X182972629Y-61223957D01*
X182868225Y-61476011D01*
X182815000Y-61743589D01*
X182815000Y-62016411D01*
X182868225Y-62283989D01*
X182972629Y-62536043D01*
X183124201Y-62762886D01*
X183317114Y-62955799D01*
X183543957Y-63107371D01*
X183646873Y-63150000D01*
X183543957Y-63192629D01*
X183317114Y-63344201D01*
X183124201Y-63537114D01*
X182972629Y-63763957D01*
X182914141Y-63905159D01*
X182803937Y-63740226D01*
X182659774Y-63596063D01*
X182490256Y-63482795D01*
X182301898Y-63404774D01*
X182101939Y-63365000D01*
X181898061Y-63365000D01*
X181698102Y-63404774D01*
X181509744Y-63482795D01*
X181340226Y-63596063D01*
X181196063Y-63740226D01*
X181082795Y-63909744D01*
X181004774Y-64098102D01*
X180965000Y-64298061D01*
X180965000Y-64501939D01*
X181004774Y-64701898D01*
X181082795Y-64890256D01*
X181196063Y-65059774D01*
X181340226Y-65203937D01*
X181509744Y-65317205D01*
X181698102Y-65395226D01*
X181898061Y-65435000D01*
X182101939Y-65435000D01*
X182301898Y-65395226D01*
X182490256Y-65317205D01*
X182659774Y-65203937D01*
X182803937Y-65059774D01*
X182903913Y-64910148D01*
X182972629Y-65076043D01*
X183124201Y-65302886D01*
X183317114Y-65495799D01*
X183543957Y-65647371D01*
X183646873Y-65690000D01*
X183543957Y-65732629D01*
X183317114Y-65884201D01*
X183124201Y-66077114D01*
X182972629Y-66303957D01*
X182868225Y-66556011D01*
X182815000Y-66823589D01*
X182815000Y-67096411D01*
X182868225Y-67363989D01*
X182972629Y-67616043D01*
X183124201Y-67842886D01*
X183317114Y-68035799D01*
X183433483Y-68113555D01*
X183325518Y-68124188D01*
X183205820Y-68160498D01*
X183095506Y-68219463D01*
X182998815Y-68298815D01*
X182919463Y-68395506D01*
X182860498Y-68505820D01*
X182834545Y-68591377D01*
X182701939Y-68565000D01*
X182498061Y-68565000D01*
X182298102Y-68604774D01*
X182109744Y-68682795D01*
X181940226Y-68796063D01*
X181796063Y-68940226D01*
X181682795Y-69109744D01*
X181604774Y-69298102D01*
X181565000Y-69498061D01*
X181565000Y-69701939D01*
X181604774Y-69901898D01*
X181647910Y-70006036D01*
X181603937Y-69940226D01*
X181459774Y-69796063D01*
X181290256Y-69682795D01*
X181101898Y-69604774D01*
X180901939Y-69565000D01*
X180698061Y-69565000D01*
X180498102Y-69604774D01*
X180309744Y-69682795D01*
X180140226Y-69796063D01*
X179996063Y-69940226D01*
X179882795Y-70109744D01*
X179804774Y-70298102D01*
X179765000Y-70498061D01*
X173911989Y-70498061D01*
X173917205Y-70490256D01*
X173995226Y-70301898D01*
X174035000Y-70101939D01*
X174035000Y-69898061D01*
X173995226Y-69698102D01*
X173917205Y-69509744D01*
X173803937Y-69340226D01*
X173659774Y-69196063D01*
X173490256Y-69082795D01*
X173301898Y-69004774D01*
X173101939Y-68965000D01*
X172987308Y-68965000D01*
X172903937Y-68840226D01*
X172759774Y-68696063D01*
X172590256Y-68582795D01*
X172401898Y-68504774D01*
X172201939Y-68465000D01*
X171998061Y-68465000D01*
X171798102Y-68504774D01*
X171609744Y-68582795D01*
X171440226Y-68696063D01*
X171296063Y-68840226D01*
X171182795Y-69009744D01*
X171104774Y-69198102D01*
X171065000Y-69398061D01*
X171065000Y-69459907D01*
X171009744Y-69482795D01*
X170840226Y-69596063D01*
X170696063Y-69740226D01*
X170582795Y-69909744D01*
X170504774Y-70098102D01*
X170465000Y-70298061D01*
X162911989Y-70298061D01*
X162917205Y-70290256D01*
X162995226Y-70101898D01*
X163035000Y-69901939D01*
X163035000Y-69698061D01*
X162995226Y-69498102D01*
X162917205Y-69309744D01*
X162910694Y-69300000D01*
X162917205Y-69290256D01*
X162995226Y-69101898D01*
X163035000Y-68901939D01*
X163035000Y-68698061D01*
X162995226Y-68498102D01*
X162917205Y-68309744D01*
X162910694Y-68300000D01*
X162917205Y-68290256D01*
X162995226Y-68101898D01*
X163035000Y-67901939D01*
X163035000Y-67698061D01*
X162995226Y-67498102D01*
X162954591Y-67400000D01*
X162995226Y-67301898D01*
X163035000Y-67101939D01*
X163035000Y-66898061D01*
X162995226Y-66698102D01*
X162917205Y-66509744D01*
X162803937Y-66340226D01*
X162659774Y-66196063D01*
X162490256Y-66082795D01*
X162301898Y-66004774D01*
X162101939Y-65965000D01*
X161898061Y-65965000D01*
X161698102Y-66004774D01*
X161509744Y-66082795D01*
X161340226Y-66196063D01*
X161196063Y-66340226D01*
X161082795Y-66509744D01*
X161004774Y-66698102D01*
X160965000Y-66898061D01*
X160965000Y-67101939D01*
X161004774Y-67301898D01*
X161045409Y-67400000D01*
X161004774Y-67498102D01*
X160965000Y-67698061D01*
X160965000Y-67901939D01*
X161004774Y-68101898D01*
X161082795Y-68290256D01*
X161089306Y-68300000D01*
X161082795Y-68309744D01*
X161004774Y-68498102D01*
X160965000Y-68698061D01*
X160965000Y-68901939D01*
X161004774Y-69101898D01*
X161036023Y-69177340D01*
X160898102Y-69204774D01*
X160709744Y-69282795D01*
X160540226Y-69396063D01*
X160396063Y-69540226D01*
X160282795Y-69709744D01*
X160204774Y-69898102D01*
X160165000Y-70098061D01*
X155311989Y-70098061D01*
X155317205Y-70090256D01*
X155395226Y-69901898D01*
X155435000Y-69701939D01*
X155435000Y-69498061D01*
X155395226Y-69298102D01*
X155354591Y-69200000D01*
X155395226Y-69101898D01*
X155435000Y-68901939D01*
X155435000Y-68698061D01*
X155395226Y-68498102D01*
X155354591Y-68400000D01*
X155395226Y-68301898D01*
X155415880Y-68198061D01*
X155865000Y-68198061D01*
X155865000Y-68401939D01*
X155904774Y-68601898D01*
X155982795Y-68790256D01*
X156096063Y-68959774D01*
X156240226Y-69103937D01*
X156409744Y-69217205D01*
X156598102Y-69295226D01*
X156798061Y-69335000D01*
X157001939Y-69335000D01*
X157201898Y-69295226D01*
X157390256Y-69217205D01*
X157559774Y-69103937D01*
X157703937Y-68959774D01*
X157817205Y-68790256D01*
X157895226Y-68601898D01*
X157935000Y-68401939D01*
X157935000Y-68198061D01*
X157895226Y-67998102D01*
X157817205Y-67809744D01*
X157703937Y-67640226D01*
X157559774Y-67496063D01*
X157390256Y-67382795D01*
X157201898Y-67304774D01*
X157001939Y-67265000D01*
X156798061Y-67265000D01*
X156598102Y-67304774D01*
X156409744Y-67382795D01*
X156240226Y-67496063D01*
X156096063Y-67640226D01*
X155982795Y-67809744D01*
X155904774Y-67998102D01*
X155865000Y-68198061D01*
X155415880Y-68198061D01*
X155435000Y-68101939D01*
X155435000Y-67898061D01*
X155395226Y-67698102D01*
X155317205Y-67509744D01*
X155203937Y-67340226D01*
X155059774Y-67196063D01*
X154890256Y-67082795D01*
X154701898Y-67004774D01*
X154501939Y-66965000D01*
X154298061Y-66965000D01*
X154098102Y-67004774D01*
X153909744Y-67082795D01*
X153740226Y-67196063D01*
X153596063Y-67340226D01*
X153482795Y-67509744D01*
X153404774Y-67698102D01*
X153365000Y-67898061D01*
X152835000Y-67898061D01*
X152795226Y-67698102D01*
X152717205Y-67509744D01*
X152603937Y-67340226D01*
X152459774Y-67196063D01*
X152290256Y-67082795D01*
X152101898Y-67004774D01*
X151901939Y-66965000D01*
X151698061Y-66965000D01*
X151498102Y-67004774D01*
X151309744Y-67082795D01*
X151140226Y-67196063D01*
X150996063Y-67340226D01*
X150882795Y-67509744D01*
X150804774Y-67698102D01*
X150765000Y-67898061D01*
X150113104Y-67898061D01*
X150090256Y-67882795D01*
X149901898Y-67804774D01*
X149701939Y-67765000D01*
X149498061Y-67765000D01*
X149298102Y-67804774D01*
X149109744Y-67882795D01*
X148940226Y-67996063D01*
X148796063Y-68140226D01*
X148682795Y-68309744D01*
X148604774Y-68498102D01*
X148565000Y-68698061D01*
X147325174Y-68698061D01*
X147328998Y-64441599D01*
X147401467Y-64616554D01*
X147821161Y-65244670D01*
X148355330Y-65778839D01*
X148983446Y-66198533D01*
X149681372Y-66487623D01*
X150422285Y-66635000D01*
X151177715Y-66635000D01*
X151918628Y-66487623D01*
X152616554Y-66198533D01*
X153244670Y-65778839D01*
X153778839Y-65244670D01*
X154198533Y-64616554D01*
X154371878Y-64198061D01*
X164365000Y-64198061D01*
X164365000Y-64401939D01*
X164404774Y-64601898D01*
X164482795Y-64790256D01*
X164596063Y-64959774D01*
X164740226Y-65103937D01*
X164909744Y-65217205D01*
X165098102Y-65295226D01*
X165298061Y-65335000D01*
X165501939Y-65335000D01*
X165701898Y-65295226D01*
X165890256Y-65217205D01*
X166059774Y-65103937D01*
X166065650Y-65098061D01*
X166465000Y-65098061D01*
X166465000Y-65301939D01*
X166504774Y-65501898D01*
X166582795Y-65690256D01*
X166696063Y-65859774D01*
X166840226Y-66003937D01*
X167009744Y-66117205D01*
X167198102Y-66195226D01*
X167398061Y-66235000D01*
X167601939Y-66235000D01*
X167801898Y-66195226D01*
X167990256Y-66117205D01*
X168159774Y-66003937D01*
X168303937Y-65859774D01*
X168417205Y-65690256D01*
X168495226Y-65501898D01*
X168535000Y-65301939D01*
X168535000Y-65098061D01*
X168495226Y-64898102D01*
X168417205Y-64709744D01*
X168303937Y-64540226D01*
X168159774Y-64396063D01*
X167990256Y-64282795D01*
X167801898Y-64204774D01*
X167601939Y-64165000D01*
X167398061Y-64165000D01*
X167198102Y-64204774D01*
X167009744Y-64282795D01*
X166840226Y-64396063D01*
X166696063Y-64540226D01*
X166582795Y-64709744D01*
X166504774Y-64898102D01*
X166465000Y-65098061D01*
X166065650Y-65098061D01*
X166203937Y-64959774D01*
X166317205Y-64790256D01*
X166395226Y-64601898D01*
X166435000Y-64401939D01*
X166435000Y-64198061D01*
X166395226Y-63998102D01*
X166317205Y-63809744D01*
X166203937Y-63640226D01*
X166101783Y-63538072D01*
X166820001Y-63538072D01*
X166993255Y-63521008D01*
X167159851Y-63470472D01*
X167313387Y-63388405D01*
X167447962Y-63277962D01*
X167558405Y-63143387D01*
X167616934Y-63033886D01*
X167670655Y-63099345D01*
X167899822Y-63287417D01*
X168161276Y-63427166D01*
X168444969Y-63513224D01*
X168447144Y-63513438D01*
X168382795Y-63609744D01*
X168304774Y-63798102D01*
X168265000Y-63998061D01*
X168265000Y-64201939D01*
X168304774Y-64401898D01*
X168382795Y-64590256D01*
X168496063Y-64759774D01*
X168640226Y-64903937D01*
X168809744Y-65017205D01*
X168998102Y-65095226D01*
X169198061Y-65135000D01*
X169401939Y-65135000D01*
X169542492Y-65107042D01*
X169504774Y-65198102D01*
X169465000Y-65398061D01*
X169465000Y-65601939D01*
X169504774Y-65801898D01*
X169582795Y-65990256D01*
X169696063Y-66159774D01*
X169840226Y-66303937D01*
X170009744Y-66417205D01*
X170198102Y-66495226D01*
X170398061Y-66535000D01*
X170601939Y-66535000D01*
X170801898Y-66495226D01*
X170990256Y-66417205D01*
X171159774Y-66303937D01*
X171303937Y-66159774D01*
X171417205Y-65990256D01*
X171495226Y-65801898D01*
X171535000Y-65601939D01*
X171535000Y-65398061D01*
X171495226Y-65198102D01*
X171417205Y-65009744D01*
X171303937Y-64840226D01*
X171159774Y-64696063D01*
X170990256Y-64582795D01*
X170801898Y-64504774D01*
X170601939Y-64465000D01*
X170398061Y-64465000D01*
X170257508Y-64492958D01*
X170295226Y-64401898D01*
X170335000Y-64201939D01*
X170335000Y-63998061D01*
X170295226Y-63798102D01*
X170217205Y-63609744D01*
X170103937Y-63440226D01*
X169959774Y-63296063D01*
X169790256Y-63182795D01*
X169735366Y-63160058D01*
X169809345Y-63099345D01*
X169997417Y-62870179D01*
X170137166Y-62608724D01*
X170223224Y-62325031D01*
X170225880Y-62298061D01*
X170665000Y-62298061D01*
X170665000Y-62501939D01*
X170704774Y-62701898D01*
X170782795Y-62890256D01*
X170896063Y-63059774D01*
X171040226Y-63203937D01*
X171209744Y-63317205D01*
X171398102Y-63395226D01*
X171598061Y-63435000D01*
X171801939Y-63435000D01*
X172001898Y-63395226D01*
X172190256Y-63317205D01*
X172359774Y-63203937D01*
X172503937Y-63059774D01*
X172617205Y-62890256D01*
X172695226Y-62701898D01*
X172735000Y-62501939D01*
X172735000Y-62298061D01*
X172695226Y-62098102D01*
X172617205Y-61909744D01*
X172503937Y-61740226D01*
X172359774Y-61596063D01*
X172190256Y-61482795D01*
X172001898Y-61404774D01*
X171801939Y-61365000D01*
X171598061Y-61365000D01*
X171398102Y-61404774D01*
X171209744Y-61482795D01*
X171040226Y-61596063D01*
X170896063Y-61740226D01*
X170782795Y-61909744D01*
X170704774Y-62098102D01*
X170665000Y-62298061D01*
X170225880Y-62298061D01*
X170245000Y-62103935D01*
X170245000Y-61496064D01*
X170223224Y-61274968D01*
X170137166Y-60991275D01*
X169997417Y-60729821D01*
X169809345Y-60500655D01*
X169580178Y-60312583D01*
X169365921Y-60198061D01*
X171165000Y-60198061D01*
X171165000Y-60401939D01*
X171204774Y-60601898D01*
X171282795Y-60790256D01*
X171396063Y-60959774D01*
X171540226Y-61103937D01*
X171709744Y-61217205D01*
X171898102Y-61295226D01*
X172098061Y-61335000D01*
X172301939Y-61335000D01*
X172501898Y-61295226D01*
X172690256Y-61217205D01*
X172859774Y-61103937D01*
X173003937Y-60959774D01*
X173043877Y-60899999D01*
X174241928Y-60899999D01*
X174241928Y-62600001D01*
X174258992Y-62773255D01*
X174309528Y-62939851D01*
X174391595Y-63093387D01*
X174502038Y-63227962D01*
X174636613Y-63338405D01*
X174790149Y-63420472D01*
X174956745Y-63471008D01*
X175129999Y-63488072D01*
X176370001Y-63488072D01*
X176543255Y-63471008D01*
X176709851Y-63420472D01*
X176863387Y-63338405D01*
X176997962Y-63227962D01*
X177108405Y-63093387D01*
X177166934Y-62983886D01*
X177220655Y-63049345D01*
X177449822Y-63237417D01*
X177711276Y-63377166D01*
X177994969Y-63463224D01*
X178290000Y-63492282D01*
X178585032Y-63463224D01*
X178868725Y-63377166D01*
X179130179Y-63237417D01*
X179359345Y-63049345D01*
X179547417Y-62820179D01*
X179687166Y-62558724D01*
X179773224Y-62275031D01*
X179795000Y-62053935D01*
X179795000Y-61446064D01*
X179773224Y-61224968D01*
X179687166Y-60941275D01*
X179610618Y-60798061D01*
X180465000Y-60798061D01*
X180465000Y-61001939D01*
X180504774Y-61201898D01*
X180582795Y-61390256D01*
X180696063Y-61559774D01*
X180840226Y-61703937D01*
X181009744Y-61817205D01*
X181198102Y-61895226D01*
X181398061Y-61935000D01*
X181601939Y-61935000D01*
X181801898Y-61895226D01*
X181990256Y-61817205D01*
X182159774Y-61703937D01*
X182303937Y-61559774D01*
X182417205Y-61390256D01*
X182495226Y-61201898D01*
X182535000Y-61001939D01*
X182535000Y-60798061D01*
X182495226Y-60598102D01*
X182417205Y-60409744D01*
X182303937Y-60240226D01*
X182159774Y-60096063D01*
X181990256Y-59982795D01*
X181801898Y-59904774D01*
X181601939Y-59865000D01*
X181398061Y-59865000D01*
X181198102Y-59904774D01*
X181009744Y-59982795D01*
X180840226Y-60096063D01*
X180696063Y-60240226D01*
X180582795Y-60409744D01*
X180504774Y-60598102D01*
X180465000Y-60798061D01*
X179610618Y-60798061D01*
X179547417Y-60679821D01*
X179359345Y-60450655D01*
X179130178Y-60262583D01*
X178868724Y-60122834D01*
X178585031Y-60036776D01*
X178290000Y-60007718D01*
X177994968Y-60036776D01*
X177711275Y-60122834D01*
X177449821Y-60262583D01*
X177220655Y-60450655D01*
X177166935Y-60516114D01*
X177108405Y-60406613D01*
X176997962Y-60272038D01*
X176863387Y-60161595D01*
X176709851Y-60079528D01*
X176543255Y-60028992D01*
X176370001Y-60011928D01*
X175129999Y-60011928D01*
X174956745Y-60028992D01*
X174790149Y-60079528D01*
X174636613Y-60161595D01*
X174502038Y-60272038D01*
X174391595Y-60406613D01*
X174309528Y-60560149D01*
X174258992Y-60726745D01*
X174241928Y-60899999D01*
X173043877Y-60899999D01*
X173117205Y-60790256D01*
X173195226Y-60601898D01*
X173235000Y-60401939D01*
X173235000Y-60198061D01*
X173195226Y-59998102D01*
X173117205Y-59809744D01*
X173003937Y-59640226D01*
X172859774Y-59496063D01*
X172690256Y-59382795D01*
X172501898Y-59304774D01*
X172301939Y-59265000D01*
X172098061Y-59265000D01*
X171898102Y-59304774D01*
X171709744Y-59382795D01*
X171540226Y-59496063D01*
X171396063Y-59640226D01*
X171282795Y-59809744D01*
X171204774Y-59998102D01*
X171165000Y-60198061D01*
X169365921Y-60198061D01*
X169318724Y-60172834D01*
X169035031Y-60086776D01*
X168740000Y-60057718D01*
X168444968Y-60086776D01*
X168161275Y-60172834D01*
X167899821Y-60312583D01*
X167670655Y-60500655D01*
X167616935Y-60566114D01*
X167558405Y-60456613D01*
X167447962Y-60322038D01*
X167313387Y-60211595D01*
X167159851Y-60129528D01*
X166993255Y-60078992D01*
X166820001Y-60061928D01*
X165579999Y-60061928D01*
X165406745Y-60078992D01*
X165240149Y-60129528D01*
X165086613Y-60211595D01*
X164952038Y-60322038D01*
X164841595Y-60456613D01*
X164759528Y-60610149D01*
X164708992Y-60776745D01*
X164691928Y-60949999D01*
X164691928Y-62650001D01*
X164708992Y-62823255D01*
X164759528Y-62989851D01*
X164841595Y-63143387D01*
X164952038Y-63277962D01*
X165022744Y-63335989D01*
X164909744Y-63382795D01*
X164740226Y-63496063D01*
X164596063Y-63640226D01*
X164482795Y-63809744D01*
X164404774Y-63998102D01*
X164365000Y-64198061D01*
X154371878Y-64198061D01*
X154487623Y-63918628D01*
X154635000Y-63177715D01*
X154635000Y-62422285D01*
X154487623Y-61681372D01*
X154198533Y-60983446D01*
X153778839Y-60355330D01*
X153244670Y-59821161D01*
X153210099Y-59798061D01*
X154765000Y-59798061D01*
X154765000Y-60001939D01*
X154804774Y-60201898D01*
X154882795Y-60390256D01*
X154996063Y-60559774D01*
X155140226Y-60703937D01*
X155309744Y-60817205D01*
X155498102Y-60895226D01*
X155698061Y-60935000D01*
X155901939Y-60935000D01*
X156101898Y-60895226D01*
X156290256Y-60817205D01*
X156459774Y-60703937D01*
X156603937Y-60559774D01*
X156717205Y-60390256D01*
X156795226Y-60201898D01*
X156835000Y-60001939D01*
X156835000Y-59798061D01*
X156795226Y-59598102D01*
X156717205Y-59409744D01*
X156603937Y-59240226D01*
X156459774Y-59096063D01*
X156290256Y-58982795D01*
X156101898Y-58904774D01*
X155901939Y-58865000D01*
X155698061Y-58865000D01*
X155498102Y-58904774D01*
X155309744Y-58982795D01*
X155140226Y-59096063D01*
X154996063Y-59240226D01*
X154882795Y-59409744D01*
X154804774Y-59598102D01*
X154765000Y-59798061D01*
X153210099Y-59798061D01*
X152616554Y-59401467D01*
X151918628Y-59112377D01*
X151177715Y-58965000D01*
X150422285Y-58965000D01*
X149806351Y-59087517D01*
X150107896Y-58967110D01*
X150818736Y-58825498D01*
X151052827Y-58808032D01*
X151180971Y-58786549D01*
X151184244Y-58785356D01*
X158836150Y-58800139D01*
M02*
