M48
; DRILL file {KiCad 5.1.5+dfsg1-2build2} date Wed 08 Sep 2021 10:06:42
; FORMAT={-:-/ absolute / metric / decimal}
; #@! TF.CreationDate,2021-09-08T10:06:42+12:00
; #@! TF.GenerationSoftware,Kicad,Pcbnew,5.1.5+dfsg1-2build2
FMAT,2
METRIC
T1C0.200
T2C0.400
T3C0.500
T4C0.800
T5C1.200
T6C3.200
T7C0.900
%
G90
G05
T1
X158.06Y-71.408
X158.06Y-72.588
X159.24Y-71.408
X159.24Y-72.588
T2
X149.238Y-67.5
X149.238Y-70.0
X149.238Y-72.5
X149.238Y-75.0
X149.238Y-77.5
X150.0Y-92.5
X152.146Y-78.994
X152.4Y-74.168
X152.5Y-66.802
X152.5Y-92.5
X153.162Y-70.866
X154.0Y-75.0
X154.0Y-76.0
X154.0Y-77.0
X154.4Y-68.0
X154.4Y-68.8
X154.4Y-69.6
X154.4Y-71.2
X154.4Y-72.2
X154.48Y-74.19
X154.48Y-77.8
X154.6Y-88.4
X155.0Y-60.0
X155.0Y-92.5
X155.0Y-95.0
X155.0Y-100.0
X155.51Y-77.91
X156.0Y-88.4
X156.6Y-83.4
X156.6Y-87.6
X156.9Y-68.3
X157.5Y-92.5
X157.5Y-95.0
X157.5Y-97.5
X157.5Y-100.0
X158.2Y-80.4
X159.4Y-82.6
X160.0Y-92.5
X160.0Y-95.0
X160.0Y-97.5
X160.0Y-100.0
X160.6Y-80.2
X161.2Y-70.2
X161.2Y-71.2
X161.2Y-72.0
X161.2Y-72.8
X161.6Y-74.0
X161.8Y-92.2
X162.0Y-67.0
X162.0Y-67.8
X162.0Y-68.8
X162.0Y-69.8
X162.4Y-80.2
X162.5Y-97.5
X162.5Y-100.0
X162.6Y-75.2
X163.0Y-95.0
X163.2Y-88.6
X163.2Y-89.9
X163.4Y-74.4
X164.4Y-74.4
X164.82Y-97.51
X165.0Y-65.0
X165.0Y-100.0
X165.8Y-90.6
X165.8Y-95.2
X166.3Y-94.2
X166.8Y-91.4
X167.5Y-65.0
X167.5Y-95.0
X167.5Y-97.5
X167.5Y-100.0
X170.0Y-65.0
X170.0Y-93.6
X170.0Y-95.0
X170.0Y-97.5
X170.0Y-100.0
X171.5Y-70.4
X172.1Y-69.5
X172.2Y-71.6
X172.28Y-85.76
X172.5Y-60.0
X172.5Y-62.5
X172.5Y-100.0
X173.0Y-70.0
X173.28Y-86.41
X175.0Y-100.0
X176.6Y-72.8
X176.6Y-73.6
X177.5Y-82.5
X177.5Y-85.0
X177.5Y-87.5
X177.5Y-90.0
X177.5Y-92.5
X177.5Y-100.0
X180.0Y-82.5
X180.0Y-85.0
X180.0Y-87.5
X180.0Y-90.0
X180.0Y-92.5
X180.0Y-100.0
X180.8Y-70.6
X180.8Y-75.6
X182.0Y-72.6
X182.0Y-73.6
X182.4Y-75.2
X182.5Y-60.0
X182.5Y-62.5
X182.5Y-65.0
X182.5Y-67.5
X182.5Y-82.5
X182.5Y-90.0
X182.5Y-92.5
X182.5Y-100.0
X182.6Y-69.6
X184.4Y-85.2
X184.4Y-86.2
X184.4Y-87.4
X185.0Y-72.5
X185.0Y-75.0
X185.0Y-82.5
X185.0Y-90.0
X185.0Y-92.5
X185.0Y-100.0
X185.6Y-85.2
X185.6Y-86.2
X185.6Y-87.4
X186.8Y-85.2
X186.8Y-86.2
X186.8Y-87.4
X187.5Y-60.0
X187.5Y-67.5
X187.5Y-82.5
X187.5Y-90.0
X187.5Y-92.5
X187.5Y-100.0
X189.738Y-73.152
X190.0Y-67.5
X190.0Y-70.0
X190.0Y-82.5
X190.0Y-85.0
X190.0Y-87.5
X190.0Y-90.0
X190.0Y-92.5
X190.0Y-100.0
X190.2Y-75.4
X191.8Y-73.6
X192.4Y-80.6
X192.5Y-67.5
X192.5Y-70.0
X192.5Y-82.5
X192.5Y-85.0
X192.5Y-87.5
X192.5Y-90.0
X192.5Y-92.5
X192.8Y-94.0
X193.4Y-76.2
X193.4Y-80.6
X193.8Y-94.0
T3
X188.354Y-62.992
X189.057Y-61.295
X189.057Y-64.689
X190.754Y-60.592
X190.754Y-65.392
X192.451Y-61.295
X192.451Y-64.689
X193.154Y-62.992
X148.476Y-62.738
X149.179Y-61.041
X149.179Y-64.435
X150.876Y-60.338
X150.876Y-65.138
X152.573Y-61.041
X152.573Y-64.435
X153.276Y-62.738
X148.557Y-96.855
X149.26Y-95.158
X149.26Y-98.552
X150.957Y-94.455
X150.957Y-99.255
X152.654Y-95.158
X152.654Y-98.552
X153.357Y-96.855
T4
X184.2Y-61.88
X184.2Y-64.42
X184.2Y-66.96
X184.2Y-69.5
T5
X175.75Y-61.75
X178.29Y-61.75
X166.2Y-61.8
X168.74Y-61.8
T6
X190.754Y-62.992
X150.876Y-62.738
X150.957Y-96.855
T7
X152.1Y-83.6
X152.1Y-88.0
T0
M30
