G04 #@! TF.GenerationSoftware,KiCad,Pcbnew,5.1.5+dfsg1-2build2*
G04 #@! TF.CreationDate,2022-06-24T13:23:12+12:00*
G04 #@! TF.ProjectId,bbq-monitor,6262712d-6d6f-46e6-9974-6f722e6b6963,rev?*
G04 #@! TF.SameCoordinates,Original*
G04 #@! TF.FileFunction,Copper,L4,Bot*
G04 #@! TF.FilePolarity,Positive*
%FSLAX46Y46*%
G04 Gerber Fmt 4.6, Leading zero omitted, Abs format (unit mm)*
G04 Created by KiCad (PCBNEW 5.1.5+dfsg1-2build2) date 2022-06-24 13:23:12*
%MOMM*%
%LPD*%
G04 APERTURE LIST*
%ADD10C,3.000000*%
%ADD11C,0.100000*%
%ADD12C,0.500000*%
%ADD13C,0.800000*%
%ADD14C,0.800000*%
%ADD15C,0.400000*%
%ADD16C,0.200000*%
%ADD17C,0.650000*%
G04 APERTURE END LIST*
D10*
X207137000Y-96534600D03*
X207137000Y-101534600D03*
X167533320Y-96891480D03*
X167533320Y-91891480D03*
G04 #@! TA.AperFunction,Conductor*
D11*
G36*
X180725904Y-103913344D02*
G01*
X180750173Y-103916944D01*
X180773971Y-103922905D01*
X180797071Y-103931170D01*
X180819249Y-103941660D01*
X180840293Y-103954273D01*
X180859998Y-103968887D01*
X180878177Y-103985363D01*
X180894653Y-104003542D01*
X180909267Y-104023247D01*
X180921880Y-104044291D01*
X180932370Y-104066469D01*
X180940635Y-104089569D01*
X180946596Y-104113367D01*
X180950196Y-104137636D01*
X180951400Y-104162140D01*
X180951400Y-105342140D01*
X180950196Y-105366644D01*
X180946596Y-105390913D01*
X180940635Y-105414711D01*
X180932370Y-105437811D01*
X180921880Y-105459989D01*
X180909267Y-105481033D01*
X180894653Y-105500738D01*
X180878177Y-105518917D01*
X180859998Y-105535393D01*
X180840293Y-105550007D01*
X180819249Y-105562620D01*
X180797071Y-105573110D01*
X180773971Y-105581375D01*
X180750173Y-105587336D01*
X180725904Y-105590936D01*
X180701400Y-105592140D01*
X179521400Y-105592140D01*
X179496896Y-105590936D01*
X179472627Y-105587336D01*
X179448829Y-105581375D01*
X179425729Y-105573110D01*
X179403551Y-105562620D01*
X179382507Y-105550007D01*
X179362802Y-105535393D01*
X179344623Y-105518917D01*
X179328147Y-105500738D01*
X179313533Y-105481033D01*
X179300920Y-105459989D01*
X179290430Y-105437811D01*
X179282165Y-105414711D01*
X179276204Y-105390913D01*
X179272604Y-105366644D01*
X179271400Y-105342140D01*
X179271400Y-104162140D01*
X179272604Y-104137636D01*
X179276204Y-104113367D01*
X179282165Y-104089569D01*
X179290430Y-104066469D01*
X179300920Y-104044291D01*
X179313533Y-104023247D01*
X179328147Y-104003542D01*
X179344623Y-103985363D01*
X179362802Y-103968887D01*
X179382507Y-103954273D01*
X179403551Y-103941660D01*
X179425729Y-103931170D01*
X179448829Y-103922905D01*
X179472627Y-103916944D01*
X179496896Y-103913344D01*
X179521400Y-103912140D01*
X180701400Y-103912140D01*
X180725904Y-103913344D01*
G37*
G04 #@! TD.AperFunction*
D12*
X179521400Y-104162140D03*
X180701400Y-104162140D03*
X179521400Y-105342140D03*
X180701400Y-105342140D03*
D13*
X186895740Y-87492840D03*
X185828940Y-86725760D03*
X188915040Y-87365840D03*
X188963300Y-85963760D03*
X187429140Y-86045040D03*
X188671200Y-84851240D03*
X187446920Y-84851240D03*
X185834020Y-84929980D03*
X188945520Y-83657440D03*
X187462160Y-83786980D03*
X185767980Y-83753960D03*
X181706520Y-77711300D03*
X181706520Y-78549500D03*
X182689500Y-78033880D03*
X175013620Y-77630020D03*
X174932340Y-78305660D03*
X194751960Y-78026260D03*
X198836280Y-77909420D03*
X198815960Y-78760320D03*
X194731640Y-78839060D03*
X174952660Y-105976420D03*
X175572420Y-110553500D03*
X182511700Y-93748860D03*
X183421020Y-93728540D03*
X177883820Y-97942400D03*
X177921920Y-98897440D03*
X181081680Y-101340920D03*
X181061360Y-102219760D03*
X187703460Y-100914200D03*
X175816260Y-105951020D03*
X177777140Y-85242400D03*
X176405540Y-84033360D03*
X190850520Y-108496100D03*
X186778900Y-97518220D03*
X186730640Y-98404680D03*
X194673220Y-110197900D03*
X196430900Y-105892600D03*
X204282040Y-104846120D03*
X204330300Y-105742740D03*
X207319880Y-85476080D03*
X208412080Y-86822280D03*
X207596740Y-92062300D03*
X207596740Y-90690700D03*
X177600000Y-89800000D03*
X178066700Y-100418900D03*
X179832000Y-100578920D03*
X171069000Y-109062520D03*
X179689760Y-112908080D03*
X180924200Y-114040920D03*
X166695120Y-85481160D03*
X168015920Y-87193120D03*
X166700200Y-80660240D03*
X168056560Y-79024480D03*
X168732200Y-111823500D03*
X199960170Y-100609205D03*
X183012080Y-80741520D03*
X172730160Y-111810800D03*
X204330300Y-86763860D03*
X205651100Y-85463380D03*
X195168520Y-112227360D03*
X195145660Y-113123980D03*
X202763120Y-112417860D03*
X202740260Y-113324640D03*
X194685920Y-108960920D03*
X184345580Y-104543860D03*
X184370980Y-105539540D03*
X177053240Y-107406440D03*
X177027840Y-108402120D03*
X176987200Y-109316520D03*
X177373280Y-106494580D03*
X177159920Y-110423960D03*
X178224180Y-110637320D03*
X174845980Y-79522320D03*
X174830740Y-80538320D03*
X175186340Y-81716880D03*
X195519040Y-105303320D03*
X202788520Y-103952040D03*
X194762120Y-107484400D03*
X185496200Y-102491540D03*
X194762120Y-106434400D03*
X190060580Y-102524560D03*
D14*
X183012080Y-90332560D02*
X183012080Y-81280000D01*
X193288725Y-100609205D02*
X183012080Y-90332560D01*
X183012080Y-81280000D02*
X182905400Y-81173320D01*
X199960170Y-100609205D02*
X193288725Y-100609205D01*
D15*
X182905400Y-81173320D02*
X183012080Y-80741520D01*
D14*
X202222835Y-103952040D02*
X202220295Y-103949500D01*
X202788520Y-103952040D02*
X202222835Y-103952040D01*
X196872860Y-103949500D02*
X195519040Y-105303320D01*
X202220295Y-103949500D02*
X196872860Y-103949500D01*
D16*
X194462120Y-107184400D02*
X194762120Y-107484400D01*
D17*
X194762120Y-107484400D02*
X190770020Y-107484400D01*
X188886320Y-107484400D02*
X186756000Y-105354080D01*
X186756000Y-105354080D02*
X186756000Y-105349000D01*
X185496200Y-104089200D02*
X185496200Y-102491540D01*
X186756000Y-105349000D02*
X185496200Y-104089200D01*
X190770020Y-107484400D02*
X188886320Y-107484400D01*
D16*
X194462120Y-106734400D02*
X194762120Y-106434400D01*
D17*
X190850520Y-104935020D02*
X190431420Y-104935020D01*
X190431420Y-104935020D02*
X190108840Y-105257600D01*
X189611000Y-105755440D02*
X188805820Y-105755440D01*
X188805820Y-105755440D02*
X188528960Y-105478580D01*
X188528960Y-105478580D02*
X188528960Y-104675940D01*
X190060580Y-103144320D02*
X190060580Y-102524560D01*
X188528960Y-104675940D02*
X190060580Y-103144320D01*
X190108840Y-105257600D02*
X189611000Y-105755440D01*
X192349900Y-106434400D02*
X190850520Y-104935020D01*
X194762120Y-106434400D02*
X192349900Y-106434400D01*
M02*
