G04 #@! TF.GenerationSoftware,KiCad,Pcbnew,5.1.5+dfsg1-2build2*
G04 #@! TF.CreationDate,2021-09-08T10:09:05+12:00*
G04 #@! TF.ProjectId,bbq-monitor,6262712d-6d6f-46e6-9974-6f722e6b6963,rev?*
G04 #@! TF.SameCoordinates,Original*
G04 #@! TF.FileFunction,Copper,L2,Inr*
G04 #@! TF.FilePolarity,Positive*
%FSLAX46Y46*%
G04 Gerber Fmt 4.6, Leading zero omitted, Abs format (unit mm)*
G04 Created by KiCad (PCBNEW 5.1.5+dfsg1-2build2) date 2021-09-08 10:09:05*
%MOMM*%
%LPD*%
G04 APERTURE LIST*
%ADD10C,0.800000*%
%ADD11C,6.400000*%
%ADD12O,1.740000X2.200000*%
%ADD13C,0.100000*%
%ADD14C,1.500000*%
%ADD15R,1.500000X1.500000*%
%ADD16C,0.500000*%
%ADD17C,0.254000*%
G04 APERTURE END LIST*
D10*
X152654000Y-95157888D03*
X150956944Y-94454944D03*
X149259888Y-95157888D03*
X148556944Y-96854944D03*
X149259888Y-98552000D03*
X150956944Y-99254944D03*
X152654000Y-98552000D03*
X153356944Y-96854944D03*
D11*
X150956944Y-96854944D03*
D10*
X152573056Y-61040944D03*
X150876000Y-60338000D03*
X149178944Y-61040944D03*
X148476000Y-62738000D03*
X149178944Y-64435056D03*
X150876000Y-65138000D03*
X152573056Y-64435056D03*
X153276000Y-62738000D03*
D11*
X150876000Y-62738000D03*
D12*
X168740000Y-61800000D03*
G04 #@! TA.AperFunction,ViaPad*
D13*
G36*
X166844505Y-60701204D02*
G01*
X166868773Y-60704804D01*
X166892572Y-60710765D01*
X166915671Y-60719030D01*
X166937850Y-60729520D01*
X166958893Y-60742132D01*
X166978599Y-60756747D01*
X166996777Y-60773223D01*
X167013253Y-60791401D01*
X167027868Y-60811107D01*
X167040480Y-60832150D01*
X167050970Y-60854329D01*
X167059235Y-60877428D01*
X167065196Y-60901227D01*
X167068796Y-60925495D01*
X167070000Y-60949999D01*
X167070000Y-62650001D01*
X167068796Y-62674505D01*
X167065196Y-62698773D01*
X167059235Y-62722572D01*
X167050970Y-62745671D01*
X167040480Y-62767850D01*
X167027868Y-62788893D01*
X167013253Y-62808599D01*
X166996777Y-62826777D01*
X166978599Y-62843253D01*
X166958893Y-62857868D01*
X166937850Y-62870480D01*
X166915671Y-62880970D01*
X166892572Y-62889235D01*
X166868773Y-62895196D01*
X166844505Y-62898796D01*
X166820001Y-62900000D01*
X165579999Y-62900000D01*
X165555495Y-62898796D01*
X165531227Y-62895196D01*
X165507428Y-62889235D01*
X165484329Y-62880970D01*
X165462150Y-62870480D01*
X165441107Y-62857868D01*
X165421401Y-62843253D01*
X165403223Y-62826777D01*
X165386747Y-62808599D01*
X165372132Y-62788893D01*
X165359520Y-62767850D01*
X165349030Y-62745671D01*
X165340765Y-62722572D01*
X165334804Y-62698773D01*
X165331204Y-62674505D01*
X165330000Y-62650001D01*
X165330000Y-60949999D01*
X165331204Y-60925495D01*
X165334804Y-60901227D01*
X165340765Y-60877428D01*
X165349030Y-60854329D01*
X165359520Y-60832150D01*
X165372132Y-60811107D01*
X165386747Y-60791401D01*
X165403223Y-60773223D01*
X165421401Y-60756747D01*
X165441107Y-60742132D01*
X165462150Y-60729520D01*
X165484329Y-60719030D01*
X165507428Y-60710765D01*
X165531227Y-60704804D01*
X165555495Y-60701204D01*
X165579999Y-60700000D01*
X166820001Y-60700000D01*
X166844505Y-60701204D01*
G37*
G04 #@! TD.AperFunction*
D11*
X190754000Y-62992000D03*
D10*
X190754000Y-60592000D03*
X192451056Y-61294944D03*
X193154000Y-62992000D03*
X192451056Y-64689056D03*
X190754000Y-65392000D03*
X189056944Y-64689056D03*
X188354000Y-62992000D03*
X189056944Y-61294944D03*
D14*
X184200000Y-61880000D03*
X184200000Y-64420000D03*
X184200000Y-66960000D03*
D15*
X184200000Y-69500000D03*
D16*
X158060000Y-72588000D03*
X158060000Y-71408000D03*
X159240000Y-72588000D03*
X159240000Y-71408000D03*
D12*
X178290000Y-61750000D03*
G04 #@! TA.AperFunction,ViaPad*
D13*
G36*
X176394505Y-60651204D02*
G01*
X176418773Y-60654804D01*
X176442572Y-60660765D01*
X176465671Y-60669030D01*
X176487850Y-60679520D01*
X176508893Y-60692132D01*
X176528599Y-60706747D01*
X176546777Y-60723223D01*
X176563253Y-60741401D01*
X176577868Y-60761107D01*
X176590480Y-60782150D01*
X176600970Y-60804329D01*
X176609235Y-60827428D01*
X176615196Y-60851227D01*
X176618796Y-60875495D01*
X176620000Y-60899999D01*
X176620000Y-62600001D01*
X176618796Y-62624505D01*
X176615196Y-62648773D01*
X176609235Y-62672572D01*
X176600970Y-62695671D01*
X176590480Y-62717850D01*
X176577868Y-62738893D01*
X176563253Y-62758599D01*
X176546777Y-62776777D01*
X176528599Y-62793253D01*
X176508893Y-62807868D01*
X176487850Y-62820480D01*
X176465671Y-62830970D01*
X176442572Y-62839235D01*
X176418773Y-62845196D01*
X176394505Y-62848796D01*
X176370001Y-62850000D01*
X175129999Y-62850000D01*
X175105495Y-62848796D01*
X175081227Y-62845196D01*
X175057428Y-62839235D01*
X175034329Y-62830970D01*
X175012150Y-62820480D01*
X174991107Y-62807868D01*
X174971401Y-62793253D01*
X174953223Y-62776777D01*
X174936747Y-62758599D01*
X174922132Y-62738893D01*
X174909520Y-62717850D01*
X174899030Y-62695671D01*
X174890765Y-62672572D01*
X174884804Y-62648773D01*
X174881204Y-62624505D01*
X174880000Y-62600001D01*
X174880000Y-60899999D01*
X174881204Y-60875495D01*
X174884804Y-60851227D01*
X174890765Y-60827428D01*
X174899030Y-60804329D01*
X174909520Y-60782150D01*
X174922132Y-60761107D01*
X174936747Y-60741401D01*
X174953223Y-60723223D01*
X174971401Y-60706747D01*
X174991107Y-60692132D01*
X175012150Y-60679520D01*
X175034329Y-60669030D01*
X175057428Y-60660765D01*
X175081227Y-60654804D01*
X175105495Y-60651204D01*
X175129999Y-60650000D01*
X176370001Y-60650000D01*
X176394505Y-60651204D01*
G37*
G04 #@! TD.AperFunction*
D10*
X166800000Y-91400000D03*
X165800000Y-90600000D03*
X185600000Y-86200000D03*
X185600000Y-85200000D03*
X186800000Y-85200000D03*
X186800000Y-86200000D03*
X186800000Y-87400000D03*
X185600000Y-87400000D03*
X184400000Y-87400000D03*
X184400000Y-86200000D03*
X184400000Y-85200000D03*
X192400000Y-80600000D03*
X193400000Y-80600000D03*
X190200000Y-75400000D03*
X192800000Y-94000000D03*
X193800000Y-94000000D03*
X170000000Y-93600000D03*
X163000000Y-95000000D03*
X163200000Y-88600000D03*
X156600000Y-87600000D03*
X162400000Y-80200000D03*
X164400000Y-74400000D03*
X163400000Y-74400000D03*
X172200000Y-71600000D03*
X173000000Y-70000000D03*
X171500000Y-70400000D03*
X154400000Y-68800000D03*
X154400000Y-69600000D03*
X156900000Y-68300000D03*
X162000000Y-67800000D03*
X162000000Y-67000000D03*
X162000000Y-68800000D03*
X162000000Y-69800000D03*
X161200000Y-70200000D03*
X154400000Y-72200000D03*
X180800000Y-70600000D03*
X163200000Y-89900000D03*
X156000000Y-88400000D03*
X154600000Y-88400000D03*
X176600000Y-72800000D03*
X176600000Y-73600000D03*
X180800000Y-75600000D03*
X161200000Y-71200000D03*
X161200000Y-72000000D03*
X161200000Y-72800000D03*
X182600000Y-69600000D03*
X172100000Y-69500000D03*
X158200000Y-80400000D03*
X159400000Y-82600000D03*
X154400000Y-71200000D03*
X154400000Y-68000000D03*
X149238000Y-67500000D03*
X152500000Y-66802000D03*
X153162000Y-70866000D03*
X149238000Y-70000000D03*
X149238000Y-72500000D03*
X152400000Y-74168000D03*
X149238000Y-75000000D03*
X149238000Y-77500000D03*
X152146000Y-78994000D03*
X164820000Y-97510000D03*
X150000000Y-92500000D03*
X152500000Y-92500000D03*
X155000000Y-92500000D03*
X157500000Y-92500000D03*
X157500000Y-95000000D03*
X155000000Y-95000000D03*
X160000000Y-92500000D03*
X160000000Y-95000000D03*
X160000000Y-97500000D03*
X157500000Y-97500000D03*
X155000000Y-100000000D03*
X157500000Y-100000000D03*
X160000000Y-100000000D03*
X162500000Y-100000000D03*
X167500000Y-100000000D03*
X165000000Y-100000000D03*
X170000000Y-100000000D03*
X172500000Y-100000000D03*
X175000000Y-100000000D03*
X177500000Y-100000000D03*
X180000000Y-100000000D03*
X182500000Y-100000000D03*
X185000000Y-100000000D03*
X187500000Y-100000000D03*
X190000000Y-100000000D03*
X162500000Y-97500000D03*
X167500000Y-97500000D03*
X170000000Y-97500000D03*
X170000000Y-95000000D03*
X167500000Y-95000000D03*
X180000000Y-85000000D03*
X180000000Y-87500000D03*
X180000000Y-90000000D03*
X180000000Y-92500000D03*
X182500000Y-92500000D03*
X185000000Y-92500000D03*
X187500000Y-92500000D03*
X190000000Y-92500000D03*
X192500000Y-92500000D03*
X192500000Y-87500000D03*
X192500000Y-85000000D03*
X192500000Y-82500000D03*
X190000000Y-82500000D03*
X187500000Y-82500000D03*
X182500000Y-82500000D03*
X185000000Y-82500000D03*
X180000000Y-82500000D03*
X192500000Y-90000000D03*
X190000000Y-90000000D03*
X187500000Y-90000000D03*
X185000000Y-90000000D03*
X182500000Y-90000000D03*
X190000000Y-87500000D03*
X190000000Y-85000000D03*
X155000000Y-60000000D03*
X172500000Y-60000000D03*
X172500000Y-62500000D03*
X170000000Y-65000000D03*
X167500000Y-65000000D03*
X165000000Y-65000000D03*
X192500000Y-70000000D03*
X192500000Y-67500000D03*
X190000000Y-67500000D03*
X187500000Y-67500000D03*
X187500000Y-60000000D03*
X182500000Y-60000000D03*
X193400000Y-76200000D03*
X182500000Y-62500000D03*
X182500000Y-65000000D03*
X182500000Y-67500000D03*
X173280000Y-86410000D03*
X172280000Y-85760000D03*
X177500000Y-92500000D03*
X177500000Y-90000000D03*
X177500000Y-87500000D03*
X177500000Y-85000000D03*
X177500000Y-82500000D03*
X185000000Y-72500000D03*
X185000000Y-75000000D03*
X190000000Y-70000000D03*
X189738000Y-73152000D03*
X182400000Y-75200000D03*
X161600000Y-74000000D03*
X165800000Y-95200000D03*
X191800000Y-73600000D03*
X182000000Y-72600000D03*
X182000000Y-73600000D03*
X160600000Y-80200000D03*
X154000000Y-75000000D03*
X154000000Y-76000000D03*
X154000000Y-77000000D03*
X162600000Y-75200000D03*
X161800000Y-92200000D03*
X154480000Y-77800000D03*
X154480000Y-74190000D03*
X155510000Y-77910000D03*
X156600000Y-83400000D03*
X166300000Y-94200000D03*
D17*
G36*
X190335282Y-58860991D02*
G01*
X190431628Y-58881440D01*
X190450114Y-58883378D01*
X191215142Y-58953448D01*
X191891794Y-59144068D01*
X192522377Y-59454806D01*
X193085771Y-59875255D01*
X193393908Y-60208399D01*
X193198670Y-60013161D01*
X192570554Y-59593467D01*
X191872628Y-59304377D01*
X191131715Y-59157000D01*
X190376285Y-59157000D01*
X189635372Y-59304377D01*
X188937446Y-59593467D01*
X188309330Y-60013161D01*
X187775161Y-60547330D01*
X187355467Y-61175446D01*
X187066377Y-61873372D01*
X186919000Y-62614285D01*
X186919000Y-63369715D01*
X187066377Y-64110628D01*
X187355467Y-64808554D01*
X187775161Y-65436670D01*
X188309330Y-65970839D01*
X188937446Y-66390533D01*
X189635372Y-66679623D01*
X190376285Y-66827000D01*
X191131715Y-66827000D01*
X191872628Y-66679623D01*
X192570554Y-66390533D01*
X193198670Y-65970839D01*
X193732839Y-65436670D01*
X194152533Y-64808554D01*
X194378089Y-64264013D01*
X194319716Y-96669182D01*
X194299290Y-96765416D01*
X194297352Y-96783903D01*
X194227282Y-97548930D01*
X194036661Y-98225584D01*
X193725925Y-98856164D01*
X193305473Y-99419561D01*
X192789395Y-99896900D01*
X192194968Y-100272201D01*
X191542101Y-100532890D01*
X190831264Y-100674502D01*
X190597173Y-100691968D01*
X190469029Y-100713451D01*
X190464777Y-100715000D01*
X150736110Y-100715000D01*
X150605071Y-100692036D01*
X150595181Y-100691355D01*
X149920243Y-100649600D01*
X149333593Y-100495257D01*
X148788095Y-100229906D01*
X148304526Y-99863654D01*
X147901305Y-99410450D01*
X147593793Y-98887564D01*
X147389968Y-98304224D01*
X147378153Y-98236316D01*
X147558411Y-98671498D01*
X147978105Y-99299614D01*
X148512274Y-99833783D01*
X149140390Y-100253477D01*
X149838316Y-100542567D01*
X150579229Y-100689944D01*
X151334659Y-100689944D01*
X152075572Y-100542567D01*
X152773498Y-100253477D01*
X153401614Y-99833783D01*
X153935783Y-99299614D01*
X154355477Y-98671498D01*
X154644567Y-97973572D01*
X154791944Y-97232659D01*
X154791944Y-96477229D01*
X154644567Y-95736316D01*
X154380194Y-95098061D01*
X164765000Y-95098061D01*
X164765000Y-95301939D01*
X164804774Y-95501898D01*
X164882795Y-95690256D01*
X164996063Y-95859774D01*
X165140226Y-96003937D01*
X165309744Y-96117205D01*
X165498102Y-96195226D01*
X165698061Y-96235000D01*
X165901939Y-96235000D01*
X166101898Y-96195226D01*
X166290256Y-96117205D01*
X166459774Y-96003937D01*
X166603937Y-95859774D01*
X166717205Y-95690256D01*
X166795226Y-95501898D01*
X166835000Y-95301939D01*
X166835000Y-95098061D01*
X166833112Y-95088570D01*
X166959774Y-95003937D01*
X167103937Y-94859774D01*
X167217205Y-94690256D01*
X167295226Y-94501898D01*
X167335000Y-94301939D01*
X167335000Y-94098061D01*
X167295226Y-93898102D01*
X167217205Y-93709744D01*
X167103937Y-93540226D01*
X166959774Y-93396063D01*
X166790256Y-93282795D01*
X166601898Y-93204774D01*
X166401939Y-93165000D01*
X166198061Y-93165000D01*
X165998102Y-93204774D01*
X165809744Y-93282795D01*
X165640226Y-93396063D01*
X165496063Y-93540226D01*
X165382795Y-93709744D01*
X165304774Y-93898102D01*
X165265000Y-94098061D01*
X165265000Y-94301939D01*
X165266888Y-94311430D01*
X165140226Y-94396063D01*
X164996063Y-94540226D01*
X164882795Y-94709744D01*
X164804774Y-94898102D01*
X164765000Y-95098061D01*
X154380194Y-95098061D01*
X154355477Y-95038390D01*
X153935783Y-94410274D01*
X153401614Y-93876105D01*
X152773498Y-93456411D01*
X152075572Y-93167321D01*
X151334659Y-93019944D01*
X150579229Y-93019944D01*
X149838316Y-93167321D01*
X149140390Y-93456411D01*
X148512274Y-93876105D01*
X147978105Y-94410274D01*
X147558411Y-95038390D01*
X147300960Y-95659934D01*
X147304158Y-92098061D01*
X160765000Y-92098061D01*
X160765000Y-92301939D01*
X160804774Y-92501898D01*
X160882795Y-92690256D01*
X160996063Y-92859774D01*
X161140226Y-93003937D01*
X161309744Y-93117205D01*
X161498102Y-93195226D01*
X161698061Y-93235000D01*
X161901939Y-93235000D01*
X162101898Y-93195226D01*
X162290256Y-93117205D01*
X162459774Y-93003937D01*
X162603937Y-92859774D01*
X162717205Y-92690256D01*
X162795226Y-92501898D01*
X162835000Y-92301939D01*
X162835000Y-92098061D01*
X162795226Y-91898102D01*
X162717205Y-91709744D01*
X162603937Y-91540226D01*
X162459774Y-91396063D01*
X162290256Y-91282795D01*
X162101898Y-91204774D01*
X161901939Y-91165000D01*
X161698061Y-91165000D01*
X161498102Y-91204774D01*
X161309744Y-91282795D01*
X161140226Y-91396063D01*
X160996063Y-91540226D01*
X160882795Y-91709744D01*
X160804774Y-91898102D01*
X160765000Y-92098061D01*
X147304158Y-92098061D01*
X147307935Y-87893137D01*
X151015000Y-87893137D01*
X151015000Y-88106863D01*
X151056696Y-88316483D01*
X151138485Y-88513940D01*
X151257225Y-88691647D01*
X151408353Y-88842775D01*
X151586060Y-88961515D01*
X151783517Y-89043304D01*
X151993137Y-89085000D01*
X152206863Y-89085000D01*
X152416483Y-89043304D01*
X152613940Y-88961515D01*
X152791647Y-88842775D01*
X152942775Y-88691647D01*
X153061515Y-88513940D01*
X153143304Y-88316483D01*
X153185000Y-88106863D01*
X153185000Y-87893137D01*
X153143304Y-87683517D01*
X153061515Y-87486060D01*
X152942775Y-87308353D01*
X152791647Y-87157225D01*
X152613940Y-87038485D01*
X152416483Y-86956696D01*
X152206863Y-86915000D01*
X151993137Y-86915000D01*
X151783517Y-86956696D01*
X151586060Y-87038485D01*
X151408353Y-87157225D01*
X151257225Y-87308353D01*
X151138485Y-87486060D01*
X151056696Y-87683517D01*
X151015000Y-87893137D01*
X147307935Y-87893137D01*
X147311886Y-83493137D01*
X151015000Y-83493137D01*
X151015000Y-83706863D01*
X151056696Y-83916483D01*
X151138485Y-84113940D01*
X151257225Y-84291647D01*
X151408353Y-84442775D01*
X151586060Y-84561515D01*
X151783517Y-84643304D01*
X151993137Y-84685000D01*
X152206863Y-84685000D01*
X152416483Y-84643304D01*
X152613940Y-84561515D01*
X152791647Y-84442775D01*
X152942775Y-84291647D01*
X153061515Y-84113940D01*
X153143304Y-83916483D01*
X153185000Y-83706863D01*
X153185000Y-83493137D01*
X153146197Y-83298061D01*
X155565000Y-83298061D01*
X155565000Y-83501939D01*
X155604774Y-83701898D01*
X155682795Y-83890256D01*
X155796063Y-84059774D01*
X155940226Y-84203937D01*
X156109744Y-84317205D01*
X156298102Y-84395226D01*
X156498061Y-84435000D01*
X156701939Y-84435000D01*
X156901898Y-84395226D01*
X157090256Y-84317205D01*
X157259774Y-84203937D01*
X157403937Y-84059774D01*
X157517205Y-83890256D01*
X157595226Y-83701898D01*
X157635000Y-83501939D01*
X157635000Y-83298061D01*
X157595226Y-83098102D01*
X157517205Y-82909744D01*
X157403937Y-82740226D01*
X157259774Y-82596063D01*
X157090256Y-82482795D01*
X156901898Y-82404774D01*
X156701939Y-82365000D01*
X156498061Y-82365000D01*
X156298102Y-82404774D01*
X156109744Y-82482795D01*
X155940226Y-82596063D01*
X155796063Y-82740226D01*
X155682795Y-82909744D01*
X155604774Y-83098102D01*
X155565000Y-83298061D01*
X153146197Y-83298061D01*
X153143304Y-83283517D01*
X153061515Y-83086060D01*
X152942775Y-82908353D01*
X152791647Y-82757225D01*
X152613940Y-82638485D01*
X152416483Y-82556696D01*
X152206863Y-82515000D01*
X151993137Y-82515000D01*
X151783517Y-82556696D01*
X151586060Y-82638485D01*
X151408353Y-82757225D01*
X151257225Y-82908353D01*
X151138485Y-83086060D01*
X151056696Y-83283517D01*
X151015000Y-83493137D01*
X147311886Y-83493137D01*
X147314935Y-80098061D01*
X159565000Y-80098061D01*
X159565000Y-80301939D01*
X159604774Y-80501898D01*
X159682795Y-80690256D01*
X159796063Y-80859774D01*
X159940226Y-81003937D01*
X160109744Y-81117205D01*
X160298102Y-81195226D01*
X160498061Y-81235000D01*
X160701939Y-81235000D01*
X160901898Y-81195226D01*
X161090256Y-81117205D01*
X161259774Y-81003937D01*
X161403937Y-80859774D01*
X161517205Y-80690256D01*
X161595226Y-80501898D01*
X161635000Y-80301939D01*
X161635000Y-80098061D01*
X161595226Y-79898102D01*
X161517205Y-79709744D01*
X161403937Y-79540226D01*
X161259774Y-79396063D01*
X161090256Y-79282795D01*
X160901898Y-79204774D01*
X160701939Y-79165000D01*
X160498061Y-79165000D01*
X160298102Y-79204774D01*
X160109744Y-79282795D01*
X159940226Y-79396063D01*
X159796063Y-79540226D01*
X159682795Y-79709744D01*
X159604774Y-79898102D01*
X159565000Y-80098061D01*
X147314935Y-80098061D01*
X147319606Y-74898061D01*
X152965000Y-74898061D01*
X152965000Y-75101939D01*
X153004774Y-75301898D01*
X153082795Y-75490256D01*
X153089306Y-75500000D01*
X153082795Y-75509744D01*
X153004774Y-75698102D01*
X152965000Y-75898061D01*
X152965000Y-76101939D01*
X153004774Y-76301898D01*
X153082795Y-76490256D01*
X153089306Y-76500000D01*
X153082795Y-76509744D01*
X153004774Y-76698102D01*
X152965000Y-76898061D01*
X152965000Y-77101939D01*
X153004774Y-77301898D01*
X153082795Y-77490256D01*
X153196063Y-77659774D01*
X153340226Y-77803937D01*
X153445000Y-77873945D01*
X153445000Y-77901939D01*
X153484774Y-78101898D01*
X153562795Y-78290256D01*
X153676063Y-78459774D01*
X153820226Y-78603937D01*
X153989744Y-78717205D01*
X154178102Y-78795226D01*
X154378061Y-78835000D01*
X154581939Y-78835000D01*
X154781898Y-78795226D01*
X154899179Y-78746646D01*
X155019744Y-78827205D01*
X155208102Y-78905226D01*
X155408061Y-78945000D01*
X155611939Y-78945000D01*
X155811898Y-78905226D01*
X156000256Y-78827205D01*
X156169774Y-78713937D01*
X156313937Y-78569774D01*
X156427205Y-78400256D01*
X156505226Y-78211898D01*
X156545000Y-78011939D01*
X156545000Y-77808061D01*
X156505226Y-77608102D01*
X156427205Y-77419744D01*
X156313937Y-77250226D01*
X156169774Y-77106063D01*
X156000256Y-76992795D01*
X155811898Y-76914774D01*
X155611939Y-76875000D01*
X155408061Y-76875000D01*
X155208102Y-76914774D01*
X155090821Y-76963354D01*
X155035000Y-76926055D01*
X155035000Y-76898061D01*
X154995226Y-76698102D01*
X154917205Y-76509744D01*
X154910694Y-76500000D01*
X154917205Y-76490256D01*
X154995226Y-76301898D01*
X155035000Y-76101939D01*
X155035000Y-75898061D01*
X154995226Y-75698102D01*
X154917205Y-75509744D01*
X154910694Y-75500000D01*
X154917205Y-75490256D01*
X154995226Y-75301898D01*
X155035000Y-75101939D01*
X155035000Y-75063945D01*
X155139774Y-74993937D01*
X155283937Y-74849774D01*
X155397205Y-74680256D01*
X155475226Y-74491898D01*
X155515000Y-74291939D01*
X155515000Y-74088061D01*
X155477207Y-73898061D01*
X160565000Y-73898061D01*
X160565000Y-74101939D01*
X160604774Y-74301898D01*
X160682795Y-74490256D01*
X160796063Y-74659774D01*
X160940226Y-74803937D01*
X161109744Y-74917205D01*
X161298102Y-74995226D01*
X161498061Y-75035000D01*
X161577544Y-75035000D01*
X161565000Y-75098061D01*
X161565000Y-75301939D01*
X161604774Y-75501898D01*
X161682795Y-75690256D01*
X161796063Y-75859774D01*
X161940226Y-76003937D01*
X162109744Y-76117205D01*
X162298102Y-76195226D01*
X162498061Y-76235000D01*
X162701939Y-76235000D01*
X162901898Y-76195226D01*
X163090256Y-76117205D01*
X163259774Y-76003937D01*
X163403937Y-75859774D01*
X163517205Y-75690256D01*
X163595226Y-75501898D01*
X163635000Y-75301939D01*
X163635000Y-75098061D01*
X163595226Y-74898102D01*
X163517205Y-74709744D01*
X163403937Y-74540226D01*
X163259774Y-74396063D01*
X163090256Y-74282795D01*
X162901898Y-74204774D01*
X162701939Y-74165000D01*
X162622456Y-74165000D01*
X162635000Y-74101939D01*
X162635000Y-73898061D01*
X162595226Y-73698102D01*
X162517205Y-73509744D01*
X162403937Y-73340226D01*
X162259774Y-73196063D01*
X162090256Y-73082795D01*
X161901898Y-73004774D01*
X161701939Y-72965000D01*
X161498061Y-72965000D01*
X161298102Y-73004774D01*
X161109744Y-73082795D01*
X160940226Y-73196063D01*
X160796063Y-73340226D01*
X160682795Y-73509744D01*
X160604774Y-73698102D01*
X160565000Y-73898061D01*
X155477207Y-73898061D01*
X155475226Y-73888102D01*
X155397205Y-73699744D01*
X155283937Y-73530226D01*
X155139774Y-73386063D01*
X154970256Y-73272795D01*
X154781898Y-73194774D01*
X154728558Y-73184164D01*
X157637784Y-73184164D01*
X157641826Y-73372827D01*
X157802974Y-73439328D01*
X157973998Y-73473113D01*
X158148328Y-73472884D01*
X158319264Y-73438649D01*
X158478174Y-73372827D01*
X158482216Y-73184164D01*
X158817784Y-73184164D01*
X158821826Y-73372827D01*
X158982974Y-73439328D01*
X159153998Y-73473113D01*
X159328328Y-73472884D01*
X159499264Y-73438649D01*
X159658174Y-73372827D01*
X159662216Y-73184164D01*
X159240000Y-72761948D01*
X158817784Y-73184164D01*
X158482216Y-73184164D01*
X158060000Y-72761948D01*
X157637784Y-73184164D01*
X154728558Y-73184164D01*
X154581939Y-73155000D01*
X154378061Y-73155000D01*
X154178102Y-73194774D01*
X153989744Y-73272795D01*
X153820226Y-73386063D01*
X153676063Y-73530226D01*
X153562795Y-73699744D01*
X153484774Y-73888102D01*
X153445000Y-74088061D01*
X153445000Y-74126055D01*
X153340226Y-74196063D01*
X153196063Y-74340226D01*
X153082795Y-74509744D01*
X153004774Y-74698102D01*
X152965000Y-74898061D01*
X147319606Y-74898061D01*
X147321758Y-72501998D01*
X157174887Y-72501998D01*
X157175116Y-72676328D01*
X157209351Y-72847264D01*
X157275173Y-73006174D01*
X157463836Y-73010216D01*
X157886052Y-72588000D01*
X157463836Y-72165784D01*
X157275173Y-72169826D01*
X157208672Y-72330974D01*
X157174887Y-72501998D01*
X147321758Y-72501998D01*
X147322215Y-71991836D01*
X157637784Y-71991836D01*
X157643948Y-71998000D01*
X157637784Y-72004164D01*
X157641826Y-72192827D01*
X157802974Y-72259328D01*
X157930460Y-72284512D01*
X158060000Y-72414052D01*
X158189392Y-72284660D01*
X158319264Y-72258649D01*
X158438982Y-72209061D01*
X158388672Y-72330974D01*
X158363488Y-72458460D01*
X158233948Y-72588000D01*
X158363340Y-72717392D01*
X158389351Y-72847264D01*
X158455173Y-73006174D01*
X158643836Y-73010216D01*
X158650000Y-73004052D01*
X158656164Y-73010216D01*
X158844827Y-73006174D01*
X158911328Y-72845026D01*
X158936512Y-72717540D01*
X159066052Y-72588000D01*
X159413948Y-72588000D01*
X159836164Y-73010216D01*
X160024827Y-73006174D01*
X160091328Y-72845026D01*
X160125113Y-72674002D01*
X160124884Y-72499672D01*
X160124562Y-72498061D01*
X180965000Y-72498061D01*
X180965000Y-72701939D01*
X181004774Y-72901898D01*
X181082795Y-73090256D01*
X181089306Y-73100000D01*
X181082795Y-73109744D01*
X181004774Y-73298102D01*
X180965000Y-73498061D01*
X180965000Y-73701939D01*
X181004774Y-73901898D01*
X181082795Y-74090256D01*
X181196063Y-74259774D01*
X181340226Y-74403937D01*
X181509744Y-74517205D01*
X181589399Y-74550199D01*
X181482795Y-74709744D01*
X181404774Y-74898102D01*
X181365000Y-75098061D01*
X181365000Y-75301939D01*
X181404774Y-75501898D01*
X181482795Y-75690256D01*
X181596063Y-75859774D01*
X181740226Y-76003937D01*
X181909744Y-76117205D01*
X182098102Y-76195226D01*
X182298061Y-76235000D01*
X182501939Y-76235000D01*
X182701898Y-76195226D01*
X182890256Y-76117205D01*
X183059774Y-76003937D01*
X183203937Y-75859774D01*
X183317205Y-75690256D01*
X183395226Y-75501898D01*
X183435000Y-75301939D01*
X183435000Y-75098061D01*
X183395226Y-74898102D01*
X183317205Y-74709744D01*
X183203937Y-74540226D01*
X183059774Y-74396063D01*
X182890256Y-74282795D01*
X182810601Y-74249801D01*
X182917205Y-74090256D01*
X182995226Y-73901898D01*
X183035000Y-73701939D01*
X183035000Y-73498061D01*
X182995226Y-73298102D01*
X182917205Y-73109744D01*
X182910694Y-73100000D01*
X182917205Y-73090256D01*
X182933854Y-73050061D01*
X188703000Y-73050061D01*
X188703000Y-73253939D01*
X188742774Y-73453898D01*
X188820795Y-73642256D01*
X188934063Y-73811774D01*
X189078226Y-73955937D01*
X189247744Y-74069205D01*
X189436102Y-74147226D01*
X189636061Y-74187000D01*
X189839939Y-74187000D01*
X190039898Y-74147226D01*
X190228256Y-74069205D01*
X190397774Y-73955937D01*
X190541937Y-73811774D01*
X190655205Y-73642256D01*
X190714932Y-73498061D01*
X190765000Y-73498061D01*
X190765000Y-73701939D01*
X190804774Y-73901898D01*
X190882795Y-74090256D01*
X190996063Y-74259774D01*
X191140226Y-74403937D01*
X191309744Y-74517205D01*
X191498102Y-74595226D01*
X191698061Y-74635000D01*
X191901939Y-74635000D01*
X192101898Y-74595226D01*
X192290256Y-74517205D01*
X192459774Y-74403937D01*
X192603937Y-74259774D01*
X192717205Y-74090256D01*
X192795226Y-73901898D01*
X192835000Y-73701939D01*
X192835000Y-73498061D01*
X192795226Y-73298102D01*
X192717205Y-73109744D01*
X192603937Y-72940226D01*
X192459774Y-72796063D01*
X192290256Y-72682795D01*
X192101898Y-72604774D01*
X191901939Y-72565000D01*
X191698061Y-72565000D01*
X191498102Y-72604774D01*
X191309744Y-72682795D01*
X191140226Y-72796063D01*
X190996063Y-72940226D01*
X190882795Y-73109744D01*
X190804774Y-73298102D01*
X190765000Y-73498061D01*
X190714932Y-73498061D01*
X190733226Y-73453898D01*
X190773000Y-73253939D01*
X190773000Y-73050061D01*
X190733226Y-72850102D01*
X190655205Y-72661744D01*
X190541937Y-72492226D01*
X190397774Y-72348063D01*
X190228256Y-72234795D01*
X190039898Y-72156774D01*
X189839939Y-72117000D01*
X189636061Y-72117000D01*
X189436102Y-72156774D01*
X189247744Y-72234795D01*
X189078226Y-72348063D01*
X188934063Y-72492226D01*
X188820795Y-72661744D01*
X188742774Y-72850102D01*
X188703000Y-73050061D01*
X182933854Y-73050061D01*
X182995226Y-72901898D01*
X183035000Y-72701939D01*
X183035000Y-72498061D01*
X182995226Y-72298102D01*
X182917205Y-72109744D01*
X182803937Y-71940226D01*
X182659774Y-71796063D01*
X182490256Y-71682795D01*
X182301898Y-71604774D01*
X182101939Y-71565000D01*
X181898061Y-71565000D01*
X181698102Y-71604774D01*
X181509744Y-71682795D01*
X181340226Y-71796063D01*
X181196063Y-71940226D01*
X181082795Y-72109744D01*
X181004774Y-72298102D01*
X180965000Y-72498061D01*
X160124562Y-72498061D01*
X160090649Y-72328736D01*
X160024827Y-72169826D01*
X159836164Y-72165784D01*
X159413948Y-72588000D01*
X159066052Y-72588000D01*
X158936660Y-72458608D01*
X158910649Y-72328736D01*
X158861061Y-72209018D01*
X158982974Y-72259328D01*
X159110460Y-72284512D01*
X159240000Y-72414052D01*
X159369392Y-72284660D01*
X159499264Y-72258649D01*
X159658174Y-72192827D01*
X159662216Y-72004164D01*
X159656052Y-71998000D01*
X159662216Y-71991836D01*
X159658174Y-71803173D01*
X159497026Y-71736672D01*
X159369540Y-71711488D01*
X159240000Y-71581948D01*
X159110608Y-71711340D01*
X158980736Y-71737351D01*
X158861018Y-71786939D01*
X158911328Y-71665026D01*
X158936512Y-71537540D01*
X159066052Y-71408000D01*
X159413948Y-71408000D01*
X159836164Y-71830216D01*
X160024827Y-71826174D01*
X160091328Y-71665026D01*
X160125113Y-71494002D01*
X160124884Y-71319672D01*
X160090649Y-71148736D01*
X160024827Y-70989826D01*
X159836164Y-70985784D01*
X159413948Y-71408000D01*
X159066052Y-71408000D01*
X158936660Y-71278608D01*
X158910649Y-71148736D01*
X158844827Y-70989826D01*
X158656164Y-70985784D01*
X158650000Y-70991948D01*
X158643836Y-70985784D01*
X158455173Y-70989826D01*
X158388672Y-71150974D01*
X158363488Y-71278460D01*
X158233948Y-71408000D01*
X158363340Y-71537392D01*
X158389351Y-71667264D01*
X158438939Y-71786982D01*
X158317026Y-71736672D01*
X158189540Y-71711488D01*
X158060000Y-71581948D01*
X157930608Y-71711340D01*
X157800736Y-71737351D01*
X157641826Y-71803173D01*
X157637784Y-71991836D01*
X147322215Y-71991836D01*
X147322817Y-71321998D01*
X157174887Y-71321998D01*
X157175116Y-71496328D01*
X157209351Y-71667264D01*
X157275173Y-71826174D01*
X157463836Y-71830216D01*
X157886052Y-71408000D01*
X157463836Y-70985784D01*
X157275173Y-70989826D01*
X157208672Y-71150974D01*
X157174887Y-71321998D01*
X147322817Y-71321998D01*
X147323275Y-70811836D01*
X157637784Y-70811836D01*
X158060000Y-71234052D01*
X158482216Y-70811836D01*
X158817784Y-70811836D01*
X159240000Y-71234052D01*
X159662216Y-70811836D01*
X159658174Y-70623173D01*
X159497026Y-70556672D01*
X159326002Y-70522887D01*
X159151672Y-70523116D01*
X158980736Y-70557351D01*
X158821826Y-70623173D01*
X158817784Y-70811836D01*
X158482216Y-70811836D01*
X158478174Y-70623173D01*
X158317026Y-70556672D01*
X158146002Y-70522887D01*
X157971672Y-70523116D01*
X157800736Y-70557351D01*
X157641826Y-70623173D01*
X157637784Y-70811836D01*
X147323275Y-70811836D01*
X147325127Y-68750000D01*
X182811928Y-68750000D01*
X182811928Y-70250000D01*
X182824188Y-70374482D01*
X182860498Y-70494180D01*
X182919463Y-70604494D01*
X182998815Y-70701185D01*
X183095506Y-70780537D01*
X183205820Y-70839502D01*
X183325518Y-70875812D01*
X183450000Y-70888072D01*
X184950000Y-70888072D01*
X185074482Y-70875812D01*
X185194180Y-70839502D01*
X185304494Y-70780537D01*
X185401185Y-70701185D01*
X185480537Y-70604494D01*
X185539502Y-70494180D01*
X185575812Y-70374482D01*
X185588072Y-70250000D01*
X185588072Y-68750000D01*
X185575812Y-68625518D01*
X185539502Y-68505820D01*
X185480537Y-68395506D01*
X185401185Y-68298815D01*
X185304494Y-68219463D01*
X185194180Y-68160498D01*
X185074482Y-68124188D01*
X184966517Y-68113555D01*
X185082886Y-68035799D01*
X185275799Y-67842886D01*
X185427371Y-67616043D01*
X185531775Y-67363989D01*
X185585000Y-67096411D01*
X185585000Y-66823589D01*
X185531775Y-66556011D01*
X185427371Y-66303957D01*
X185275799Y-66077114D01*
X185082886Y-65884201D01*
X184856043Y-65732629D01*
X184753127Y-65690000D01*
X184856043Y-65647371D01*
X185082886Y-65495799D01*
X185275799Y-65302886D01*
X185427371Y-65076043D01*
X185531775Y-64823989D01*
X185585000Y-64556411D01*
X185585000Y-64283589D01*
X185531775Y-64016011D01*
X185427371Y-63763957D01*
X185275799Y-63537114D01*
X185082886Y-63344201D01*
X184856043Y-63192629D01*
X184756721Y-63151489D01*
X184798832Y-63136277D01*
X184911863Y-63075860D01*
X184977388Y-62836993D01*
X184200000Y-62059605D01*
X183422612Y-62836993D01*
X183488137Y-63075860D01*
X183646477Y-63150164D01*
X183543957Y-63192629D01*
X183317114Y-63344201D01*
X183124201Y-63537114D01*
X182972629Y-63763957D01*
X182868225Y-64016011D01*
X182815000Y-64283589D01*
X182815000Y-64556411D01*
X182868225Y-64823989D01*
X182972629Y-65076043D01*
X183124201Y-65302886D01*
X183317114Y-65495799D01*
X183543957Y-65647371D01*
X183646873Y-65690000D01*
X183543957Y-65732629D01*
X183317114Y-65884201D01*
X183124201Y-66077114D01*
X182972629Y-66303957D01*
X182868225Y-66556011D01*
X182815000Y-66823589D01*
X182815000Y-67096411D01*
X182868225Y-67363989D01*
X182972629Y-67616043D01*
X183124201Y-67842886D01*
X183317114Y-68035799D01*
X183433483Y-68113555D01*
X183325518Y-68124188D01*
X183205820Y-68160498D01*
X183095506Y-68219463D01*
X182998815Y-68298815D01*
X182919463Y-68395506D01*
X182860498Y-68505820D01*
X182824188Y-68625518D01*
X182811928Y-68750000D01*
X147325127Y-68750000D01*
X147329218Y-64196650D01*
X147477467Y-64554554D01*
X147897161Y-65182670D01*
X148431330Y-65716839D01*
X149059446Y-66136533D01*
X149757372Y-66425623D01*
X150498285Y-66573000D01*
X151253715Y-66573000D01*
X151994628Y-66425623D01*
X152692554Y-66136533D01*
X153320670Y-65716839D01*
X153854839Y-65182670D01*
X154274533Y-64554554D01*
X154563623Y-63856628D01*
X154711000Y-63115715D01*
X154711000Y-62360285D01*
X154563623Y-61619372D01*
X154286361Y-60949999D01*
X164691928Y-60949999D01*
X164691928Y-62650001D01*
X164708992Y-62823255D01*
X164759528Y-62989851D01*
X164841595Y-63143387D01*
X164952038Y-63277962D01*
X165086613Y-63388405D01*
X165240149Y-63470472D01*
X165406745Y-63521008D01*
X165579999Y-63538072D01*
X166820001Y-63538072D01*
X166993255Y-63521008D01*
X167159851Y-63470472D01*
X167313387Y-63388405D01*
X167447962Y-63277962D01*
X167558405Y-63143387D01*
X167616507Y-63034686D01*
X167769506Y-63190536D01*
X168014563Y-63357571D01*
X168287498Y-63473588D01*
X168379969Y-63491302D01*
X168613000Y-63370246D01*
X168613000Y-61927000D01*
X168867000Y-61927000D01*
X168867000Y-63370246D01*
X169100031Y-63491302D01*
X169192502Y-63473588D01*
X169465437Y-63357571D01*
X169710494Y-63190536D01*
X169918256Y-62978903D01*
X170080738Y-62730804D01*
X170191696Y-62455773D01*
X170246866Y-62164380D01*
X170090586Y-61927000D01*
X168867000Y-61927000D01*
X168613000Y-61927000D01*
X168593000Y-61927000D01*
X168593000Y-61673000D01*
X168613000Y-61673000D01*
X168613000Y-60229754D01*
X168867000Y-60229754D01*
X168867000Y-61673000D01*
X170090586Y-61673000D01*
X170246866Y-61435620D01*
X170191696Y-61144227D01*
X170093166Y-60899999D01*
X174241928Y-60899999D01*
X174241928Y-62600001D01*
X174258992Y-62773255D01*
X174309528Y-62939851D01*
X174391595Y-63093387D01*
X174502038Y-63227962D01*
X174636613Y-63338405D01*
X174790149Y-63420472D01*
X174956745Y-63471008D01*
X175129999Y-63488072D01*
X176370001Y-63488072D01*
X176543255Y-63471008D01*
X176709851Y-63420472D01*
X176863387Y-63338405D01*
X176997962Y-63227962D01*
X177108405Y-63093387D01*
X177166934Y-62983886D01*
X177220655Y-63049345D01*
X177449822Y-63237417D01*
X177711276Y-63377166D01*
X177994969Y-63463224D01*
X178290000Y-63492282D01*
X178585032Y-63463224D01*
X178868725Y-63377166D01*
X179130179Y-63237417D01*
X179359345Y-63049345D01*
X179547417Y-62820179D01*
X179687166Y-62558724D01*
X179773224Y-62275031D01*
X179795000Y-62053935D01*
X179795000Y-61952492D01*
X182810188Y-61952492D01*
X182851035Y-62222238D01*
X182943723Y-62478832D01*
X183004140Y-62591863D01*
X183243007Y-62657388D01*
X184020395Y-61880000D01*
X184379605Y-61880000D01*
X185156993Y-62657388D01*
X185395860Y-62591863D01*
X185511760Y-62344884D01*
X185577250Y-62080040D01*
X185589812Y-61807508D01*
X185548965Y-61537762D01*
X185456277Y-61281168D01*
X185395860Y-61168137D01*
X185156993Y-61102612D01*
X184379605Y-61880000D01*
X184020395Y-61880000D01*
X183243007Y-61102612D01*
X183004140Y-61168137D01*
X182888240Y-61415116D01*
X182822750Y-61679960D01*
X182810188Y-61952492D01*
X179795000Y-61952492D01*
X179795000Y-61446064D01*
X179773224Y-61224968D01*
X179687166Y-60941275D01*
X179677402Y-60923007D01*
X183422612Y-60923007D01*
X184200000Y-61700395D01*
X184977388Y-60923007D01*
X184911863Y-60684140D01*
X184664884Y-60568240D01*
X184400040Y-60502750D01*
X184127508Y-60490188D01*
X183857762Y-60531035D01*
X183601168Y-60623723D01*
X183488137Y-60684140D01*
X183422612Y-60923007D01*
X179677402Y-60923007D01*
X179547417Y-60679821D01*
X179359345Y-60450655D01*
X179130178Y-60262583D01*
X178868724Y-60122834D01*
X178585031Y-60036776D01*
X178290000Y-60007718D01*
X177994968Y-60036776D01*
X177711275Y-60122834D01*
X177449821Y-60262583D01*
X177220655Y-60450655D01*
X177166935Y-60516114D01*
X177108405Y-60406613D01*
X176997962Y-60272038D01*
X176863387Y-60161595D01*
X176709851Y-60079528D01*
X176543255Y-60028992D01*
X176370001Y-60011928D01*
X175129999Y-60011928D01*
X174956745Y-60028992D01*
X174790149Y-60079528D01*
X174636613Y-60161595D01*
X174502038Y-60272038D01*
X174391595Y-60406613D01*
X174309528Y-60560149D01*
X174258992Y-60726745D01*
X174241928Y-60899999D01*
X170093166Y-60899999D01*
X170080738Y-60869196D01*
X169918256Y-60621097D01*
X169710494Y-60409464D01*
X169465437Y-60242429D01*
X169192502Y-60126412D01*
X169100031Y-60108698D01*
X168867000Y-60229754D01*
X168613000Y-60229754D01*
X168379969Y-60108698D01*
X168287498Y-60126412D01*
X168014563Y-60242429D01*
X167769506Y-60409464D01*
X167616507Y-60565314D01*
X167558405Y-60456613D01*
X167447962Y-60322038D01*
X167313387Y-60211595D01*
X167159851Y-60129528D01*
X166993255Y-60078992D01*
X166820001Y-60061928D01*
X165579999Y-60061928D01*
X165406745Y-60078992D01*
X165240149Y-60129528D01*
X165086613Y-60211595D01*
X164952038Y-60322038D01*
X164841595Y-60456613D01*
X164759528Y-60610149D01*
X164708992Y-60776745D01*
X164691928Y-60949999D01*
X154286361Y-60949999D01*
X154274533Y-60921446D01*
X153854839Y-60293330D01*
X153320670Y-59759161D01*
X152692554Y-59339467D01*
X151994628Y-59050377D01*
X151253715Y-58903000D01*
X150498285Y-58903000D01*
X150040310Y-58994097D01*
X150107896Y-58967110D01*
X150818736Y-58825498D01*
X151052827Y-58808032D01*
X151180971Y-58786549D01*
X151184244Y-58785356D01*
X190335282Y-58860991D01*
G37*
X190335282Y-58860991D02*
X190431628Y-58881440D01*
X190450114Y-58883378D01*
X191215142Y-58953448D01*
X191891794Y-59144068D01*
X192522377Y-59454806D01*
X193085771Y-59875255D01*
X193393908Y-60208399D01*
X193198670Y-60013161D01*
X192570554Y-59593467D01*
X191872628Y-59304377D01*
X191131715Y-59157000D01*
X190376285Y-59157000D01*
X189635372Y-59304377D01*
X188937446Y-59593467D01*
X188309330Y-60013161D01*
X187775161Y-60547330D01*
X187355467Y-61175446D01*
X187066377Y-61873372D01*
X186919000Y-62614285D01*
X186919000Y-63369715D01*
X187066377Y-64110628D01*
X187355467Y-64808554D01*
X187775161Y-65436670D01*
X188309330Y-65970839D01*
X188937446Y-66390533D01*
X189635372Y-66679623D01*
X190376285Y-66827000D01*
X191131715Y-66827000D01*
X191872628Y-66679623D01*
X192570554Y-66390533D01*
X193198670Y-65970839D01*
X193732839Y-65436670D01*
X194152533Y-64808554D01*
X194378089Y-64264013D01*
X194319716Y-96669182D01*
X194299290Y-96765416D01*
X194297352Y-96783903D01*
X194227282Y-97548930D01*
X194036661Y-98225584D01*
X193725925Y-98856164D01*
X193305473Y-99419561D01*
X192789395Y-99896900D01*
X192194968Y-100272201D01*
X191542101Y-100532890D01*
X190831264Y-100674502D01*
X190597173Y-100691968D01*
X190469029Y-100713451D01*
X190464777Y-100715000D01*
X150736110Y-100715000D01*
X150605071Y-100692036D01*
X150595181Y-100691355D01*
X149920243Y-100649600D01*
X149333593Y-100495257D01*
X148788095Y-100229906D01*
X148304526Y-99863654D01*
X147901305Y-99410450D01*
X147593793Y-98887564D01*
X147389968Y-98304224D01*
X147378153Y-98236316D01*
X147558411Y-98671498D01*
X147978105Y-99299614D01*
X148512274Y-99833783D01*
X149140390Y-100253477D01*
X149838316Y-100542567D01*
X150579229Y-100689944D01*
X151334659Y-100689944D01*
X152075572Y-100542567D01*
X152773498Y-100253477D01*
X153401614Y-99833783D01*
X153935783Y-99299614D01*
X154355477Y-98671498D01*
X154644567Y-97973572D01*
X154791944Y-97232659D01*
X154791944Y-96477229D01*
X154644567Y-95736316D01*
X154380194Y-95098061D01*
X164765000Y-95098061D01*
X164765000Y-95301939D01*
X164804774Y-95501898D01*
X164882795Y-95690256D01*
X164996063Y-95859774D01*
X165140226Y-96003937D01*
X165309744Y-96117205D01*
X165498102Y-96195226D01*
X165698061Y-96235000D01*
X165901939Y-96235000D01*
X166101898Y-96195226D01*
X166290256Y-96117205D01*
X166459774Y-96003937D01*
X166603937Y-95859774D01*
X166717205Y-95690256D01*
X166795226Y-95501898D01*
X166835000Y-95301939D01*
X166835000Y-95098061D01*
X166833112Y-95088570D01*
X166959774Y-95003937D01*
X167103937Y-94859774D01*
X167217205Y-94690256D01*
X167295226Y-94501898D01*
X167335000Y-94301939D01*
X167335000Y-94098061D01*
X167295226Y-93898102D01*
X167217205Y-93709744D01*
X167103937Y-93540226D01*
X166959774Y-93396063D01*
X166790256Y-93282795D01*
X166601898Y-93204774D01*
X166401939Y-93165000D01*
X166198061Y-93165000D01*
X165998102Y-93204774D01*
X165809744Y-93282795D01*
X165640226Y-93396063D01*
X165496063Y-93540226D01*
X165382795Y-93709744D01*
X165304774Y-93898102D01*
X165265000Y-94098061D01*
X165265000Y-94301939D01*
X165266888Y-94311430D01*
X165140226Y-94396063D01*
X164996063Y-94540226D01*
X164882795Y-94709744D01*
X164804774Y-94898102D01*
X164765000Y-95098061D01*
X154380194Y-95098061D01*
X154355477Y-95038390D01*
X153935783Y-94410274D01*
X153401614Y-93876105D01*
X152773498Y-93456411D01*
X152075572Y-93167321D01*
X151334659Y-93019944D01*
X150579229Y-93019944D01*
X149838316Y-93167321D01*
X149140390Y-93456411D01*
X148512274Y-93876105D01*
X147978105Y-94410274D01*
X147558411Y-95038390D01*
X147300960Y-95659934D01*
X147304158Y-92098061D01*
X160765000Y-92098061D01*
X160765000Y-92301939D01*
X160804774Y-92501898D01*
X160882795Y-92690256D01*
X160996063Y-92859774D01*
X161140226Y-93003937D01*
X161309744Y-93117205D01*
X161498102Y-93195226D01*
X161698061Y-93235000D01*
X161901939Y-93235000D01*
X162101898Y-93195226D01*
X162290256Y-93117205D01*
X162459774Y-93003937D01*
X162603937Y-92859774D01*
X162717205Y-92690256D01*
X162795226Y-92501898D01*
X162835000Y-92301939D01*
X162835000Y-92098061D01*
X162795226Y-91898102D01*
X162717205Y-91709744D01*
X162603937Y-91540226D01*
X162459774Y-91396063D01*
X162290256Y-91282795D01*
X162101898Y-91204774D01*
X161901939Y-91165000D01*
X161698061Y-91165000D01*
X161498102Y-91204774D01*
X161309744Y-91282795D01*
X161140226Y-91396063D01*
X160996063Y-91540226D01*
X160882795Y-91709744D01*
X160804774Y-91898102D01*
X160765000Y-92098061D01*
X147304158Y-92098061D01*
X147307935Y-87893137D01*
X151015000Y-87893137D01*
X151015000Y-88106863D01*
X151056696Y-88316483D01*
X151138485Y-88513940D01*
X151257225Y-88691647D01*
X151408353Y-88842775D01*
X151586060Y-88961515D01*
X151783517Y-89043304D01*
X151993137Y-89085000D01*
X152206863Y-89085000D01*
X152416483Y-89043304D01*
X152613940Y-88961515D01*
X152791647Y-88842775D01*
X152942775Y-88691647D01*
X153061515Y-88513940D01*
X153143304Y-88316483D01*
X153185000Y-88106863D01*
X153185000Y-87893137D01*
X153143304Y-87683517D01*
X153061515Y-87486060D01*
X152942775Y-87308353D01*
X152791647Y-87157225D01*
X152613940Y-87038485D01*
X152416483Y-86956696D01*
X152206863Y-86915000D01*
X151993137Y-86915000D01*
X151783517Y-86956696D01*
X151586060Y-87038485D01*
X151408353Y-87157225D01*
X151257225Y-87308353D01*
X151138485Y-87486060D01*
X151056696Y-87683517D01*
X151015000Y-87893137D01*
X147307935Y-87893137D01*
X147311886Y-83493137D01*
X151015000Y-83493137D01*
X151015000Y-83706863D01*
X151056696Y-83916483D01*
X151138485Y-84113940D01*
X151257225Y-84291647D01*
X151408353Y-84442775D01*
X151586060Y-84561515D01*
X151783517Y-84643304D01*
X151993137Y-84685000D01*
X152206863Y-84685000D01*
X152416483Y-84643304D01*
X152613940Y-84561515D01*
X152791647Y-84442775D01*
X152942775Y-84291647D01*
X153061515Y-84113940D01*
X153143304Y-83916483D01*
X153185000Y-83706863D01*
X153185000Y-83493137D01*
X153146197Y-83298061D01*
X155565000Y-83298061D01*
X155565000Y-83501939D01*
X155604774Y-83701898D01*
X155682795Y-83890256D01*
X155796063Y-84059774D01*
X155940226Y-84203937D01*
X156109744Y-84317205D01*
X156298102Y-84395226D01*
X156498061Y-84435000D01*
X156701939Y-84435000D01*
X156901898Y-84395226D01*
X157090256Y-84317205D01*
X157259774Y-84203937D01*
X157403937Y-84059774D01*
X157517205Y-83890256D01*
X157595226Y-83701898D01*
X157635000Y-83501939D01*
X157635000Y-83298061D01*
X157595226Y-83098102D01*
X157517205Y-82909744D01*
X157403937Y-82740226D01*
X157259774Y-82596063D01*
X157090256Y-82482795D01*
X156901898Y-82404774D01*
X156701939Y-82365000D01*
X156498061Y-82365000D01*
X156298102Y-82404774D01*
X156109744Y-82482795D01*
X155940226Y-82596063D01*
X155796063Y-82740226D01*
X155682795Y-82909744D01*
X155604774Y-83098102D01*
X155565000Y-83298061D01*
X153146197Y-83298061D01*
X153143304Y-83283517D01*
X153061515Y-83086060D01*
X152942775Y-82908353D01*
X152791647Y-82757225D01*
X152613940Y-82638485D01*
X152416483Y-82556696D01*
X152206863Y-82515000D01*
X151993137Y-82515000D01*
X151783517Y-82556696D01*
X151586060Y-82638485D01*
X151408353Y-82757225D01*
X151257225Y-82908353D01*
X151138485Y-83086060D01*
X151056696Y-83283517D01*
X151015000Y-83493137D01*
X147311886Y-83493137D01*
X147314935Y-80098061D01*
X159565000Y-80098061D01*
X159565000Y-80301939D01*
X159604774Y-80501898D01*
X159682795Y-80690256D01*
X159796063Y-80859774D01*
X159940226Y-81003937D01*
X160109744Y-81117205D01*
X160298102Y-81195226D01*
X160498061Y-81235000D01*
X160701939Y-81235000D01*
X160901898Y-81195226D01*
X161090256Y-81117205D01*
X161259774Y-81003937D01*
X161403937Y-80859774D01*
X161517205Y-80690256D01*
X161595226Y-80501898D01*
X161635000Y-80301939D01*
X161635000Y-80098061D01*
X161595226Y-79898102D01*
X161517205Y-79709744D01*
X161403937Y-79540226D01*
X161259774Y-79396063D01*
X161090256Y-79282795D01*
X160901898Y-79204774D01*
X160701939Y-79165000D01*
X160498061Y-79165000D01*
X160298102Y-79204774D01*
X160109744Y-79282795D01*
X159940226Y-79396063D01*
X159796063Y-79540226D01*
X159682795Y-79709744D01*
X159604774Y-79898102D01*
X159565000Y-80098061D01*
X147314935Y-80098061D01*
X147319606Y-74898061D01*
X152965000Y-74898061D01*
X152965000Y-75101939D01*
X153004774Y-75301898D01*
X153082795Y-75490256D01*
X153089306Y-75500000D01*
X153082795Y-75509744D01*
X153004774Y-75698102D01*
X152965000Y-75898061D01*
X152965000Y-76101939D01*
X153004774Y-76301898D01*
X153082795Y-76490256D01*
X153089306Y-76500000D01*
X153082795Y-76509744D01*
X153004774Y-76698102D01*
X152965000Y-76898061D01*
X152965000Y-77101939D01*
X153004774Y-77301898D01*
X153082795Y-77490256D01*
X153196063Y-77659774D01*
X153340226Y-77803937D01*
X153445000Y-77873945D01*
X153445000Y-77901939D01*
X153484774Y-78101898D01*
X153562795Y-78290256D01*
X153676063Y-78459774D01*
X153820226Y-78603937D01*
X153989744Y-78717205D01*
X154178102Y-78795226D01*
X154378061Y-78835000D01*
X154581939Y-78835000D01*
X154781898Y-78795226D01*
X154899179Y-78746646D01*
X155019744Y-78827205D01*
X155208102Y-78905226D01*
X155408061Y-78945000D01*
X155611939Y-78945000D01*
X155811898Y-78905226D01*
X156000256Y-78827205D01*
X156169774Y-78713937D01*
X156313937Y-78569774D01*
X156427205Y-78400256D01*
X156505226Y-78211898D01*
X156545000Y-78011939D01*
X156545000Y-77808061D01*
X156505226Y-77608102D01*
X156427205Y-77419744D01*
X156313937Y-77250226D01*
X156169774Y-77106063D01*
X156000256Y-76992795D01*
X155811898Y-76914774D01*
X155611939Y-76875000D01*
X155408061Y-76875000D01*
X155208102Y-76914774D01*
X155090821Y-76963354D01*
X155035000Y-76926055D01*
X155035000Y-76898061D01*
X154995226Y-76698102D01*
X154917205Y-76509744D01*
X154910694Y-76500000D01*
X154917205Y-76490256D01*
X154995226Y-76301898D01*
X155035000Y-76101939D01*
X155035000Y-75898061D01*
X154995226Y-75698102D01*
X154917205Y-75509744D01*
X154910694Y-75500000D01*
X154917205Y-75490256D01*
X154995226Y-75301898D01*
X155035000Y-75101939D01*
X155035000Y-75063945D01*
X155139774Y-74993937D01*
X155283937Y-74849774D01*
X155397205Y-74680256D01*
X155475226Y-74491898D01*
X155515000Y-74291939D01*
X155515000Y-74088061D01*
X155477207Y-73898061D01*
X160565000Y-73898061D01*
X160565000Y-74101939D01*
X160604774Y-74301898D01*
X160682795Y-74490256D01*
X160796063Y-74659774D01*
X160940226Y-74803937D01*
X161109744Y-74917205D01*
X161298102Y-74995226D01*
X161498061Y-75035000D01*
X161577544Y-75035000D01*
X161565000Y-75098061D01*
X161565000Y-75301939D01*
X161604774Y-75501898D01*
X161682795Y-75690256D01*
X161796063Y-75859774D01*
X161940226Y-76003937D01*
X162109744Y-76117205D01*
X162298102Y-76195226D01*
X162498061Y-76235000D01*
X162701939Y-76235000D01*
X162901898Y-76195226D01*
X163090256Y-76117205D01*
X163259774Y-76003937D01*
X163403937Y-75859774D01*
X163517205Y-75690256D01*
X163595226Y-75501898D01*
X163635000Y-75301939D01*
X163635000Y-75098061D01*
X163595226Y-74898102D01*
X163517205Y-74709744D01*
X163403937Y-74540226D01*
X163259774Y-74396063D01*
X163090256Y-74282795D01*
X162901898Y-74204774D01*
X162701939Y-74165000D01*
X162622456Y-74165000D01*
X162635000Y-74101939D01*
X162635000Y-73898061D01*
X162595226Y-73698102D01*
X162517205Y-73509744D01*
X162403937Y-73340226D01*
X162259774Y-73196063D01*
X162090256Y-73082795D01*
X161901898Y-73004774D01*
X161701939Y-72965000D01*
X161498061Y-72965000D01*
X161298102Y-73004774D01*
X161109744Y-73082795D01*
X160940226Y-73196063D01*
X160796063Y-73340226D01*
X160682795Y-73509744D01*
X160604774Y-73698102D01*
X160565000Y-73898061D01*
X155477207Y-73898061D01*
X155475226Y-73888102D01*
X155397205Y-73699744D01*
X155283937Y-73530226D01*
X155139774Y-73386063D01*
X154970256Y-73272795D01*
X154781898Y-73194774D01*
X154728558Y-73184164D01*
X157637784Y-73184164D01*
X157641826Y-73372827D01*
X157802974Y-73439328D01*
X157973998Y-73473113D01*
X158148328Y-73472884D01*
X158319264Y-73438649D01*
X158478174Y-73372827D01*
X158482216Y-73184164D01*
X158817784Y-73184164D01*
X158821826Y-73372827D01*
X158982974Y-73439328D01*
X159153998Y-73473113D01*
X159328328Y-73472884D01*
X159499264Y-73438649D01*
X159658174Y-73372827D01*
X159662216Y-73184164D01*
X159240000Y-72761948D01*
X158817784Y-73184164D01*
X158482216Y-73184164D01*
X158060000Y-72761948D01*
X157637784Y-73184164D01*
X154728558Y-73184164D01*
X154581939Y-73155000D01*
X154378061Y-73155000D01*
X154178102Y-73194774D01*
X153989744Y-73272795D01*
X153820226Y-73386063D01*
X153676063Y-73530226D01*
X153562795Y-73699744D01*
X153484774Y-73888102D01*
X153445000Y-74088061D01*
X153445000Y-74126055D01*
X153340226Y-74196063D01*
X153196063Y-74340226D01*
X153082795Y-74509744D01*
X153004774Y-74698102D01*
X152965000Y-74898061D01*
X147319606Y-74898061D01*
X147321758Y-72501998D01*
X157174887Y-72501998D01*
X157175116Y-72676328D01*
X157209351Y-72847264D01*
X157275173Y-73006174D01*
X157463836Y-73010216D01*
X157886052Y-72588000D01*
X157463836Y-72165784D01*
X157275173Y-72169826D01*
X157208672Y-72330974D01*
X157174887Y-72501998D01*
X147321758Y-72501998D01*
X147322215Y-71991836D01*
X157637784Y-71991836D01*
X157643948Y-71998000D01*
X157637784Y-72004164D01*
X157641826Y-72192827D01*
X157802974Y-72259328D01*
X157930460Y-72284512D01*
X158060000Y-72414052D01*
X158189392Y-72284660D01*
X158319264Y-72258649D01*
X158438982Y-72209061D01*
X158388672Y-72330974D01*
X158363488Y-72458460D01*
X158233948Y-72588000D01*
X158363340Y-72717392D01*
X158389351Y-72847264D01*
X158455173Y-73006174D01*
X158643836Y-73010216D01*
X158650000Y-73004052D01*
X158656164Y-73010216D01*
X158844827Y-73006174D01*
X158911328Y-72845026D01*
X158936512Y-72717540D01*
X159066052Y-72588000D01*
X159413948Y-72588000D01*
X159836164Y-73010216D01*
X160024827Y-73006174D01*
X160091328Y-72845026D01*
X160125113Y-72674002D01*
X160124884Y-72499672D01*
X160124562Y-72498061D01*
X180965000Y-72498061D01*
X180965000Y-72701939D01*
X181004774Y-72901898D01*
X181082795Y-73090256D01*
X181089306Y-73100000D01*
X181082795Y-73109744D01*
X181004774Y-73298102D01*
X180965000Y-73498061D01*
X180965000Y-73701939D01*
X181004774Y-73901898D01*
X181082795Y-74090256D01*
X181196063Y-74259774D01*
X181340226Y-74403937D01*
X181509744Y-74517205D01*
X181589399Y-74550199D01*
X181482795Y-74709744D01*
X181404774Y-74898102D01*
X181365000Y-75098061D01*
X181365000Y-75301939D01*
X181404774Y-75501898D01*
X181482795Y-75690256D01*
X181596063Y-75859774D01*
X181740226Y-76003937D01*
X181909744Y-76117205D01*
X182098102Y-76195226D01*
X182298061Y-76235000D01*
X182501939Y-76235000D01*
X182701898Y-76195226D01*
X182890256Y-76117205D01*
X183059774Y-76003937D01*
X183203937Y-75859774D01*
X183317205Y-75690256D01*
X183395226Y-75501898D01*
X183435000Y-75301939D01*
X183435000Y-75098061D01*
X183395226Y-74898102D01*
X183317205Y-74709744D01*
X183203937Y-74540226D01*
X183059774Y-74396063D01*
X182890256Y-74282795D01*
X182810601Y-74249801D01*
X182917205Y-74090256D01*
X182995226Y-73901898D01*
X183035000Y-73701939D01*
X183035000Y-73498061D01*
X182995226Y-73298102D01*
X182917205Y-73109744D01*
X182910694Y-73100000D01*
X182917205Y-73090256D01*
X182933854Y-73050061D01*
X188703000Y-73050061D01*
X188703000Y-73253939D01*
X188742774Y-73453898D01*
X188820795Y-73642256D01*
X188934063Y-73811774D01*
X189078226Y-73955937D01*
X189247744Y-74069205D01*
X189436102Y-74147226D01*
X189636061Y-74187000D01*
X189839939Y-74187000D01*
X190039898Y-74147226D01*
X190228256Y-74069205D01*
X190397774Y-73955937D01*
X190541937Y-73811774D01*
X190655205Y-73642256D01*
X190714932Y-73498061D01*
X190765000Y-73498061D01*
X190765000Y-73701939D01*
X190804774Y-73901898D01*
X190882795Y-74090256D01*
X190996063Y-74259774D01*
X191140226Y-74403937D01*
X191309744Y-74517205D01*
X191498102Y-74595226D01*
X191698061Y-74635000D01*
X191901939Y-74635000D01*
X192101898Y-74595226D01*
X192290256Y-74517205D01*
X192459774Y-74403937D01*
X192603937Y-74259774D01*
X192717205Y-74090256D01*
X192795226Y-73901898D01*
X192835000Y-73701939D01*
X192835000Y-73498061D01*
X192795226Y-73298102D01*
X192717205Y-73109744D01*
X192603937Y-72940226D01*
X192459774Y-72796063D01*
X192290256Y-72682795D01*
X192101898Y-72604774D01*
X191901939Y-72565000D01*
X191698061Y-72565000D01*
X191498102Y-72604774D01*
X191309744Y-72682795D01*
X191140226Y-72796063D01*
X190996063Y-72940226D01*
X190882795Y-73109744D01*
X190804774Y-73298102D01*
X190765000Y-73498061D01*
X190714932Y-73498061D01*
X190733226Y-73453898D01*
X190773000Y-73253939D01*
X190773000Y-73050061D01*
X190733226Y-72850102D01*
X190655205Y-72661744D01*
X190541937Y-72492226D01*
X190397774Y-72348063D01*
X190228256Y-72234795D01*
X190039898Y-72156774D01*
X189839939Y-72117000D01*
X189636061Y-72117000D01*
X189436102Y-72156774D01*
X189247744Y-72234795D01*
X189078226Y-72348063D01*
X188934063Y-72492226D01*
X188820795Y-72661744D01*
X188742774Y-72850102D01*
X188703000Y-73050061D01*
X182933854Y-73050061D01*
X182995226Y-72901898D01*
X183035000Y-72701939D01*
X183035000Y-72498061D01*
X182995226Y-72298102D01*
X182917205Y-72109744D01*
X182803937Y-71940226D01*
X182659774Y-71796063D01*
X182490256Y-71682795D01*
X182301898Y-71604774D01*
X182101939Y-71565000D01*
X181898061Y-71565000D01*
X181698102Y-71604774D01*
X181509744Y-71682795D01*
X181340226Y-71796063D01*
X181196063Y-71940226D01*
X181082795Y-72109744D01*
X181004774Y-72298102D01*
X180965000Y-72498061D01*
X160124562Y-72498061D01*
X160090649Y-72328736D01*
X160024827Y-72169826D01*
X159836164Y-72165784D01*
X159413948Y-72588000D01*
X159066052Y-72588000D01*
X158936660Y-72458608D01*
X158910649Y-72328736D01*
X158861061Y-72209018D01*
X158982974Y-72259328D01*
X159110460Y-72284512D01*
X159240000Y-72414052D01*
X159369392Y-72284660D01*
X159499264Y-72258649D01*
X159658174Y-72192827D01*
X159662216Y-72004164D01*
X159656052Y-71998000D01*
X159662216Y-71991836D01*
X159658174Y-71803173D01*
X159497026Y-71736672D01*
X159369540Y-71711488D01*
X159240000Y-71581948D01*
X159110608Y-71711340D01*
X158980736Y-71737351D01*
X158861018Y-71786939D01*
X158911328Y-71665026D01*
X158936512Y-71537540D01*
X159066052Y-71408000D01*
X159413948Y-71408000D01*
X159836164Y-71830216D01*
X160024827Y-71826174D01*
X160091328Y-71665026D01*
X160125113Y-71494002D01*
X160124884Y-71319672D01*
X160090649Y-71148736D01*
X160024827Y-70989826D01*
X159836164Y-70985784D01*
X159413948Y-71408000D01*
X159066052Y-71408000D01*
X158936660Y-71278608D01*
X158910649Y-71148736D01*
X158844827Y-70989826D01*
X158656164Y-70985784D01*
X158650000Y-70991948D01*
X158643836Y-70985784D01*
X158455173Y-70989826D01*
X158388672Y-71150974D01*
X158363488Y-71278460D01*
X158233948Y-71408000D01*
X158363340Y-71537392D01*
X158389351Y-71667264D01*
X158438939Y-71786982D01*
X158317026Y-71736672D01*
X158189540Y-71711488D01*
X158060000Y-71581948D01*
X157930608Y-71711340D01*
X157800736Y-71737351D01*
X157641826Y-71803173D01*
X157637784Y-71991836D01*
X147322215Y-71991836D01*
X147322817Y-71321998D01*
X157174887Y-71321998D01*
X157175116Y-71496328D01*
X157209351Y-71667264D01*
X157275173Y-71826174D01*
X157463836Y-71830216D01*
X157886052Y-71408000D01*
X157463836Y-70985784D01*
X157275173Y-70989826D01*
X157208672Y-71150974D01*
X157174887Y-71321998D01*
X147322817Y-71321998D01*
X147323275Y-70811836D01*
X157637784Y-70811836D01*
X158060000Y-71234052D01*
X158482216Y-70811836D01*
X158817784Y-70811836D01*
X159240000Y-71234052D01*
X159662216Y-70811836D01*
X159658174Y-70623173D01*
X159497026Y-70556672D01*
X159326002Y-70522887D01*
X159151672Y-70523116D01*
X158980736Y-70557351D01*
X158821826Y-70623173D01*
X158817784Y-70811836D01*
X158482216Y-70811836D01*
X158478174Y-70623173D01*
X158317026Y-70556672D01*
X158146002Y-70522887D01*
X157971672Y-70523116D01*
X157800736Y-70557351D01*
X157641826Y-70623173D01*
X157637784Y-70811836D01*
X147323275Y-70811836D01*
X147325127Y-68750000D01*
X182811928Y-68750000D01*
X182811928Y-70250000D01*
X182824188Y-70374482D01*
X182860498Y-70494180D01*
X182919463Y-70604494D01*
X182998815Y-70701185D01*
X183095506Y-70780537D01*
X183205820Y-70839502D01*
X183325518Y-70875812D01*
X183450000Y-70888072D01*
X184950000Y-70888072D01*
X185074482Y-70875812D01*
X185194180Y-70839502D01*
X185304494Y-70780537D01*
X185401185Y-70701185D01*
X185480537Y-70604494D01*
X185539502Y-70494180D01*
X185575812Y-70374482D01*
X185588072Y-70250000D01*
X185588072Y-68750000D01*
X185575812Y-68625518D01*
X185539502Y-68505820D01*
X185480537Y-68395506D01*
X185401185Y-68298815D01*
X185304494Y-68219463D01*
X185194180Y-68160498D01*
X185074482Y-68124188D01*
X184966517Y-68113555D01*
X185082886Y-68035799D01*
X185275799Y-67842886D01*
X185427371Y-67616043D01*
X185531775Y-67363989D01*
X185585000Y-67096411D01*
X185585000Y-66823589D01*
X185531775Y-66556011D01*
X185427371Y-66303957D01*
X185275799Y-66077114D01*
X185082886Y-65884201D01*
X184856043Y-65732629D01*
X184753127Y-65690000D01*
X184856043Y-65647371D01*
X185082886Y-65495799D01*
X185275799Y-65302886D01*
X185427371Y-65076043D01*
X185531775Y-64823989D01*
X185585000Y-64556411D01*
X185585000Y-64283589D01*
X185531775Y-64016011D01*
X185427371Y-63763957D01*
X185275799Y-63537114D01*
X185082886Y-63344201D01*
X184856043Y-63192629D01*
X184756721Y-63151489D01*
X184798832Y-63136277D01*
X184911863Y-63075860D01*
X184977388Y-62836993D01*
X184200000Y-62059605D01*
X183422612Y-62836993D01*
X183488137Y-63075860D01*
X183646477Y-63150164D01*
X183543957Y-63192629D01*
X183317114Y-63344201D01*
X183124201Y-63537114D01*
X182972629Y-63763957D01*
X182868225Y-64016011D01*
X182815000Y-64283589D01*
X182815000Y-64556411D01*
X182868225Y-64823989D01*
X182972629Y-65076043D01*
X183124201Y-65302886D01*
X183317114Y-65495799D01*
X183543957Y-65647371D01*
X183646873Y-65690000D01*
X183543957Y-65732629D01*
X183317114Y-65884201D01*
X183124201Y-66077114D01*
X182972629Y-66303957D01*
X182868225Y-66556011D01*
X182815000Y-66823589D01*
X182815000Y-67096411D01*
X182868225Y-67363989D01*
X182972629Y-67616043D01*
X183124201Y-67842886D01*
X183317114Y-68035799D01*
X183433483Y-68113555D01*
X183325518Y-68124188D01*
X183205820Y-68160498D01*
X183095506Y-68219463D01*
X182998815Y-68298815D01*
X182919463Y-68395506D01*
X182860498Y-68505820D01*
X182824188Y-68625518D01*
X182811928Y-68750000D01*
X147325127Y-68750000D01*
X147329218Y-64196650D01*
X147477467Y-64554554D01*
X147897161Y-65182670D01*
X148431330Y-65716839D01*
X149059446Y-66136533D01*
X149757372Y-66425623D01*
X150498285Y-66573000D01*
X151253715Y-66573000D01*
X151994628Y-66425623D01*
X152692554Y-66136533D01*
X153320670Y-65716839D01*
X153854839Y-65182670D01*
X154274533Y-64554554D01*
X154563623Y-63856628D01*
X154711000Y-63115715D01*
X154711000Y-62360285D01*
X154563623Y-61619372D01*
X154286361Y-60949999D01*
X164691928Y-60949999D01*
X164691928Y-62650001D01*
X164708992Y-62823255D01*
X164759528Y-62989851D01*
X164841595Y-63143387D01*
X164952038Y-63277962D01*
X165086613Y-63388405D01*
X165240149Y-63470472D01*
X165406745Y-63521008D01*
X165579999Y-63538072D01*
X166820001Y-63538072D01*
X166993255Y-63521008D01*
X167159851Y-63470472D01*
X167313387Y-63388405D01*
X167447962Y-63277962D01*
X167558405Y-63143387D01*
X167616507Y-63034686D01*
X167769506Y-63190536D01*
X168014563Y-63357571D01*
X168287498Y-63473588D01*
X168379969Y-63491302D01*
X168613000Y-63370246D01*
X168613000Y-61927000D01*
X168867000Y-61927000D01*
X168867000Y-63370246D01*
X169100031Y-63491302D01*
X169192502Y-63473588D01*
X169465437Y-63357571D01*
X169710494Y-63190536D01*
X169918256Y-62978903D01*
X170080738Y-62730804D01*
X170191696Y-62455773D01*
X170246866Y-62164380D01*
X170090586Y-61927000D01*
X168867000Y-61927000D01*
X168613000Y-61927000D01*
X168593000Y-61927000D01*
X168593000Y-61673000D01*
X168613000Y-61673000D01*
X168613000Y-60229754D01*
X168867000Y-60229754D01*
X168867000Y-61673000D01*
X170090586Y-61673000D01*
X170246866Y-61435620D01*
X170191696Y-61144227D01*
X170093166Y-60899999D01*
X174241928Y-60899999D01*
X174241928Y-62600001D01*
X174258992Y-62773255D01*
X174309528Y-62939851D01*
X174391595Y-63093387D01*
X174502038Y-63227962D01*
X174636613Y-63338405D01*
X174790149Y-63420472D01*
X174956745Y-63471008D01*
X175129999Y-63488072D01*
X176370001Y-63488072D01*
X176543255Y-63471008D01*
X176709851Y-63420472D01*
X176863387Y-63338405D01*
X176997962Y-63227962D01*
X177108405Y-63093387D01*
X177166934Y-62983886D01*
X177220655Y-63049345D01*
X177449822Y-63237417D01*
X177711276Y-63377166D01*
X177994969Y-63463224D01*
X178290000Y-63492282D01*
X178585032Y-63463224D01*
X178868725Y-63377166D01*
X179130179Y-63237417D01*
X179359345Y-63049345D01*
X179547417Y-62820179D01*
X179687166Y-62558724D01*
X179773224Y-62275031D01*
X179795000Y-62053935D01*
X179795000Y-61952492D01*
X182810188Y-61952492D01*
X182851035Y-62222238D01*
X182943723Y-62478832D01*
X183004140Y-62591863D01*
X183243007Y-62657388D01*
X184020395Y-61880000D01*
X184379605Y-61880000D01*
X185156993Y-62657388D01*
X185395860Y-62591863D01*
X185511760Y-62344884D01*
X185577250Y-62080040D01*
X185589812Y-61807508D01*
X185548965Y-61537762D01*
X185456277Y-61281168D01*
X185395860Y-61168137D01*
X185156993Y-61102612D01*
X184379605Y-61880000D01*
X184020395Y-61880000D01*
X183243007Y-61102612D01*
X183004140Y-61168137D01*
X182888240Y-61415116D01*
X182822750Y-61679960D01*
X182810188Y-61952492D01*
X179795000Y-61952492D01*
X179795000Y-61446064D01*
X179773224Y-61224968D01*
X179687166Y-60941275D01*
X179677402Y-60923007D01*
X183422612Y-60923007D01*
X184200000Y-61700395D01*
X184977388Y-60923007D01*
X184911863Y-60684140D01*
X184664884Y-60568240D01*
X184400040Y-60502750D01*
X184127508Y-60490188D01*
X183857762Y-60531035D01*
X183601168Y-60623723D01*
X183488137Y-60684140D01*
X183422612Y-60923007D01*
X179677402Y-60923007D01*
X179547417Y-60679821D01*
X179359345Y-60450655D01*
X179130178Y-60262583D01*
X178868724Y-60122834D01*
X178585031Y-60036776D01*
X178290000Y-60007718D01*
X177994968Y-60036776D01*
X177711275Y-60122834D01*
X177449821Y-60262583D01*
X177220655Y-60450655D01*
X177166935Y-60516114D01*
X177108405Y-60406613D01*
X176997962Y-60272038D01*
X176863387Y-60161595D01*
X176709851Y-60079528D01*
X176543255Y-60028992D01*
X176370001Y-60011928D01*
X175129999Y-60011928D01*
X174956745Y-60028992D01*
X174790149Y-60079528D01*
X174636613Y-60161595D01*
X174502038Y-60272038D01*
X174391595Y-60406613D01*
X174309528Y-60560149D01*
X174258992Y-60726745D01*
X174241928Y-60899999D01*
X170093166Y-60899999D01*
X170080738Y-60869196D01*
X169918256Y-60621097D01*
X169710494Y-60409464D01*
X169465437Y-60242429D01*
X169192502Y-60126412D01*
X169100031Y-60108698D01*
X168867000Y-60229754D01*
X168613000Y-60229754D01*
X168379969Y-60108698D01*
X168287498Y-60126412D01*
X168014563Y-60242429D01*
X167769506Y-60409464D01*
X167616507Y-60565314D01*
X167558405Y-60456613D01*
X167447962Y-60322038D01*
X167313387Y-60211595D01*
X167159851Y-60129528D01*
X166993255Y-60078992D01*
X166820001Y-60061928D01*
X165579999Y-60061928D01*
X165406745Y-60078992D01*
X165240149Y-60129528D01*
X165086613Y-60211595D01*
X164952038Y-60322038D01*
X164841595Y-60456613D01*
X164759528Y-60610149D01*
X164708992Y-60776745D01*
X164691928Y-60949999D01*
X154286361Y-60949999D01*
X154274533Y-60921446D01*
X153854839Y-60293330D01*
X153320670Y-59759161D01*
X152692554Y-59339467D01*
X151994628Y-59050377D01*
X151253715Y-58903000D01*
X150498285Y-58903000D01*
X150040310Y-58994097D01*
X150107896Y-58967110D01*
X150818736Y-58825498D01*
X151052827Y-58808032D01*
X151180971Y-58786549D01*
X151184244Y-58785356D01*
X190335282Y-58860991D01*
M02*
